<svg width="113" height="63" viewBox="0 0 113 63" fill="none" xmlns="http://www.w3.org/2000/svg">
<path d="M38.192 13.84C38.192 16.3333 37.312 18.4893 35.552 20.308C33.792 22.0973 31.2253 23.388 27.852 24.18C29.6707 24.6787 31.0493 25.5 31.988 26.644C32.9267 27.7587 33.396 29.0493 33.396 30.516C33.396 32.8333 32.6627 34.8427 31.196 36.544C29.7587 38.2453 27.6467 39.5653 24.86 40.504C22.0733 41.4133 18.7147 41.868 14.784 41.868C13.3173 41.868 12.144 41.824 11.264 41.736C11.2347 42.5573 10.8827 43.1733 10.208 43.584C9.53333 43.9947 8.668 44.2 7.612 44.2C6.556 44.2 5.82267 43.9653 5.412 43.496C5.03067 43.0267 4.86933 42.3373 4.928 41.428C5.192 37.3213 5.70533 33.024 6.468 28.536C7.23067 24.0187 8.19867 19.6627 9.372 15.468C9.57733 14.7347 9.988 14.2213 10.604 13.928C11.22 13.6347 12.0267 13.488 13.024 13.488C14.8133 13.488 15.708 13.9867 15.708 14.984C15.708 15.3947 15.62 15.864 15.444 16.392C14.6813 18.68 13.9187 21.7893 13.156 25.72C12.3933 29.6213 11.8507 33.3467 11.528 36.896C12.936 37.0133 14.08 37.072 14.96 37.072C19.0667 37.072 22.0733 36.4853 23.98 35.312C25.916 34.1093 26.884 32.584 26.884 30.736C26.884 29.4453 26.3267 28.36 25.212 27.48C24.1267 26.6 22.2933 26.116 19.712 26.028C19.1253 25.9987 18.7147 25.852 18.48 25.588C18.2453 25.324 18.128 24.8987 18.128 24.312C18.128 23.4613 18.304 22.772 18.656 22.244C19.008 21.716 19.6533 21.4373 20.592 21.408C22.6747 21.3493 24.552 21.0413 26.224 20.484C27.9253 19.9267 29.26 19.1493 30.228 18.152C31.196 17.1253 31.68 15.9373 31.68 14.588C31.68 12.8867 30.844 11.552 29.172 10.584C27.5 9.58667 24.9333 9.088 21.472 9.088C18.3333 9.088 15.2973 9.49867 12.364 10.32C9.43067 11.112 6.93733 12.124 4.884 13.356C3.94533 13.9133 3.15333 14.192 2.508 14.192C1.98 14.192 1.56933 14.016 1.276 13.664C1.012 13.2827 0.88 12.8133 0.88 12.256C0.88 11.5227 1.02667 10.892 1.32 10.364C1.64267 9.836 2.39067 9.23466 3.564 8.56C6.028 7.152 8.91733 6.052 12.232 5.26C15.5467 4.468 18.9347 4.072 22.396 4.072C27.7053 4.072 31.6653 4.96666 34.276 6.756C36.8867 8.54533 38.192 10.9067 38.192 13.84ZM42.1568 42.22C40.3381 42.22 38.8861 41.56 37.8008 40.24C36.7155 38.92 36.1728 37.1893 36.1728 35.048C36.1728 32.7013 36.7155 30.4867 37.8008 28.404C38.8861 26.292 40.3235 24.6053 42.1128 23.344C43.9315 22.0533 45.8528 21.408 47.8768 21.408C48.5221 21.408 48.9475 21.54 49.1528 21.804C49.3875 22.0387 49.5781 22.4787 49.7248 23.124C50.3408 23.0067 50.9861 22.948 51.6608 22.948C53.0981 22.948 53.8168 23.4613 53.8168 24.488C53.8168 25.104 53.5968 26.5707 53.1568 28.888C52.4821 32.2613 52.1448 34.608 52.1448 35.928C52.1448 36.368 52.2475 36.72 52.4528 36.984C52.6875 37.248 52.9808 37.38 53.3328 37.38C53.8901 37.38 54.5648 37.028 55.3568 36.324C56.1488 35.5907 57.2195 34.4173 58.5688 32.804C58.9208 32.3933 59.3168 32.188 59.7568 32.188C60.1381 32.188 60.4315 32.364 60.6368 32.716C60.8715 33.068 60.9888 33.552 60.9888 34.168C60.9888 35.3413 60.7101 36.2507 60.1528 36.896C58.9501 38.392 57.6741 39.6533 56.3248 40.68C54.9755 41.7067 53.6701 42.22 52.4088 42.22C51.4408 42.22 50.5461 41.8973 49.7248 41.252C48.9328 40.5773 48.3315 39.668 47.9208 38.524C46.3955 40.988 44.4741 42.22 42.1568 42.22ZM43.7408 37.776C44.3861 37.776 45.0021 37.3947 45.5888 36.632C46.1755 35.8693 46.6008 34.8573 46.8648 33.596L48.4928 25.5C47.2608 25.5293 46.1168 25.9987 45.0608 26.908C44.0341 27.788 43.2128 28.9613 42.5968 30.428C41.9808 31.8947 41.6728 33.4493 41.6728 35.092C41.6728 36.0013 41.8488 36.676 42.2008 37.116C42.5821 37.556 43.0955 37.776 43.7408 37.776ZM79.9408 32.276C80.3221 32.276 80.6154 32.4667 80.8208 32.848C81.0554 33.2 81.1728 33.6547 81.1728 34.212C81.1728 34.8867 81.0701 35.4147 80.8648 35.796C80.6594 36.1773 80.3368 36.5147 79.8968 36.808C77.3741 38.5093 75.5261 39.7707 74.3528 40.592L71.5368 42.484C70.4221 48.556 68.9554 53.3227 67.1368 56.784C65.3474 60.2747 63.0594 62.02 60.2728 62.02C58.7768 62.02 57.5594 61.5507 56.6208 60.612C55.6821 59.7027 55.2128 58.5 55.2128 57.004C55.2128 54.9213 56.0341 52.6773 57.6768 50.272C59.3194 47.896 62.3994 44.9627 66.9168 41.472L67.1808 39.756C66.6821 40.548 66.0221 41.164 65.2008 41.604C64.4088 42.0147 63.6168 42.22 62.8248 42.22C61.0061 42.22 59.5541 41.56 58.4688 40.24C57.3834 38.92 56.8408 37.1893 56.8408 35.048C56.8408 32.7013 57.3834 30.4867 58.4688 28.404C59.5541 26.292 60.9914 24.6053 62.7808 23.344C64.5994 22.0533 66.5208 21.408 68.5448 21.408C69.1901 21.408 69.6154 21.54 69.8208 21.804C70.0554 22.0387 70.2461 22.4787 70.3928 23.124C70.9501 23.0067 71.5954 22.948 72.3288 22.948C73.0621 22.948 73.5754 23.0653 73.8688 23.3C74.1914 23.5053 74.3528 23.9307 74.3528 24.576C74.3528 24.928 74.3381 25.2067 74.3088 25.412C74.1914 26.3213 73.8248 28.624 73.2088 32.32C73.0914 33.024 72.9594 33.8013 72.8128 34.652C72.6954 35.4733 72.5634 36.3533 72.4168 37.292C74.6754 35.532 76.8461 33.9773 78.9288 32.628C79.3101 32.3933 79.6474 32.276 79.9408 32.276ZM64.4088 37.776C65.0834 37.776 65.7288 37.3653 66.3448 36.544C66.9608 35.7227 67.4008 34.5493 67.6648 33.024L69.0728 25.5C67.8701 25.5293 66.7554 25.9987 65.7288 26.908C64.7021 27.788 63.8808 28.9613 63.2648 30.428C62.6488 31.8947 62.3408 33.4493 62.3408 35.092C62.3408 36.0013 62.5168 36.676 62.8688 37.116C63.2501 37.556 63.7634 37.776 64.4088 37.776ZM60.7568 57.752C61.4901 57.752 62.3114 56.872 63.2208 55.112C64.1594 53.352 65.0541 50.5507 65.9048 46.708C63.6461 48.644 62.0181 50.3893 61.0208 51.944C60.0234 53.4987 59.5248 54.8627 59.5248 56.036C59.5248 56.5347 59.6128 56.9453 59.7888 57.268C59.9941 57.5907 60.3168 57.752 60.7568 57.752ZM98.0915 32.188C98.4728 32.188 98.7661 32.364 98.9715 32.716C99.2061 33.068 99.3235 33.552 99.3235 34.168C99.3235 35.3413 99.0448 36.2507 98.4875 36.896C97.4021 38.216 95.8621 39.4333 93.8675 40.548C91.9021 41.6627 89.7901 42.22 87.5315 42.22C84.4515 42.22 82.0608 41.384 80.3595 39.712C78.6581 38.04 77.8075 35.752 77.8075 32.848C77.8075 30.824 78.2328 28.9467 79.0835 27.216C79.9341 25.456 81.1075 24.0627 82.6035 23.036C84.1288 22.0093 85.8448 21.496 87.7515 21.496C89.4528 21.496 90.8168 22.0093 91.8435 23.036C92.8701 24.0333 93.3835 25.3973 93.3835 27.128C93.3835 29.152 92.6501 30.8973 91.1835 32.364C89.7461 33.8013 87.2968 34.9453 83.8355 35.796C84.5688 37.1453 85.9621 37.82 88.0155 37.82C89.3355 37.82 90.8315 37.3653 92.5035 36.456C94.2048 35.5173 95.6715 34.3 96.9035 32.804C97.2555 32.3933 97.6515 32.188 98.0915 32.188ZM87.0035 25.808C85.9181 25.808 84.9941 26.4387 84.2315 27.7C83.4981 28.9613 83.1315 30.4867 83.1315 32.276V32.364C84.8621 31.9533 86.2261 31.3373 87.2235 30.516C88.2208 29.6947 88.7195 28.7413 88.7195 27.656C88.7195 27.0987 88.5581 26.6587 88.2355 26.336C87.9421 25.984 87.5315 25.808 87.0035 25.808ZM108.457 35.796C108.78 35.5027 109.102 35.356 109.425 35.356C109.777 35.356 110.056 35.5613 110.261 35.972C110.496 36.3533 110.613 36.8227 110.613 37.38C110.613 38.612 110.173 39.5947 109.293 40.328C107.768 41.5893 106.037 42.22 104.101 42.22C101.314 42.22 99.2756 41.0613 97.9849 38.744C96.6942 36.3973 96.0489 33.3467 96.0489 29.592C96.0489 26.0133 96.5036 21.936 97.4129 17.36C98.3516 12.784 99.7156 8.85333 101.505 5.568C103.324 2.28266 105.48 0.639997 107.973 0.639997C109.381 0.639997 110.481 1.3 111.273 2.62C112.094 3.91067 112.505 5.77333 112.505 8.208C112.505 11.6987 111.537 15.7467 109.601 20.352C107.694 24.9573 105.084 29.504 101.769 33.992C101.974 35.1947 102.341 36.06 102.869 36.588C103.397 37.116 104.116 37.38 105.025 37.38C105.524 37.38 106.081 37.2333 106.697 36.94C107.342 36.6467 107.929 36.2653 108.457 35.796ZM107.005 4.996C106.33 4.996 105.568 6.21333 104.717 8.648C103.866 11.0827 103.118 14.104 102.473 17.712C101.828 21.32 101.476 24.7813 101.417 28.096C103.5 24.664 105.157 21.232 106.389 17.8C107.621 14.3387 108.237 11.1853 108.237 8.34C108.237 6.11067 107.826 4.996 107.005 4.996Z" fill="black"/>
</svg>
