<svg width="880" height="301" viewBox="0 0 880 301" fill="none" xmlns="http://www.w3.org/2000/svg">
<g clip-path="url(#clip0_327_2268)">
<path d="M347.047 252.804V300.064H374.06V292.187H356.614V279.622H372.372V271.745H356.614V260.68H373.498V252.804L347.047 252.804ZM379.125 300.064H388.317V276.622C388.317 274.559 388.693 273.058 389.63 271.933C390.381 270.995 391.506 270.62 393.007 270.62C394.32 270.62 395.258 270.996 395.821 271.746C396.384 272.496 396.571 273.621 396.571 275.121V300.064H405.763V276.622C405.763 274.559 406.138 273.059 407.076 271.933C407.827 270.996 409.14 270.621 410.453 270.621C411.766 270.621 412.704 270.996 413.267 271.746C413.83 272.496 414.017 273.621 414.017 275.122V300.064H423.209V274.184C423.209 270.808 422.459 268.182 421.146 266.307C419.645 264.432 417.394 263.494 414.392 263.494C412.141 263.494 410.265 264.057 408.765 264.994C407.264 265.932 406.138 267.245 405.388 269.308H405.2C404.825 267.432 403.7 265.932 402.386 264.994C400.886 264.057 399.197 263.494 396.946 263.494C395.07 263.494 393.382 263.869 391.881 264.619C390.38 265.369 389.255 266.495 387.942 268.182V264.432H379.125L379.125 300.064ZM429.588 300.064H438.405V296.313H438.592C439.53 298.001 440.656 299.126 441.969 299.876C443.282 300.626 444.783 301.002 446.659 301.002C450.411 301.002 453.037 299.501 454.913 296.501C456.601 293.688 457.539 288.811 457.539 282.248C457.539 275.684 456.601 270.808 454.913 267.995C453.037 264.994 450.411 263.494 446.659 263.494C444.97 263.494 443.47 263.869 442.156 264.619C441.031 265.369 439.905 266.307 438.967 267.807H438.78V252.804H429.588L429.588 300.064ZM439.718 273.433C440.281 271.558 441.594 270.62 443.657 270.62C445.533 270.62 446.846 271.558 447.409 273.433C448.159 275.496 448.347 278.309 448.347 282.248C448.347 286.186 448.16 288.999 447.409 291.062C446.846 292.938 445.533 294.063 443.657 294.063C441.594 294.063 440.281 292.938 439.718 291.062C439.155 289 438.78 286.186 438.78 282.248C438.78 278.31 439.155 275.496 439.718 273.433ZM489.242 283.748V281.685C489.242 278.872 489.054 276.434 488.679 274.184C488.304 271.933 487.741 270.058 486.803 268.557C485.678 266.869 484.365 265.744 482.676 264.807C480.988 264.056 478.924 263.494 476.11 263.494C473.109 263.494 470.67 264.056 468.794 264.994C466.918 266.119 465.417 267.432 464.479 269.12C463.541 270.808 462.791 272.871 462.604 275.121C462.228 277.184 462.041 279.622 462.041 281.873C462.041 284.123 462.041 286.374 462.416 288.624C462.604 290.875 462.979 292.938 463.917 294.813C464.855 296.688 466.168 298.189 468.044 299.314C469.92 300.439 472.546 301.002 475.735 301.002C480.238 301.002 483.427 299.877 485.303 297.626C487.366 295.376 488.492 292.187 488.679 288.062H480.426C480.238 290.312 479.675 292 479.112 293.125C478.362 294.25 477.236 294.813 475.736 294.813C474.798 294.813 474.047 294.625 473.485 294.063C472.922 293.688 472.547 292.938 472.171 292.187C471.796 291.437 471.609 290.5 471.421 289.562C471.234 288.624 471.234 287.499 471.234 286.561V283.748L489.242 283.748ZM471.233 278.309V276.809C471.233 276.059 471.233 275.121 471.42 274.371C471.608 273.433 471.796 272.683 472.171 272.12C472.546 271.37 472.921 270.807 473.671 270.432C474.234 270.057 474.985 269.682 475.923 269.682C476.861 269.682 477.611 269.87 478.174 270.245C478.736 270.62 479.299 271.182 479.487 271.933C479.862 272.683 480.05 273.621 480.237 274.558C480.425 275.683 480.425 276.809 480.425 278.309H471.233ZM512.691 300.063H521.508V252.804H512.316V267.807C511.19 266.306 510.252 265.369 508.939 264.618C507.814 263.868 506.313 263.493 504.625 263.493C500.873 263.493 498.059 264.993 496.371 267.994C494.495 270.807 493.557 275.683 493.557 282.247C493.557 288.811 494.495 293.687 496.371 296.5C498.059 299.501 500.873 301.001 504.625 301.001C506.501 301.001 508.001 300.626 509.127 299.876C510.44 299.125 511.566 298 512.691 296.312L512.691 300.063ZM503.686 273.433C504.249 271.557 505.562 270.62 507.438 270.62C509.502 270.62 510.815 271.557 511.377 273.433C512.128 275.496 512.315 278.309 512.315 282.247C512.315 286.186 512.128 288.999 511.377 291.062C510.815 292.937 509.502 294.063 507.438 294.063C505.562 294.063 504.249 292.937 503.686 291.062C503.123 288.999 502.748 286.186 502.748 282.247C502.748 278.309 503.124 275.496 503.686 273.433ZM546.27 300.063H555.087V252.804H545.895V267.807H545.707C544.769 266.306 543.644 265.369 542.518 264.618C541.205 263.868 539.704 263.493 538.016 263.493C534.264 263.493 531.638 264.993 529.762 267.994C528.073 270.807 527.136 275.683 527.136 282.247C527.136 288.811 528.073 293.687 529.762 296.5C531.638 299.501 534.264 301.001 538.016 301.001C539.892 301.001 541.393 300.626 542.706 299.876C544.019 299.125 545.145 298 546.083 296.312H546.27L546.27 300.063ZM537.265 273.433C537.828 271.557 539.141 270.62 541.017 270.62C543.08 270.62 544.394 271.557 544.956 273.433C545.519 275.496 545.894 278.309 545.894 282.247C545.894 286.186 545.519 288.999 544.956 291.062C544.394 292.937 543.08 294.063 541.017 294.063C539.141 294.063 537.828 292.937 537.265 291.062C536.515 288.999 536.327 286.186 536.327 282.247C536.327 278.309 536.515 275.496 537.265 273.433ZM587.54 283.747V281.684C587.54 278.871 587.353 276.433 587.165 274.183C586.789 271.932 586.039 270.057 585.101 268.557C584.163 266.869 582.85 265.744 581.162 264.806C579.473 264.056 577.222 263.493 574.596 263.493C571.407 263.493 568.968 264.056 567.092 264.994C565.404 266.119 563.903 267.432 562.965 269.119C561.84 270.807 561.277 272.87 560.902 275.121C560.526 277.184 560.339 279.622 560.339 281.872C560.339 284.123 560.526 286.373 560.714 288.624C560.902 290.874 561.465 292.937 562.403 294.813C563.153 296.688 564.654 298.188 566.53 299.313C568.218 300.439 570.844 301.001 574.221 301.001C578.536 301.001 581.725 299.876 583.788 297.626C585.852 295.375 586.977 292.187 587.165 288.061H578.911C578.536 290.312 578.161 291.999 577.411 293.125C576.66 294.25 575.535 294.812 574.034 294.812C573.284 294.812 572.533 294.625 571.97 294.062C571.408 293.687 570.845 292.937 570.47 292.187C570.094 291.437 569.907 290.499 569.719 289.561C569.532 288.624 569.532 287.499 569.532 286.561V283.748L587.54 283.747ZM569.531 278.308V276.808C569.531 276.058 569.531 275.12 569.718 274.37C569.906 273.433 570.094 272.682 570.469 272.12C570.844 271.37 571.407 270.807 571.97 270.432C572.532 270.057 573.283 269.682 574.221 269.682C575.159 269.682 575.909 269.869 576.472 270.244C577.222 270.619 577.597 271.182 577.972 271.932C578.16 272.682 578.535 273.62 578.535 274.558C578.723 275.683 578.911 276.808 578.911 278.308H569.531ZM611.177 300.063H619.806V252.803H610.801V267.806H610.614C609.676 266.306 608.551 265.368 607.425 264.618C606.112 263.868 604.611 263.493 602.923 263.493C599.171 263.493 596.357 264.993 594.669 267.994C592.981 270.807 592.043 275.683 592.043 282.246C592.043 288.811 592.981 293.686 594.669 296.499C596.357 299.5 599.171 301 602.923 301C604.799 301 606.299 300.625 607.613 299.875C608.926 299.125 610.051 298 610.989 296.312H611.177L611.177 300.063ZM601.985 273.432C602.548 271.557 603.861 270.619 605.924 270.619C607.988 270.619 609.301 271.557 609.864 273.432C610.426 275.495 610.802 278.308 610.802 282.247C610.802 286.185 610.426 288.998 609.864 291.061C609.301 292.937 607.988 294.062 605.924 294.062C603.861 294.062 602.548 292.937 601.985 291.061C601.422 288.998 601.235 286.185 601.235 282.247C601.235 278.309 601.422 275.495 601.985 273.432ZM640.253 285.247V287.31C640.253 291.624 641.379 295 643.818 297.437C646.069 299.875 649.821 301.001 655.261 301.001C660.513 301.001 664.453 299.875 667.455 297.437C670.268 295.187 671.769 291.436 671.769 286.56C671.769 285.06 671.582 283.747 671.206 282.622C671.019 281.309 670.644 280.184 669.893 279.246C669.143 278.309 668.205 277.371 667.079 276.433C665.954 275.683 664.453 274.745 662.765 273.995L655.261 270.807C653.385 270.057 652.072 269.119 651.322 267.994C650.759 267.056 650.384 265.931 650.384 264.431C650.384 263.68 650.571 262.93 650.759 262.368C650.759 261.618 651.134 261.055 651.51 260.68C651.885 260.117 652.447 259.742 653.198 259.367C653.948 258.992 654.886 258.992 655.824 258.992C657.7 258.992 659.013 259.555 659.951 260.68C660.701 261.993 661.077 263.68 661.077 265.931H670.269V264.618C670.269 262.368 669.893 260.492 669.143 258.805C668.393 257.117 667.267 255.804 665.954 254.866C664.828 253.741 663.14 252.991 661.452 252.616C659.576 252.053 657.7 251.866 655.637 251.866C650.947 251.866 647.383 252.991 644.756 255.429C642.13 257.679 641.004 261.055 641.004 265.743C641.004 267.806 641.192 269.494 641.567 270.994C642.13 272.307 642.88 273.62 644.006 274.745C644.944 275.871 646.257 276.996 647.758 277.746C649.258 278.684 651.134 279.434 653.386 279.996C654.886 280.559 656.199 281.122 657.325 281.684C658.451 282.059 659.201 282.622 659.951 283.372C660.514 283.935 661.077 284.685 661.264 285.435C661.64 286.185 661.827 287.123 661.827 288.061C661.827 290.123 661.264 291.624 659.951 292.561C658.826 293.499 657.513 294.062 656.012 294.062C654.886 294.062 653.761 293.874 653.01 293.499C652.26 293.124 651.51 292.561 651.134 291.999C650.572 291.436 650.196 290.686 650.009 289.748C649.821 288.811 649.821 287.873 649.821 286.748V285.247L640.253 285.247ZM676.646 290.498C677.022 292.749 677.772 294.812 678.897 296.312C679.835 298 681.336 299.125 683.212 299.875C684.9 300.625 687.151 301 689.965 301C692.592 301 694.843 300.625 696.531 299.688C698.407 298.938 699.72 297.812 700.846 296.124C701.971 294.624 702.722 292.749 703.285 290.311C703.66 288.06 704.035 285.247 704.035 282.247C704.035 279.246 703.848 276.433 703.285 274.183C702.909 271.745 702.159 269.682 701.034 268.181C700.096 266.493 698.595 265.368 696.719 264.618C695.031 263.868 692.779 263.493 689.966 263.493C687.339 263.493 685.088 263.868 683.4 264.806C681.524 265.556 680.211 266.681 679.085 268.369C677.959 269.869 677.209 271.932 676.646 274.182C676.084 276.62 675.896 279.246 675.896 282.246C675.896 285.435 676.083 288.06 676.646 290.498ZM685.275 277.183C685.275 275.683 685.463 274.37 685.838 273.245C686.214 272.12 686.589 271.37 687.339 270.62C687.902 270.057 688.84 269.682 689.965 269.682C691.841 269.682 693.154 270.807 693.717 272.682C694.467 274.558 694.843 277.746 694.843 282.247C694.843 286.748 694.467 289.936 693.717 291.812C693.154 293.874 691.841 294.812 689.965 294.812C688.84 294.812 687.902 294.437 687.339 293.875C686.589 293.312 686.213 292.374 685.838 291.249C685.463 290.124 685.275 288.811 685.275 287.311C685.088 285.81 685.088 284.123 685.088 282.247C685.088 280.372 685.088 278.871 685.275 277.183ZM711.351 300.063H720.543V270.62H725.795V264.431H720.543V261.43C720.543 260.305 720.918 259.555 721.293 259.18C721.856 258.804 722.794 258.429 724.107 258.429H724.857C725.42 258.429 725.608 258.617 725.795 258.617V252.053C724.107 252.053 722.606 251.865 720.918 251.865C719.417 251.865 718.104 252.053 716.978 252.24C715.853 252.616 714.727 253.178 713.977 253.741C713.227 254.491 712.476 255.241 712.101 256.366C711.726 257.491 711.351 258.804 711.351 260.492V264.43H706.848V270.619H711.351L711.351 300.063ZM733.111 264.431H728.421V270.62H733.111V291.061C733.111 292.937 733.111 294.437 733.299 295.562C733.674 296.687 734.049 297.625 734.612 298.375C735.175 299.125 736.113 299.688 737.238 300.063C738.176 300.251 739.677 300.438 741.553 300.438C742.491 300.438 743.616 300.438 744.554 300.251C745.492 300.251 746.43 300.063 747.556 300.063V293.687C747.18 293.687 746.805 293.874 746.43 293.874H745.492C744.179 293.874 743.241 293.499 742.866 292.937C742.303 292.374 742.116 291.436 742.116 289.936V270.62H747.556V264.431H742.116V254.304H733.111L733.111 264.431ZM757.686 300.063H768.379L772.881 274.745L777.57 300.063H788.075L795.767 264.431H786.95L782.635 289.749H782.448L777.758 264.431H767.815L763.501 289.749H763.313L759.186 264.431H749.994L757.686 300.063ZM807.21 275.308V274.37C807.21 273.057 807.585 271.932 808.335 270.994C809.086 270.244 810.024 269.682 811.524 269.682C813.025 269.682 814.151 270.057 814.714 270.994C815.464 271.745 815.651 272.682 815.651 274.183C815.651 275.308 815.464 276.245 814.901 276.808C814.338 277.371 813.4 277.933 812.087 278.308L806.835 279.621C805.334 280.184 804.021 280.559 802.895 281.121C801.77 281.872 800.832 282.434 800.081 283.372C799.331 284.31 798.768 285.247 798.393 286.56C798.018 287.685 797.83 289.186 797.83 290.873C797.83 291.999 798.018 293.124 798.393 294.437C798.768 295.562 799.143 296.687 799.894 297.625C800.456 298.563 801.395 299.5 802.52 300.063C803.646 300.625 804.959 301.001 806.46 301.001C808.711 301.001 810.586 300.625 811.9 300.063C813.213 299.5 814.526 298.187 815.652 296.312C815.839 297.062 816.027 297.625 816.215 298.187C816.215 298.938 816.59 299.5 816.777 300.063H825.594C825.219 298.938 824.844 298 824.656 297.062C824.469 296.125 824.469 294.812 824.469 293.124V274.37C824.469 272.87 824.281 271.369 823.906 270.057C823.531 268.744 822.968 267.619 822.03 266.493C821.092 265.556 819.779 264.806 818.091 264.243C816.402 263.868 814.151 263.493 811.525 263.493C809.837 263.493 808.148 263.68 806.647 264.055C805.147 264.43 803.834 265.181 802.708 265.931C801.582 266.868 800.645 267.994 800.082 269.307C799.331 270.807 798.956 272.495 798.956 274.558V275.308L807.21 275.308ZM815.652 289.373C815.652 290.311 815.464 291.061 815.276 291.811C814.901 292.562 814.338 293.124 813.775 293.499C813.213 293.874 812.65 294.249 812.087 294.437C811.337 294.624 810.774 294.812 810.024 294.812C808.898 294.812 807.96 294.249 807.397 293.312C806.835 292.374 806.647 291.249 806.647 289.748C806.647 288.248 807.022 286.935 807.772 285.998C808.71 285.06 810.024 284.497 811.9 284.122C812.462 283.935 813.025 283.747 813.775 283.372C814.526 283.185 815.088 282.81 815.651 282.247L815.652 289.373ZM831.034 300.063H840.226V278.684C840.226 277.558 840.413 276.433 840.789 275.683C841.164 274.933 841.727 274.183 842.477 273.62C843.04 273.245 843.79 272.87 844.541 272.682C845.478 272.307 846.229 272.307 846.979 272.307H848.48C848.855 272.307 849.418 272.307 849.793 272.495V263.68C849.606 263.68 849.23 263.68 849.043 263.493H848.105C846.229 263.493 844.728 264.055 843.415 265.181C842.102 266.118 840.976 267.431 840.038 269.306H839.851V264.43H831.034L831.034 300.063ZM879.995 283.747V281.684C879.995 278.871 879.808 276.433 879.433 274.183C879.057 271.932 878.495 270.057 877.557 268.557C876.431 266.869 875.118 265.744 873.43 264.806C871.741 264.056 869.678 263.493 867.052 263.493C863.863 263.493 861.424 264.056 859.548 264.993C857.672 266.119 856.359 267.431 855.233 269.119C854.295 270.807 853.733 272.87 853.358 275.121C852.982 277.184 852.795 279.622 852.795 281.872C852.795 284.123 852.982 286.373 853.17 288.624C853.358 290.874 853.921 292.937 854.671 294.812C855.609 296.688 856.922 298.188 858.798 299.313C860.674 300.439 863.3 301.001 866.489 301.001C870.992 301.001 874.181 299.876 876.244 297.625C878.12 295.375 879.246 292.187 879.433 288.061H871.367C870.992 290.311 870.616 291.999 869.866 293.124C869.116 294.25 867.99 294.812 866.489 294.812C865.552 294.812 864.989 294.625 864.238 294.062C863.676 293.687 863.3 292.937 862.925 292.187C862.55 291.437 862.362 290.499 862.175 289.561C861.987 288.624 861.987 287.498 861.987 286.561V283.748L879.995 283.747ZM861.986 278.308V276.808C861.986 276.058 861.986 275.12 862.174 274.37C862.361 273.432 862.549 272.682 862.924 272.12C863.3 271.369 863.862 270.807 864.425 270.432C864.988 270.057 865.738 269.682 866.676 269.682C867.614 269.682 868.364 269.869 868.927 270.244C869.49 270.619 870.053 271.182 870.24 271.932C870.616 272.682 870.803 273.62 870.991 274.558C871.178 275.683 871.178 276.808 871.366 278.308H861.986Z" fill="#00549F"/>
<path d="M356.99 177.785H347.422V225.044H356.99V177.785ZM364.118 225.044H373.123V201.414C373.123 197.476 374.811 195.6 378 195.6C379.313 195.6 380.439 195.976 381.002 196.538C381.565 197.288 381.94 198.601 381.94 200.477V225.044H391.132V198.601C391.132 195.038 390.194 192.412 388.693 190.911C387.192 189.224 384.941 188.473 381.94 188.473C380.064 188.473 378.188 188.849 376.687 189.786C375.186 190.536 373.873 191.849 372.935 193.537H372.747V189.411H364.118V225.044ZM399.761 225.044H408.765V195.6H414.206V189.412H408.765V186.411C408.765 185.286 409.141 184.536 409.703 184.161C410.079 183.785 411.017 183.41 412.33 183.41H413.268C413.643 183.41 413.83 183.598 414.206 183.598V177.034C412.517 177.034 410.829 176.846 409.141 176.846C407.827 176.846 406.514 177.034 405.201 177.221C404.076 177.597 403.138 178.159 402.2 178.722C401.449 179.472 400.887 180.222 400.324 181.347C399.949 182.472 399.761 183.785 399.761 185.473V189.411H395.071V195.6H399.761L399.761 225.044ZM417.395 215.48C417.77 217.73 418.52 219.793 419.646 221.293C420.771 222.981 422.084 224.106 423.96 224.856C425.836 225.607 428.087 225.982 430.714 225.982C433.34 225.982 435.591 225.607 437.28 224.669C439.156 223.919 440.656 222.793 441.782 221.106C442.72 219.605 443.658 217.73 444.033 215.292C444.596 213.042 444.783 210.229 444.783 207.228C444.783 204.227 444.596 201.414 444.221 199.164C443.658 196.726 442.907 194.663 441.969 193.162C440.844 191.475 439.343 190.349 437.655 189.599C435.779 188.849 433.528 188.474 430.714 188.474C428.088 188.474 426.024 188.849 424.148 189.787C422.46 190.537 420.959 191.85 419.833 193.35C418.708 194.85 417.958 196.913 417.395 199.164C417.02 201.602 416.832 204.227 416.832 207.228C416.832 210.416 417.019 213.041 417.395 215.48ZM426.024 202.165C426.024 200.664 426.399 199.351 426.587 198.226C426.962 197.101 427.525 196.351 428.087 195.601C428.65 195.038 429.588 194.663 430.714 194.663C432.59 194.663 433.903 195.788 434.653 197.664C435.404 199.539 435.591 202.727 435.591 207.228C435.591 211.729 435.404 214.918 434.653 216.793C433.903 218.856 432.59 219.793 430.714 219.793C429.588 219.793 428.65 219.418 428.087 218.856C427.525 218.293 426.962 217.355 426.587 216.23C426.399 215.105 426.024 213.792 426.024 212.292C425.836 210.792 425.836 209.104 425.836 207.228C425.836 205.353 425.836 203.852 426.024 202.165ZM450.224 225.044H459.228V203.665C459.228 202.54 459.415 201.414 459.791 200.664C460.354 199.914 460.729 199.164 461.479 198.601C462.042 198.226 462.792 197.851 463.73 197.664C464.481 197.288 465.231 197.288 465.981 197.288H467.482C467.857 197.288 468.42 197.288 468.795 197.476V188.661C468.608 188.661 468.232 188.661 468.045 188.474H467.294C465.231 188.474 463.73 189.036 462.417 190.162C461.104 191.099 459.978 192.412 459.04 194.288H458.853V189.412H450.224L450.224 225.044ZM472.922 225.044H481.927V201.602C481.927 199.539 482.489 198.039 483.24 196.914C484.178 195.976 485.303 195.601 486.804 195.601C488.117 195.601 489.055 195.976 489.43 196.726C489.993 197.476 490.368 198.602 490.368 200.102V225.045H499.56V201.602C499.56 199.539 499.936 198.039 500.686 196.914C501.624 195.976 502.749 195.601 504.25 195.601C505.563 195.601 506.501 195.976 507.064 196.726C507.627 197.477 507.814 198.602 507.814 200.102V225.045H517.006V199.164C517.006 195.788 516.256 193.163 514.755 191.288C513.442 189.412 511.191 188.474 508.002 188.474C505.938 188.474 504.062 189.037 502.561 189.975C500.873 190.912 499.747 192.413 498.997 194.288C498.434 192.413 497.496 190.912 495.996 189.975C494.682 189.037 492.806 188.474 490.743 188.474C488.679 188.474 486.991 188.85 485.678 189.6C484.177 190.35 482.864 191.475 481.739 193.163H481.551V189.412H472.922L472.922 225.044ZM531.45 200.289V199.351C531.45 198.039 531.826 196.913 532.388 195.976C533.139 195.225 534.264 194.663 535.577 194.663C537.266 194.663 538.204 195.038 538.954 195.976C539.517 196.726 539.892 197.663 539.892 199.164C539.892 200.289 539.517 201.227 539.142 201.789C538.579 202.352 537.641 202.915 536.14 203.29L531.075 204.602C529.387 205.165 528.074 205.54 526.948 206.103C525.823 206.853 524.885 207.415 524.134 208.353C523.571 209.291 523.009 210.228 522.633 211.354C522.258 212.666 522.071 214.167 522.071 215.855C522.071 216.98 522.258 218.105 522.446 219.418C522.821 220.543 523.384 221.668 523.947 222.606C524.697 223.544 525.448 224.481 526.573 225.044C527.699 225.607 529.012 225.982 530.7 225.982C532.951 225.982 534.64 225.607 536.141 225.044C537.454 224.481 538.767 223.169 539.705 221.293H539.892C540.08 222.043 540.08 222.606 540.268 223.169C540.455 223.919 540.643 224.481 541.018 225.044H549.647C549.272 223.919 548.897 222.981 548.897 222.043C548.709 221.106 548.521 219.793 548.521 218.105V199.351C548.521 197.851 548.521 196.351 548.146 195.038C547.771 193.725 547.208 192.6 546.27 191.475C545.332 190.537 544.019 189.787 542.331 189.224C540.642 188.849 538.391 188.474 535.765 188.474C533.889 188.474 532.388 188.661 530.887 189.037C529.387 189.412 528.073 190.162 526.948 190.912C525.822 191.85 524.884 192.975 524.134 194.288C523.571 195.788 523.196 197.476 523.196 199.539V200.289L531.45 200.289ZM539.892 214.167C539.892 215.292 539.705 216.042 539.329 216.792C538.954 217.542 538.579 218.105 538.016 218.48C537.453 218.855 536.891 219.23 536.14 219.418C535.577 219.605 534.827 219.793 534.264 219.793C532.951 219.793 532.201 219.23 531.638 218.293C531.075 217.355 530.888 216.23 530.888 214.729C530.888 213.229 531.263 211.916 532.013 210.979C532.763 210.041 534.077 209.478 535.953 209.103C536.515 208.916 537.266 208.728 537.829 208.353C538.579 208.165 539.329 207.79 539.892 207.228V214.167ZM557.338 189.411H552.836V195.6H557.338V216.042C557.338 217.917 557.526 219.418 557.714 220.543C557.901 221.668 558.464 222.606 559.027 223.356C559.589 224.106 560.34 224.669 561.465 225.044C562.591 225.231 564.092 225.419 565.968 225.419C566.906 225.419 568.031 225.419 568.969 225.231C569.907 225.231 570.845 225.044 571.783 225.044V218.668C571.596 218.668 571.22 218.855 570.845 218.855H569.72C568.406 218.855 567.656 218.48 567.093 217.917C566.718 217.355 566.53 216.417 566.53 214.917V195.6H571.783V189.412H566.53V179.284H557.339L557.338 189.411ZM576.285 185.098H585.289V177.221H576.285V185.098ZM576.285 225.044H585.289V189.411H576.285V225.044ZM592.23 177.784V225.044H601.235V214.729L604.611 210.416L612.115 225.044H622.245L610.426 203.477L620.744 189.411H610.614L601.422 202.726H601.235V177.784L592.23 177.784ZM659.388 225.044V178.159H652.259C651.884 180.784 650.758 182.847 648.882 183.972C647.007 185.097 644.568 185.66 641.379 185.66H640.441V192.036H649.82V225.043L659.388 225.044ZM687.714 225.044V178.159H680.586C680.21 180.784 678.897 182.847 677.209 183.972C675.333 185.097 672.894 185.66 669.705 185.66H668.767V192.036H678.147V225.043L687.714 225.044Z" fill="#00549F"/>
<path d="M301.083 0.000610352H-0.00292969V301.001H301.083V0.000610352ZM276.996 195.463L174.816 240.237L158.257 223.87V247.574L106.884 269.96H38.1993V31.0415H106.507V75.8154L208.31 31.0415H208.686L276.994 195.088L276.996 195.463ZM158.257 150.313L226.565 217.476L158.257 53.2429V150.313Z" fill="#00549F"/>
<path d="M276.999 195.463V195.086L208.691 31.0394H208.315L106.512 75.8133V31.0394H38.2041V105.534L106.512 75.6222V172.883L38.2041 105.721V269.953H106.889L158.261 247.567V223.863L174.821 240.23L277.001 195.456L276.999 195.463ZM226.567 217.473L158.259 150.311V53.2407L226.567 217.473Z" fill="white"/>
<path d="M38.0122 105.539L106.511 75.6268V172.888L38.0122 105.539Z" fill="#F6A800"/>
</g>
<defs>
<clipPath id="clip0_327_2268">
<rect width="880" height="301" fill="white"/>
</clipPath>
</defs>
</svg>
