<svg width="692" height="204" viewBox="0 0 692 204" fill="none" xmlns="http://www.w3.org/2000/svg">
<path d="M333.24 69.92C333.24 68.7253 332.885 67.7173 332.176 66.896C331.467 66.0373 330.571 65.2347 329.488 64.488C328.443 63.7413 327.285 62.976 326.016 62.192C324.784 61.408 323.627 60.4933 322.544 59.448C321.499 58.4027 320.621 57.1707 319.912 55.752C319.203 54.3333 318.848 52.5973 318.848 50.544C318.848 48.64 319.128 47.0347 319.688 45.728C320.285 44.384 321.088 43.3013 322.096 42.48C323.104 41.6213 324.299 41.0053 325.68 40.632C327.061 40.2213 328.536 40.016 330.104 40.016C332.008 40.016 333.781 40.2027 335.424 40.576C337.067 40.9493 338.429 41.4533 339.512 42.088L337.328 48.304C336.693 47.856 335.741 47.4453 334.472 47.072C333.24 46.6987 331.896 46.512 330.44 46.512C328.984 46.512 327.864 46.8107 327.08 47.408C326.296 48.0053 325.904 48.8827 325.904 50.04C325.904 51.0853 326.259 52.0187 326.968 52.84C327.677 53.624 328.555 54.3893 329.6 55.136C330.683 55.8827 331.84 56.6667 333.072 57.488C334.341 58.272 335.499 59.2053 336.544 60.288C337.627 61.3333 338.523 62.584 339.232 64.04C339.941 65.4587 340.296 67.1573 340.296 69.136C340.296 71.1147 339.997 72.832 339.4 74.288C338.84 75.744 338.019 76.9573 336.936 77.928C335.891 78.8613 334.621 79.5707 333.128 80.056C331.635 80.5413 329.973 80.784 328.144 80.784C325.829 80.784 323.795 80.56 322.04 80.112C320.323 79.664 318.997 79.16 318.064 78.6L320.36 72.272C321.107 72.72 322.133 73.168 323.44 73.616C324.747 74.064 326.147 74.288 327.64 74.288C331.373 74.288 333.24 72.832 333.24 69.92ZM343.009 66C343.009 61.0347 343.98 57.3387 345.921 54.912C347.863 52.4853 350.569 51.272 354.041 51.272C357.775 51.272 360.556 52.504 362.385 54.968C364.215 57.432 365.129 61.1093 365.129 66C365.129 71.0027 364.159 74.7173 362.217 77.144C360.276 79.5333 357.551 80.728 354.041 80.728C346.687 80.728 343.009 75.8187 343.009 66ZM349.897 66C349.897 68.8 350.215 70.9653 350.849 72.496C351.484 74.0267 352.548 74.792 354.041 74.792C355.46 74.792 356.505 74.1387 357.177 72.832C357.887 71.488 358.241 69.2107 358.241 66C358.241 63.1253 357.924 60.9413 357.289 59.448C356.655 57.9547 355.572 57.208 354.041 57.208C352.735 57.208 351.708 57.88 350.961 59.224C350.252 60.5307 349.897 62.7893 349.897 66ZM366.448 52H369.472V50.432C369.472 46.8853 370.125 44.328 371.432 42.76C372.776 41.1547 374.68 40.352 377.144 40.352C379.608 40.352 381.661 40.688 383.304 41.36L382.072 47.016C381.4 46.7547 380.803 46.6053 380.28 46.568C379.757 46.4933 379.216 46.456 378.656 46.456C377.573 46.456 376.883 46.8853 376.584 47.744C376.285 48.5653 376.136 49.984 376.136 52H380.896V57.936H376.136V80H369.472V57.936H366.448V52ZM380.88 52H383.96V46.736L390.624 44.664V52H396.056V57.936H390.624V70.144C390.624 71.7493 390.774 72.888 391.072 73.56C391.408 74.232 391.987 74.568 392.808 74.568C393.368 74.568 393.872 74.512 394.32 74.4C394.768 74.288 395.254 74.12 395.776 73.896L396.616 79.216C395.795 79.6267 394.843 79.9627 393.76 80.224C392.678 80.5227 391.539 80.672 390.344 80.672C388.216 80.672 386.611 80.056 385.528 78.824C384.483 77.592 383.96 75.52 383.96 72.608V57.936H380.88V52ZM415.845 52L419.765 66.336L420.437 70.984H420.661L421.221 66.28L423.853 52H429.901L423.013 80.28H417.749L413.549 64.656L413.101 61.072H412.765L412.373 64.768L408.341 80.28H402.909L395.741 52H402.965L405.989 66.056L406.493 71.04H406.717L407.445 66L410.861 52H415.845ZM431.956 53.68C433.076 53.008 434.476 52.4667 436.156 52.056C437.836 51.6453 439.74 51.44 441.868 51.44C445.042 51.44 447.244 52.2613 448.476 53.904C449.746 55.5467 450.38 57.88 450.38 60.904C450.38 62.6587 450.324 64.3947 450.212 66.112C450.138 67.792 450.082 69.4533 450.044 71.096C450.007 72.7013 450.026 74.2693 450.1 75.8C450.212 77.2933 450.474 78.712 450.884 80.056H445.452L444.388 76.64H444.164C443.567 77.7227 442.727 78.6187 441.644 79.328C440.562 80.0373 439.199 80.392 437.556 80.392C435.354 80.392 433.618 79.664 432.348 78.208C431.079 76.7147 430.444 74.736 430.444 72.272C430.444 68.912 431.639 66.5227 434.028 65.104C436.418 63.6853 439.647 63.088 443.716 63.312C443.903 61.1467 443.754 59.5787 443.268 58.608C442.82 57.6373 441.831 57.152 440.3 57.152C439.18 57.152 438.023 57.2827 436.828 57.544C435.634 57.8053 434.57 58.1787 433.636 58.664L431.956 53.68ZM439.964 74.68C440.972 74.68 441.794 74.4373 442.428 73.952C443.063 73.4293 443.53 72.8693 443.828 72.272V67.624C442.97 67.512 442.148 67.4933 441.364 67.568C440.58 67.6427 439.89 67.8107 439.292 68.072C438.695 68.3333 438.21 68.7253 437.836 69.248C437.5 69.7333 437.332 70.368 437.332 71.152C437.332 72.3093 437.556 73.1867 438.004 73.784C438.49 74.3813 439.143 74.68 439.964 74.68ZM468.249 58.608C467.353 58.272 466.532 58.104 465.785 58.104C464.777 58.104 463.9 58.384 463.153 58.944C462.444 59.504 461.958 60.288 461.697 61.296V80H455.033V52H460.129L460.913 55.36H461.137C461.622 54.128 462.313 53.176 463.209 52.504C464.142 51.7947 465.206 51.44 466.401 51.44C467.297 51.44 468.174 51.6267 469.033 52L468.249 58.608ZM490.367 77.928C489.434 78.7493 488.165 79.4213 486.559 79.944C484.954 80.4667 483.274 80.728 481.519 80.728C479.578 80.728 477.898 80.392 476.479 79.72C475.098 79.048 473.959 78.0773 473.063 76.808C472.167 75.5387 471.495 74.008 471.047 72.216C470.637 70.3867 470.431 68.3147 470.431 66C470.431 60.96 471.421 57.2453 473.399 54.856C475.415 52.4293 478.197 51.216 481.743 51.216C482.938 51.216 484.095 51.4027 485.215 51.776C486.335 52.112 487.325 52.7093 488.183 53.568C489.079 54.3893 489.789 55.5093 490.311 56.928C490.871 58.3093 491.151 60.064 491.151 62.192C491.151 63.0133 491.095 63.8907 490.983 64.824C490.909 65.7573 490.778 66.7653 490.591 67.848H476.983C477.058 70.1627 477.543 71.936 478.439 73.168C479.335 74.4 480.773 75.016 482.751 75.016C483.946 75.016 485.029 74.8293 485.999 74.456C487.007 74.0827 487.773 73.6907 488.295 73.28L490.367 77.928ZM481.631 56.928C480.213 56.928 479.149 57.5067 478.439 58.664C477.73 59.784 477.319 61.3707 477.207 63.424H484.935C485.047 61.296 484.823 59.6907 484.263 58.608C483.703 57.488 482.826 56.928 481.631 56.928ZM506.933 53.68C508.053 53.008 509.453 52.4667 511.133 52.056C512.813 51.6453 514.717 51.44 516.845 51.44C520.018 51.44 522.221 52.2613 523.453 53.904C524.722 55.5467 525.357 57.88 525.357 60.904C525.357 62.6587 525.301 64.3947 525.189 66.112C525.114 67.792 525.058 69.4533 525.021 71.096C524.983 72.7013 525.002 74.2693 525.077 75.8C525.189 77.2933 525.45 78.712 525.861 80.056H520.429L519.365 76.64H519.141C518.543 77.7227 517.703 78.6187 516.621 79.328C515.538 80.0373 514.175 80.392 512.533 80.392C510.33 80.392 508.594 79.664 507.325 78.208C506.055 76.7147 505.421 74.736 505.421 72.272C505.421 68.912 506.615 66.5227 509.005 65.104C511.394 63.6853 514.623 63.088 518.693 63.312C518.879 61.1467 518.73 59.5787 518.245 58.608C517.797 57.6373 516.807 57.152 515.277 57.152C514.157 57.152 512.999 57.2827 511.805 57.544C510.61 57.8053 509.546 58.1787 508.613 58.664L506.933 53.68ZM514.941 74.68C515.949 74.68 516.77 74.4373 517.405 73.952C518.039 73.4293 518.506 72.8693 518.805 72.272V67.624C517.946 67.512 517.125 67.4933 516.341 67.568C515.557 67.6427 514.866 67.8107 514.269 68.072C513.671 68.3333 513.186 68.7253 512.813 69.248C512.477 69.7333 512.309 70.368 512.309 71.152C512.309 72.3093 512.533 73.1867 512.981 73.784C513.466 74.3813 514.119 74.68 514.941 74.68ZM543.898 80V62.976C543.898 60.9227 543.655 59.4853 543.17 58.664C542.684 57.8427 541.863 57.432 540.706 57.432C539.735 57.432 538.895 57.7307 538.186 58.328C537.476 58.9253 536.972 59.672 536.674 60.568V80H530.01V52H535.33L536.114 55.248H536.282C536.954 54.1653 537.868 53.2507 539.026 52.504C540.183 51.72 541.695 51.328 543.562 51.328C544.682 51.328 545.671 51.496 546.53 51.832C547.426 52.168 548.172 52.728 548.77 53.512C549.367 54.2587 549.815 55.2853 550.114 56.592C550.412 57.8613 550.562 59.448 550.562 61.352V80H543.898ZM575.27 70.144C575.27 71.712 575.288 73.28 575.326 74.848C575.363 76.416 575.512 78.152 575.774 80.056H571.07L570.174 76.808H569.95C568.68 79.4213 566.459 80.728 563.286 80.728C560.448 80.728 558.208 79.608 556.566 77.368C554.96 75.128 554.158 71.488 554.158 66.448C554.158 61.52 555.035 57.7867 556.79 55.248C558.544 52.672 561.158 51.384 564.63 51.384C565.526 51.384 566.272 51.44 566.87 51.552C567.467 51.664 568.046 51.8507 568.606 52.112V40.8H575.27V70.144ZM564.854 74.624C565.862 74.624 566.664 74.3813 567.262 73.896C567.859 73.3733 568.307 72.6267 568.606 71.656V58.44C568.232 58.104 567.803 57.8613 567.318 57.712C566.87 57.5627 566.272 57.488 565.526 57.488C564.032 57.488 562.912 58.16 562.166 59.504C561.419 60.848 561.046 63.2373 561.046 66.672C561.046 69.248 561.344 71.2267 561.942 72.608C562.576 73.952 563.547 74.624 564.854 74.624ZM613.58 47.296H604.284V80H597.228V47.296H587.932V40.8H613.58V47.296ZM609.502 66C609.502 61.0347 610.472 57.3387 612.414 54.912C614.355 52.4853 617.062 51.272 620.534 51.272C624.267 51.272 627.048 52.504 628.878 54.968C630.707 57.432 631.622 61.1093 631.622 66C631.622 71.0027 630.651 74.7173 628.71 77.144C626.768 79.5333 624.043 80.728 620.534 80.728C613.179 80.728 609.502 75.8187 609.502 66ZM616.39 66C616.39 68.8 616.707 70.9653 617.342 72.496C617.976 74.0267 619.04 74.792 620.534 74.792C621.952 74.792 622.998 74.1387 623.67 72.832C624.379 71.488 624.734 69.2107 624.734 66C624.734 63.1253 624.416 60.9413 623.782 59.448C623.147 57.9547 622.064 57.208 620.534 57.208C619.227 57.208 618.2 57.88 617.454 59.224C616.744 60.5307 616.39 62.7893 616.39 66ZM634.439 66C634.439 61.0347 635.41 57.3387 637.351 54.912C639.292 52.4853 641.999 51.272 645.471 51.272C649.204 51.272 651.986 52.504 653.815 54.968C655.644 57.432 656.559 61.1093 656.559 66C656.559 71.0027 655.588 74.7173 653.647 77.144C651.706 79.5333 648.98 80.728 645.471 80.728C638.116 80.728 634.439 75.8187 634.439 66ZM641.327 66C641.327 68.8 641.644 70.9653 642.279 72.496C642.914 74.0267 643.978 74.792 645.471 74.792C646.89 74.792 647.935 74.1387 648.607 72.832C649.316 71.488 649.671 69.2107 649.671 66C649.671 63.1253 649.354 60.9413 648.719 59.448C648.084 57.9547 647.002 57.208 645.471 57.208C644.164 57.208 643.138 57.88 642.391 59.224C641.682 60.5307 641.327 62.7893 641.327 66ZM667.161 70.928C667.161 72.2347 667.291 73.168 667.553 73.728C667.814 74.288 668.243 74.568 668.841 74.568C669.177 74.568 669.513 74.5307 669.849 74.456C670.222 74.3813 670.633 74.2507 671.081 74.064L671.697 79.44C671.249 79.7387 670.483 80.0187 669.401 80.28C668.318 80.5413 667.217 80.672 666.097 80.672C664.23 80.672 662.83 80.2053 661.897 79.272C660.963 78.3387 660.497 76.752 660.497 74.512V40.8H667.161V70.928ZM683.41 72.552C683.41 71.768 683.148 71.1147 682.626 70.592C682.14 70.032 681.506 69.528 680.722 69.08C679.938 68.5947 679.098 68.1093 678.202 67.624C677.343 67.1387 676.522 66.5413 675.738 65.832C674.954 65.1227 674.3 64.264 673.778 63.256C673.292 62.248 673.05 60.9787 673.05 59.448C673.05 56.8347 673.759 54.8187 675.178 53.4C676.596 51.9813 678.687 51.272 681.45 51.272C683.092 51.272 684.642 51.4587 686.098 51.832C687.554 52.168 688.711 52.5973 689.57 53.12L688.002 58.272C687.292 57.9733 686.434 57.6933 685.426 57.432C684.418 57.1333 683.428 56.984 682.458 56.984C680.628 56.984 679.714 57.7493 679.714 59.28C679.714 59.9893 679.956 60.5867 680.442 61.072C680.964 61.52 681.618 61.968 682.402 62.416C683.186 62.864 684.007 63.3307 684.866 63.816C685.762 64.3013 686.602 64.9173 687.386 65.664C688.17 66.3733 688.804 67.2507 689.29 68.296C689.812 69.3413 690.074 70.6293 690.074 72.16C690.074 74.736 689.29 76.808 687.722 78.376C686.154 79.944 683.82 80.728 680.722 80.728C679.191 80.728 677.679 80.5413 676.186 80.168C674.73 79.7947 673.554 79.3093 672.658 78.712L674.506 73.336C675.29 73.784 676.186 74.176 677.194 74.512C678.239 74.848 679.322 75.016 680.442 75.016C681.3 75.016 682.01 74.8293 682.57 74.456C683.13 74.0453 683.41 73.4107 683.41 72.552ZM317.448 108H320.472V106.432C320.472 102.885 321.125 100.328 322.432 98.76C323.776 97.1547 325.68 96.352 328.144 96.352C330.608 96.352 332.661 96.688 334.304 97.36L333.072 103.016C332.4 102.755 331.803 102.605 331.28 102.568C330.757 102.493 330.216 102.456 329.656 102.456C328.573 102.456 327.883 102.885 327.584 103.744C327.285 104.565 327.136 105.984 327.136 108H331.896V113.936H327.136V136H320.472V113.936H317.448V108ZM333.33 122C333.33 117.035 334.3 113.339 336.242 110.912C338.183 108.485 340.89 107.272 344.362 107.272C348.095 107.272 350.876 108.504 352.706 110.968C354.535 113.432 355.45 117.109 355.45 122C355.45 127.003 354.479 130.717 352.538 133.144C350.596 135.533 347.871 136.728 344.362 136.728C337.007 136.728 333.33 131.819 333.33 122ZM340.218 122C340.218 124.8 340.535 126.965 341.17 128.496C341.804 130.027 342.868 130.792 344.362 130.792C345.78 130.792 346.826 130.139 347.498 128.832C348.207 127.488 348.562 125.211 348.562 122C348.562 119.125 348.244 116.941 347.61 115.448C346.975 113.955 345.892 113.208 344.362 113.208C343.055 113.208 342.028 113.88 341.282 115.224C340.572 116.531 340.218 118.789 340.218 122ZM372.491 114.608C371.595 114.272 370.774 114.104 370.027 114.104C369.019 114.104 368.142 114.384 367.395 114.944C366.686 115.504 366.201 116.288 365.939 117.296V136H359.275V108H364.371L365.155 111.36H365.379C365.865 110.128 366.555 109.176 367.451 108.504C368.385 107.795 369.449 107.44 370.643 107.44C371.539 107.44 372.417 107.627 373.275 108L372.491 114.608ZM408.854 134.432C407.883 135.253 406.576 135.851 404.934 136.224C403.328 136.597 401.723 136.784 400.118 136.784C398.102 136.784 396.216 136.448 394.462 135.776C392.744 135.067 391.232 133.909 389.926 132.304C388.619 130.699 387.592 128.589 386.846 125.976C386.099 123.363 385.726 120.152 385.726 116.344C385.726 112.387 386.136 109.101 386.958 106.488C387.816 103.875 388.918 101.803 390.262 100.272C391.643 98.704 393.211 97.6027 394.966 96.968C396.72 96.3333 398.494 96.016 400.286 96.016C402.115 96.016 403.702 96.1653 405.046 96.464C406.427 96.7627 407.547 97.0987 408.406 97.472L407.006 103.688C406.296 103.315 405.456 103.035 404.486 102.848C403.552 102.624 402.432 102.512 401.126 102.512C398.55 102.512 396.571 103.632 395.19 105.872C393.808 108.112 393.118 111.621 393.118 116.4C393.118 118.453 393.267 120.339 393.566 122.056C393.902 123.736 394.406 125.192 395.078 126.424C395.787 127.656 396.664 128.608 397.71 129.28C398.792 129.952 400.08 130.288 401.574 130.288C402.88 130.288 404 130.12 404.934 129.784C405.867 129.411 406.707 128.981 407.454 128.496L408.854 134.432ZM409.455 122C409.455 117.035 410.425 113.339 412.367 110.912C414.308 108.485 417.015 107.272 420.487 107.272C424.22 107.272 427.001 108.504 428.831 110.968C430.66 113.432 431.575 117.109 431.575 122C431.575 127.003 430.604 130.717 428.663 133.144C426.721 135.533 423.996 136.728 420.487 136.728C413.132 136.728 409.455 131.819 409.455 122ZM416.343 122C416.343 124.8 416.66 126.965 417.295 128.496C417.929 130.027 418.993 130.792 420.487 130.792C421.905 130.792 422.951 130.139 423.623 128.832C424.332 127.488 424.687 125.211 424.687 122C424.687 119.125 424.369 116.941 423.735 115.448C423.1 113.955 422.017 113.208 420.487 113.208C419.18 113.208 418.153 113.88 417.407 115.224C416.697 116.531 416.343 118.789 416.343 122ZM448.336 136V119.704C448.336 117.352 448.15 115.728 447.776 114.832C447.403 113.899 446.675 113.432 445.592 113.432C444.696 113.432 443.95 113.731 443.352 114.328C442.792 114.888 442.363 115.579 442.064 116.4V136H435.4V108H440.552L441.392 111.36H441.56C442.27 110.203 443.147 109.251 444.192 108.504C445.275 107.72 446.694 107.328 448.448 107.328C449.904 107.328 451.08 107.645 451.976 108.28C452.91 108.915 453.638 110.035 454.16 111.64C454.87 110.296 455.803 109.251 456.96 108.504C458.118 107.72 459.48 107.328 461.048 107.328C462.28 107.328 463.326 107.496 464.184 107.832C465.08 108.131 465.79 108.672 466.312 109.456C466.872 110.24 467.283 111.323 467.544 112.704C467.806 114.048 467.936 115.765 467.936 117.856V136H461.272V118.976C461.272 117.072 461.104 115.672 460.768 114.776C460.432 113.88 459.686 113.432 458.528 113.432C457.595 113.432 456.83 113.712 456.232 114.272C455.672 114.795 455.262 115.523 455 116.456V136H448.336ZM472.533 108H477.517L478.189 111.192H478.357C479.216 109.848 480.168 108.877 481.213 108.28C482.296 107.645 483.621 107.328 485.189 107.328C488.026 107.328 490.154 108.411 491.573 110.576C493.029 112.704 493.757 116.269 493.757 121.272C493.757 126.275 492.861 130.12 491.069 132.808C489.277 135.459 486.682 136.784 483.285 136.784C482.389 136.784 481.624 136.709 480.989 136.56C480.354 136.411 479.757 136.168 479.197 135.832V147.2H472.533V108ZM479.197 129.728C479.57 130.101 479.981 130.381 480.429 130.568C480.914 130.755 481.53 130.848 482.277 130.848C483.77 130.848 484.909 130.12 485.693 128.664C486.477 127.171 486.869 124.651 486.869 121.104C486.869 118.453 486.57 116.493 485.973 115.224C485.376 113.917 484.386 113.264 483.005 113.264C481.138 113.264 479.869 114.365 479.197 116.568V129.728ZM504.02 108V124.744C504.02 126.947 504.225 128.477 504.636 129.336C505.047 130.195 505.793 130.624 506.876 130.624C507.921 130.624 508.799 130.251 509.508 129.504C510.217 128.72 510.721 127.787 511.02 126.704V108H517.684V127.488C517.684 129.019 517.74 130.531 517.852 132.024C517.964 133.48 518.169 134.805 518.468 136H513.428L512.252 132.192H512.084C511.375 133.499 510.404 134.581 509.172 135.44C507.977 136.299 506.484 136.728 504.692 136.728C503.535 136.728 502.508 136.56 501.612 136.224C500.716 135.925 499.951 135.384 499.316 134.6C498.681 133.816 498.196 132.752 497.86 131.408C497.524 130.027 497.356 128.291 497.356 126.2V108H504.02ZM520.388 108H523.468V102.736L530.132 100.664V108H535.564V113.936H530.132V126.144C530.132 127.749 530.281 128.888 530.58 129.56C530.916 130.232 531.495 130.568 532.316 130.568C532.876 130.568 533.38 130.512 533.828 130.4C534.276 130.288 534.761 130.12 535.284 129.896L536.124 135.216C535.303 135.627 534.351 135.963 533.268 136.224C532.185 136.523 531.047 136.672 529.852 136.672C527.724 136.672 526.119 136.056 525.036 134.824C523.991 133.592 523.468 131.52 523.468 128.608V113.936H520.388V108ZM538.925 109.68C540.045 109.008 541.445 108.467 543.125 108.056C544.805 107.645 546.709 107.44 548.837 107.44C552.01 107.44 554.213 108.261 555.445 109.904C556.714 111.547 557.349 113.88 557.349 116.904C557.349 118.659 557.293 120.395 557.181 122.112C557.106 123.792 557.05 125.453 557.013 127.096C556.976 128.701 556.994 130.269 557.069 131.8C557.181 133.293 557.442 134.712 557.853 136.056H552.421L551.357 132.64H551.133C550.536 133.723 549.696 134.619 548.613 135.328C547.53 136.037 546.168 136.392 544.525 136.392C542.322 136.392 540.586 135.664 539.317 134.208C538.048 132.715 537.413 130.736 537.413 128.272C537.413 124.912 538.608 122.523 540.997 121.104C543.386 119.685 546.616 119.088 550.685 119.312C550.872 117.147 550.722 115.579 550.237 114.608C549.789 113.637 548.8 113.152 547.269 113.152C546.149 113.152 544.992 113.283 543.797 113.544C542.602 113.805 541.538 114.179 540.605 114.664L538.925 109.68ZM546.933 130.68C547.941 130.68 548.762 130.437 549.397 129.952C550.032 129.429 550.498 128.869 550.797 128.272V123.624C549.938 123.512 549.117 123.493 548.333 123.568C547.549 123.643 546.858 123.811 546.261 124.072C545.664 124.333 545.178 124.725 544.805 125.248C544.469 125.733 544.301 126.368 544.301 127.152C544.301 128.309 544.525 129.187 544.973 129.784C545.458 130.381 546.112 130.68 546.933 130.68ZM559.818 108H562.898V102.736L569.562 100.664V108H574.994V113.936H569.562V126.144C569.562 127.749 569.711 128.888 570.01 129.56C570.346 130.232 570.924 130.568 571.746 130.568C572.306 130.568 572.81 130.512 573.258 130.4C573.706 130.288 574.191 130.12 574.714 129.896L575.554 135.216C574.732 135.627 573.78 135.963 572.698 136.224C571.615 136.523 570.476 136.672 569.282 136.672C567.154 136.672 565.548 136.056 564.466 134.824C563.42 133.592 562.898 131.52 562.898 128.608V113.936H559.818V108ZM578.859 108H585.523V136H578.859V108ZM578.075 100.104C578.075 98.984 578.429 98.0693 579.139 97.36C579.848 96.6133 580.856 96.24 582.163 96.24C583.469 96.24 584.515 96.5947 585.299 97.304C586.083 98.0133 586.475 98.9467 586.475 100.104C586.475 101.261 586.083 102.176 585.299 102.848C584.515 103.52 583.469 103.856 582.163 103.856C580.856 103.856 579.848 103.52 579.139 102.848C578.429 102.139 578.075 101.224 578.075 100.104ZM589.869 122C589.869 117.035 590.839 113.339 592.781 110.912C594.722 108.485 597.429 107.272 600.901 107.272C604.634 107.272 607.415 108.504 609.245 110.968C611.074 113.432 611.989 117.109 611.989 122C611.989 127.003 611.018 130.717 609.077 133.144C607.135 135.533 604.41 136.728 600.901 136.728C593.546 136.728 589.869 131.819 589.869 122ZM596.757 122C596.757 124.8 597.074 126.965 597.709 128.496C598.343 130.027 599.407 130.792 600.901 130.792C602.319 130.792 603.365 130.139 604.037 128.832C604.746 127.488 605.101 125.211 605.101 122C605.101 119.125 604.783 116.941 604.149 115.448C603.514 113.955 602.431 113.208 600.901 113.208C599.594 113.208 598.567 113.88 597.821 115.224C597.111 116.531 596.757 118.789 596.757 122ZM629.702 136V118.976C629.702 116.923 629.46 115.485 628.974 114.664C628.489 113.843 627.668 113.432 626.51 113.432C625.54 113.432 624.7 113.731 623.99 114.328C623.281 114.925 622.777 115.672 622.478 116.568V136H615.814V108H621.134L621.918 111.248H622.086C622.758 110.165 623.673 109.251 624.83 108.504C625.988 107.72 627.5 107.328 629.366 107.328C630.486 107.328 631.476 107.496 632.334 107.832C633.23 108.168 633.977 108.728 634.574 109.512C635.172 110.259 635.62 111.285 635.918 112.592C636.217 113.861 636.366 115.448 636.366 117.352V136H629.702ZM641.027 109.68C642.147 109.008 643.547 108.467 645.227 108.056C646.907 107.645 648.811 107.44 650.939 107.44C654.112 107.44 656.315 108.261 657.547 109.904C658.816 111.547 659.451 113.88 659.451 116.904C659.451 118.659 659.395 120.395 659.283 122.112C659.208 123.792 659.152 125.453 659.115 127.096C659.077 128.701 659.096 130.269 659.171 131.8C659.283 133.293 659.544 134.712 659.955 136.056H654.523L653.459 132.64H653.235C652.637 133.723 651.797 134.619 650.715 135.328C649.632 136.037 648.269 136.392 646.627 136.392C644.424 136.392 642.688 135.664 641.419 134.208C640.149 132.715 639.515 130.736 639.515 128.272C639.515 124.912 640.709 122.523 643.099 121.104C645.488 119.685 648.717 119.088 652.787 119.312C652.973 117.147 652.824 115.579 652.339 114.608C651.891 113.637 650.901 113.152 649.371 113.152C648.251 113.152 647.093 113.283 645.899 113.544C644.704 113.805 643.64 114.179 642.707 114.664L641.027 109.68ZM649.035 130.68C650.043 130.68 650.864 130.437 651.499 129.952C652.133 129.429 652.6 128.869 652.899 128.272V123.624C652.04 123.512 651.219 123.493 650.435 123.568C649.651 123.643 648.96 123.811 648.363 124.072C647.765 124.333 647.28 124.725 646.907 125.248C646.571 125.733 646.403 126.368 646.403 127.152C646.403 128.309 646.627 129.187 647.075 129.784C647.56 130.381 648.213 130.68 649.035 130.68ZM670.879 126.928C670.879 128.235 671.01 129.168 671.271 129.728C671.533 130.288 671.962 130.568 672.559 130.568C672.895 130.568 673.231 130.531 673.567 130.456C673.941 130.381 674.351 130.251 674.799 130.064L675.415 135.44C674.967 135.739 674.202 136.019 673.119 136.28C672.037 136.541 670.935 136.672 669.815 136.672C667.949 136.672 666.549 136.205 665.615 135.272C664.682 134.339 664.215 132.752 664.215 130.512V96.8H670.879V126.928ZM319.52 152.8H339.12V159.296H326.576V168.928H337.944V175.424H326.576V185.504H339.344V192H319.52V152.8ZM357.359 192V174.976C357.359 172.923 357.116 171.485 356.631 170.664C356.145 169.843 355.324 169.432 354.167 169.432C353.196 169.432 352.356 169.731 351.647 170.328C350.937 170.925 350.433 171.672 350.135 172.568V192H343.471V164H348.791L349.575 167.248H349.743C350.415 166.165 351.329 165.251 352.487 164.504C353.644 163.72 355.156 163.328 357.023 163.328C358.143 163.328 359.132 163.496 359.991 163.832C360.887 164.168 361.633 164.728 362.231 165.512C362.828 166.259 363.276 167.285 363.575 168.592C363.873 169.861 364.023 171.448 364.023 173.352V192H357.359ZM388.675 192C388.675 196.069 387.741 199.056 385.875 200.96C384.008 202.901 381.413 203.872 378.091 203.872C375.776 203.872 373.965 203.685 372.659 203.312C371.352 202.976 370.344 202.603 369.635 202.192L371.035 196.536C371.856 196.872 372.733 197.189 373.667 197.488C374.637 197.787 375.776 197.936 377.083 197.936C378.987 197.936 380.293 197.413 381.003 196.368C381.749 195.36 382.123 193.811 382.123 191.72V190.208H381.955C381.432 190.955 380.723 191.515 379.827 191.888C378.968 192.261 377.848 192.448 376.467 192.448C373.517 192.448 371.296 191.347 369.803 189.144C368.347 186.904 367.619 183.376 367.619 178.56C367.619 173.371 368.627 169.544 370.643 167.08C372.696 164.616 375.608 163.384 379.379 163.384C381.395 163.384 383.205 163.552 384.811 163.888C386.416 164.187 387.704 164.56 388.675 165.008V192ZM378.315 186.736C379.323 186.736 380.107 186.493 380.667 186.008C381.264 185.523 381.712 184.832 382.011 183.936V169.936C381.6 169.749 381.133 169.6 380.611 169.488C380.125 169.376 379.547 169.32 378.875 169.32C377.493 169.32 376.411 169.992 375.627 171.336C374.88 172.68 374.507 174.995 374.507 178.28C374.507 183.917 375.776 186.736 378.315 186.736ZM394.015 164H400.679V192H394.015V164ZM393.231 156.104C393.231 154.984 393.586 154.069 394.295 153.36C395.004 152.613 396.012 152.24 397.319 152.24C398.626 152.24 399.671 152.595 400.455 153.304C401.239 154.013 401.631 154.947 401.631 156.104C401.631 157.261 401.239 158.176 400.455 158.848C399.671 159.52 398.626 159.856 397.319 159.856C396.012 159.856 395.004 159.52 394.295 158.848C393.586 158.139 393.231 157.224 393.231 156.104ZM419.921 192V174.976C419.921 172.923 419.678 171.485 419.193 170.664C418.708 169.843 417.886 169.432 416.729 169.432C415.758 169.432 414.918 169.731 414.209 170.328C413.5 170.925 412.996 171.672 412.697 172.568V192H406.033V164H411.353L412.137 167.248H412.305C412.977 166.165 413.892 165.251 415.049 164.504C416.206 163.72 417.718 163.328 419.585 163.328C420.705 163.328 421.694 163.496 422.553 163.832C423.449 164.168 424.196 164.728 424.793 165.512C425.39 166.259 425.838 167.285 426.137 168.592C426.436 169.861 426.585 171.448 426.585 173.352V192H419.921ZM450.117 189.928C449.184 190.749 447.915 191.421 446.309 191.944C444.704 192.467 443.024 192.728 441.269 192.728C439.328 192.728 437.648 192.392 436.229 191.72C434.848 191.048 433.709 190.077 432.813 188.808C431.917 187.539 431.245 186.008 430.797 184.216C430.387 182.387 430.181 180.315 430.181 178C430.181 172.96 431.171 169.245 433.149 166.856C435.165 164.429 437.947 163.216 441.493 163.216C442.688 163.216 443.845 163.403 444.965 163.776C446.085 164.112 447.075 164.709 447.933 165.568C448.829 166.389 449.539 167.509 450.061 168.928C450.621 170.309 450.901 172.064 450.901 174.192C450.901 175.013 450.845 175.891 450.733 176.824C450.659 177.757 450.528 178.765 450.341 179.848H436.733C436.808 182.163 437.293 183.936 438.189 185.168C439.085 186.4 440.523 187.016 442.501 187.016C443.696 187.016 444.779 186.829 445.749 186.456C446.757 186.083 447.523 185.691 448.045 185.28L450.117 189.928ZM441.381 168.928C439.963 168.928 438.899 169.507 438.189 170.664C437.48 171.784 437.069 173.371 436.957 175.424H444.685C444.797 173.296 444.573 171.691 444.013 170.608C443.453 169.488 442.576 168.928 441.381 168.928ZM474.07 189.928C473.137 190.749 471.868 191.421 470.262 191.944C468.657 192.467 466.977 192.728 465.222 192.728C463.281 192.728 461.601 192.392 460.182 191.72C458.801 191.048 457.662 190.077 456.766 188.808C455.87 187.539 455.198 186.008 454.75 184.216C454.34 182.387 454.134 180.315 454.134 178C454.134 172.96 455.124 169.245 457.102 166.856C459.118 164.429 461.9 163.216 465.446 163.216C466.641 163.216 467.798 163.403 468.918 163.776C470.038 164.112 471.028 164.709 471.886 165.568C472.782 166.389 473.492 167.509 474.014 168.928C474.574 170.309 474.854 172.064 474.854 174.192C474.854 175.013 474.798 175.891 474.686 176.824C474.612 177.757 474.481 178.765 474.294 179.848H460.686C460.761 182.163 461.246 183.936 462.142 185.168C463.038 186.4 464.476 187.016 466.454 187.016C467.649 187.016 468.732 186.829 469.702 186.456C470.71 186.083 471.476 185.691 471.998 185.28L474.07 189.928ZM465.334 168.928C463.916 168.928 462.852 169.507 462.142 170.664C461.433 171.784 461.022 173.371 460.91 175.424H468.638C468.75 173.296 468.526 171.691 467.966 170.608C467.406 169.488 466.529 168.928 465.334 168.928ZM492.312 170.608C491.416 170.272 490.594 170.104 489.848 170.104C488.84 170.104 487.962 170.384 487.216 170.944C486.506 171.504 486.021 172.288 485.76 173.296V192H479.096V164H484.192L484.976 167.36H485.2C485.685 166.128 486.376 165.176 487.272 164.504C488.205 163.795 489.269 163.44 490.464 163.44C491.36 163.44 492.237 163.627 493.096 164L492.312 170.608ZM496.062 164H502.726V192H496.062V164ZM495.278 156.104C495.278 154.984 495.632 154.069 496.342 153.36C497.051 152.613 498.059 152.24 499.366 152.24C500.672 152.24 501.718 152.595 502.502 153.304C503.286 154.013 503.678 154.947 503.678 156.104C503.678 157.261 503.286 158.176 502.502 158.848C501.718 159.52 500.672 159.856 499.366 159.856C498.059 159.856 497.051 159.52 496.342 158.848C495.632 158.139 495.278 157.224 495.278 156.104ZM521.968 192V174.976C521.968 172.923 521.725 171.485 521.24 170.664C520.755 169.843 519.933 169.432 518.776 169.432C517.805 169.432 516.965 169.731 516.256 170.328C515.547 170.925 515.043 171.672 514.744 172.568V192H508.08V164H513.4L514.184 167.248H514.352C515.024 166.165 515.939 165.251 517.096 164.504C518.253 163.72 519.765 163.328 521.632 163.328C522.752 163.328 523.741 163.496 524.6 163.832C525.496 164.168 526.243 164.728 526.84 165.512C527.437 166.259 527.885 167.285 528.184 168.592C528.483 169.861 528.632 171.448 528.632 173.352V192H521.968ZM553.284 192C553.284 196.069 552.351 199.056 550.484 200.96C548.617 202.901 546.023 203.872 542.7 203.872C540.385 203.872 538.575 203.685 537.268 203.312C535.961 202.976 534.953 202.603 534.244 202.192L535.644 196.536C536.465 196.872 537.343 197.189 538.276 197.488C539.247 197.787 540.385 197.936 541.692 197.936C543.596 197.936 544.903 197.413 545.612 196.368C546.359 195.36 546.732 193.811 546.732 191.72V190.208H546.564C546.041 190.955 545.332 191.515 544.436 191.888C543.577 192.261 542.457 192.448 541.076 192.448C538.127 192.448 535.905 191.347 534.412 189.144C532.956 186.904 532.228 183.376 532.228 178.56C532.228 173.371 533.236 169.544 535.252 167.08C537.305 164.616 540.217 163.384 543.988 163.384C546.004 163.384 547.815 163.552 549.42 163.888C551.025 164.187 552.313 164.56 553.284 165.008V192ZM542.924 186.736C543.932 186.736 544.716 186.493 545.276 186.008C545.873 185.523 546.321 184.832 546.62 183.936V169.936C546.209 169.749 545.743 169.6 545.22 169.488C544.735 169.376 544.156 169.32 543.484 169.32C542.103 169.32 541.02 169.992 540.236 171.336C539.489 172.68 539.116 174.995 539.116 178.28C539.116 183.917 540.385 186.736 542.924 186.736Z" fill="#00549F"/>
<path d="M199.04 0H99.5225V99.5224H199.04V0Z" fill="#FABE50"/>
<path d="M298.563 99.5176H199.045V199.03H298.563V99.5176Z" fill="#FDD48F"/>
<path d="M91.6117 152.061H80.8788V142.877H91.6117V152.061ZM0 99.5176V199.035H80.8788V157.187H91.6117V199.035H99.5223V99.5176H0Z" fill="#F6A800"/>
<path d="M91.6117 142.876H80.8789V152.056H91.6117V142.876Z" fill="white"/>
<path d="M91.6117 157.187H80.8789V199.035H91.6117V157.187Z" fill="white"/>
<path d="M124.585 199.04V143.969H116.342C115.767 147.081 114.408 149.338 112.261 150.735C110.104 152.136 107.163 152.835 103.433 152.835H102.421V160.147H113.387V199.04H124.585ZM171.878 190.326H151.111C151.367 189.29 151.966 188.06 152.897 186.63C153.833 185.209 155.125 183.751 156.788 182.235L163.012 176.481C164.566 175.08 165.887 173.721 166.98 172.4C168.068 171.079 168.946 169.72 169.621 168.319C170.291 166.917 170.79 165.463 171.099 163.962C171.412 162.461 171.569 160.798 171.569 158.988C171.569 154.16 170.215 150.455 167.521 147.856C164.823 145.266 160.68 143.974 155.078 143.974C149.167 143.974 144.834 145.347 142.088 148.098C139.337 150.844 137.964 154.778 137.964 159.914V162.014H148.697C148.697 160.56 148.764 159.192 148.892 157.89C149.02 156.603 149.305 155.458 149.747 154.469C150.189 153.486 150.811 152.707 151.614 152.136C152.417 151.566 153.52 151.281 154.921 151.281C158.546 151.281 160.366 153.557 160.366 158.118C160.366 159.52 160.299 160.769 160.171 161.853C160.043 162.941 159.767 163.953 159.354 164.893C158.936 165.82 158.356 166.761 157.605 167.692C156.85 168.623 155.857 169.63 154.612 170.728L150.099 174.928C148.075 176.795 146.298 178.643 144.773 180.487C143.238 182.335 141.969 184.207 140.962 186.131C139.95 188.046 139.195 190.074 138.705 192.193C138.207 194.317 137.964 196.607 137.964 199.04H171.878V190.326Z" fill="#F6A800"/>
</svg>
