<svg width="674" height="204" viewBox="0 0 674 204" fill="none" xmlns="http://www.w3.org/2000/svg">
<path d="M340.272 119.424H329.576V136H322.52V96.8H329.576V112.928H340.272V96.8H347.328V136H340.272V119.424ZM352.827 108H359.491V136H352.827V108ZM352.043 100.104C352.043 98.984 352.398 98.0693 353.107 97.36C353.817 96.6133 354.825 96.24 356.131 96.24C357.438 96.24 358.483 96.5947 359.267 97.304C360.051 98.0133 360.443 98.9467 360.443 100.104C360.443 101.261 360.051 102.176 359.267 102.848C358.483 103.52 357.438 103.856 356.131 103.856C354.825 103.856 353.817 103.52 353.107 102.848C352.398 102.139 352.043 101.224 352.043 100.104ZM384.894 136C384.894 140.069 383.96 143.056 382.094 144.96C380.227 146.901 377.632 147.872 374.31 147.872C371.995 147.872 370.184 147.685 368.878 147.312C367.571 146.976 366.563 146.603 365.854 146.192L367.254 140.536C368.075 140.872 368.952 141.189 369.886 141.488C370.856 141.787 371.995 141.936 373.302 141.936C375.206 141.936 376.512 141.413 377.221 140.368C377.968 139.36 378.342 137.811 378.342 135.72V134.208H378.174C377.651 134.955 376.942 135.515 376.046 135.888C375.187 136.261 374.067 136.448 372.686 136.448C369.736 136.448 367.515 135.347 366.022 133.144C364.566 130.904 363.838 127.376 363.838 122.56C363.838 117.371 364.846 113.544 366.862 111.08C368.915 108.616 371.827 107.384 375.598 107.384C377.614 107.384 379.424 107.552 381.03 107.888C382.635 108.187 383.923 108.56 384.894 109.008V136ZM374.534 130.736C375.542 130.736 376.326 130.493 376.886 130.008C377.483 129.523 377.931 128.832 378.23 127.936V113.936C377.819 113.749 377.352 113.6 376.829 113.488C376.344 113.376 375.766 113.32 375.094 113.32C373.712 113.32 372.63 113.992 371.846 115.336C371.099 116.68 370.726 118.995 370.726 122.28C370.726 127.917 371.995 130.736 374.534 130.736ZM403.562 136V119.088C403.562 117.072 403.319 115.616 402.834 114.72C402.386 113.824 401.546 113.376 400.314 113.376C399.418 113.376 398.596 113.693 397.85 114.328C397.103 114.963 396.599 115.765 396.338 116.736V136H389.674V96.8H396.338V110.52H396.506C397.252 109.549 398.148 108.765 399.194 108.168C400.276 107.571 401.62 107.272 403.226 107.272C404.383 107.272 405.391 107.44 406.25 107.776C407.108 108.112 407.836 108.672 408.434 109.456C409.031 110.24 409.479 111.304 409.778 112.648C410.076 113.955 410.226 115.616 410.226 117.632V136H403.562ZM426.426 97.192C427.77 96.8933 429.245 96.6693 430.85 96.52C432.456 96.3333 434.061 96.24 435.666 96.24C437.384 96.24 439.064 96.408 440.706 96.744C442.386 97.0427 443.88 97.6587 445.186 98.592C446.493 99.5253 447.557 100.851 448.378 102.568C449.2 104.248 449.61 106.451 449.61 109.176C449.61 111.64 449.256 113.731 448.546 115.448C447.874 117.165 446.96 118.565 445.802 119.648C444.645 120.731 443.301 121.515 441.77 122C440.277 122.485 438.728 122.728 437.122 122.728C436.973 122.728 436.73 122.728 436.394 122.728C436.058 122.728 435.704 122.728 435.33 122.728C434.957 122.691 434.584 122.653 434.21 122.616C433.874 122.579 433.632 122.541 433.482 122.504V136H426.426V97.192ZM433.482 116.176C433.706 116.251 434.117 116.325 434.714 116.4C435.349 116.437 435.778 116.456 436.002 116.456C436.824 116.456 437.608 116.344 438.354 116.12C439.101 115.896 439.754 115.523 440.314 115C440.912 114.44 441.378 113.693 441.714 112.76C442.05 111.789 442.218 110.576 442.218 109.12C442.218 107.888 442.05 106.843 441.714 105.984C441.416 105.125 440.986 104.453 440.426 103.968C439.904 103.445 439.288 103.072 438.578 102.848C437.869 102.624 437.122 102.512 436.338 102.512C435.181 102.512 434.229 102.605 433.482 102.792V116.176ZM470.234 133.928C469.301 134.749 468.032 135.421 466.426 135.944C464.821 136.467 463.141 136.728 461.386 136.728C459.445 136.728 457.765 136.392 456.346 135.72C454.965 135.048 453.826 134.077 452.93 132.808C452.034 131.539 451.362 130.008 450.914 128.216C450.504 126.387 450.298 124.315 450.298 122C450.298 116.96 451.288 113.245 453.266 110.856C455.282 108.429 458.064 107.216 461.61 107.216C462.805 107.216 463.962 107.403 465.082 107.776C466.202 108.112 467.192 108.709 468.05 109.568C468.946 110.389 469.656 111.509 470.178 112.928C470.738 114.309 471.018 116.064 471.018 118.192C471.018 119.013 470.962 119.891 470.85 120.824C470.776 121.757 470.645 122.765 470.458 123.848H456.85C456.925 126.163 457.41 127.936 458.306 129.168C459.202 130.4 460.64 131.016 462.618 131.016C463.813 131.016 464.896 130.829 465.866 130.456C466.874 130.083 467.64 129.691 468.162 129.28L470.234 133.928ZM461.498 112.928C460.08 112.928 459.016 113.507 458.306 114.664C457.597 115.784 457.186 117.371 457.074 119.424H464.802C464.914 117.296 464.69 115.691 464.13 114.608C463.57 113.488 462.693 112.928 461.498 112.928ZM488.476 114.608C487.58 114.272 486.758 114.104 486.012 114.104C485.004 114.104 484.126 114.384 483.38 114.944C482.67 115.504 482.185 116.288 481.924 117.296V136H475.26V108H480.356L481.14 111.36H481.364C481.849 110.128 482.54 109.176 483.436 108.504C484.369 107.795 485.433 107.44 486.628 107.44C487.524 107.44 488.401 107.627 489.26 108L488.476 114.608ZM489.706 108H492.73V106.432C492.73 102.885 493.383 100.328 494.69 98.76C496.034 97.1547 497.938 96.352 500.402 96.352C502.866 96.352 504.919 96.688 506.562 97.36L505.33 103.016C504.658 102.755 504.06 102.605 503.538 102.568C503.015 102.493 502.474 102.456 501.914 102.456C500.831 102.456 500.14 102.885 499.842 103.744C499.543 104.565 499.394 105.984 499.394 108H504.154V113.936H499.394V136H492.73V113.936H489.706V108ZM505.588 122C505.588 117.035 506.558 113.339 508.5 110.912C510.441 108.485 513.148 107.272 516.62 107.272C520.353 107.272 523.134 108.504 524.964 110.968C526.793 113.432 527.708 117.109 527.708 122C527.708 127.003 526.737 130.717 524.796 133.144C522.854 135.533 520.129 136.728 516.62 136.728C509.265 136.728 505.588 131.819 505.588 122ZM512.476 122C512.476 124.8 512.793 126.965 513.428 128.496C514.062 130.027 515.126 130.792 516.62 130.792C518.038 130.792 519.084 130.139 519.756 128.832C520.465 127.488 520.82 125.211 520.82 122C520.82 119.125 520.502 116.941 519.868 115.448C519.233 113.955 518.15 113.208 516.62 113.208C515.313 113.208 514.286 113.88 513.54 115.224C512.83 116.531 512.476 118.789 512.476 122ZM544.749 114.608C543.853 114.272 543.032 114.104 542.285 114.104C541.277 114.104 540.4 114.384 539.653 114.944C538.944 115.504 538.458 116.288 538.197 117.296V136H531.533V108H536.629L537.413 111.36H537.637C538.122 110.128 538.813 109.176 539.709 108.504C540.642 107.795 541.706 107.44 542.901 107.44C543.797 107.44 544.674 107.627 545.533 108L544.749 114.608ZM560.875 136V119.704C560.875 117.352 560.689 115.728 560.315 114.832C559.942 113.899 559.214 113.432 558.131 113.432C557.235 113.432 556.489 113.731 555.891 114.328C555.331 114.888 554.902 115.579 554.603 116.4V136H547.939V108H553.091L553.931 111.36H554.099C554.809 110.203 555.686 109.251 556.731 108.504C557.814 107.72 559.233 107.328 560.987 107.328C562.443 107.328 563.619 107.645 564.515 108.28C565.449 108.915 566.177 110.035 566.699 111.64C567.409 110.296 568.342 109.251 569.499 108.504C570.657 107.72 572.019 107.328 573.587 107.328C574.819 107.328 575.865 107.496 576.723 107.832C577.619 108.131 578.329 108.672 578.851 109.456C579.411 110.24 579.822 111.323 580.083 112.704C580.345 114.048 580.475 115.765 580.475 117.856V136H573.811V118.976C573.811 117.072 573.643 115.672 573.307 114.776C572.971 113.88 572.225 113.432 571.067 113.432C570.134 113.432 569.369 113.712 568.771 114.272C568.211 114.795 567.801 115.523 567.539 116.456V136H560.875ZM585.128 109.68C586.248 109.008 587.648 108.467 589.328 108.056C591.008 107.645 592.912 107.44 595.04 107.44C598.213 107.44 600.416 108.261 601.648 109.904C602.917 111.547 603.552 113.88 603.552 116.904C603.552 118.659 603.496 120.395 603.384 122.112C603.309 123.792 603.253 125.453 603.216 127.096C603.179 128.701 603.197 130.269 603.272 131.8C603.384 133.293 603.645 134.712 604.056 136.056H598.624L597.56 132.64H597.336C596.739 133.723 595.899 134.619 594.816 135.328C593.733 136.037 592.371 136.392 590.728 136.392C588.525 136.392 586.789 135.664 585.52 134.208C584.251 132.715 583.616 130.736 583.616 128.272C583.616 124.912 584.811 122.523 587.2 121.104C589.589 119.685 592.819 119.088 596.888 119.312C597.075 117.147 596.925 115.579 596.44 114.608C595.992 113.637 595.003 113.152 593.472 113.152C592.352 113.152 591.195 113.283 590 113.544C588.805 113.805 587.741 114.179 586.808 114.664L585.128 109.68ZM593.136 130.68C594.144 130.68 594.965 130.437 595.6 129.952C596.235 129.429 596.701 128.869 597 128.272V123.624C596.141 123.512 595.32 123.493 594.536 123.568C593.752 123.643 593.061 123.811 592.464 124.072C591.867 124.333 591.381 124.725 591.008 125.248C590.672 125.733 590.504 126.368 590.504 127.152C590.504 128.309 590.728 129.187 591.176 129.784C591.661 130.381 592.315 130.68 593.136 130.68ZM622.093 136V118.976C622.093 116.923 621.85 115.485 621.365 114.664C620.88 113.843 620.058 113.432 618.901 113.432C617.93 113.432 617.09 113.731 616.381 114.328C615.672 114.925 615.168 115.672 614.869 116.568V136H608.205V108H613.525L614.309 111.248H614.477C615.149 110.165 616.064 109.251 617.221 108.504C618.378 107.72 619.89 107.328 621.757 107.328C622.877 107.328 623.866 107.496 624.725 107.832C625.621 108.168 626.368 108.728 626.965 109.512C627.562 110.259 628.01 111.285 628.309 112.592C628.608 113.861 628.757 115.448 628.757 117.352V136H622.093ZM649.881 134.488C648.948 135.235 647.828 135.795 646.521 136.168C645.214 136.541 643.908 136.728 642.601 136.728C640.697 136.728 639.092 136.392 637.785 135.72C636.516 135.011 635.47 134.021 634.649 132.752C633.828 131.445 633.23 129.896 632.857 128.104C632.521 126.275 632.353 124.24 632.353 122C632.353 117.109 633.23 113.432 634.985 110.968C636.74 108.504 639.316 107.272 642.713 107.272C644.393 107.272 645.756 107.421 646.801 107.72C647.884 108.019 648.836 108.392 649.657 108.84L648.089 114.384C647.417 114.048 646.764 113.805 646.129 113.656C645.532 113.469 644.804 113.376 643.945 113.376C642.377 113.376 641.201 114.067 640.417 115.448C639.633 116.792 639.241 118.976 639.241 122C639.241 124.539 639.633 126.611 640.417 128.216C641.238 129.821 642.526 130.624 644.281 130.624C645.214 130.624 645.998 130.512 646.633 130.288C647.305 130.027 647.921 129.709 648.481 129.336L649.881 134.488ZM671.156 133.928C670.223 134.749 668.954 135.421 667.348 135.944C665.743 136.467 664.063 136.728 662.308 136.728C660.367 136.728 658.687 136.392 657.268 135.72C655.887 135.048 654.748 134.077 653.852 132.808C652.956 131.539 652.284 130.008 651.836 128.216C651.426 126.387 651.22 124.315 651.22 122C651.22 116.96 652.21 113.245 654.188 110.856C656.204 108.429 658.986 107.216 662.532 107.216C663.727 107.216 664.884 107.403 666.004 107.776C667.124 108.112 668.114 108.709 668.972 109.568C669.868 110.389 670.578 111.509 671.1 112.928C671.66 114.309 671.94 116.064 671.94 118.192C671.94 119.013 671.884 119.891 671.772 120.824C671.698 121.757 671.567 122.765 671.38 123.848H657.772C657.847 126.163 658.332 127.936 659.228 129.168C660.124 130.4 661.562 131.016 663.54 131.016C664.735 131.016 665.818 130.829 666.788 130.456C667.796 130.083 668.562 129.691 669.084 129.28L671.156 133.928ZM662.42 112.928C661.002 112.928 659.938 113.507 659.228 114.664C658.519 115.784 658.108 117.371 657.996 119.424H665.724C665.836 117.296 665.612 115.691 665.052 114.608C664.492 113.488 663.615 112.928 662.42 112.928ZM344.752 190.432C343.781 191.253 342.475 191.851 340.832 192.224C339.227 192.597 337.621 192.784 336.016 192.784C334 192.784 332.115 192.448 330.36 191.776C328.643 191.067 327.131 189.909 325.824 188.304C324.517 186.699 323.491 184.589 322.744 181.976C321.997 179.363 321.624 176.152 321.624 172.344C321.624 168.387 322.035 165.101 322.856 162.488C323.715 159.875 324.816 157.803 326.16 156.272C327.541 154.704 329.109 153.603 330.864 152.968C332.619 152.333 334.392 152.016 336.184 152.016C338.013 152.016 339.6 152.165 340.944 152.464C342.325 152.763 343.445 153.099 344.304 153.472L342.904 159.688C342.195 159.315 341.355 159.035 340.384 158.848C339.451 158.624 338.331 158.512 337.024 158.512C334.448 158.512 332.469 159.632 331.088 161.872C329.707 164.112 329.016 167.621 329.016 172.4C329.016 174.453 329.165 176.339 329.464 178.056C329.8 179.736 330.304 181.192 330.976 182.424C331.685 183.656 332.563 184.608 333.608 185.28C334.691 185.952 335.979 186.288 337.472 186.288C338.779 186.288 339.899 186.12 340.832 185.784C341.765 185.411 342.605 184.981 343.352 184.496L344.752 190.432ZM345.353 178C345.353 173.035 346.324 169.339 348.265 166.912C350.206 164.485 352.913 163.272 356.385 163.272C360.118 163.272 362.9 164.504 364.729 166.968C366.558 169.432 367.473 173.109 367.473 178C367.473 183.003 366.502 186.717 364.561 189.144C362.62 191.533 359.894 192.728 356.385 192.728C349.03 192.728 345.353 187.819 345.353 178ZM352.241 178C352.241 180.8 352.558 182.965 353.193 184.496C353.828 186.027 354.892 186.792 356.385 186.792C357.804 186.792 358.849 186.139 359.521 184.832C360.23 183.488 360.585 181.211 360.585 178C360.585 175.125 360.268 172.941 359.633 171.448C358.998 169.955 357.916 169.208 356.385 169.208C355.078 169.208 354.052 169.88 353.305 171.224C352.596 172.531 352.241 174.789 352.241 178ZM384.235 192V175.704C384.235 173.352 384.048 171.728 383.675 170.832C383.301 169.899 382.573 169.432 381.491 169.432C380.595 169.432 379.848 169.731 379.251 170.328C378.691 170.888 378.261 171.579 377.963 172.4V192H371.299V164H376.451L377.291 167.36H377.459C378.168 166.203 379.045 165.251 380.091 164.504C381.173 163.72 382.592 163.328 384.347 163.328C385.803 163.328 386.979 163.645 387.875 164.28C388.808 164.915 389.536 166.035 390.059 167.64C390.768 166.296 391.701 165.251 392.859 164.504C394.016 163.72 395.379 163.328 396.947 163.328C398.179 163.328 399.224 163.496 400.083 163.832C400.979 164.131 401.688 164.672 402.211 165.456C402.771 166.24 403.181 167.323 403.443 168.704C403.704 170.048 403.835 171.765 403.835 173.856V192H397.171V174.976C397.171 173.072 397.003 171.672 396.667 170.776C396.331 169.88 395.584 169.432 394.427 169.432C393.493 169.432 392.728 169.712 392.131 170.272C391.571 170.795 391.16 171.523 390.899 172.456V192H384.235ZM408.431 164H413.415L414.087 167.192H414.255C415.114 165.848 416.066 164.877 417.111 164.28C418.194 163.645 419.519 163.328 421.087 163.328C423.925 163.328 426.053 164.411 427.471 166.576C428.927 168.704 429.655 172.269 429.655 177.272C429.655 182.275 428.759 186.12 426.967 188.808C425.175 191.459 422.581 192.784 419.183 192.784C418.287 192.784 417.522 192.709 416.887 192.56C416.253 192.411 415.655 192.168 415.095 191.832V203.2H408.431V164ZM415.095 185.728C415.469 186.101 415.879 186.381 416.327 186.568C416.813 186.755 417.429 186.848 418.175 186.848C419.669 186.848 420.807 186.12 421.591 184.664C422.375 183.171 422.767 180.651 422.767 177.104C422.767 174.453 422.469 172.493 421.871 171.224C421.274 169.917 420.285 169.264 418.903 169.264C417.037 169.264 415.767 170.365 415.095 172.568V185.728ZM439.918 164V180.744C439.918 182.947 440.124 184.477 440.534 185.336C440.945 186.195 441.692 186.624 442.774 186.624C443.82 186.624 444.697 186.251 445.406 185.504C446.116 184.72 446.62 183.787 446.918 182.704V164H453.582V183.488C453.582 185.019 453.638 186.531 453.75 188.024C453.862 189.48 454.068 190.805 454.366 192H449.326L448.15 188.192H447.982C447.273 189.499 446.302 190.581 445.07 191.44C443.876 192.299 442.382 192.728 440.59 192.728C439.433 192.728 438.406 192.56 437.51 192.224C436.614 191.925 435.849 191.384 435.214 190.6C434.58 189.816 434.094 188.752 433.758 187.408C433.422 186.027 433.254 184.291 433.254 182.2V164H439.918ZM456.287 164H459.367V158.736L466.031 156.664V164H471.463V169.936H466.031V182.144C466.031 183.749 466.18 184.888 466.479 185.56C466.815 186.232 467.393 186.568 468.215 186.568C468.775 186.568 469.279 186.512 469.727 186.4C470.175 186.288 470.66 186.12 471.183 185.896L472.023 191.216C471.201 191.627 470.249 191.963 469.167 192.224C468.084 192.523 466.945 192.672 465.751 192.672C463.623 192.672 462.017 192.056 460.935 190.824C459.889 189.592 459.367 187.52 459.367 184.608V169.936H456.287V164ZM475.327 164H481.991V192H475.327V164ZM474.543 156.104C474.543 154.984 474.898 154.069 475.607 153.36C476.317 152.613 477.325 152.24 478.631 152.24C479.938 152.24 480.983 152.595 481.767 153.304C482.551 154.013 482.943 154.947 482.943 156.104C482.943 157.261 482.551 158.176 481.767 158.848C480.983 159.52 479.938 159.856 478.631 159.856C477.325 159.856 476.317 159.52 475.607 158.848C474.898 158.139 474.543 157.224 474.543 156.104ZM501.234 192V174.976C501.234 172.923 500.991 171.485 500.506 170.664C500.02 169.843 499.199 169.432 498.042 169.432C497.071 169.432 496.231 169.731 495.522 170.328C494.812 170.925 494.308 171.672 494.01 172.568V192H487.346V164H492.666L493.45 167.248H493.618C494.29 166.165 495.204 165.251 496.362 164.504C497.519 163.72 499.031 163.328 500.898 163.328C502.018 163.328 503.007 163.496 503.866 163.832C504.762 164.168 505.508 164.728 506.106 165.512C506.703 166.259 507.151 167.285 507.45 168.592C507.748 169.861 507.898 171.448 507.898 173.352V192H501.234ZM532.55 192C532.55 196.069 531.616 199.056 529.75 200.96C527.883 202.901 525.288 203.872 521.966 203.872C519.651 203.872 517.84 203.685 516.534 203.312C515.227 202.976 514.219 202.603 513.51 202.192L514.91 196.536C515.731 196.872 516.608 197.189 517.542 197.488C518.512 197.787 519.651 197.936 520.958 197.936C522.862 197.936 524.168 197.413 524.878 196.368C525.624 195.36 525.998 193.811 525.998 191.72V190.208H525.83C525.307 190.955 524.598 191.515 523.702 191.888C522.843 192.261 521.723 192.448 520.342 192.448C517.392 192.448 515.171 191.347 513.678 189.144C512.222 186.904 511.494 183.376 511.494 178.56C511.494 173.371 512.502 169.544 514.518 167.08C516.571 164.616 519.483 163.384 523.254 163.384C525.27 163.384 527.08 163.552 528.686 163.888C530.291 164.187 531.579 164.56 532.55 165.008V192ZM522.19 186.736C523.198 186.736 523.982 186.493 524.542 186.008C525.139 185.523 525.587 184.832 525.886 183.936V169.936C525.475 169.749 525.008 169.6 524.486 169.488C524 169.376 523.422 169.32 522.75 169.32C521.368 169.32 520.286 169.992 519.502 171.336C518.755 172.68 518.382 174.995 518.382 178.28C518.382 183.917 519.651 186.736 522.19 186.736Z" fill="#00549F"/>
<path d="M199.372 0.407227H99.8545V99.9296H199.372V0.407227Z" fill="#FABE50"/>
<path d="M298.895 99.9248H199.377V199.438H298.895V99.9248Z" fill="#FDD48F"/>
<path d="M91.9437 152.468H81.2109V143.284H91.9437V152.468ZM0.332031 99.9248V199.442H81.2109V157.594H91.9437V199.442H99.8544V99.9248H0.332031Z" fill="#F6A800"/>
<path d="M91.9438 143.284H81.2109V152.463H91.9438V143.284Z" fill="white"/>
<path d="M91.9438 157.594H81.2109V199.442H91.9438V157.594Z" fill="white"/>
<path d="M124.917 199.447V144.376H116.674C116.099 147.488 114.74 149.745 112.593 151.142C110.436 152.544 107.495 153.242 103.765 153.242H102.753V160.554H113.719V199.447H124.917ZM172.21 190.733H151.443C151.699 189.698 152.298 188.467 153.229 187.037C154.165 185.616 155.457 184.158 157.12 182.642L163.344 176.889C164.898 175.487 166.219 174.128 167.312 172.807C168.4 171.487 169.279 170.128 169.953 168.726C170.623 167.325 171.122 165.871 171.431 164.369C171.744 162.868 171.901 161.205 171.901 159.395C171.901 154.568 170.547 150.862 167.853 148.263C165.155 145.674 161.012 144.381 155.41 144.381C149.499 144.381 145.166 145.754 142.42 148.505C139.669 151.251 138.296 155.185 138.296 160.321V162.421H149.029C149.029 160.968 149.096 159.599 149.224 158.297C149.352 157.01 149.637 155.865 150.079 154.877C150.521 153.893 151.143 153.114 151.946 152.544C152.749 151.974 153.852 151.688 155.253 151.688C158.878 151.688 160.698 153.964 160.698 158.525C160.698 159.927 160.631 161.177 160.503 162.26C160.375 163.348 160.099 164.36 159.686 165.301C159.268 166.227 158.688 167.168 157.938 168.099C157.182 169.03 156.189 170.037 154.944 171.135L150.431 175.335C148.407 177.202 146.63 179.05 145.105 180.894C143.57 182.742 142.302 184.614 141.294 186.538C140.282 188.453 139.527 190.482 139.037 192.601C138.539 194.724 138.296 197.014 138.296 199.447H172.21V190.733Z" fill="#F6A800"/>
</svg>
