<svg width="299" height="200" viewBox="0 0 299 200" fill="none" xmlns="http://www.w3.org/2000/svg">
<path d="M199.372 0.407227H99.8545V99.9296H199.372V0.407227Z" fill="#FABE50"/>
<path d="M298.895 99.9248H199.377V199.438H298.895V99.9248Z" fill="#FDD48F"/>
<path d="M91.9437 152.468H81.2109V143.284H91.9437V152.468ZM0.332031 99.9248V199.442H81.2109V157.594H91.9437V199.442H99.8544V99.9248H0.332031Z" fill="#F6A800"/>
<path d="M91.9438 143.284H81.2109V152.463H91.9438V143.284Z" fill="white"/>
<path d="M91.9438 157.594H81.2109V199.442H91.9438V157.594Z" fill="white"/>
<path d="M124.917 199.447V144.376H116.674C116.099 147.488 114.74 149.745 112.593 151.142C110.436 152.544 107.495 153.242 103.765 153.242H102.753V160.554H113.719V199.447H124.917ZM172.21 190.733H151.443C151.699 189.698 152.298 188.467 153.229 187.037C154.165 185.616 155.457 184.158 157.12 182.642L163.344 176.889C164.898 175.487 166.219 174.128 167.312 172.807C168.4 171.487 169.279 170.128 169.953 168.726C170.623 167.325 171.122 165.871 171.431 164.369C171.744 162.868 171.901 161.205 171.901 159.395C171.901 154.568 170.547 150.862 167.853 148.263C165.155 145.674 161.012 144.381 155.41 144.381C149.499 144.381 145.166 145.754 142.42 148.505C139.669 151.251 138.296 155.185 138.296 160.321V162.421H149.029C149.029 160.968 149.096 159.599 149.224 158.297C149.352 157.01 149.637 155.865 150.079 154.877C150.521 153.893 151.143 153.114 151.946 152.544C152.749 151.974 153.852 151.688 155.253 151.688C158.878 151.688 160.698 153.964 160.698 158.525C160.698 159.927 160.631 161.177 160.503 162.26C160.375 163.348 160.099 164.36 159.686 165.301C159.268 166.227 158.688 167.168 157.938 168.099C157.182 169.03 156.189 170.037 154.944 171.135L150.431 175.335C148.407 177.202 146.63 179.05 145.105 180.894C143.57 182.742 142.302 184.614 141.294 186.538C140.282 188.453 139.527 190.482 139.037 192.601C138.539 194.724 138.296 197.014 138.296 199.447H172.21V190.733Z" fill="#F6A800"/>
</svg>
