<svg width="691" height="180" viewBox="0 0 691 180" fill="none" xmlns="http://www.w3.org/2000/svg">
<path d="M585.446 179.11H587.294C588.349 179.11 589.223 179.032 589.917 178.88C590.61 178.724 591.204 178.396 591.697 177.9C592.194 177.4 592.687 176.514 593.181 175.245C593.677 173.97 593.99 172.915 594.122 172.075L598.409 155.415H593.858L591.549 167.759H591.484L588.846 155.415H584.095L589.075 173.269C589.01 174.067 588.794 174.684 588.433 175.129C588.068 175.57 587.469 175.791 586.633 175.791C586.24 175.791 585.843 175.758 585.446 175.693V179.11ZM575.654 155.415H573.345V158.534H575.654V168.755C575.654 169.661 575.709 170.417 575.819 171.014C575.928 171.611 576.132 172.091 576.428 172.458C576.725 172.821 577.148 173.081 577.699 173.237C578.251 173.389 578.976 173.47 579.876 173.47C580.402 173.47 580.905 173.444 581.376 173.402C581.847 173.357 582.34 173.311 582.843 173.269V170.083C582.689 170.109 582.524 170.125 582.35 170.135C582.176 170.144 581.995 170.151 581.821 170.151C581.163 170.151 580.728 170.001 580.518 169.703C580.312 169.404 580.205 168.898 580.205 168.191V158.534H582.843V155.415H580.205V150.304H575.654V155.415ZM566.675 173.269H571.226V155.415H566.675V173.269ZM566.675 153.225H571.226V149.308H566.675V153.225ZM555.254 173.269H559.808V162.551C559.808 161.954 559.905 161.448 560.105 161.039C560.302 160.633 560.566 160.299 560.895 160.046C561.224 159.789 561.589 159.608 561.985 159.497C562.379 159.387 562.776 159.332 563.172 159.332C563.411 159.332 563.65 159.338 563.882 159.348C564.111 159.358 564.35 159.374 564.588 159.397V155.016C564.459 154.993 564.321 154.977 564.179 154.967C564.037 154.958 563.898 154.951 563.766 154.951C562.818 154.951 562.018 155.211 561.356 155.73C560.699 156.252 560.137 156.94 559.676 157.804H559.608V155.415H555.254V173.269ZM547.668 173.269H552.022V155.415H547.472V167.263C547.472 169.232 546.668 170.216 545.062 170.216C544.378 170.216 543.885 170.034 543.579 169.67C543.272 169.304 543.117 168.658 543.117 167.727V155.415H538.563V168.658C538.563 170.449 538.954 171.744 539.734 172.539C540.518 173.337 541.63 173.733 543.082 173.733C544.072 173.733 544.953 173.529 545.723 173.12C546.491 172.711 547.117 172.065 547.601 171.179H547.668V173.269ZM536.002 161.853C536.002 159.728 535.467 158.047 534.403 156.807C533.335 155.571 531.745 154.951 529.636 154.951C528.578 154.951 527.613 155.094 526.733 155.383C525.852 155.672 525.091 156.171 524.456 156.892C523.82 157.612 523.324 158.576 522.972 159.78C522.617 160.984 522.443 162.506 522.443 164.342C522.443 166.133 522.585 167.636 522.872 168.84C523.159 170.044 523.582 171.007 524.143 171.728C524.704 172.448 525.407 172.961 526.252 173.269C527.101 173.577 528.094 173.733 529.239 173.733C531.658 173.733 533.39 173.104 534.435 171.841C535.48 170.582 536.002 168.778 536.002 166.432H531.648C531.648 167.892 531.471 168.957 531.119 169.619C530.764 170.284 530.206 170.615 529.436 170.615C528.932 170.615 528.52 170.498 528.2 170.268C527.881 170.034 527.633 169.661 527.459 169.155C527.281 168.648 527.162 167.999 527.094 167.214C527.03 166.425 526.997 165.481 526.997 164.375C526.997 163.356 527.03 162.46 527.094 161.688C527.162 160.915 527.281 160.276 527.459 159.78C527.633 159.28 527.894 158.907 528.233 158.65C528.571 158.394 529.032 158.268 529.6 158.268C530.019 158.268 530.368 158.375 530.642 158.586C530.916 158.793 531.126 159.072 531.268 159.413C531.41 159.757 531.509 160.143 531.564 160.575C531.619 161.006 531.648 161.431 531.648 161.853H536.002ZM511.422 162.317V161.62C511.422 161.201 511.461 160.782 511.538 160.361C511.616 159.939 511.742 159.556 511.919 159.215C512.093 158.874 512.329 158.595 512.629 158.384C512.925 158.177 513.303 158.07 513.764 158.07C514.228 158.07 514.606 158.164 514.902 158.352C515.199 158.54 515.431 158.816 515.596 159.183C515.76 159.546 515.876 159.987 515.941 160.51C516.009 161.029 516.051 161.629 516.073 162.317H511.422ZM520.427 165.04V164.011C520.427 162.639 520.34 161.396 520.163 160.276C519.989 159.16 519.66 158.209 519.176 157.424C518.689 156.635 518.028 156.029 517.179 155.597C516.331 155.165 515.251 154.951 513.928 154.951C512.39 154.951 511.158 155.204 510.235 155.714C509.313 156.22 508.603 156.908 508.107 157.771C507.613 158.634 507.284 159.621 507.12 160.724C506.952 161.831 506.871 162.983 506.871 164.177C506.871 165.28 506.92 166.406 507.02 167.545C507.12 168.684 507.387 169.713 507.826 170.631C508.265 171.549 508.948 172.299 509.874 172.87C510.797 173.444 512.083 173.733 513.732 173.733C515.909 173.733 517.502 173.178 518.515 172.059C519.527 170.939 520.076 169.343 520.163 167.263H516.073C515.941 168.392 515.702 169.232 515.347 169.784C514.996 170.339 514.435 170.615 513.667 170.615C513.248 170.615 512.896 170.498 512.609 170.268C512.322 170.034 512.093 169.726 511.919 169.336C511.742 168.95 511.616 168.509 511.538 168.009C511.461 167.513 511.422 166.997 511.422 166.468V165.04H520.427ZM489.129 165.871V166.831C489.129 169.021 489.706 170.722 490.861 171.926C492.016 173.13 493.935 173.733 496.615 173.733C499.189 173.733 501.198 173.146 502.637 171.974C504.078 170.803 504.797 168.966 504.797 166.468C504.797 165.738 504.73 165.072 504.598 164.475C504.465 163.878 504.233 163.33 503.888 162.833C503.549 162.334 503.088 161.869 502.504 161.438C501.924 161.006 501.192 160.591 500.311 160.195L496.647 158.602C495.638 158.18 494.98 157.722 494.67 157.223C494.364 156.726 494.209 156.113 494.209 155.383C494.209 155.026 494.248 154.685 494.322 154.354C494.402 154.02 494.544 153.728 494.751 153.475C494.964 153.218 495.244 153.014 495.592 152.858C495.947 152.702 496.386 152.628 496.912 152.628C497.837 152.628 498.495 152.933 498.892 153.54C499.289 154.146 499.485 155.016 499.485 156.145H504.036V155.48C504.036 154.354 503.856 153.384 503.494 152.576C503.13 151.771 502.627 151.106 501.975 150.587C501.33 150.064 500.556 149.691 499.666 149.457C498.776 149.227 497.802 149.11 496.747 149.11C494.486 149.11 492.703 149.685 491.403 150.837C490.106 151.985 489.458 153.731 489.458 156.077C489.458 157.051 489.58 157.911 489.819 158.65C490.064 159.39 490.445 160.046 490.958 160.607C491.477 161.172 492.119 161.665 492.89 162.087C493.661 162.506 494.57 162.892 495.625 163.249C496.418 163.511 497.083 163.771 497.621 164.027C498.163 164.284 498.595 164.566 498.924 164.874C499.253 165.183 499.492 165.53 499.634 165.919C499.779 166.309 499.847 166.766 499.847 167.295C499.847 168.291 499.556 169.028 498.973 169.502C498.392 169.979 497.737 170.216 497.012 170.216C496.376 170.216 495.857 170.128 495.46 169.95C495.067 169.774 494.747 169.531 494.506 169.219C494.264 168.911 494.099 168.531 494.009 168.077C493.925 167.623 493.877 167.12 493.877 166.565V165.871H489.129ZM477.318 165.637H486.62V161.72H477.318V165.637ZM462.033 149.574V153.491H467.178V173.269H471.928V153.491H477.076V149.574H462.033ZM459.475 149.574H454.725V173.269H459.475V149.574Z" fill="#00549F"/>
<path d="M682.858 121.148H680.548V124.26H682.858V134.458C682.858 135.362 682.916 136.113 683.023 136.712C683.136 137.307 683.339 137.787 683.636 138.149C683.933 138.515 684.358 138.774 684.904 138.929C685.455 139.085 686.181 139.159 687.081 139.159C687.61 139.159 688.11 139.137 688.585 139.095C689.059 139.052 689.546 139.004 690.053 138.962V135.782C689.901 135.805 689.736 135.821 689.556 135.834C689.382 135.844 689.207 135.85 689.03 135.85C688.369 135.85 687.936 135.702 687.727 135.404C687.517 135.106 687.414 134.601 687.414 133.895V124.26H690.053V121.148H687.414V116.049H682.858V121.148ZM670.118 128.035V127.339C670.118 126.918 670.16 126.5 670.235 126.082C670.315 125.662 670.441 125.28 670.615 124.94C670.793 124.596 671.028 124.321 671.325 124.111C671.622 123.904 671.999 123.797 672.464 123.797C672.925 123.797 673.303 123.891 673.599 124.078C673.896 124.266 674.128 124.541 674.293 124.907C674.457 125.27 674.574 125.71 674.641 126.231C674.706 126.749 674.751 127.348 674.774 128.035H670.118ZM679.129 130.751V129.725C679.129 128.355 679.042 127.115 678.864 125.998C678.687 124.881 678.358 123.936 677.874 123.149C677.393 122.366 676.726 121.76 675.877 121.33C675.032 120.899 673.948 120.685 672.628 120.685C671.089 120.685 669.857 120.938 668.931 121.446C668.009 121.951 667.299 122.638 666.805 123.499C666.308 124.36 665.979 125.344 665.815 126.445C665.65 127.549 665.566 128.698 665.566 129.89C665.566 130.991 665.615 132.114 665.715 133.251C665.815 134.387 666.086 135.413 666.524 136.33C666.966 137.246 667.644 137.991 668.57 138.564C669.493 139.137 670.78 139.425 672.428 139.425C674.606 139.425 676.203 138.868 677.213 137.754C678.226 136.637 678.777 135.044 678.864 132.969H674.774C674.641 134.096 674.399 134.931 674.048 135.485C673.696 136.038 673.135 136.313 672.364 136.313C671.948 136.313 671.596 136.197 671.309 135.964C671.025 135.734 670.793 135.426 670.615 135.038C670.441 134.649 670.315 134.209 670.235 133.714C670.16 133.218 670.118 132.703 670.118 132.172V130.751H679.129ZM658.214 138.962H662.766V121.148H658.214V138.962ZM658.214 118.963H662.766V115.055H658.214V118.963ZM646.419 125.668C646.716 124.684 647.371 124.195 648.384 124.195C649.374 124.195 650.016 124.684 650.31 125.668C650.61 126.652 650.758 128.112 650.758 130.055C650.758 131.998 650.61 133.458 650.31 134.442C650.016 135.426 649.374 135.915 648.384 135.915C647.371 135.915 646.716 135.426 646.419 134.442C646.122 133.458 645.974 131.998 645.974 130.055C645.974 128.112 646.126 126.652 646.419 125.668ZM641.425 138.962H645.777V137.074H645.845C646.351 137.913 646.916 138.515 647.545 138.878C648.171 139.243 648.949 139.425 649.871 139.425C651.739 139.425 653.113 138.69 653.994 137.223C654.872 135.757 655.314 133.367 655.314 130.055C655.314 126.743 654.872 124.354 653.994 122.887C653.113 121.42 651.739 120.685 649.871 120.685C649.013 120.685 648.281 120.86 647.677 121.213C647.071 121.569 646.526 122.097 646.045 122.803H645.977V115.321H641.425V138.962ZM629.772 128.035V127.339C629.772 126.918 629.808 126.5 629.885 126.082C629.963 125.662 630.089 125.28 630.266 124.94C630.44 124.596 630.679 124.321 630.976 124.111C631.273 123.904 631.65 123.797 632.115 123.797C632.576 123.797 632.953 123.891 633.253 124.078C633.55 124.266 633.779 124.541 633.944 124.907C634.108 125.27 634.224 125.71 634.292 126.231C634.357 126.749 634.399 127.348 634.425 128.035H629.772ZM638.777 130.751V129.725C638.777 128.355 638.686 127.115 638.512 125.998C638.335 124.881 638.002 123.936 637.522 123.149C637.038 122.366 636.37 121.76 635.525 121.33C634.676 120.899 633.595 120.685 632.276 120.685C630.734 120.685 629.505 120.938 628.579 121.446C627.656 121.951 626.946 122.638 626.453 123.499C625.956 124.36 625.627 125.344 625.462 126.445C625.298 127.549 625.214 128.698 625.214 129.89C625.214 130.991 625.266 132.114 625.362 133.251C625.462 134.387 625.73 135.413 626.172 136.33C626.611 137.246 627.295 137.991 628.217 138.564C629.14 139.137 630.427 139.425 632.076 139.425C634.253 139.425 635.847 138.868 636.86 137.754C637.87 136.637 638.422 135.044 638.512 132.969H634.421C634.289 134.096 634.044 134.931 633.695 135.485C633.34 136.038 632.779 136.313 632.011 136.313C631.592 136.313 631.24 136.197 630.956 135.964C630.669 135.734 630.437 135.426 630.263 135.038C630.085 134.649 629.96 134.209 629.882 133.714C629.805 133.218 629.769 132.703 629.769 132.172V130.751H638.777ZM618.078 121.148V123.133H618.013C617.571 122.207 617.01 121.569 616.329 121.213C615.645 120.86 614.987 120.685 614.348 120.685C613.116 120.685 612.132 120.957 611.396 121.511C610.658 122.065 610.096 122.777 609.712 123.648C609.328 124.519 609.074 125.496 608.954 126.578C608.832 127.659 608.774 128.721 608.774 129.757C608.774 133.001 609.228 135.313 610.141 136.692C611.054 138.075 612.413 138.764 614.216 138.764C614.942 138.764 615.639 138.564 616.313 138.169C616.984 137.77 617.549 137.239 618.013 136.579H618.078V138.929C618.078 139.855 617.891 140.623 617.516 141.231C617.142 141.837 616.494 142.141 615.571 142.141C615.284 142.141 615.013 142.099 614.761 142.008C614.506 141.918 614.271 141.798 614.051 141.643C613.59 141.312 613.361 140.859 613.361 140.286H609.006C609.006 141.811 609.525 142.986 610.57 143.812C611.616 144.641 613.106 145.055 615.042 145.055C617.7 145.055 619.6 144.485 620.733 143.349C621.865 142.212 622.433 140.451 622.433 138.068V121.148H618.078ZM613.409 127.588C613.461 126.759 613.577 126.099 613.755 125.6C613.929 125.105 614.171 124.745 614.481 124.525C614.787 124.302 615.194 124.195 615.703 124.195C616.603 124.195 617.223 124.648 617.568 125.552C617.907 126.455 618.078 127.993 618.078 130.155C618.078 130.907 618.039 131.593 617.962 132.224C617.884 132.852 617.752 133.39 617.568 133.83C617.378 134.27 617.123 134.617 616.807 134.873C616.487 135.128 616.084 135.255 615.603 135.255C615.119 135.255 614.729 135.128 614.432 134.873C614.135 134.617 613.903 134.277 613.739 133.846C613.574 133.416 613.461 132.927 613.409 132.373C613.351 131.82 613.326 131.237 613.326 130.618C613.329 129.427 613.351 128.417 613.409 127.588ZM593.585 133.134V133.762C593.585 134.623 593.685 135.404 593.882 136.097C594.082 136.793 594.427 137.388 594.924 137.887C595.417 138.382 596.082 138.764 596.918 139.027C597.753 139.292 598.818 139.425 600.118 139.425C601.063 139.425 601.944 139.308 602.76 139.078C603.57 138.845 604.27 138.499 604.854 138.036C605.435 137.57 605.893 136.984 606.222 136.281C606.554 135.575 606.718 134.756 606.718 133.83C606.718 132.483 606.422 131.418 605.828 130.635C605.234 129.848 604.221 129.217 602.792 128.731L600.053 127.802C599.282 127.562 598.76 127.264 598.485 126.908C598.208 126.555 598.072 126.157 598.072 125.717C598.072 125.079 598.289 124.596 598.718 124.276C599.147 123.955 599.644 123.797 600.218 123.797C600.963 123.797 601.489 124.01 601.786 124.441C602.083 124.872 602.231 125.551 602.231 126.477H606.322V125.749C606.322 124.137 605.828 122.893 604.838 122.01C603.847 121.126 602.315 120.685 600.25 120.685C599.082 120.685 598.089 120.828 597.266 121.116C596.44 121.401 595.763 121.786 595.237 122.272C594.708 122.761 594.32 123.327 594.082 123.978C593.837 124.632 593.717 125.318 593.717 126.047C593.717 127.306 594.033 128.339 594.675 129.145C595.311 129.948 596.259 130.573 597.511 131.013L600.711 132.172C601.15 132.351 601.537 132.587 601.866 132.885C602.199 133.183 602.363 133.62 602.363 134.193C602.363 134.899 602.15 135.43 601.734 135.782C601.318 136.139 600.757 136.313 600.053 136.313C599.282 136.313 598.695 136.074 598.289 135.601C597.879 135.128 597.679 134.5 597.679 133.73V133.134H593.585ZM586.575 121.148V123.133H586.51C586.068 122.207 585.507 121.569 584.826 121.213C584.142 120.86 583.484 120.685 582.845 120.685C581.613 120.685 580.629 120.957 579.893 121.511C579.154 122.065 578.593 122.777 578.209 123.648C577.825 124.519 577.57 125.496 577.451 126.578C577.328 127.659 577.27 128.721 577.27 129.757C577.27 133.001 577.725 135.313 578.638 136.692C579.551 138.075 580.909 138.764 582.713 138.764C583.439 138.764 584.136 138.564 584.81 138.169C585.481 137.77 586.045 137.239 586.51 136.579H586.575V138.929C586.575 139.855 586.387 140.623 586.013 141.231C585.639 141.837 584.99 142.141 584.068 142.141C583.781 142.141 583.51 142.099 583.258 142.008C583.003 141.918 582.768 141.798 582.548 141.643C582.087 141.312 581.858 140.859 581.858 140.286H577.503C577.503 141.811 578.022 142.986 579.067 143.812C580.113 144.641 581.603 145.055 583.539 145.055C586.197 145.055 588.097 144.485 589.23 143.349C590.362 142.212 590.93 140.451 590.93 138.068V121.148H586.575ZM581.906 127.588C581.958 126.759 582.074 126.099 582.252 125.6C582.429 125.105 582.668 124.745 582.977 124.525C583.284 124.302 583.69 124.195 584.2 124.195C585.1 124.195 585.72 124.648 586.065 125.552C586.404 126.455 586.575 127.993 586.575 130.155C586.575 130.907 586.536 131.593 586.458 132.224C586.381 132.852 586.249 133.39 586.065 133.83C585.874 134.27 585.62 134.617 585.303 134.873C584.984 135.128 584.581 135.255 584.1 135.255C583.616 135.255 583.226 135.128 582.929 134.873C582.632 134.617 582.4 134.277 582.235 133.846C582.071 133.416 581.958 132.927 581.906 132.373C581.851 131.82 581.822 131.237 581.822 130.618C581.826 129.427 581.851 128.417 581.906 127.588ZM560.995 138.962H565.547V127.141C565.547 125.176 566.35 124.195 567.957 124.195C568.637 124.195 569.131 124.376 569.441 124.739C569.747 125.105 569.902 125.749 569.902 126.678V138.962H574.457V125.749C574.457 123.962 574.064 122.67 573.286 121.877C572.502 121.08 571.386 120.685 569.934 120.685C568.947 120.685 568.066 120.889 567.295 121.297C566.524 121.705 565.898 122.349 565.414 123.233H565.35V121.148H560.995V138.962ZM553.407 138.962H557.762V121.148H553.207V132.969C553.207 134.931 552.403 135.915 550.8 135.915C550.116 135.915 549.622 135.734 549.313 135.368C549.003 135.005 548.851 134.358 548.851 133.432V121.148H544.299V134.358C544.299 136.148 544.69 137.44 545.47 138.233C546.248 139.027 547.367 139.425 548.819 139.425C549.81 139.425 550.687 139.221 551.458 138.813C552.229 138.405 552.855 137.761 553.339 136.877H553.407V138.962ZM527.643 138.962H532.198V127.141C532.198 125.176 532.998 124.195 534.605 124.195C535.286 124.195 535.779 124.376 536.089 124.739C536.395 125.105 536.553 125.749 536.553 126.678V138.962H541.105V125.749C541.105 123.962 540.712 122.67 539.934 121.877C539.15 121.08 538.037 120.685 536.586 120.685C534.582 120.685 533.14 121.446 532.263 122.968H532.198V115.321H527.643V138.962ZM525.036 127.572C525.036 125.451 524.504 123.774 523.436 122.537C522.368 121.304 520.781 120.685 518.668 120.685C517.613 120.685 516.642 120.828 515.764 121.116C514.883 121.401 514.125 121.903 513.49 122.621C512.848 123.34 512.354 124.299 512.003 125.503C511.651 126.704 511.477 128.223 511.477 130.055C511.477 131.842 511.619 133.338 511.906 134.542C512.19 135.744 512.616 136.705 513.177 137.421C513.735 138.139 514.438 138.654 515.287 138.962C516.132 139.269 517.129 139.425 518.274 139.425C520.691 139.425 522.423 138.797 523.468 137.537C524.513 136.281 525.036 134.481 525.036 132.14H520.681C520.681 133.597 520.503 134.656 520.155 135.319C519.8 135.983 519.239 136.313 518.471 136.313C517.964 136.313 517.552 136.197 517.235 135.964C516.913 135.734 516.668 135.362 516.49 134.856C516.313 134.348 516.193 133.704 516.129 132.92C516.061 132.134 516.029 131.191 516.029 130.087C516.029 129.071 516.061 128.177 516.129 127.407C516.193 126.633 516.313 125.998 516.49 125.503C516.668 125.004 516.922 124.632 517.268 124.376C517.606 124.12 518.061 123.994 518.635 123.994C519.052 123.994 519.397 124.101 519.674 124.308C519.949 124.519 520.158 124.797 520.303 125.137C520.445 125.477 520.542 125.866 520.6 126.296C520.652 126.727 520.681 127.151 520.681 127.572H525.036ZM496.424 133.134V133.762C496.424 134.623 496.524 135.404 496.72 136.097C496.92 136.793 497.266 137.388 497.759 137.887C498.256 138.382 498.917 138.764 499.756 139.027C500.592 139.292 501.656 139.425 502.956 139.425C503.902 139.425 504.782 139.308 505.595 139.078C506.408 138.845 507.109 138.499 507.692 138.036C508.273 137.57 508.731 136.984 509.06 136.281C509.393 135.575 509.557 134.756 509.557 133.83C509.557 132.483 509.26 131.418 508.667 130.635C508.07 129.848 507.057 129.217 505.631 128.731L502.892 127.802C502.118 127.562 501.598 127.264 501.324 126.908C501.047 126.555 500.911 126.157 500.911 125.717C500.911 125.079 501.127 124.596 501.556 124.276C501.982 123.955 502.482 123.797 503.056 123.797C503.802 123.797 504.328 124.01 504.624 124.441C504.921 124.872 505.07 125.551 505.07 126.477H509.16V125.749C509.16 124.137 508.667 122.893 507.676 122.01C506.686 121.126 505.153 120.685 503.089 120.685C501.921 120.685 500.927 120.828 500.105 121.116C499.279 121.401 498.601 121.786 498.075 122.272C497.546 122.761 497.159 123.327 496.92 123.978C496.675 124.632 496.556 125.318 496.556 126.047C496.556 127.306 496.872 128.339 497.514 129.145C498.15 129.948 499.098 130.573 500.35 131.013L503.55 132.172C503.989 132.351 504.376 132.587 504.705 132.885C505.037 133.183 505.202 133.62 505.202 134.193C505.202 134.899 504.989 135.43 504.573 135.782C504.153 136.139 503.595 136.313 502.892 136.313C502.118 136.313 501.531 136.074 501.127 135.601C500.718 135.128 500.514 134.5 500.514 133.73V133.134H496.424ZM485.545 138.962H490.1V128.268C490.1 127.672 490.197 127.167 490.397 126.759C490.594 126.351 490.859 126.021 491.188 125.765C491.517 125.513 491.881 125.328 492.278 125.221C492.672 125.111 493.068 125.056 493.465 125.056C493.704 125.056 493.943 125.063 494.175 125.072C494.404 125.082 494.64 125.098 494.885 125.121V120.75C494.752 120.727 494.614 120.711 494.472 120.702C494.33 120.692 494.191 120.685 494.059 120.685C493.11 120.685 492.31 120.941 491.649 121.462C490.991 121.98 490.429 122.67 489.968 123.531H489.9V121.148H485.545V138.962ZM473.515 127.539C473.56 126.766 473.663 126.105 473.831 125.552C473.996 124.998 474.234 124.567 474.557 124.26C474.876 123.952 475.321 123.797 475.892 123.797C476.815 123.797 477.454 124.282 477.806 125.254C478.157 126.225 478.335 127.828 478.335 130.055C478.335 132.283 478.157 133.885 477.806 134.856C477.454 135.825 476.815 136.313 475.892 136.313C475.321 136.313 474.876 136.158 474.557 135.85C474.234 135.543 473.996 135.112 473.831 134.559C473.663 134.005 473.56 133.341 473.515 132.571C473.473 131.8 473.45 130.958 473.45 130.055C473.45 129.152 473.473 128.31 473.515 127.539ZM469.227 134.16C469.447 135.329 469.821 136.313 470.35 137.107C470.876 137.903 471.592 138.492 472.492 138.878C473.395 139.266 474.528 139.447 475.892 139.425C477.189 139.425 478.283 139.221 479.173 138.813C480.067 138.405 480.783 137.809 481.335 137.026C481.887 136.239 482.283 135.264 482.522 134.096C482.764 132.927 482.887 131.577 482.887 130.055C482.887 128.507 482.777 127.148 482.558 125.966C482.335 124.784 481.964 123.797 481.435 123C480.906 122.207 480.19 121.618 479.29 121.229C478.39 120.844 477.254 120.659 475.892 120.685C474.596 120.685 473.499 120.889 472.608 121.297C471.718 121.705 470.998 122.301 470.447 123.084C469.895 123.868 469.502 124.846 469.26 126.014C469.018 127.183 468.898 128.53 468.898 130.055C468.898 131.622 469.005 132.992 469.227 134.16ZM454 138.962H458.752V128.698H466.669V124.791H458.752V119.228H467.166V115.321H454V138.962Z" fill="#00549F"/>
<path d="M577.918 91.732C578.232 90.7112 578.915 90.2042 579.964 90.2042C581.034 90.2042 581.727 90.7112 582.041 91.732C582.356 92.7529 582.513 94.2673 582.513 96.2821C582.513 98.2969 582.356 99.8113 582.041 100.832C581.727 101.853 581.034 102.36 579.964 102.36C578.915 102.36 578.232 101.853 577.918 100.832C577.604 99.8113 577.446 98.2969 577.446 96.2821C577.446 94.2673 577.604 92.7529 577.918 91.732ZM582.721 105.52H587.333V81H582.513V88.7602H582.445C581.929 88.0282 581.355 87.4809 580.712 87.1115C580.07 86.7455 579.298 86.5641 578.389 86.5641C576.408 86.5641 574.952 87.3264 574.023 88.8476C573.091 90.3687 572.626 92.8469 572.626 96.2821C572.626 99.7173 573.091 102.195 574.023 103.717C574.952 105.238 576.408 106 578.389 106C579.37 106 580.19 105.812 580.853 105.433C581.519 105.056 582.117 104.432 582.653 103.562H582.721V105.52ZM555.387 105.52H560.208V93.2599C560.208 91.2216 561.058 90.2042 562.76 90.2042C563.477 90.2042 564.003 90.3922 564.331 90.7683C564.656 91.1478 564.82 91.816 564.82 92.7797V105.52H569.64V91.816C569.64 89.9624 569.227 88.6226 568.4 87.7999C567.573 86.9738 566.391 86.5641 564.854 86.5641C563.805 86.5641 562.872 86.7757 562.059 87.1988C561.243 87.6219 560.576 88.2901 560.067 89.2069H559.999V87.0443H555.387V105.52ZM547.348 105.52H551.96V87.0443H547.14V99.3042C547.14 101.339 546.289 102.36 544.591 102.36C543.867 102.36 543.341 102.172 543.016 101.792C542.688 101.416 542.528 100.745 542.528 99.7844V87.0443H537.707V100.745C537.707 102.602 538.117 103.942 538.948 104.764C539.771 105.587 540.956 106 542.494 106C543.543 106 544.472 105.788 545.288 105.365C546.101 104.942 546.768 104.274 547.28 103.357H547.348V105.52ZM516.324 97.6219H526.177V93.5688H516.324V97.6219ZM504.661 105.52H509.482V94.4285C509.482 93.8106 509.587 93.2868 509.796 92.8637C510.008 92.4406 510.284 92.0981 510.636 91.8328C510.985 91.5709 511.367 91.3795 511.788 91.2686C512.208 91.1545 512.628 91.0974 513.045 91.0974C513.301 91.0974 513.554 91.1041 513.796 91.1142C514.042 91.1242 514.292 91.141 514.548 91.1645V86.6313C514.408 86.6078 514.261 86.591 514.111 86.5809C513.96 86.5709 513.813 86.5641 513.673 86.5641C512.672 86.5641 511.822 86.8294 511.125 87.37C510.424 87.9073 509.83 88.6226 509.341 89.5158H509.273V87.0443H504.661V105.52ZM486.988 105.52H491.809V93.2599C491.809 91.2216 492.659 90.2042 494.361 90.2042C495.085 90.2042 495.608 90.3922 495.932 90.7683C496.257 91.1478 496.421 91.816 496.421 92.7797V105.52H501.245V91.816C501.245 89.9624 500.831 88.6226 500.005 87.7999C499.174 86.9738 497.992 86.5641 496.455 86.5641C494.337 86.5641 492.813 87.3533 491.881 88.9315H491.809V81H486.988V105.52ZM474.648 94.1867V93.4647C474.648 93.0282 474.689 92.595 474.768 92.1619C474.85 91.7253 474.987 91.3291 475.171 90.9765C475.356 90.6206 475.608 90.3351 475.923 90.1169C476.237 89.9019 476.64 89.7911 477.129 89.7911C477.617 89.7911 478.02 89.8885 478.335 90.0833C478.649 90.278 478.892 90.5635 479.066 90.9429C479.24 91.319 479.363 91.7757 479.435 92.3163C479.503 92.8536 479.547 93.4748 479.575 94.1867H474.648ZM484.187 97.004V95.9396C484.187 94.5191 484.091 93.233 483.907 92.0745C483.722 90.9161 483.37 89.9355 482.858 89.1195C482.345 88.3069 481.642 87.679 480.743 87.2324C479.845 86.7858 478.7 86.5641 477.303 86.5641C475.67 86.5641 474.368 86.8261 473.388 87.3533C472.411 87.8771 471.659 88.589 471.136 89.4822C470.61 90.3754 470.262 91.3962 470.088 92.5379C469.913 93.683 469.825 94.8751 469.825 96.1108C469.825 97.2525 469.879 98.4177 469.982 99.5964C470.088 100.775 470.375 101.839 470.839 102.79C471.304 103.74 472.028 104.512 473.005 105.107C473.982 105.701 475.345 106 477.095 106C479.401 106 481.085 105.422 482.158 104.267C483.23 103.109 483.811 101.457 483.907 99.3042H479.575C479.435 100.473 479.179 101.339 478.806 101.913C478.43 102.488 477.836 102.773 477.023 102.773C476.579 102.773 476.21 102.652 475.906 102.41C475.602 102.172 475.356 101.853 475.171 101.45C474.987 101.047 474.85 100.59 474.768 100.077C474.689 99.5628 474.648 99.0289 474.648 98.4782V97.004H484.187ZM467.942 105.52V101.467H459.032V81H454V105.52H467.942Z" fill="#00549F"/>
<path d="M425.87 88.5446C425.87 84.0187 425.55 79.1787 424.916 74.0078C424.277 68.8481 422.679 64.0361 420.132 59.5663C417.575 55.0964 413.717 51.4174 408.557 48.5123C403.386 45.6127 396.336 44.1602 387.408 44.1602C378.008 44.1602 370.521 45.7529 364.952 48.9497C359.383 52.1352 355.121 56.577 352.159 62.2583C349.204 67.9452 347.291 74.7649 346.422 82.712C345.547 90.659 345.11 99.3295 345.11 108.735C345.11 118.129 345.547 126.805 346.422 134.752C347.291 142.699 349.204 149.519 352.159 155.205C355.121 160.887 359.383 165.328 364.952 168.514C370.521 171.705 378.008 173.304 387.408 173.304C395.646 173.304 402.343 171.969 407.514 169.305C412.673 166.635 416.672 163.012 419.516 158.419C422.365 153.837 424.305 148.531 425.348 142.497C426.391 136.462 426.919 130.08 426.919 123.356H401.849C401.849 130.08 401.445 135.509 400.632 139.625C399.819 143.742 398.72 146.933 397.323 149.199C395.938 151.459 394.278 152.973 392.371 153.725C390.453 154.482 388.395 154.852 386.185 154.852C383.521 154.852 381.166 154.302 379.141 153.203C377.105 152.098 375.428 149.956 374.094 146.759C372.759 143.574 371.772 139.076 371.138 133.271C370.493 127.472 370.179 119.873 370.179 110.468C370.179 101.657 370.409 94.1978 370.874 88.1072C371.334 82.0165 372.153 77.0812 373.308 73.3123C374.469 69.5435 376.062 66.8179 378.092 65.1354C380.123 63.4529 382.708 62.6116 385.843 62.6116C391.524 62.6116 395.439 64.6699 397.587 68.7864C399.735 72.9086 400.806 79.4928 400.806 88.5446H425.87ZM264.007 46.5942V170.87H335.194V150.326H289.071V116.912H330.842V96.3739H289.071V67.1376H333.455V46.5942H264.007ZM168.806 132.054V137.102C168.806 148.593 171.851 157.494 177.942 163.82C184.032 170.146 194.155 173.304 208.316 173.304C221.889 173.304 232.477 170.23 240.077 164.078C247.676 157.931 251.484 148.296 251.484 135.184C251.484 131.359 251.131 127.876 250.43 124.746C249.74 121.611 248.489 118.74 246.694 116.126C244.888 113.519 242.454 111.085 239.387 108.819C236.302 106.559 232.449 104.377 227.811 102.291L208.485 93.9399C203.151 91.7358 199.668 89.3242 198.048 86.7107C196.416 84.1028 195.608 80.8836 195.608 77.0531C195.608 75.2024 195.81 73.4021 196.219 71.6635C196.623 69.9193 197.375 68.3826 198.485 67.0422C199.584 65.713 201.065 64.6418 202.916 63.8286C204.772 63.0154 207.099 62.6116 209.881 62.6116C214.755 62.6116 218.238 64.2044 220.324 67.3955C222.41 70.5867 223.459 75.1407 223.459 81.0575H247.48V77.5747C247.48 71.6635 246.521 66.5879 244.602 62.348C242.69 58.1137 240.02 54.6309 236.599 51.8997C233.173 49.1796 229.112 47.2055 224.412 45.9885C219.718 44.7659 214.581 44.1602 209.012 44.1602C197.061 44.1602 187.661 47.1775 180.819 53.212C173.965 59.2466 170.544 68.4107 170.544 80.7098C170.544 85.819 171.178 90.3168 172.457 94.1978C173.741 98.0844 175.738 101.511 178.463 104.467C181.189 107.422 184.588 110.013 188.648 112.212C192.708 114.416 197.526 116.446 203.095 118.308C207.268 119.699 210.779 121.062 213.628 122.397C216.465 123.731 218.759 125.212 220.498 126.833C222.242 128.459 223.487 130.288 224.244 132.318C224.996 134.348 225.371 136.754 225.371 139.541C225.371 144.757 223.835 148.621 220.761 151.117C217.688 153.607 214.233 154.852 210.403 154.852C207.032 154.852 204.312 154.387 202.22 153.461C200.134 152.536 198.446 151.257 197.173 149.636C195.894 148.01 195.03 146.008 194.565 143.63C194.099 141.252 193.869 138.61 193.869 135.705V132.054H168.806Z" fill="#00549F"/>
<path d="M54.6477 170.864H65.7859V55.9937H97.8095V46.5941H22.6185V55.9937H54.6477V170.864ZM0 170.864H11.1382V46.5941H0V170.864Z" fill="#00549F"/>
<path d="M139.047 0H127.578V171.049H139.047V0Z" fill="#8EBAE5"/>
</svg>
