<svg width="300" height="105" viewBox="0 0 300 105" fill="none" xmlns="http://www.w3.org/2000/svg">
<path d="M299.263 53.4688C299.263 50.7357 299.038 47.813 298.593 44.6905C298.144 41.5748 297.021 38.669 295.231 35.9698C293.434 33.2707 290.723 31.049 287.097 29.2947C283.464 27.5438 278.51 26.6667 272.236 26.6667C265.63 26.6667 260.369 27.6285 256.456 29.5589C252.542 31.4825 249.547 34.1647 247.466 37.5954C245.389 41.0295 244.045 45.1477 243.434 49.9466C242.82 54.7455 242.512 59.9813 242.512 65.6608C242.512 71.3335 242.82 76.5726 243.434 81.3715C244.045 86.1705 245.389 90.2886 247.466 93.7227C249.547 97.1534 252.542 99.8357 256.456 101.759C260.369 103.686 265.63 104.652 272.236 104.652C278.025 104.652 282.731 103.845 286.364 102.237C289.99 100.625 292.8 98.437 294.798 95.6633C296.8 92.8964 298.164 89.6926 298.897 86.0485C299.63 82.4045 300 78.5504 300 74.4898H282.384C282.384 78.5504 282.1 81.8287 281.528 84.3145C280.957 86.8004 280.185 88.7274 279.203 90.0956C278.23 91.4604 277.063 92.3748 275.723 92.8286C274.376 93.2858 272.929 93.5094 271.376 93.5094C269.504 93.5094 267.849 93.1775 266.426 92.5137C264.996 91.8465 263.818 90.5528 262.88 88.6224C261.942 86.6988 261.248 83.9827 260.803 80.4775C260.349 76.9756 260.129 72.3867 260.129 66.7073C260.129 61.3868 260.29 56.8825 260.617 53.2046C260.941 49.5267 261.516 46.5464 262.328 44.2706C263.144 41.9947 264.263 40.3488 265.689 39.3328C267.116 38.3168 268.933 37.8088 271.136 37.8088C275.128 37.8088 277.879 39.0517 279.389 41.5375C280.898 44.0267 281.651 48.0027 281.651 53.4688H299.263ZM185.521 28.1365V103.182H235.545V90.7763H203.134V70.5985H232.486V58.1966H203.134V40.5419H234.323V28.1365H185.521ZM118.622 79.7425V82.7906C118.622 89.7298 120.762 95.1045 125.042 98.9246C129.322 102.745 136.436 104.652 146.387 104.652C155.924 104.652 163.365 102.796 168.705 99.0804C174.045 95.3686 176.721 89.5503 176.721 81.6323C176.721 79.3226 176.472 77.2195 175.98 75.3297C175.495 73.4366 174.616 71.7026 173.355 70.1244C172.086 68.5496 170.376 67.0798 168.22 65.7116C166.052 64.3468 163.345 63.0293 160.086 61.7695L146.505 56.7267C142.757 55.3958 140.31 53.9395 139.171 52.3613C138.024 50.7865 137.456 48.8426 137.456 46.5295C137.456 45.4119 137.598 44.3248 137.886 43.2749C138.17 42.2216 138.698 41.2937 139.478 40.4843C140.25 39.6816 141.291 39.0348 142.591 38.5437C143.896 38.0526 145.531 37.8088 147.486 37.8088C150.911 37.8088 153.358 38.7706 154.824 40.6976C156.29 42.6246 157.027 45.3746 157.027 48.9476H173.907V46.8444C173.907 43.2749 173.233 40.2099 171.885 37.6496C170.541 35.0927 168.665 32.9896 166.261 31.3403C163.853 29.6977 161 28.5056 157.697 27.7707C154.399 27.0324 150.789 26.6667 146.875 26.6667C138.477 26.6667 131.872 28.4887 127.064 32.1327C122.248 35.7768 119.844 41.3106 119.844 48.7376C119.844 51.8228 120.289 54.539 121.188 56.8825C122.09 59.2295 123.493 61.2987 125.409 63.0835C127.324 64.8683 129.712 66.4329 132.565 67.7605C135.419 69.0915 138.804 70.3175 142.718 71.4418C145.65 72.2817 148.117 73.1047 150.119 73.9107C152.113 74.7167 153.725 75.6108 154.947 76.5896C156.172 77.5717 157.047 78.6757 157.579 79.9017C158.107 81.1277 158.371 82.5806 158.371 84.2637C158.371 87.4133 157.291 89.7468 155.132 91.2538C152.972 92.7575 150.544 93.5094 147.853 93.5094C145.484 93.5094 143.573 93.2283 142.103 92.6695C140.637 92.1107 139.45 91.3385 138.556 90.3598C137.657 89.3776 137.05 88.1686 136.723 86.7326C136.396 85.2967 136.235 83.7016 136.235 81.9473V79.7425H118.622Z" fill="#00549F"/>
<path d="M97.7103 0H89.6509V103.29H97.7103V0Z" fill="#8EBAE5"/>
<path d="M38.4014 103.178H46.2283V33.8125H68.7316V28.1364H15.8942V33.8125H38.4014V103.178ZM0 103.178H7.82689V28.1364H0V103.178Z" fill="#00549F"/>
</svg>
