<svg width="300" height="324" viewBox="0 0 300 324" fill="none" xmlns="http://www.w3.org/2000/svg">
<path d="M167.084 172.428L122.823 139.446C124.626 136.484 125.585 133.085 125.594 129.618C125.604 126.359 124.764 123.155 123.158 120.32C121.551 117.486 119.233 115.119 116.432 113.455C113.631 111.79 110.444 110.884 107.186 110.828C103.929 110.771 100.713 111.565 97.8554 113.131C94.9982 114.697 92.599 116.981 90.8945 119.758C89.19 122.535 88.2393 125.709 88.1361 128.965C88.033 132.222 88.781 135.449 90.3063 138.328C91.8316 141.207 94.0815 143.639 96.8338 145.383L54.2876 227.243L57.2559 228.76L99.7362 146.834C101.99 147.788 104.412 148.282 106.86 148.285C109.526 148.24 112.151 147.628 114.562 146.491C116.973 145.354 119.114 143.717 120.844 141.689L165.106 174.67C165.706 173.748 166.367 172.867 167.084 172.032M260.752 75.5938C259.654 75.6595 258.552 75.6595 257.454 75.5938L241.293 285.752C239.46 285.796 237.641 286.084 235.884 286.61L212.599 230.739L209.565 232.058L232.85 287.863C228.903 289.912 225.814 293.297 224.135 297.415C222.456 301.532 222.296 306.112 223.683 310.337C225.071 314.561 227.917 318.154 231.711 320.473C235.504 322.793 240 323.687 244.392 322.996C248.785 322.305 252.788 320.074 255.687 316.702C258.586 313.33 260.19 309.037 260.214 304.59C260.238 300.144 258.68 295.834 255.818 292.431C252.955 289.028 248.976 286.754 244.591 286.016L260.752 75.5938Z" fill="#BDCD00"/>
<path d="M262.005 0C253.655 0.0390788 245.549 2.82816 238.943 7.93598C232.337 13.0438 227.597 20.1858 225.457 28.2577C223.317 36.3295 223.896 44.8815 227.104 52.5914C230.312 60.3012 235.971 66.7394 243.206 70.9103L206.332 159.631C203.128 158.772 199.822 158.35 196.504 158.377C186.427 158.377 176.763 162.38 169.638 169.506C162.512 176.631 158.509 186.295 158.509 196.372C158.509 199.671 158.952 202.954 159.828 206.135L71.24 242.744C66.6532 234.707 59.2999 228.613 50.5513 225.597C41.8027 222.582 32.2559 222.851 23.691 226.354C15.1262 229.858 8.12797 236.357 4.00122 244.64C-0.125542 252.922 -1.09911 262.423 1.26202 271.371C3.62316 280.318 9.15784 288.102 16.8341 293.269C24.5103 298.437 33.8041 300.637 42.9825 299.459C52.1609 298.28 60.5974 293.804 66.7189 286.864C72.8405 279.924 76.2292 270.995 76.2532 261.741C76.2803 258.424 75.8588 255.118 74.9999 251.913L163.588 215.303C166.505 220.346 170.542 224.65 175.388 227.884C180.233 231.117 185.757 233.193 191.533 233.951C197.309 234.709 203.182 234.129 208.698 232.256C214.214 230.382 219.225 227.265 223.344 223.146C227.463 219.027 230.58 214.016 232.453 208.5C234.327 202.984 234.907 197.111 234.149 191.336C233.391 185.56 231.315 180.036 228.082 175.19C224.848 170.344 220.544 166.307 215.501 163.391L252.177 74.6702C255.38 75.542 258.685 75.9856 262.005 75.9895C272.082 75.9895 281.746 71.9865 288.872 64.8611C295.997 57.7357 300 48.0716 300 37.9947C300 27.9179 295.997 18.2538 288.872 11.1284C281.746 4.00301 272.082 0 262.005 0Z" fill="#006165"/>
</svg>
