<svg width="569" height="202" viewBox="0 0 569 202" fill="none" xmlns="http://www.w3.org/2000/svg">
<path d="M104.056 107.383L76.4913 86.8434C77.6143 84.9988 78.211 82.882 78.2167 80.7224C78.2231 78.6933 77.7002 76.6976 76.6996 74.9323C75.6989 73.167 74.2552 71.6932 72.5109 70.6565C70.7666 69.6197 68.782 69.0559 66.7532 69.0205C64.7243 68.9852 62.7213 69.4796 60.942 70.455C59.1626 71.4304 57.6684 72.853 56.6069 74.5823C55.5454 76.3117 54.9533 78.288 54.8891 80.3161C54.8249 82.3443 55.2907 84.3541 56.2406 86.1472C57.1905 87.9403 58.5917 89.4546 60.3058 90.5406L33.8091 141.521L35.6577 142.466L62.1133 91.4444C63.517 92.0387 65.0256 92.346 66.5499 92.3481C68.2099 92.32 69.8448 91.9392 71.3463 91.2309C72.8478 90.5227 74.1815 89.5032 75.2589 88.2401L102.824 108.78C103.198 108.206 103.61 107.657 104.056 107.137M162.39 47.0778C161.706 47.1187 161.02 47.1187 160.336 47.0778L150.271 177.959C149.13 177.986 147.997 178.166 146.903 178.493L132.401 143.698L130.512 144.52L145.013 179.274C142.555 180.55 140.631 182.658 139.586 185.222C138.54 187.786 138.44 190.639 139.305 193.27C140.169 195.901 141.941 198.138 144.304 199.583C146.666 201.027 149.466 201.584 152.201 201.153C154.937 200.723 157.43 199.334 159.235 197.234C161.041 195.134 162.04 192.46 162.055 189.691C162.07 186.922 161.099 184.238 159.317 182.119C157.534 179.999 155.056 178.583 152.325 178.123L162.39 47.0778Z" fill="#BDCD00"/>
<path d="M163.17 0C157.97 0.0243373 152.922 1.76131 148.808 4.94233C144.693 8.12335 141.742 12.5712 140.409 17.5982C139.076 22.6251 139.437 27.9511 141.435 32.7526C143.433 37.5541 146.957 41.5636 151.462 44.1611L128.499 99.4139C126.503 98.8791 124.444 98.6165 122.378 98.6334C116.102 98.6334 110.084 101.126 105.646 105.564C101.208 110.001 98.7155 116.02 98.7155 122.296C98.7152 124.35 98.9916 126.395 99.5371 128.375L44.3665 151.175C41.5099 146.17 36.9305 142.374 31.4821 140.496C26.0336 138.618 20.0881 138.786 14.7542 140.968C9.42022 143.15 5.06189 147.197 2.49186 152.355C-0.0781842 157.514 -0.6845 163.431 0.785957 169.003C2.25641 174.575 5.70327 179.422 10.4838 182.641C15.2644 185.859 21.0523 187.229 26.7684 186.495C32.4845 185.761 37.7385 182.973 41.5509 178.652C45.3632 174.33 47.4736 168.769 47.4886 163.006C47.5055 160.94 47.2429 158.881 46.7081 156.885L101.879 134.086C103.695 137.226 106.209 139.907 109.227 141.92C112.245 143.934 115.685 145.227 119.282 145.699C122.879 146.171 126.537 145.81 129.972 144.643C133.407 143.476 136.528 141.535 139.093 138.97C141.658 136.404 143.599 133.284 144.766 129.848C145.933 126.413 146.294 122.756 145.822 119.159C145.35 115.562 144.057 112.122 142.043 109.104C140.03 106.086 137.349 103.572 134.209 101.755L157.049 46.5027C159.044 47.0456 161.103 47.3219 163.17 47.3243C169.446 47.3243 175.464 44.8313 179.902 40.3938C184.339 35.9563 186.832 29.9378 186.832 23.6622C186.832 17.3866 184.339 11.368 179.902 6.93049C175.464 2.49297 169.446 0 163.17 0Z" fill="#006165"/>
<path d="M441.571 186.545V187.325C441.559 188.31 441.683 189.292 441.94 190.242C442.166 191.079 442.604 191.844 443.214 192.46C443.927 193.117 444.786 193.595 445.72 193.857C447.055 194.232 448.441 194.398 449.828 194.35C450.937 194.366 452.043 194.228 453.114 193.939C454.059 193.687 454.941 193.239 455.702 192.625C456.44 192.044 457.031 191.298 457.427 190.447C457.855 189.492 458.066 188.454 458.044 187.408C458.166 185.951 457.774 184.497 456.934 183.3C455.934 182.154 454.62 181.326 453.155 180.917L449.745 179.767C448.997 179.589 448.314 179.204 447.774 178.657C447.447 178.247 447.26 177.744 447.24 177.22C447.211 176.883 447.268 176.545 447.404 176.237C447.541 175.928 447.752 175.659 448.02 175.453C448.565 175.045 449.229 174.828 449.91 174.837C450.275 174.8 450.643 174.856 450.981 175C451.318 175.144 451.614 175.37 451.841 175.659C452.275 176.419 452.475 177.291 452.416 178.165H457.51V177.22C457.562 176.358 457.423 175.495 457.103 174.692C456.784 173.89 456.291 173.168 455.661 172.578C454.029 171.337 451.993 170.751 449.951 170.934C448.684 170.9 447.42 171.08 446.213 171.468C445.287 171.77 444.434 172.26 443.707 172.906C443.06 173.49 442.567 174.224 442.269 175.042C441.97 175.858 441.817 176.72 441.817 177.589C441.769 178.974 442.188 180.334 443.008 181.451C443.941 182.541 445.167 183.339 446.541 183.751L450.649 185.189C451.179 185.401 451.666 185.707 452.087 186.093C452.299 186.3 452.464 186.55 452.57 186.827C452.677 187.103 452.722 187.399 452.703 187.695C452.731 188.061 452.675 188.429 452.54 188.771C452.405 189.113 452.194 189.419 451.923 189.667C451.327 190.133 450.583 190.366 449.828 190.324C449.365 190.416 448.887 190.393 448.436 190.257C447.985 190.121 447.574 189.876 447.24 189.544C446.727 188.873 446.466 188.045 446.5 187.202V186.463L441.571 186.545ZM427.973 180.219V179.356C427.933 178.836 427.933 178.314 427.973 177.795C428.049 177.308 428.201 176.837 428.425 176.398C428.635 175.985 428.946 175.632 429.329 175.371C429.733 175.078 430.226 174.933 430.725 174.96C431.23 174.94 431.73 175.069 432.163 175.33C432.552 175.573 432.854 175.932 433.026 176.357C433.245 176.881 433.383 177.435 433.437 178C433.487 178.739 433.487 179.48 433.437 180.219H427.973ZM439.188 183.587V182.314C439.213 180.773 439.103 179.234 438.859 177.713C438.708 176.46 438.288 175.255 437.627 174.18C437.049 173.198 436.191 172.411 435.162 171.92C433.875 171.33 432.469 171.049 431.054 171.099C429.466 171.037 427.888 171.361 426.453 172.044C425.352 172.625 424.44 173.508 423.824 174.591C423.188 175.722 422.77 176.962 422.591 178.247C422.384 179.606 422.274 180.979 422.263 182.355C422.263 183.71 422.263 185.107 422.263 186.463C422.366 187.784 422.7 189.077 423.249 190.283C423.824 191.421 424.706 192.374 425.796 193.036C427.272 193.82 428.933 194.189 430.602 194.104C431.683 194.197 432.772 194.062 433.798 193.708C434.824 193.354 435.765 192.789 436.559 192.05C437.942 190.378 438.672 188.262 438.613 186.093H433.519C433.451 187.188 433.143 188.254 432.615 189.215C432.396 189.564 432.083 189.845 431.713 190.026C431.343 190.208 430.93 190.282 430.52 190.242C430.048 190.257 429.585 190.112 429.205 189.831C428.852 189.502 428.56 189.112 428.343 188.681C428.12 188.156 427.968 187.603 427.891 187.038C427.848 186.395 427.848 185.75 427.891 185.107V183.341L439.188 183.587ZM403.571 186.545V187.325C403.56 188.31 403.684 189.292 403.941 190.242C404.182 191.082 404.634 191.846 405.256 192.46C405.953 193.117 406.798 193.597 407.72 193.857C409.057 194.229 410.442 194.395 411.828 194.35C412.938 194.368 414.044 194.23 415.115 193.939C416.069 193.678 416.963 193.232 417.744 192.625C418.47 192.043 419.047 191.296 419.428 190.447C419.856 189.492 420.067 188.454 420.044 187.408C420.167 185.951 419.775 184.497 418.935 183.3C417.943 182.145 416.626 181.315 415.156 180.917L411.746 179.767C411.004 179.604 410.33 179.217 409.816 178.657C409.483 178.235 409.296 177.716 409.282 177.179C409.262 176.839 409.326 176.5 409.47 176.192C409.613 175.883 409.831 175.616 410.103 175.412C410.632 175.004 411.284 174.787 411.952 174.796C412.323 174.76 412.697 174.816 413.041 174.959C413.385 175.102 413.688 175.329 413.924 175.618C414.344 176.382 414.53 177.254 414.458 178.123H419.552V177.22C419.604 176.358 419.465 175.495 419.145 174.692C418.826 173.89 418.333 173.168 417.703 172.578C416.071 171.337 414.035 170.751 411.993 170.934C410.739 170.9 409.488 171.08 408.296 171.468C407.357 171.769 406.491 172.259 405.749 172.906C405.115 173.501 404.624 174.232 404.311 175.042C404.012 175.858 403.859 176.72 403.859 177.589C403.811 178.974 404.23 180.334 405.05 181.451C405.99 182.532 407.214 183.329 408.583 183.751L412.691 185.189C413.228 185.387 413.718 185.695 414.129 186.093C414.341 186.3 414.506 186.55 414.612 186.827C414.719 187.103 414.764 187.399 414.745 187.695C414.773 188.061 414.717 188.429 414.582 188.771C414.447 189.113 414.236 189.419 413.965 189.667C413.374 190.143 412.626 190.378 411.87 190.324C411.465 190.352 411.06 190.289 410.683 190.14C410.306 189.991 409.968 189.759 409.692 189.462C409.169 188.795 408.893 187.967 408.912 187.12V186.381L403.571 186.545ZM394.903 187.079C394.911 187.63 394.799 188.177 394.575 188.681C394.371 189.074 394.092 189.423 393.753 189.708C393.412 189.984 393.022 190.193 392.603 190.324C392.208 190.382 391.807 190.382 391.412 190.324C391.085 190.373 390.752 190.326 390.452 190.187C390.153 190.048 389.901 189.825 389.727 189.544C389.382 188.871 389.212 188.122 389.234 187.366C389.189 186.522 389.452 185.69 389.974 185.025C390.64 184.358 391.505 183.926 392.439 183.793L393.63 183.423C394.068 183.226 394.482 182.977 394.862 182.683L394.903 187.079ZM389.727 178.452V177.836C389.686 177.081 389.919 176.337 390.385 175.741C390.633 175.47 390.939 175.259 391.281 175.123C391.622 174.988 391.99 174.932 392.356 174.96C392.732 174.924 393.111 174.971 393.467 175.099C393.822 175.227 394.144 175.432 394.411 175.7C394.825 176.27 395.028 176.967 394.986 177.672C395.03 178.274 394.855 178.872 394.493 179.356C394.008 179.828 393.392 180.143 392.726 180.26L389.522 181.122C388.657 181.353 387.818 181.669 387.016 182.067C386.359 182.404 385.773 182.864 385.291 183.423C384.806 183.98 384.454 184.64 384.264 185.354C384.036 186.225 383.925 187.123 383.935 188.024C383.932 188.786 384.029 189.546 384.223 190.283C384.413 190.999 384.718 191.678 385.126 192.296C385.539 192.921 386.105 193.43 386.77 193.775C387.544 194.171 388.405 194.369 389.275 194.35C390.425 194.383 391.57 194.187 392.644 193.775C393.626 193.273 394.419 192.466 394.903 191.474C394.903 191.844 394.903 192.255 395.191 192.666C395.274 193.053 395.412 193.427 395.602 193.775H401.024C400.763 193.186 400.583 192.564 400.49 191.926C400.413 191.12 400.413 190.309 400.49 189.503V177.877C400.505 176.965 400.409 176.054 400.203 175.166C400.007 174.347 399.596 173.595 399.011 172.988C398.336 172.323 397.502 171.843 396.588 171.592C395.25 171.228 393.866 171.062 392.48 171.099C391.468 171.092 390.46 171.217 389.481 171.468C388.584 171.665 387.742 172.058 387.016 172.619C386.295 173.172 385.717 173.891 385.332 174.714C384.892 175.723 384.681 176.818 384.716 177.918V178.452H389.727ZM370.173 177.22C370.314 176.684 370.628 176.21 371.066 175.872C371.505 175.534 372.043 175.35 372.597 175.35C373.151 175.35 373.689 175.534 374.127 175.872C374.566 176.21 374.88 176.684 375.021 177.22C375.448 178.994 375.627 180.819 375.555 182.642C375.622 184.479 375.442 186.317 375.021 188.106C374.855 188.619 374.531 189.065 374.096 189.382C373.66 189.699 373.136 189.87 372.597 189.87C372.058 189.87 371.534 189.699 371.098 189.382C370.663 189.065 370.339 188.619 370.173 188.106C369.732 186.32 369.538 184.481 369.598 182.642C369.535 180.817 369.728 178.991 370.173 177.22ZM363.929 193.652H369.187V191.31C369.712 192.22 370.444 192.995 371.323 193.57C372.207 194.04 373.199 194.267 374.199 194.227C375.222 194.294 376.243 194.076 377.15 193.597C378.056 193.118 378.812 192.398 379.334 191.516C380.632 188.732 381.197 185.664 380.977 182.601C381.203 179.551 380.637 176.495 379.334 173.728C378.821 172.835 378.068 172.103 377.161 171.617C376.253 171.13 375.227 170.908 374.199 170.976C373.252 170.938 372.313 171.166 371.488 171.633C370.678 172.146 369.979 172.816 369.434 173.605V164.444H363.765L363.929 193.652ZM354.398 187.079C354.406 187.63 354.294 188.177 354.07 188.681C353.636 189.452 352.934 190.036 352.098 190.324C351.703 190.382 351.302 190.382 350.907 190.324C350.574 190.353 350.24 190.283 349.948 190.122C349.655 189.961 349.417 189.717 349.263 189.42C348.918 188.748 348.748 187.999 348.77 187.243C348.725 186.399 348.988 185.567 349.51 184.902C350.176 184.235 351.041 183.802 351.975 183.669L353.166 183.3C353.604 183.102 354.018 182.854 354.398 182.56V187.079ZM349.14 178.452V177.836C349.098 177.081 349.332 176.337 349.797 175.741C350.354 175.218 351.088 174.927 351.851 174.927C352.615 174.927 353.349 175.218 353.905 175.741C354.352 176.297 354.572 177.001 354.522 177.713C354.566 178.315 354.391 178.913 354.029 179.397C353.544 179.869 352.928 180.184 352.262 180.301L349.058 181.163C348.18 181.394 347.327 181.711 346.511 182.108C345.854 182.445 345.268 182.905 344.786 183.464C344.313 184.023 343.976 184.684 343.8 185.395C343.572 186.266 343.461 187.164 343.471 188.065C343.468 188.827 343.565 189.587 343.759 190.324C343.949 191.04 344.255 191.719 344.662 192.337C345.075 192.962 345.641 193.471 346.306 193.816C347.081 194.212 347.942 194.41 348.812 194.391C349.948 194.424 351.079 194.228 352.139 193.816C353.135 193.319 353.942 192.511 354.44 191.516L354.686 192.707C354.801 193.09 354.952 193.462 355.138 193.816H360.56C360.306 193.221 360.113 192.602 359.985 191.967C359.932 191.16 359.932 190.351 359.985 189.544V177.877C359.988 176.963 359.877 176.053 359.657 175.166C359.476 174.35 359.079 173.597 358.506 172.988C357.821 172.316 356.971 171.834 356.042 171.592C354.705 171.221 353.32 171.054 351.934 171.099C350.909 171.092 349.887 171.217 348.894 171.468C347.997 171.665 347.155 172.058 346.429 172.619C345.72 173.174 345.157 173.893 344.786 174.714C344.346 175.723 344.135 176.818 344.17 177.918V178.452H349.14ZM332.215 171.674H329.34V175.535H332.215V188.188C332.14 189.118 332.14 190.052 332.215 190.982C332.325 191.638 332.593 192.259 332.996 192.789C333.412 193.251 333.955 193.579 334.557 193.734C335.443 193.954 336.355 194.051 337.268 194.021H339.158H340.965V189.913H340.349H339.692C338.87 189.913 338.336 189.913 338.09 189.379C337.761 188.807 337.618 188.147 337.679 187.49V175.535H340.965V171.674H337.679V165.348H332.215V171.674ZM321.493 187.079C321.52 187.632 321.407 188.183 321.165 188.681C320.961 189.074 320.682 189.423 320.343 189.708C320.002 189.984 319.612 190.193 319.193 190.324C318.798 190.382 318.396 190.382 318.001 190.324C317.67 190.348 317.338 190.275 317.046 190.115C316.755 189.955 316.516 189.714 316.358 189.42C316.013 188.748 315.843 187.999 315.865 187.243C315.82 186.399 316.083 185.567 316.605 184.902C317.271 184.235 318.136 183.802 319.07 183.669L320.261 183.3C320.699 183.102 321.113 182.854 321.493 182.56V187.079ZM316.235 178.452V177.836C316.214 177.084 316.445 176.346 316.892 175.741C317.14 175.47 317.447 175.259 317.788 175.123C318.13 174.988 318.498 174.932 318.864 174.96C319.24 174.921 319.62 174.967 319.976 175.095C320.332 175.223 320.654 175.43 320.918 175.7C321.333 176.27 321.536 176.967 321.493 177.672C321.537 178.274 321.362 178.872 321 179.356C320.516 179.828 319.9 180.143 319.234 180.26L316.03 181.122C315.165 181.353 314.325 181.669 313.524 182.067C312.867 182.404 312.281 182.864 311.798 183.423C311.328 183.99 310.979 184.647 310.771 185.354C310.543 186.225 310.433 187.123 310.443 188.024C310.46 188.785 310.556 189.542 310.73 190.283C310.921 190.999 311.226 191.678 311.634 192.296C312.058 192.911 312.621 193.418 313.277 193.775C314.052 194.171 314.913 194.369 315.783 194.35C316.933 194.386 318.079 194.19 319.152 193.775C320.134 193.273 320.927 192.466 321.411 191.474C321.411 191.844 321.411 192.255 321.699 192.666C321.799 193.048 321.937 193.419 322.109 193.775H327.532C327.29 193.179 327.111 192.56 326.998 191.926C326.92 191.12 326.92 190.309 326.998 189.503V177.877C327.013 176.965 326.916 176.054 326.71 175.166C326.515 174.347 326.103 173.595 325.519 172.988C324.844 172.323 324.009 171.843 323.095 171.592C321.757 171.228 320.373 171.062 318.987 171.099C317.976 171.092 316.968 171.217 315.989 171.468C315.092 171.665 314.25 172.058 313.524 172.619C312.802 173.172 312.225 173.891 311.839 174.714C311.399 175.723 311.189 176.818 311.223 177.918V178.452H316.235ZM288.218 193.652H297.544C299.22 193.713 300.889 193.405 302.432 192.748C303.701 192.144 304.77 191.189 305.513 189.996C306.315 188.584 306.858 187.039 307.115 185.436C307.455 183.207 307.607 180.953 307.567 178.699C307.58 176.734 307.456 174.771 307.197 172.824C307.01 171.253 306.522 169.733 305.76 168.346C305.095 167.119 304.079 166.118 302.843 165.471C301.298 164.718 299.589 164.365 297.872 164.444H288.218V193.652ZM294.134 169.004H296.64C297.576 168.951 298.506 169.18 299.31 169.661C300.013 170.104 300.547 170.769 300.83 171.551C301.204 172.569 301.439 173.633 301.528 174.714C301.528 175.946 301.528 177.384 301.528 179.068C301.528 180.753 301.528 182.724 301.528 184.08C301.461 185.195 301.211 186.291 300.789 187.325C300.491 188.066 299.957 188.687 299.269 189.092C298.507 189.479 297.658 189.663 296.804 189.626H294.175L294.134 169.004ZM263.036 177.22C263.177 176.684 263.491 176.21 263.929 175.872C264.368 175.534 264.906 175.35 265.46 175.35C266.014 175.35 266.552 175.534 266.99 175.872C267.429 176.21 267.743 176.684 267.884 177.22C268.329 178.991 268.522 180.817 268.459 182.642C268.519 184.481 268.325 186.32 267.884 188.106C267.718 188.619 267.394 189.065 266.959 189.382C266.523 189.699 265.999 189.87 265.46 189.87C264.921 189.87 264.397 189.699 263.961 189.382C263.526 189.065 263.202 188.619 263.036 188.106C262.58 186.349 262.359 184.539 262.379 182.724C262.339 180.868 262.56 179.015 263.036 177.22ZM268.705 193.652H274.128V164.444H268.459V173.728C267.913 172.94 267.215 172.269 266.405 171.756C265.58 171.289 264.641 171.061 263.694 171.099C262.666 171.031 261.64 171.253 260.732 171.74C259.824 172.226 259.071 172.958 258.559 173.851C257.255 176.618 256.689 179.674 256.915 182.724C256.695 185.787 257.261 188.856 258.559 191.639C259.08 192.521 259.836 193.242 260.743 193.72C261.649 194.199 262.671 194.417 263.694 194.35C264.669 194.363 265.632 194.123 266.487 193.652C267.366 193.077 268.098 192.303 268.623 191.392L268.705 193.652ZM236.54 193.652H242.209V179.109C242.209 176.686 243.236 175.453 245.207 175.453C245.548 175.422 245.892 175.469 246.212 175.59C246.532 175.711 246.821 175.903 247.056 176.152C247.523 176.853 247.726 177.697 247.631 178.534V193.652H253.3V177.22C253.471 175.491 252.954 173.764 251.862 172.413C251.309 171.908 250.662 171.516 249.957 171.263C249.251 171.009 248.503 170.897 247.754 170.934C246.61 170.909 245.479 171.178 244.468 171.715C243.467 172.258 242.652 173.088 242.126 174.098V171.51H236.54V193.652ZM227.009 187.079C227.016 187.63 226.904 188.177 226.68 188.681C226.246 189.452 225.545 190.036 224.708 190.324C224.313 190.382 223.912 190.382 223.517 190.324C223.185 190.353 222.851 190.283 222.558 190.122C222.266 189.961 222.027 189.717 221.874 189.42C221.528 188.748 221.359 187.999 221.381 187.243C221.336 186.399 221.599 185.567 222.12 184.902C222.787 184.235 223.652 183.802 224.585 183.669L225.777 183.3C226.215 183.102 226.629 182.854 227.009 182.56V187.079ZM221.751 178.452V177.836C221.709 177.081 221.942 176.337 222.408 175.741C222.964 175.218 223.699 174.927 224.462 174.927C225.225 174.927 225.96 175.218 226.516 175.741C226.962 176.297 227.182 177.001 227.132 177.713C227.176 178.315 227.001 178.913 226.639 179.397C226.155 179.869 225.539 180.184 224.873 180.301L221.669 181.163C220.791 181.394 219.938 181.711 219.122 182.108C218.465 182.445 217.879 182.905 217.396 183.464C216.924 184.023 216.586 184.684 216.41 185.395C216.182 186.266 216.072 187.164 216.082 188.065C216.079 188.827 216.175 189.587 216.369 190.324C216.56 191.04 216.865 191.719 217.273 192.337C217.686 192.962 218.251 193.471 218.916 193.816C219.691 194.212 220.552 194.41 221.422 194.391C222.559 194.424 223.69 194.228 224.75 193.816C225.745 193.319 226.553 192.511 227.05 191.516L227.297 192.707C227.412 193.09 227.563 193.462 227.748 193.816H233.171C232.916 193.221 232.724 192.602 232.596 191.967C232.542 191.16 232.542 190.351 232.596 189.544V177.877C232.598 176.963 232.488 176.053 232.267 175.166C232.087 174.35 231.689 173.597 231.117 172.988C230.431 172.316 229.582 171.834 228.652 171.592C227.316 171.221 225.931 171.054 224.544 171.099C223.519 171.092 222.498 171.217 221.504 171.468C220.608 171.665 219.766 172.058 219.039 172.619C218.331 173.174 217.767 173.893 217.396 174.714C216.956 175.723 216.746 176.818 216.78 177.918V178.452H221.751Z" fill="#00549F"/>
<path d="M541.025 139.96V140.741C541.013 141.725 541.138 142.707 541.395 143.657C541.635 144.497 542.088 145.261 542.709 145.876C543.407 146.533 544.252 147.012 545.174 147.272C546.511 147.644 547.896 147.81 549.282 147.765C550.391 147.781 551.497 147.643 552.569 147.354C553.523 147.094 554.416 146.647 555.198 146.04C555.921 145.456 556.498 144.71 556.882 143.863C557.31 142.907 557.521 141.869 557.498 140.823C557.614 139.366 557.222 137.915 556.389 136.715C555.396 135.56 554.08 134.73 552.61 134.332L549.2 133.182C548.458 133.019 547.784 132.632 547.269 132.073C546.91 131.665 546.719 131.137 546.735 130.594C546.715 130.254 546.78 129.915 546.923 129.607C547.067 129.299 547.284 129.031 547.557 128.827C548.086 128.419 548.737 128.202 549.405 128.211C549.776 128.175 550.151 128.231 550.495 128.374C550.839 128.518 551.142 128.744 551.377 129.033C551.798 129.797 551.984 130.669 551.911 131.539H557.005V130.799C557.052 129.938 556.91 129.076 556.591 128.275C556.272 127.473 555.783 126.751 555.157 126.157C553.511 124.944 551.485 124.361 549.447 124.514C548.194 124.503 546.947 124.683 545.749 125.048C544.819 125.366 543.955 125.853 543.202 126.486C542.569 127.081 542.077 127.811 541.765 128.622C541.465 129.438 541.312 130.3 541.313 131.169C541.264 132.553 541.684 133.914 542.504 135.03C543.437 136.12 544.663 136.919 546.037 137.331L550.145 138.769C550.667 138.996 551.152 139.301 551.583 139.672C551.795 139.879 551.96 140.13 552.066 140.406C552.173 140.683 552.218 140.979 552.199 141.275C552.233 141.641 552.18 142.011 552.045 142.354C551.909 142.697 551.694 143.002 551.418 143.246C550.828 143.723 550.08 143.957 549.323 143.904C548.919 143.932 548.514 143.869 548.137 143.72C547.76 143.57 547.421 143.338 547.146 143.041C546.599 142.387 546.32 141.551 546.366 140.699V139.96H541.025ZM510.544 147.19H516.213V132.648C516.116 131.62 516.409 130.593 517.034 129.772C517.305 129.477 517.636 129.244 518.004 129.088C518.373 128.932 518.77 128.857 519.17 128.868C519.496 128.842 519.824 128.896 520.125 129.025C520.425 129.154 520.69 129.354 520.896 129.608C521.251 130.262 521.421 131 521.389 131.744V147.19H527.058V132.648C526.961 131.62 527.254 130.593 527.879 129.772C528.15 129.477 528.481 129.244 528.849 129.088C529.218 128.932 529.616 128.857 530.016 128.868C530.342 128.839 530.671 128.891 530.972 129.02C531.273 129.149 531.538 129.351 531.741 129.608C532.096 130.262 532.266 131 532.234 131.744V147.19H537.903V131.128C538.014 129.398 537.552 127.68 536.588 126.239C536.083 125.654 535.449 125.194 534.737 124.895C534.024 124.596 533.252 124.465 532.48 124.514C531.266 124.468 530.066 124.783 529.03 125.418C528.036 126.022 527.282 126.951 526.894 128.047C526.648 126.983 526.019 126.047 525.127 125.418C524.128 124.802 522.973 124.488 521.8 124.514C520.71 124.496 519.629 124.72 518.636 125.171C517.67 125.698 516.84 126.444 516.213 127.348V125.089H510.79L510.544 147.19ZM496.042 133.634V132.771C495.984 132.252 495.984 131.729 496.042 131.21C496.124 130.725 496.276 130.254 496.494 129.813C496.704 129.4 497.015 129.047 497.398 128.786C497.803 128.493 498.296 128.348 498.795 128.375C499.3 128.356 499.8 128.484 500.233 128.745C500.621 128.988 500.923 129.348 501.095 129.772C501.314 130.296 501.453 130.85 501.506 131.415C501.506 132.032 501.506 132.812 501.506 133.634H496.042ZM507.257 137.002V135.729C507.282 134.188 507.173 132.649 506.929 131.128C506.777 129.875 506.357 128.67 505.696 127.595C505.107 126.622 504.252 125.838 503.231 125.335C501.945 124.745 500.538 124.464 499.123 124.514C497.536 124.452 495.957 124.776 494.522 125.459C493.43 126.052 492.521 126.933 491.893 128.006C491.258 129.137 490.84 130.377 490.661 131.662C490.454 133.022 490.344 134.394 490.332 135.77C490.332 137.167 490.332 138.522 490.538 139.878C490.641 141.199 490.975 142.492 491.524 143.698C492.099 144.836 492.981 145.789 494.07 146.451C495.54 147.253 497.206 147.623 498.877 147.519C499.958 147.612 501.047 147.477 502.073 147.123C503.099 146.769 504.039 146.204 504.834 145.465C506.217 143.794 506.947 141.677 506.888 139.508H501.794C501.733 140.604 501.424 141.672 500.89 142.63C500.67 142.979 500.358 143.26 499.988 143.441C499.618 143.623 499.205 143.698 498.795 143.657C498.323 143.672 497.86 143.528 497.48 143.246C497.117 142.926 496.823 142.535 496.617 142.096C496.394 141.571 496.242 141.018 496.166 140.453C496.103 139.811 496.103 139.164 496.166 138.522V136.756L507.257 137.002ZM479.734 125.089H476.858V128.951H479.734V141.603C479.781 142.529 479.905 143.45 480.103 144.356C480.213 145.012 480.481 145.633 480.884 146.163C481.288 146.639 481.836 146.971 482.445 147.108C483.331 147.328 484.243 147.425 485.156 147.396C485.785 147.437 486.417 147.437 487.046 147.396H488.853V143.288H488.237H487.58C486.758 143.288 486.224 143.288 485.978 142.753C485.644 142.183 485.5 141.521 485.567 140.864V128.951H488.853V125.089H485.567V118.763H479.898L479.734 125.089ZM458.783 139.96V140.741C458.771 141.725 458.895 142.707 459.152 143.657C459.376 144.504 459.832 145.272 460.467 145.876C461.158 146.541 462.006 147.021 462.932 147.272C464.268 147.647 465.653 147.813 467.04 147.765C468.149 147.781 469.255 147.643 470.326 147.354C471.281 147.094 472.174 146.647 472.955 146.04C473.679 145.456 474.256 144.71 474.64 143.863C475.068 142.907 475.278 141.869 475.256 140.823C475.372 139.366 474.98 137.915 474.147 136.715C473.146 135.569 471.832 134.741 470.367 134.332L466.958 133.182C466.215 133.019 465.541 132.632 465.027 132.073C464.667 131.665 464.476 131.137 464.493 130.594C464.464 130.257 464.521 129.919 464.657 129.611C464.794 129.302 465.006 129.033 465.273 128.827C465.818 128.419 466.482 128.202 467.163 128.211C467.534 128.178 467.907 128.236 468.25 128.379C468.594 128.522 468.897 128.747 469.135 129.033C469.555 129.797 469.741 130.669 469.669 131.539H474.763V130.799C474.809 129.938 474.668 129.076 474.349 128.275C474.03 127.473 473.54 126.751 472.914 126.157C471.269 124.944 469.243 124.361 467.204 124.514C465.952 124.503 464.705 124.683 463.507 125.048C462.576 125.366 461.713 125.853 460.96 126.486C460.314 127.07 459.82 127.803 459.522 128.622C459.223 129.438 459.07 130.3 459.07 131.169C459.022 132.553 459.442 133.914 460.262 135.03C461.194 136.12 462.421 136.919 463.794 137.331L467.902 138.769C468.424 138.996 468.909 139.301 469.34 139.672C469.552 139.879 469.717 140.13 469.824 140.406C469.93 140.683 469.975 140.979 469.956 141.275C469.991 141.641 469.938 142.011 469.802 142.354C469.667 142.697 469.452 143.002 469.176 143.246C468.58 143.712 467.836 143.946 467.081 143.904C466.671 143.927 466.261 143.861 465.878 143.713C465.496 143.564 465.149 143.335 464.863 143.041C464.344 142.374 464.082 141.543 464.123 140.699V139.96H458.783ZM441.241 154.42H443.542C444.631 154.448 445.72 154.351 446.787 154.133C447.633 153.978 448.409 153.561 449.006 152.941C449.823 151.972 450.451 150.857 450.854 149.655C451.396 148.332 451.795 146.955 452.046 145.547L457.386 125.007H451.717L448.841 140.289L445.555 125.007H439.639L445.842 147.108C445.808 147.94 445.522 148.743 445.021 149.408C444.741 149.709 444.395 149.94 444.009 150.083C443.624 150.226 443.211 150.276 442.803 150.23H441.324L441.241 154.42ZM418.36 137.988V139.179C418.212 141.487 418.98 143.76 420.496 145.506C421.48 146.333 422.619 146.955 423.846 147.336C425.074 147.717 426.365 147.849 427.644 147.724C430.328 147.903 432.989 147.132 435.162 145.547C436.111 144.698 436.85 143.64 437.321 142.457C437.791 141.273 437.98 139.997 437.873 138.728C437.868 137.898 437.772 137.071 437.585 136.263C437.426 135.544 437.134 134.861 436.723 134.25C436.255 133.576 435.671 132.992 434.997 132.525C434.136 131.91 433.214 131.387 432.245 130.963L427.685 128.992C426.723 128.693 425.876 128.105 425.261 127.307C424.848 126.614 424.648 125.814 424.686 125.007C424.646 124.583 424.646 124.157 424.686 123.733C424.771 123.338 424.954 122.97 425.22 122.665C425.505 122.32 425.872 122.051 426.288 121.885C426.798 121.683 427.343 121.585 427.89 121.597C428.372 121.552 428.858 121.634 429.298 121.836C429.738 122.038 430.117 122.352 430.396 122.747C430.933 123.726 431.175 124.839 431.095 125.952H436.764V125.13C436.803 123.905 436.579 122.687 436.106 121.556C435.704 120.583 435.052 119.733 434.217 119.091C433.369 118.425 432.389 117.949 431.341 117.695C430.147 117.388 428.918 117.236 427.685 117.243C425.281 117.126 422.917 117.885 421.03 119.379C420.178 120.219 419.519 121.235 419.101 122.356C418.682 123.477 418.513 124.676 418.606 125.87C418.586 126.958 418.753 128.042 419.099 129.074C419.376 129.977 419.853 130.806 420.496 131.498C421.182 132.23 421.988 132.842 422.879 133.305C423.976 133.901 425.133 134.383 426.329 134.743C427.173 135.014 427.996 135.343 428.794 135.729C429.392 135.984 429.946 136.33 430.437 136.756C430.813 137.129 431.107 137.577 431.3 138.07C431.492 138.611 431.59 139.181 431.588 139.755C431.625 140.268 431.545 140.782 431.352 141.26C431.16 141.737 430.861 142.163 430.478 142.507C429.773 143.055 428.907 143.358 428.014 143.37C427.367 143.411 426.719 143.298 426.124 143.041C425.648 142.861 425.234 142.547 424.933 142.137C424.602 141.733 424.376 141.253 424.275 140.741C424.229 140.111 424.229 139.48 424.275 138.851V137.988H418.36ZM388.946 147.149H394.616V132.525C394.616 130.101 395.601 128.868 397.573 128.868C397.914 128.837 398.258 128.884 398.578 129.005C398.898 129.126 399.187 129.318 399.422 129.567C399.906 130.261 400.125 131.107 400.038 131.949V147.19H405.707V130.758C405.866 129.024 405.335 127.297 404.228 125.952C403.677 125.444 403.029 125.052 402.324 124.798C401.618 124.544 400.869 124.433 400.12 124.473C398.975 124.442 397.843 124.711 396.834 125.253C395.824 125.784 395.005 126.617 394.492 127.636V125.048H389.111L388.946 147.149ZM373.952 132.976C374.009 132.143 374.146 131.318 374.363 130.512C374.529 129.912 374.84 129.362 375.267 128.909C375.718 128.51 376.308 128.303 376.91 128.334C377.454 128.318 377.987 128.489 378.42 128.818C378.854 129.147 379.162 129.614 379.293 130.142C379.827 132.08 380.049 134.091 379.95 136.098C380.055 138.107 379.833 140.118 379.293 142.055C379.169 142.587 378.863 143.059 378.427 143.389C377.992 143.719 377.456 143.886 376.91 143.863C376.611 143.888 376.31 143.849 376.027 143.75C375.744 143.651 375.485 143.493 375.267 143.288C374.823 142.848 374.51 142.293 374.363 141.685C374.139 140.881 374.001 140.054 373.952 139.221C373.952 138.276 373.952 137.249 373.952 136.098C373.952 134.948 373.952 133.962 373.952 132.976ZM368.612 141.192C368.828 142.492 369.303 143.735 370.008 144.849C370.666 145.83 371.593 146.601 372.679 147.067C373.992 147.551 375.388 147.774 376.787 147.724C378.193 147.767 379.592 147.516 380.895 146.985C381.963 146.491 382.884 145.726 383.565 144.766C384.315 143.668 384.82 142.421 385.044 141.11C385.416 139.479 385.609 137.812 385.619 136.14C385.644 134.446 385.507 132.754 385.208 131.087C385.01 129.769 384.534 128.509 383.811 127.389C383.173 126.401 382.238 125.639 381.141 125.212C379.832 124.707 378.436 124.469 377.033 124.514C375.622 124.46 374.218 124.727 372.925 125.294C371.835 125.771 370.897 126.539 370.214 127.513C369.497 128.613 368.995 129.84 368.735 131.128C368.423 132.78 368.272 134.458 368.283 136.14C368.275 137.846 368.413 139.55 368.694 141.234M359.122 147.19H364.791V125.089H359.122V147.19ZM359.122 122.542H364.791V117.53H359.122V122.542ZM347.497 125.253H344.539V129.115H347.414V141.768C347.317 142.696 347.317 143.632 347.414 144.561C347.5 145.217 347.755 145.84 348.154 146.369C348.566 146.855 349.131 147.188 349.756 147.313C350.641 147.538 351.554 147.635 352.467 147.601C353.083 147.644 353.7 147.644 354.316 147.601H356.165V143.493H355.548H354.891C354.595 143.534 354.293 143.508 354.008 143.415C353.723 143.323 353.463 143.167 353.248 142.959C352.952 142.375 352.824 141.721 352.878 141.069V128.951H356.165V125.089H352.878V118.763H347.414L347.497 125.253ZM336.61 140.658C336.622 141.21 336.509 141.758 336.282 142.261C336.074 142.663 335.779 143.014 335.419 143.288C335.098 143.571 334.72 143.781 334.31 143.904C333.915 143.962 333.514 143.962 333.119 143.904C332.786 143.933 332.452 143.863 332.16 143.702C331.867 143.541 331.629 143.296 331.475 143C331.126 142.329 330.957 141.579 330.982 140.823C330.937 139.978 331.2 139.146 331.722 138.481C332.388 137.814 333.253 137.382 334.187 137.249L335.378 136.879C335.815 136.679 336.228 136.431 336.61 136.14V140.658ZM331.27 132.032V131.415C331.228 130.66 331.462 129.916 331.927 129.32C332.175 129.049 332.482 128.838 332.823 128.703C333.165 128.568 333.533 128.512 333.899 128.54C334.269 128.5 334.643 128.547 334.992 128.675C335.341 128.803 335.656 129.01 335.912 129.279C336.351 129.839 336.57 130.541 336.528 131.251C336.572 131.854 336.397 132.452 336.035 132.935C335.555 133.414 334.938 133.73 334.269 133.839L331.065 134.702C330.193 134.951 329.341 135.267 328.518 135.647C327.861 135.984 327.275 136.444 326.792 137.002C326.32 137.562 325.982 138.222 325.806 138.933C325.558 139.8 325.447 140.701 325.478 141.603C325.475 142.366 325.571 143.125 325.765 143.863C325.931 144.587 326.238 145.271 326.669 145.876C327.082 146.5 327.647 147.01 328.312 147.354C329.078 147.774 329.946 147.973 330.818 147.93C331.956 147.983 333.092 147.787 334.146 147.354C335.141 146.857 335.949 146.05 336.446 145.054L336.693 146.245C336.8 146.631 336.952 147.003 337.144 147.354H342.567C342.312 146.76 342.12 146.14 341.992 145.506C341.937 144.699 341.937 143.889 341.992 143.082V131.292C341.994 130.378 341.884 129.468 341.663 128.581C341.483 127.765 341.085 127.013 340.513 126.404C339.817 125.745 338.971 125.266 338.048 125.007C336.711 124.641 335.326 124.475 333.94 124.514C332.915 124.508 331.894 124.632 330.9 124.884C330.004 125.08 329.162 125.473 328.435 126.034C327.727 126.59 327.163 127.308 326.792 128.129C326.36 129.141 326.15 130.233 326.176 131.333V132.032H331.27ZM294.955 147.354H300.624V132.648C300.515 131.625 300.794 130.599 301.405 129.772C301.677 129.479 302.008 129.248 302.376 129.092C302.744 128.936 303.141 128.86 303.541 128.868C303.868 128.835 304.198 128.885 304.499 129.014C304.801 129.144 305.065 129.348 305.266 129.608C305.621 130.262 305.791 131 305.759 131.744V147.19H311.428V132.648C311.331 131.62 311.624 130.593 312.25 129.772C312.52 129.477 312.851 129.244 313.22 129.088C313.588 128.932 313.986 128.857 314.386 128.868C314.713 128.835 315.043 128.885 315.345 129.014C315.647 129.144 315.91 129.348 316.111 129.608C316.466 130.262 316.637 131 316.604 131.744V147.19H322.314V131.128C322.436 129.391 321.957 127.665 320.959 126.239C320.454 125.654 319.82 125.194 319.107 124.895C318.394 124.596 317.622 124.465 316.851 124.514C315.638 124.48 314.441 124.794 313.4 125.418C312.408 126.013 311.664 126.947 311.305 128.047C311.199 127.513 310.989 127.006 310.685 126.555C310.382 126.104 309.992 125.717 309.539 125.418C308.54 124.802 307.384 124.488 306.211 124.514C305.121 124.5 304.042 124.724 303.048 125.171C302.086 125.689 301.267 126.437 300.665 127.348V125.089H294.955V147.354ZM280.824 147.354H286.493V133.921C286.515 133.257 286.698 132.609 287.027 132.032C287.239 131.54 287.58 131.115 288.013 130.799C288.417 130.484 288.877 130.247 289.368 130.101C289.859 130.041 290.356 130.041 290.847 130.101H292.614V124.596H291.587C290.502 124.564 289.441 124.913 288.588 125.582C287.713 126.269 286.998 127.138 286.493 128.129V125.171H280.824V147.354ZM265.87 133.182C265.894 132.348 266.018 131.521 266.24 130.717C266.416 130.121 266.725 129.574 267.144 129.115C267.61 128.713 268.214 128.507 268.828 128.54C269.37 128.531 269.9 128.705 270.331 129.032C270.763 129.36 271.073 129.823 271.211 130.347C271.708 132.236 271.929 134.187 271.868 136.14C271.952 138.147 271.73 140.155 271.211 142.096C271.08 142.624 270.772 143.091 270.338 143.42C269.905 143.749 269.372 143.92 268.828 143.904C268.523 143.929 268.216 143.891 267.926 143.792C267.636 143.693 267.37 143.536 267.144 143.329C266.714 142.878 266.403 142.327 266.24 141.726C266.012 140.924 265.888 140.096 265.87 139.262C265.87 138.317 265.87 137.29 265.87 136.14C265.87 134.989 265.87 134.003 265.87 133.017M260.53 141.234C260.728 142.538 261.204 143.785 261.927 144.89C262.575 145.879 263.505 146.652 264.597 147.108C265.909 147.598 267.305 147.822 268.705 147.765C270.111 147.811 271.511 147.559 272.813 147.026C273.886 146.521 274.817 145.759 275.524 144.807C276.241 143.692 276.742 142.452 277.003 141.151C277.345 139.502 277.523 137.824 277.537 136.14C277.542 134.447 277.404 132.757 277.126 131.087C276.91 129.774 276.435 128.517 275.73 127.389C275.081 126.41 274.15 125.65 273.059 125.212C271.749 124.713 270.353 124.476 268.951 124.514C267.541 124.463 266.137 124.729 264.843 125.294C263.758 125.761 262.831 126.531 262.173 127.513C261.423 128.596 260.918 129.829 260.694 131.128C260.321 132.772 260.128 134.453 260.119 136.14C260.091 137.847 260.228 139.553 260.53 141.234ZM249.521 147.19H255.19V128.951H258.476V125.089H255.19V123.158C255.169 122.91 255.202 122.66 255.288 122.426C255.373 122.192 255.507 121.98 255.683 121.803C256.188 121.496 256.776 121.352 257.367 121.392H258.476V117.284H255.436C254.605 117.268 253.776 117.365 252.971 117.571C252.292 117.699 251.656 117.996 251.123 118.434C250.605 118.883 250.197 119.446 249.931 120.077C249.652 120.883 249.513 121.73 249.521 122.583V125.089H246.645V128.951H249.521V147.19ZM227.419 147.19H233.088V132.525C233.088 130.101 234.074 128.868 236.087 128.868C236.428 128.837 236.772 128.884 237.092 129.005C237.412 129.126 237.701 129.318 237.936 129.567C238.384 130.276 238.586 131.114 238.511 131.949V147.19H244.18V130.758C244.333 129.031 243.819 127.311 242.742 125.952C242.189 125.446 241.541 125.055 240.836 124.801C240.131 124.547 239.383 124.436 238.634 124.473C237.49 124.442 236.357 124.711 235.348 125.253C234.356 125.808 233.544 126.635 233.006 127.636V125.048H227.419V147.19ZM223.065 117.859H217.19V147.19H223.106L223.065 117.859Z" fill="#00549F"/>
<path d="M557.005 91.1568H568.59V86.3094H557.005V91.1568ZM543.079 72.0957H527.921L526.852 87.9115H532.152C532.201 87.1939 532.491 86.5139 532.973 85.9807C533.23 85.724 533.539 85.5252 533.879 85.3977C534.219 85.2701 534.583 85.2168 534.945 85.2413C535.506 85.2389 536.062 85.3363 536.588 85.5289C537.023 85.7452 537.382 86.0892 537.615 86.5148C537.921 87.1041 538.116 87.7447 538.191 88.4045C538.242 89.4034 538.242 90.4044 538.191 91.4033C538.247 92.8185 537.965 94.2267 537.369 95.5113C537.111 95.9717 536.726 96.3482 536.26 96.5959C535.793 96.8435 535.266 96.9519 534.74 96.9081C534.194 96.9538 533.652 96.7925 533.22 96.4562C532.819 96.1457 532.507 95.7347 532.316 95.2648C532.107 94.7686 531.982 94.2411 531.946 93.7038C531.906 93.1842 531.906 92.6623 531.946 92.1428H526.277V92.9233C526.278 93.821 526.374 94.7162 526.565 95.5935C526.778 96.5495 527.199 97.4469 527.797 98.2226C528.465 99.1122 529.359 99.8071 530.385 100.236C531.802 100.822 533.331 101.088 534.863 101.016C536.434 101.071 537.999 100.805 539.464 100.236C540.592 99.7856 541.573 99.0319 542.299 98.0583C543.027 97.0389 543.531 95.8769 543.777 94.6487C544.052 93.1996 544.189 91.7279 544.188 90.2531C544.183 89.1225 544.073 87.9948 543.86 86.8845C543.639 85.83 543.25 84.8176 542.709 83.8857C542.177 83.0106 541.427 82.2887 540.532 81.7906C539.477 81.2115 538.285 80.9276 537.081 80.969C535.99 80.9511 534.904 81.132 533.877 81.503C533.013 81.8184 532.267 82.3921 531.741 83.1462L532.357 76.5323H543.079V72.0957ZM503.478 87.0488V86.1861C503.439 85.6665 503.439 85.1447 503.478 84.6251C503.574 84.1381 503.74 83.6677 503.971 83.2284C504.165 82.8172 504.462 82.4634 504.834 82.2014C505.262 81.9259 505.762 81.783 506.271 81.7906C506.764 81.7689 507.251 81.8979 507.668 82.1603C508.048 82.413 508.347 82.7694 508.531 83.1873C508.764 83.7087 508.917 84.2629 508.983 84.8305C508.983 85.4878 508.983 86.2272 508.983 87.0488H503.478ZM514.693 90.4174V89.1439C514.696 87.6043 514.586 86.0665 514.364 84.5429C514.168 83.3011 513.75 82.1046 513.132 81.0101C512.526 80.0356 511.658 79.2523 510.626 78.7506C509.343 78.1482 507.933 77.8662 506.518 77.929C504.93 77.8621 503.35 78.1866 501.917 78.8739C500.813 79.4665 499.891 80.3465 499.247 81.4208C498.611 82.552 498.193 83.792 498.014 85.077C497.821 86.4378 497.725 87.8106 497.727 89.185C497.727 90.5817 497.727 91.9784 497.727 93.293C497.824 94.62 498.173 95.9164 498.754 97.1135C499.305 98.2672 500.193 99.2269 501.301 99.8658C502.77 100.668 504.436 101.038 506.107 100.934C507.189 101.035 508.28 100.904 509.307 100.549C510.334 100.195 511.274 99.6261 512.064 98.8799C513.413 97.1895 514.138 95.0859 514.118 92.9233H509.27C509.189 94.0154 508.881 95.0787 508.366 96.0454C508.141 96.3878 507.827 96.6636 507.459 96.8442C507.09 97.0248 506.68 97.1036 506.271 97.0724C505.798 97.1017 505.33 96.9554 504.957 96.6616C504.572 96.3614 504.275 95.9644 504.094 95.5113C503.857 94.9882 503.691 94.4355 503.601 93.8681C503.559 93.2252 503.559 92.5803 503.601 91.9374V90.1709L514.693 90.4174ZM495.303 86.3094C495.422 84.0581 494.722 81.8398 493.331 80.0652C492.566 79.2703 491.637 78.6525 490.608 78.2551C489.579 77.8577 488.475 77.6903 487.374 77.7647C486.15 77.7657 484.932 77.9456 483.759 78.2988C482.669 78.6771 481.693 79.3275 480.925 80.1884C480.068 81.2387 479.438 82.4558 479.076 83.7624C478.608 85.6009 478.387 87.4935 478.419 89.3904C478.397 91.2664 478.576 93.1394 478.953 94.9773C479.236 96.2659 479.782 97.4825 480.555 98.5513C481.222 99.4305 482.138 100.089 483.184 100.441C484.37 100.86 485.624 101.055 486.881 101.016C488.068 101.12 489.264 100.964 490.385 100.56C491.505 100.155 492.525 99.5121 493.372 98.6745C494.773 96.7342 495.456 94.3669 495.303 91.9784H489.88C490 93.3809 489.774 94.7912 489.223 96.0865C489.041 96.4805 488.742 96.8095 488.368 97.0297C487.994 97.2499 487.561 97.3507 487.128 97.3189C486.59 97.3518 486.056 97.2075 485.608 96.9081C485.157 96.5509 484.827 96.0631 484.663 95.5113C484.419 94.7378 484.267 93.938 484.211 93.1287C484.211 92.1428 484.211 90.9925 484.211 89.5958C484.211 88.1991 484.211 87.2542 484.211 86.2683C484.27 85.4729 484.422 84.6871 484.663 83.9267C484.847 83.3743 485.19 82.8884 485.649 82.53C486.139 82.1806 486.732 82.0069 487.333 82.0371C487.804 82.0338 488.263 82.1774 488.648 82.4479C488.984 82.7257 489.251 83.0771 489.428 83.4749C489.605 83.9388 489.729 84.4211 489.798 84.9127C489.798 85.4467 489.798 85.9807 489.798 86.4737L495.303 86.3094ZM458.331 100.441H464V85.9397C464 83.5159 464.986 82.2835 466.999 82.2835C467.34 82.2523 467.683 82.2989 468.003 82.4199C468.324 82.5409 468.612 82.7331 468.847 82.9819C469.295 83.6914 469.498 84.5287 469.422 85.3645V100.605H475.091V84.1732C475.251 82.4389 474.719 80.7118 473.613 79.3668C473.065 78.8532 472.418 78.457 471.711 78.2027C471.005 77.9484 470.254 77.8413 469.505 77.888C468.362 77.8786 467.234 78.1464 466.218 78.6685C465.226 79.2231 464.414 80.0498 463.877 81.0511V78.6274H458.454L458.331 100.441ZM443.83 86.8845V86.0218C443.79 85.5022 443.79 84.9804 443.83 84.4608C443.944 83.979 444.109 83.5108 444.322 83.0641C444.516 82.6529 444.814 82.2991 445.185 82.0371C445.614 81.7616 446.114 81.6187 446.623 81.6262C447.115 81.6046 447.603 81.7336 448.02 81.996C448.4 82.2486 448.699 82.6051 448.882 83.023C449.116 83.5444 449.269 84.0986 449.334 84.6662C449.334 85.3235 449.334 86.0629 449.334 86.8845H443.83ZM455.044 90.2531V88.9796C455.048 87.44 454.938 85.9022 454.716 84.3786C454.557 83.1276 454.137 81.924 453.483 80.8457C452.878 79.8713 452.009 79.088 450.977 78.5863C449.695 77.9839 448.285 77.7019 446.869 77.7647C445.282 77.6978 443.702 78.0222 442.268 78.7096C441.165 79.3021 440.242 80.1822 439.598 81.2565C438.963 82.3876 438.545 83.6277 438.366 84.9127C438.173 86.2735 438.077 87.6463 438.078 89.0207C438.078 90.4174 438.078 91.8141 438.078 93.1287C438.196 94.4522 438.543 95.7451 439.105 96.9491C439.657 98.1029 440.545 99.0625 441.652 99.7015C443.122 100.504 444.788 100.874 446.459 100.77C447.54 100.87 448.631 100.739 449.659 100.385C450.686 100.031 451.626 99.4618 452.415 98.7156C453.783 97.0354 454.51 94.9249 454.469 92.759H449.704C449.644 93.8548 449.335 94.9224 448.8 95.8811C448.574 96.2235 448.261 96.4993 447.893 96.6799C447.524 96.8605 447.114 96.9392 446.705 96.9081C446.232 96.93 445.767 96.7845 445.391 96.4972C445.006 96.197 444.708 95.8001 444.528 95.347C444.309 94.8171 444.144 94.2666 444.035 93.7038C443.993 93.0609 443.993 92.4159 444.035 91.773V90.0066L455.044 90.2531ZM429 100.441H434.915V78.6274H429.246L429 100.441ZM429 75.7929H434.915V70.9454H429.246L429 75.7929ZM425.631 86.4737C425.75 84.2224 425.05 82.0041 423.659 80.2295C422.894 79.4347 421.965 78.8168 420.936 78.4194C419.907 78.022 418.803 77.8546 417.703 77.929C416.567 78.0101 415.447 78.245 414.375 78.6274C413.285 79.0057 412.309 79.6562 411.541 80.5171C410.683 81.5673 410.054 82.7845 409.692 84.0911C409.224 85.9295 409.003 87.8222 409.035 89.719C409.012 91.5951 409.192 93.4681 409.569 95.3059C409.852 96.5946 410.397 97.8112 411.171 98.8799C411.838 99.7591 412.754 100.417 413.8 100.77C414.986 101.189 416.24 101.384 417.497 101.345C418.684 101.448 419.879 101.293 421 100.888C422.121 100.484 423.14 99.8407 423.988 99.0031C425.389 97.0628 426.072 94.6955 425.919 92.3071H420.496C420.615 93.7095 420.39 95.1199 419.839 96.4151C419.656 96.8091 419.358 97.1382 418.984 97.3583C418.609 97.5785 418.177 97.6794 417.744 97.6475C417.206 97.6804 416.672 97.5361 416.224 97.2367C415.772 96.8796 415.442 96.3918 415.279 95.84C415.034 95.0665 414.883 94.2667 414.827 93.4573C414.827 92.4714 414.827 91.3212 414.827 89.9244C414.827 88.5277 414.827 87.5829 414.827 86.5969C414.886 85.8015 415.038 85.0157 415.279 84.2554C415.463 83.7029 415.806 83.217 416.265 82.8586C416.755 82.5093 417.348 82.3356 417.949 82.3657C418.419 82.3625 418.879 82.5061 419.264 82.7765C419.599 83.0543 419.866 83.4057 420.044 83.8035C420.221 84.2675 420.345 84.7497 420.414 85.2413C420.414 85.7753 420.414 86.3094 420.414 86.8024L425.631 86.4737ZM386.646 91.4444V92.6357C386.559 93.8208 386.715 95.0111 387.103 96.1341C387.492 97.2571 388.105 98.2892 388.905 99.1675C389.889 99.9944 391.028 100.617 392.256 100.998C393.483 101.378 394.774 101.51 396.053 101.386C398.736 101.558 401.395 100.788 403.571 99.2085C404.528 98.3263 405.262 97.2294 405.712 96.0081C406.162 94.7868 406.315 93.476 406.159 92.1838C406.167 91.3557 406.084 90.5292 405.913 89.719C405.754 88.9999 405.461 88.3171 405.05 87.7061C404.582 87.0325 403.998 86.4481 403.325 85.9807C402.464 85.3666 401.541 84.8434 400.572 84.4197L396.012 82.4479C395.045 82.1363 394.189 81.5513 393.547 80.7636C393.151 80.0631 392.952 79.2679 392.972 78.4631C392.932 78.0395 392.932 77.6132 392.972 77.1896C393.066 76.7973 393.249 76.4319 393.506 76.1215C393.784 75.7859 394.136 75.5188 394.533 75.341C395.06 75.1484 395.616 75.0511 396.177 75.0534C396.652 75.0152 397.129 75.1012 397.561 75.3028C397.993 75.5044 398.365 75.8149 398.641 76.2037C399.192 77.1779 399.449 78.2908 399.381 79.4079H405.05V78.6274C405.09 77.4027 404.865 76.1838 404.393 75.0534C403.967 74.0935 403.32 73.2486 402.503 72.5886C401.656 71.9223 400.675 71.4459 399.627 71.1919C398.433 70.8878 397.204 70.7359 395.971 70.74C393.567 70.6231 391.203 71.3821 389.316 72.8762C388.464 73.7163 387.805 74.7324 387.387 75.8535C386.968 76.9747 386.799 78.1737 386.892 79.3668C386.878 80.4518 387.03 81.5326 387.344 82.5711C387.652 83.4693 388.141 84.2944 388.782 84.9948C389.468 85.7278 390.274 86.339 391.165 86.8024C392.252 87.392 393.394 87.8736 394.574 88.2401C395.431 88.512 396.268 88.8414 397.08 89.2261C397.658 89.4959 398.196 89.8413 398.682 90.2531C399.082 90.6147 399.392 91.0649 399.586 91.5676C399.76 92.1118 399.843 92.6808 399.833 93.2519C399.882 93.7622 399.811 94.2769 399.625 94.7548C399.44 95.2327 399.145 95.6606 398.765 96.0043C398.059 96.5523 397.193 96.8552 396.3 96.867C395.64 96.904 394.98 96.7917 394.369 96.5383C393.899 96.3474 393.488 96.0356 393.178 95.6346C392.868 95.2223 392.657 94.7444 392.562 94.2378C392.515 93.6088 392.515 92.9772 392.562 92.3482V91.4855L386.646 91.4444ZM364.093 100.605H369.762V87.3364C369.74 86.6999 369.867 86.067 370.132 85.4878C370.367 85.0101 370.703 84.5895 371.118 84.2554C371.522 83.94 371.982 83.7032 372.473 83.557C372.956 83.4285 373.453 83.3595 373.952 83.3516H375.719V78.0112H374.692C373.608 77.9829 372.548 78.3313 371.693 78.9971C370.829 79.6958 370.117 80.5622 369.598 81.5441V78.6274H364.175L364.093 100.605ZM349.592 87.0488V86.1861C349.553 85.6665 349.553 85.1447 349.592 84.6251C349.674 84.14 349.826 83.6695 350.044 83.2284C350.265 82.8234 350.574 82.4727 350.947 82.2014C351.361 81.9269 351.848 81.7837 352.344 81.7906C352.849 81.7708 353.349 81.8993 353.782 82.1603C354.162 82.413 354.461 82.7694 354.645 83.1873C354.864 83.7112 355.002 84.2652 355.055 84.8305C355.102 85.5692 355.102 86.3101 355.055 87.0488H349.592ZM360.807 90.4174V89.1439C360.83 87.6036 360.72 86.0642 360.478 84.5429C360.319 83.2919 359.899 82.0883 359.246 81.0101C358.709 79.9943 357.879 79.1639 356.863 78.6274C355.576 78.037 354.17 77.7557 352.755 77.8058C351.167 77.7438 349.589 78.0681 348.154 78.7506C347.062 79.3441 346.153 80.2249 345.525 81.2976C344.889 82.4287 344.471 83.6688 344.292 84.9537C344.086 86.3136 343.976 87.6864 343.964 89.0618C343.964 90.4585 343.964 91.8552 343.964 93.1698C344.067 94.4909 344.401 95.7839 344.95 96.9902C345.513 98.1355 346.398 99.0919 347.497 99.7426C348.966 100.545 350.632 100.915 352.303 100.811C353.385 100.914 354.477 100.784 355.504 100.43C356.532 100.076 357.471 99.5051 358.26 98.7567C359.643 97.0855 360.373 94.9688 360.314 92.8H355.22C355.159 93.8958 354.85 94.9635 354.316 95.9221C354.097 96.271 353.784 96.5519 353.414 96.7333C353.044 96.9147 352.631 96.9895 352.221 96.9491C351.749 96.9643 351.286 96.8195 350.906 96.5383C350.545 96.2158 350.252 95.8248 350.044 95.3881C349.82 94.8629 349.669 94.3103 349.592 93.7449C349.549 93.102 349.549 92.457 349.592 91.8141V90.0477L360.807 90.4174ZM333.406 78.6274H330.531V82.4889H333.406V95.0595C333.308 95.988 333.308 96.9243 333.406 97.8529C333.492 98.5093 333.747 99.1321 334.146 99.6604C334.558 100.147 335.123 100.479 335.748 100.605C336.633 100.83 337.546 100.927 338.459 100.893C339.074 100.936 339.692 100.936 340.308 100.893H342.156V96.7848H341.54H340.883C340.061 96.7848 339.486 96.7848 339.24 96.2508C338.944 95.6673 338.816 95.0131 338.87 94.3611V82.3657H342.156V78.6274H338.87V72.1778H333.406V78.6274ZM322.561 100.729H328.107V78.6274H322.314V93.293C322.314 95.7578 321.329 96.9491 319.316 96.9491C318.978 96.9856 318.636 96.9454 318.316 96.8316C317.996 96.7178 317.706 96.5333 317.467 96.2919C317.029 95.5629 316.828 94.7161 316.892 93.8681V78.6274H311.223V95.0595C311.064 96.7938 311.595 98.5209 312.702 99.8658C313.249 100.379 313.896 100.776 314.603 101.03C315.309 101.284 316.06 101.391 316.81 101.345C317.949 101.368 319.077 101.115 320.096 100.605C321.1 100.047 321.915 99.2037 322.438 98.1815L322.561 100.729ZM296.68 84.2965C296.821 83.7608 297.135 83.2869 297.574 82.9486C298.012 82.6104 298.55 82.427 299.104 82.427C299.658 82.427 300.196 82.6104 300.635 82.9486C301.073 83.2869 301.387 83.7608 301.528 84.2965C302.24 87.8903 302.24 91.5888 301.528 95.1827C301.362 95.6953 301.039 96.1422 300.603 96.4592C300.168 96.7762 299.643 96.947 299.104 96.947C298.566 96.947 298.041 96.7762 297.605 96.4592C297.17 96.1422 296.846 95.6953 296.68 95.1827C295.914 91.5945 295.914 87.8847 296.68 84.2965ZM290.436 108H296.105V98.5513C296.628 99.3589 297.331 100.034 298.159 100.523C298.984 100.99 299.923 101.218 300.871 101.18C301.894 101.247 302.915 101.029 303.821 100.551C304.728 100.072 305.484 99.3515 306.006 98.4691C307.307 95.6871 307.873 92.6178 307.649 89.5547C307.875 86.5048 307.309 83.4482 306.006 80.6814C305.489 79.7914 304.736 79.0627 303.829 78.5766C302.922 78.0905 301.898 77.8663 300.871 77.929C299.867 77.9012 298.874 78.1423 297.995 78.6274C297.116 79.186 296.384 79.9466 295.859 80.8457V78.6274H290.436V108ZM259.092 100.605H264.761V86.0629C264.664 85.0352 264.957 84.0086 265.583 83.1873C265.853 82.8924 266.184 82.6591 266.553 82.5032C266.921 82.3473 267.319 82.2724 267.719 82.2835C268.045 82.2537 268.374 82.3057 268.675 82.4348C268.977 82.5639 269.241 82.766 269.444 83.023C269.799 83.6772 269.97 84.4156 269.937 85.1591V100.605H275.606V86.0629C275.509 85.0352 275.803 84.0086 276.428 83.1873C276.699 82.8924 277.029 82.6591 277.398 82.5032C277.766 82.3473 278.164 82.2724 278.564 82.2835C278.891 82.2537 279.219 82.3057 279.52 82.4348C279.822 82.5639 280.086 82.766 280.29 83.023C280.644 83.6772 280.815 84.4156 280.782 85.1591V100.605H286.452V84.5429C286.556 82.8139 286.095 81.0977 285.137 79.6544C284.632 79.0695 283.998 78.6094 283.285 78.3101C282.573 78.0108 281.8 77.8804 281.029 77.929C279.818 77.9086 278.624 78.2212 277.578 78.8328C276.585 79.4373 275.83 80.3659 275.442 81.4619C275.197 80.3981 274.568 79.462 273.676 78.8328C272.677 78.2167 271.521 77.9029 270.348 77.929C269.258 77.9109 268.178 78.1355 267.185 78.5863C266.218 79.1134 265.389 79.8589 264.761 80.7636V78.6274H259.092V100.605ZM244.139 86.4326C244.163 85.5992 244.287 84.7716 244.509 83.9678C244.685 83.3723 244.994 82.8246 245.412 82.3657C245.883 81.9709 246.483 81.7658 247.097 81.7906C247.639 81.782 248.168 81.9554 248.6 82.283C249.032 82.6107 249.342 83.0737 249.479 83.5981C249.986 85.5405 250.18 87.5512 250.055 89.5547C250.159 91.5627 249.937 93.5745 249.397 95.5113C249.266 96.0394 248.958 96.5066 248.525 96.8355C248.091 97.1643 247.558 97.3349 247.015 97.3189C246.71 97.342 246.403 97.303 246.113 97.2041C245.824 97.1053 245.558 96.9486 245.33 96.7437C244.9 96.2933 244.59 95.7426 244.427 95.1416C244.199 94.3391 244.074 93.5108 244.057 92.6768C244.057 91.732 244.057 90.705 244.057 89.5547C244.057 88.4045 244.057 87.4186 244.057 86.4326M238.716 94.6487C238.933 95.9485 239.408 97.1917 240.113 98.3048C240.77 99.2864 241.698 100.057 242.783 100.523C245.446 101.437 248.337 101.437 250.999 100.523C252.089 100.046 253.027 99.2788 253.711 98.3048C254.461 97.2067 254.965 95.9596 255.19 94.6487C255.503 92.9968 255.655 91.3182 255.641 89.6369C255.665 87.9434 255.527 86.2515 255.231 84.584C255.014 83.2714 254.539 82.0148 253.834 80.8868C253.174 79.9172 252.246 79.1606 251.164 78.7096C249.854 78.2072 248.458 77.9699 247.056 78.0112C245.647 77.9845 244.248 78.2503 242.948 78.7917C241.869 79.2696 240.945 80.0376 240.277 81.0101C239.534 82.0966 239.03 83.3288 238.799 84.6251C238.223 87.9691 238.223 91.3868 238.799 94.7308M235.307 81.2565C235.301 80.1158 235.218 78.9767 235.06 77.8469C234.946 76.6425 234.567 75.4783 233.951 74.4372C233.29 73.3269 232.338 72.4179 231.199 71.8081C229.652 71.0618 227.944 70.7091 226.228 70.7811C224.393 70.7078 222.569 71.1036 220.929 71.9313C219.635 72.6568 218.58 73.7411 217.889 75.0534C217.142 76.5718 216.682 78.2153 216.533 79.9009C216.327 81.9345 216.231 83.9778 216.246 86.0218C216.231 88.0795 216.327 90.1365 216.533 92.1838C216.677 93.8573 217.137 95.4883 217.889 96.9902C218.565 98.3234 219.623 99.4247 220.929 100.153C222.572 100.967 224.396 101.349 226.228 101.263C227.857 101.343 229.48 101.018 230.952 100.318C232.119 99.7534 233.101 98.8704 233.787 97.7707C234.507 96.62 234.982 95.3336 235.184 93.9914C235.437 92.4987 235.561 90.9867 235.553 89.4726H229.514C229.546 90.766 229.449 92.0595 229.227 93.3341C229.095 94.1257 228.832 94.8895 228.446 95.5935C228.182 96.0741 227.762 96.4507 227.255 96.6616C226.794 96.8289 226.307 96.9123 225.817 96.9081C225.235 96.9178 224.658 96.7912 224.133 96.5383C223.585 96.1703 223.168 95.6382 222.942 95.0184C222.58 93.9825 222.346 92.9065 222.243 91.8141C222.243 90.4585 222.038 88.651 222.038 86.4326C222.038 84.2143 222.038 82.6122 222.038 81.1744C222.103 79.9931 222.296 78.8224 222.613 77.6826C222.798 76.9491 223.182 76.281 223.722 75.7518C224.076 75.4919 224.479 75.3075 224.907 75.2099C225.335 75.1124 225.778 75.1038 226.21 75.1846C226.641 75.2655 227.051 75.4342 227.415 75.6801C227.778 75.9261 228.088 76.2441 228.323 76.6145C229.073 78.0199 229.481 79.582 229.514 81.1744L235.307 81.2565Z" fill="#00549F"/>
</svg>
