<svg width="300" height="117" viewBox="0 0 300 117" fill="none" xmlns="http://www.w3.org/2000/svg">
<path d="M47.6567 49.8014H51.4693V46.4654H47.6567V49.8014ZM47.6567 66.9579H51.4693V51.7077H47.6567V66.9579ZM53.3756 47.4186V50.9929H61.7155C60.7624 52.4226 59.8092 53.614 59.0944 55.0437C58.3795 56.4734 57.6647 57.9031 57.1881 59.0945C56.7115 60.5242 56.235 61.7157 55.9967 63.1454C55.7584 64.5751 55.5201 65.7665 55.2818 66.9579H59.571C59.8092 65.5282 60.0475 64.0985 60.2858 62.6688C60.5241 61.2391 61.0007 59.8094 61.4772 58.3797C61.9538 56.95 62.4304 55.5202 63.1452 54.3288C63.8601 52.8991 64.5749 51.7077 65.2898 50.5163V47.4186H53.3756Z" fill="#F6A800"/>
<path d="M40.7471 71.7236V41.9381C40.0322 42.4146 39.3174 42.6529 38.3643 42.6529V70.7705C39.0791 70.7705 40.0322 71.247 40.7471 71.7236Z" fill="#8EBAE5"/>
<path d="M41.9385 40.7466H71.2474C70.7709 40.0318 70.5326 39.3169 70.5326 38.3638H42.6533C42.6533 39.3169 42.415 40.0318 41.9385 40.7466Z" fill="#8EBAE5"/>
<path d="M70.5326 75.2979C70.5326 74.3447 70.7709 73.6299 71.2474 72.915H41.9385C42.415 73.6299 42.6533 74.3447 42.6533 75.2979H70.5326Z" fill="#8EBAE5"/>
<path d="M75.0596 42.8912C74.1065 42.8912 73.3916 42.6529 72.6768 42.1763V71.4853C73.3916 71.0087 74.1065 70.7704 75.0596 70.7704C75.0596 70.7704 75.0596 70.7704 75.2979 70.7704L75.0596 42.8912Z" fill="#8EBAE5"/>
<path d="M41.938 36.2192L51.4694 23.8284C50.5162 23.8284 49.8014 23.3519 49.0865 22.8753L40.27 34.5512C40.9849 34.7895 41.6997 35.5044 41.938 36.2192Z" fill="#8EBAE5"/>
<path d="M77.4424 42.1763L89.5949 51.4694C89.5949 50.5163 90.0715 49.8014 90.548 49.0866L79.1104 40.27C78.6338 41.2232 78.1572 41.6997 77.4424 42.1763Z" fill="#8EBAE5"/>
<path d="M23.3526 60.7625L37.1731 42.8912C36.2199 42.6529 35.5051 42.4146 35.0285 41.6998L21.9229 58.8562C22.6377 59.0945 23.1143 59.8094 23.3526 60.7625Z" fill="#8EBAE5"/>
<path d="M71.2472 77.6807L61.9541 89.5949C62.9072 89.5949 63.6221 90.0715 64.3369 90.5481L72.9152 79.3487C72.2003 78.8721 71.7238 78.3956 71.2472 77.6807Z" fill="#8EBAE5"/>
<path d="M53.1367 23.5902L70.7698 37.1724C71.008 36.4575 71.4846 35.7427 71.9612 35.0278L55.2813 22.1605C54.8047 22.8753 54.0899 23.3519 53.1367 23.5902Z" fill="#8EBAE5"/>
<path d="M89.8332 53.3757L76.251 71.0087C76.9658 71.247 77.6807 71.7236 78.3955 72.2001L91.2629 55.5202C90.548 55.0437 90.0715 54.3288 89.8332 53.3757Z" fill="#8EBAE5"/>
<path d="M60.0471 89.8332L42.4141 76.251C42.1758 76.9658 41.6992 77.919 41.2227 78.3955L57.9026 91.2629C58.6174 90.548 59.3323 90.0715 60.0471 89.8332Z" fill="#8EBAE5"/>
<path d="M34.3131 73.1533C34.7897 72.4384 35.2663 71.7236 35.9811 71.4853L23.5903 61.9539V62.1922C23.5903 63.1454 23.3521 63.8602 22.8755 64.5751L34.3131 73.1533Z" fill="#8EBAE5"/>
<path d="M56.2349 18.5862C56.2349 18.8245 56.2349 19.0628 56.2349 19.5393C56.2349 20.0159 55.9966 20.7308 55.9966 21.2073L98.6495 40.9849C98.6495 40.7466 98.6495 40.5084 98.6495 40.2701C98.6495 39.5552 98.8878 38.8404 99.126 38.3638L56.2349 18.5862Z" fill="#8EBAE5"/>
<path d="M94.1223 56.4734C93.6458 56.4734 92.9309 56.4734 92.4544 56.2351L72.6768 98.4114C72.915 98.4114 73.1533 98.4114 73.1533 98.4114C73.8682 98.4114 74.583 98.6497 75.0596 98.888L95.0755 56.4734C94.5989 56.4734 94.3606 56.4734 94.1223 56.4734Z" fill="#8EBAE5"/>
<path d="M42.4141 14.7736L47.8946 17.3947C48.3712 16.6799 48.8477 15.965 49.8009 15.4885L44.3203 12.8673C43.8438 13.5822 43.1289 14.297 42.4141 14.7736Z" fill="#8EBAE5"/>
<path d="M19.063 57.6648C19.7778 57.6648 20.2544 57.9031 20.731 57.9031L40.5086 15.2502C40.2703 15.2502 40.2703 15.2502 40.032 15.2502C39.3172 15.2502 38.6023 15.0119 38.1257 14.7736L18.1099 57.4265C18.5864 57.6648 18.8247 57.6648 19.063 57.6648Z" fill="#8EBAE5"/>
<path d="M14.2974 71.4853L16.9185 66.0048C16.2037 65.5282 15.4888 65.0516 15.0122 64.0985L12.3911 69.579C13.3443 70.0556 14.0591 70.7704 14.2974 71.4853Z" fill="#8EBAE5"/>
<path d="M57.1885 95.0754C57.1885 94.5989 56.9503 94.3606 56.9503 93.884C56.9503 93.4075 56.9503 92.9309 57.1885 92.4543L14.7739 72.6767C14.7739 72.915 14.7739 73.3916 14.7739 73.6299C14.7739 74.1064 14.7739 74.8213 14.5356 75.2979L57.1885 95.0754Z" fill="#8EBAE5"/>
<path d="M98.8877 42.1763L96.0283 48.1334C96.7432 48.61 97.458 49.3249 97.9346 50.0397L100.556 44.0826C100.079 43.606 99.3643 43.1295 98.8877 42.1763Z" fill="#8EBAE5"/>
<path d="M71.0089 98.888L65.2901 96.2669C64.8135 96.9817 64.0986 97.6966 63.3838 97.9349L69.3409 100.556C69.8175 100.079 70.294 99.3646 71.0089 98.888Z" fill="#8EBAE5"/>
<path d="M7.86282 86.9738L9.7691 78.1573C8.81596 77.919 8.10111 77.6807 7.38626 76.9659L5.47998 85.7824C6.43312 85.7824 7.14797 86.259 7.86282 86.9738Z" fill="#8EBAE5"/>
<path d="M102.939 44.7974C102.462 44.7974 101.986 44.7975 101.509 44.5592L88.165 104.845C88.6416 104.607 89.3565 104.607 89.833 104.607C90.0713 104.607 90.5479 104.607 90.7862 104.607L104.13 44.5592C103.892 44.7975 103.415 44.7974 102.939 44.7974Z" fill="#8EBAE5"/>
<path d="M10.4844 69.1025C10.961 69.1025 11.4375 69.1025 11.6758 69.3408L25.258 8.57825C24.7815 8.81654 24.0666 8.81653 23.59 8.81653C23.3517 8.81653 22.8752 8.81654 22.6369 8.57825L9.29297 69.1025C9.53125 69.3408 10.0078 69.1025 10.4844 69.1025Z" fill="#8EBAE5"/>
<path d="M105.56 26.6878L103.654 35.7426C104.607 35.7426 105.322 36.2192 106.037 36.6958L107.943 27.8793C106.99 27.8793 106.275 27.4027 105.56 26.6878Z" fill="#8EBAE5"/>
<path d="M44.3213 9.29308C44.5596 9.76964 44.5596 10.4845 44.5596 10.9611C44.5596 11.1994 44.5596 11.6759 44.5596 11.9142L104.607 25.2581C104.369 24.7816 104.369 24.305 104.369 23.8284C104.369 23.3518 104.369 23.1136 104.607 22.637L44.3213 9.29308Z" fill="#8EBAE5"/>
<path d="M86.9743 105.798L77.9194 103.892C77.6812 104.845 77.2046 105.56 76.728 106.275L85.7828 108.419C85.7828 107.228 86.2594 106.275 86.9743 105.798Z" fill="#8EBAE5"/>
<path d="M69.1028 104.369C68.8645 103.892 68.8646 103.415 68.8646 102.939C68.8646 102.462 68.8645 102.224 69.1028 101.986L8.81689 88.6418C9.05518 89.1183 9.05518 89.5949 9.05518 90.3098C9.05518 90.548 9.05518 91.0246 9.05518 91.2629L69.1028 104.369Z" fill="#8EBAE5"/>
<path d="M26.4497 7.86339L35.7428 10.008C35.9811 9.05482 36.4576 8.33996 37.1725 7.62511L27.8794 5.48055C27.6411 6.43369 27.1646 7.38682 26.4497 7.86339Z" fill="#8EBAE5"/>
<path d="M108.896 28.1176C111.278 28.1176 113.423 26.2113 113.423 23.5902C113.423 20.969 111.517 19.0627 108.896 19.0627C106.513 19.0627 104.368 20.969 104.368 23.5902C104.368 26.2113 106.513 28.1176 108.896 28.1176Z" fill="#00549F"/>
<path d="M90.0714 113.423C92.4542 113.423 94.5988 111.517 94.5988 108.896C94.5988 106.513 92.6925 104.369 90.0714 104.369C87.6885 104.369 85.5439 106.275 85.5439 108.896C85.5439 111.279 87.6885 113.423 90.0714 113.423Z" fill="#00549F"/>
<path d="M4.5274 94.5989C6.91025 94.5989 9.0548 92.6926 9.0548 90.0715C9.0548 87.4503 7.14853 85.5441 4.5274 85.5441C2.14456 85.5441 0 87.4503 0 90.0715C0 92.6926 2.14456 94.5989 4.5274 94.5989Z" fill="#00549F"/>
<path d="M23.5904 8.81652C25.9732 8.81652 28.1178 6.91024 28.1178 4.28912C28.1178 1.66799 25.9732 0 23.5904 0C21.2076 0 19.063 1.90628 19.063 4.52741C19.063 7.14853 20.9693 8.81652 23.5904 8.81652Z" fill="#00549F"/>
<path d="M102.939 44.7975C105.321 44.7975 107.466 42.8912 107.466 40.2701C107.466 37.6489 105.56 35.7427 102.939 35.7427C100.556 35.7427 98.4111 37.6489 98.4111 40.2701C98.4111 42.8912 100.556 44.7975 102.939 44.7975Z" fill="#00549F"/>
<path d="M73.3912 107.228C75.774 107.228 77.9186 105.322 77.9186 102.701C77.9186 100.079 76.0123 98.1731 73.3912 98.1731C71.0083 98.1731 68.8638 100.079 68.8638 102.701C68.8638 105.322 70.77 107.228 73.3912 107.228Z" fill="#00549F"/>
<path d="M10.4844 78.1573C12.8673 78.1573 15.0118 76.251 15.0118 73.6299C15.0118 71.0087 13.1056 69.1025 10.4844 69.1025C8.10159 69.1025 5.95703 71.0087 5.95703 73.6299C5.95703 76.251 7.86331 78.1573 10.4844 78.1573Z" fill="#00549F"/>
<path d="M40.0313 15.4885C42.4142 15.4885 44.5587 13.5822 44.5587 10.9611C44.5587 8.33995 42.6524 6.43367 40.0313 6.43367C37.6485 6.43367 35.5039 8.33995 35.5039 10.9611C35.5039 13.5822 37.6485 15.4885 40.0313 15.4885Z" fill="#00549F"/>
<path d="M94.1226 56.4734C96.5055 56.4734 98.65 54.5671 98.65 51.946C98.65 49.3248 96.7437 47.4186 94.1226 47.4186C91.7398 47.4186 89.5952 49.3248 89.5952 51.946C89.5952 54.5671 91.5015 56.4734 94.1226 56.4734Z" fill="#00549F"/>
<path d="M61.4771 98.4114C63.86 98.4114 66.0045 96.5051 66.0045 93.884C66.0045 91.5012 64.0982 89.3566 61.4771 89.3566C59.0943 89.3566 56.9497 91.2629 56.9497 93.884C57.188 96.5051 59.0943 98.4114 61.4771 98.4114Z" fill="#00549F"/>
<path d="M19.063 66.4813C21.4459 66.4813 23.5904 64.5751 23.5904 61.954C23.5904 59.3328 21.6842 57.4265 19.063 57.4265C16.6802 57.4265 14.5356 59.3328 14.5356 61.954C14.5356 64.5751 16.6802 66.4813 19.063 66.4813Z" fill="#00549F"/>
<path d="M51.9459 23.8284C54.3287 23.8284 56.4733 21.9222 56.4733 19.301C56.4733 16.6799 54.567 14.7736 51.9459 14.7736C49.563 14.7736 47.4185 16.6799 47.4185 19.301C47.4185 21.9222 49.3247 23.8284 51.9459 23.8284Z" fill="#00549F"/>
<path d="M75.0596 42.8912C77.4425 42.8912 79.587 40.9849 79.587 38.3638C79.587 35.7426 77.6808 33.8364 75.0596 33.8364C72.6768 33.8364 70.5322 35.7426 70.5322 38.3638C70.5322 40.9849 72.6768 42.8912 75.0596 42.8912Z" fill="#00549F"/>
<path d="M75.0596 79.8253C77.4425 79.8253 79.587 77.919 79.587 75.2979C79.587 72.6767 77.6808 70.7704 75.0596 70.7704C72.6768 70.7704 70.5322 72.6767 70.5322 75.2979C70.5322 77.919 72.6768 79.8253 75.0596 79.8253Z" fill="#00549F"/>
<path d="M38.1255 42.8912C40.5084 42.8912 42.6529 40.9849 42.6529 38.3638C42.6529 35.7426 40.7467 33.8364 38.1255 33.8364C35.7427 33.8364 33.5981 35.7426 33.5981 38.3638C33.5981 40.9849 35.5044 42.8912 38.1255 42.8912Z" fill="#00549F"/>
<path d="M38.1255 79.8253C40.5084 79.8253 42.6529 77.919 42.6529 75.2979C42.6529 72.6767 40.5084 70.7704 38.1255 70.7704C35.7427 70.7704 33.5981 72.6767 33.5981 75.2979C33.5981 77.919 35.5044 79.8253 38.1255 79.8253Z" fill="#00549F"/>
<path d="M290.469 107.705V108.181C290.469 108.896 290.469 109.373 290.707 109.849C290.945 110.326 291.184 110.802 291.422 111.279C291.899 111.755 292.375 111.994 292.852 112.232C293.567 112.47 294.281 112.47 295.235 112.47C295.949 112.47 296.664 112.47 297.141 112.232C297.856 111.994 298.332 111.755 298.571 111.517C299.047 111.279 299.285 110.802 299.524 110.326C299.762 109.849 300 109.134 300 108.419C300 107.466 299.762 106.751 299.285 106.037C298.809 105.56 298.094 105.083 297.141 104.607L295.235 103.892C294.758 103.654 294.281 103.415 294.043 103.177C293.805 102.939 293.805 102.701 293.805 102.224C293.805 101.747 294.043 101.509 294.281 101.271C294.52 101.033 294.996 101.033 295.473 101.033C295.949 101.033 296.426 101.271 296.664 101.509C296.903 101.747 296.903 102.224 296.903 102.939H300V102.462C300 101.271 299.524 100.318 298.809 99.6029C298.094 98.888 296.903 98.6497 295.473 98.6497C294.52 98.6497 293.805 98.6497 293.328 98.888C292.613 99.1263 292.137 99.3646 291.899 99.8412C291.422 100.318 291.184 100.556 290.945 101.033C290.707 101.509 290.707 101.986 290.707 102.462C290.707 103.415 290.945 104.13 291.422 104.845C291.899 105.322 292.613 105.798 293.567 106.275L295.949 107.228C296.188 107.466 296.664 107.466 296.903 107.705C297.141 107.943 297.379 108.181 297.379 108.658C297.379 109.134 297.141 109.611 296.903 109.849C296.664 110.087 296.188 110.326 295.711 110.326C295.235 110.326 294.758 110.087 294.52 109.849C294.281 109.611 294.043 109.134 294.043 108.419V107.943H290.469V107.705ZM272.359 111.994H275.695V103.415C275.695 102.701 275.934 101.986 276.172 101.747C276.41 101.271 276.887 101.271 277.363 101.271C277.84 101.271 278.078 101.509 278.316 101.747C278.555 101.986 278.555 102.462 278.555 102.939V111.994H281.891V103.415C281.891 102.701 282.129 101.986 282.367 101.747C282.606 101.271 283.082 101.271 283.559 101.271C284.035 101.271 284.273 101.509 284.512 101.747C284.75 101.986 284.75 102.462 284.75 102.939V111.994H288.086V102.462C288.086 101.271 287.848 100.318 287.371 99.6029C286.895 98.888 285.941 98.6497 284.988 98.6497C284.273 98.6497 283.559 98.888 282.844 99.1263C282.367 99.3646 281.891 100.079 281.652 100.794C281.414 100.079 281.176 99.6029 280.699 99.1263C280.223 98.6497 279.508 98.6497 278.793 98.6497C278.078 98.6497 277.363 98.888 276.887 99.1263C276.41 99.3646 275.934 99.8412 275.457 100.318V98.888H272.121V111.994H272.359ZM263.781 103.892V103.415C263.781 103.177 263.781 102.701 263.781 102.462C263.781 102.224 264.019 101.986 264.019 101.509C264.258 101.271 264.258 101.033 264.496 100.794C264.734 100.556 264.972 100.556 265.449 100.556C265.687 100.556 266.164 100.556 266.402 100.794C266.64 101.033 266.879 101.033 266.879 101.509C267.117 101.747 267.117 101.986 267.117 102.462C267.117 102.939 267.117 103.177 267.117 103.892H263.781ZM270.453 105.798V105.083C270.453 104.13 270.453 103.177 270.215 102.224C269.976 101.509 269.738 100.794 269.5 100.079C269.023 99.6029 268.547 99.1263 268.07 98.6497C267.355 98.4114 266.64 98.1732 265.687 98.1732C264.496 98.1732 263.543 98.4114 263.066 98.6497C262.351 99.1263 261.875 99.6029 261.398 100.079C260.922 100.794 260.683 101.509 260.683 102.224C260.445 102.939 260.445 103.892 260.445 104.845C260.445 105.56 260.445 106.513 260.445 107.228C260.445 108.181 260.683 108.896 261.16 109.611C261.398 110.326 261.875 110.802 262.59 111.279C263.304 111.755 264.258 111.994 265.449 111.994C267.117 111.994 268.308 111.517 269.023 110.802C269.738 110.087 270.215 108.896 270.215 107.228H267.117C267.117 107.943 266.879 108.658 266.64 109.134C266.402 109.611 265.926 109.849 265.449 109.849C265.211 109.849 264.972 109.849 264.734 109.611C264.496 109.373 264.258 109.134 264.258 108.896C264.019 108.658 264.019 108.181 264.019 107.943C264.019 107.466 264.019 107.228 264.019 106.751V105.798H270.453ZM254.25 98.888H252.582V101.271H254.25V108.896C254.25 109.611 254.25 110.087 254.488 110.564C254.488 111.041 254.726 111.279 254.965 111.517C255.203 111.755 255.441 111.994 255.918 111.994C256.394 111.994 256.871 112.232 257.586 112.232C258.062 112.232 258.3 112.232 258.777 112.232C259.015 112.232 259.492 112.232 259.968 112.232V109.849C259.968 109.849 259.73 109.849 259.492 109.849C259.254 109.849 259.254 109.849 259.015 109.849C258.539 109.849 258.3 109.849 258.062 109.611C257.824 109.373 257.824 109.134 257.824 108.419V101.271H259.73V98.888H257.824V95.0755H254.488V98.888H254.25ZM241.859 107.705V108.181C241.859 108.896 241.859 109.373 242.097 109.849C242.335 110.326 242.574 110.802 242.812 111.279C243.289 111.755 243.765 111.994 244.242 112.232C244.957 112.47 245.671 112.47 246.625 112.47C247.339 112.47 248.054 112.47 248.531 112.232C249.246 111.994 249.722 111.755 249.961 111.517C250.437 111.279 250.675 110.802 250.914 110.326C251.152 109.849 251.39 109.134 251.39 108.419C251.39 107.466 251.152 106.751 250.675 106.037C250.199 105.56 249.484 105.083 248.531 104.607L246.386 103.892C245.91 103.654 245.433 103.415 245.195 103.177C244.957 102.939 244.957 102.701 244.957 102.224C244.957 101.747 245.195 101.509 245.433 101.271C245.671 101.033 246.148 101.033 246.625 101.033C247.101 101.033 247.578 101.271 247.816 101.509C248.054 101.747 248.054 102.224 248.054 102.939H251.152V102.462C251.152 101.271 250.675 100.318 249.961 99.6029C249.246 98.888 248.054 98.6497 246.625 98.6497C245.671 98.6497 244.957 98.6497 244.48 98.888C243.765 99.1263 243.289 99.3646 243.05 99.8412C242.574 100.318 242.335 100.556 242.097 101.033C241.859 101.509 241.859 101.986 241.859 102.462C241.859 103.415 242.097 104.13 242.574 104.845C243.05 105.322 243.765 105.798 244.718 106.275L247.101 107.228C247.339 107.466 247.816 107.466 248.054 107.705C248.293 107.943 248.531 108.181 248.531 108.658C248.531 109.134 248.293 109.611 248.054 109.849C247.816 110.087 247.339 110.326 246.863 110.326C246.386 110.326 245.91 110.087 245.671 109.849C245.433 109.611 245.195 109.134 245.195 108.419V107.943H241.859V107.705ZM231.374 116.283H232.804C233.519 116.283 234.234 116.283 234.71 116.044C235.187 116.044 235.663 115.806 236.14 115.33C236.617 114.853 236.855 114.377 237.331 113.423C237.808 112.47 238.046 111.755 238.046 111.041L241.144 98.888H237.808L236.14 107.943L234.234 98.888H230.66L234.234 111.994C234.234 112.47 233.995 112.947 233.757 113.423C233.519 113.662 233.042 113.9 232.327 113.9C232.089 113.9 231.851 113.9 231.374 113.9V116.283ZM217.792 106.513V107.228C217.792 108.896 218.269 110.087 218.984 111.041C219.937 111.994 221.366 112.47 223.273 112.47C225.179 112.47 226.609 111.994 227.8 111.279C228.753 110.326 229.468 109.134 229.468 107.228C229.468 106.751 229.468 106.275 229.23 105.798C229.23 105.322 228.992 104.845 228.753 104.607C228.515 104.13 228.277 103.892 227.8 103.654C227.324 103.415 226.847 102.939 226.132 102.701L223.511 101.509C222.796 101.271 222.32 100.794 222.081 100.556C221.843 100.079 221.843 99.8412 221.843 99.1263C221.843 98.888 221.843 98.6497 221.843 98.4115C221.843 98.1732 222.081 97.9349 222.081 97.6966C222.32 97.4583 222.558 97.4583 222.796 97.22C223.034 97.22 223.273 96.9818 223.749 96.9818C224.464 96.9818 224.941 97.22 225.179 97.6966C225.417 98.1732 225.656 98.888 225.656 99.6029H228.992V99.1263C228.992 98.4115 228.753 97.6966 228.515 96.9818C228.277 96.5052 227.8 95.7903 227.324 95.552C226.847 95.0755 226.37 94.8372 225.656 94.8372C224.941 94.5989 224.226 94.5989 223.511 94.5989C221.843 94.5989 220.413 95.0755 219.46 95.7903C218.507 96.7435 218.03 97.9349 218.03 99.6029C218.03 100.318 218.03 101.033 218.269 101.509C218.507 101.986 218.745 102.462 219.222 102.939C219.698 103.415 220.175 103.654 220.652 104.13C221.128 104.369 221.843 104.607 222.558 105.083C223.034 105.322 223.749 105.56 223.988 105.56C224.464 105.798 224.702 106.037 224.941 106.275C225.179 106.513 225.417 106.751 225.417 106.99C225.417 107.228 225.656 107.705 225.656 107.943C225.656 108.658 225.417 109.134 224.941 109.611C224.464 109.849 223.988 110.087 223.511 110.087C223.034 110.087 222.558 110.087 222.32 109.849C222.081 109.611 221.843 109.611 221.605 109.373C221.366 109.134 221.366 108.896 221.128 108.419C221.128 108.181 221.128 107.705 221.128 107.228V106.513H217.792ZM203.972 103.892V103.415C203.972 103.177 203.972 102.701 203.972 102.462C203.972 102.224 204.21 101.986 204.21 101.509C204.448 101.271 204.448 101.033 204.687 100.794C204.925 100.556 205.163 100.556 205.64 100.556C205.878 100.556 206.355 100.556 206.593 100.794C206.831 101.033 207.069 101.033 207.069 101.509C207.308 101.747 207.308 101.986 207.308 102.462C207.308 102.939 207.308 103.177 207.308 103.892H203.972ZM210.644 105.798V105.083C210.644 104.13 210.644 103.177 210.405 102.224C210.167 101.509 209.929 100.794 209.69 100.079C209.452 99.6029 208.737 99.1263 208.261 98.6497C207.546 98.4114 206.831 98.1732 205.878 98.1732C204.687 98.1732 203.733 98.4114 203.257 98.6497C202.542 99.1263 202.065 99.6029 201.589 100.079C201.112 100.794 200.874 101.509 200.874 102.224C200.636 102.939 200.636 103.892 200.636 104.845C200.636 105.56 200.636 106.513 200.636 107.228C200.636 108.181 200.874 108.896 201.351 109.611C201.589 110.326 202.065 110.802 202.78 111.279C203.495 111.755 204.448 111.994 205.64 111.994C207.308 111.994 208.499 111.517 209.214 110.802C209.929 110.087 210.405 108.896 210.405 107.228H207.308C207.308 107.943 207.069 108.658 206.831 109.134C206.593 109.611 206.116 109.849 205.64 109.849C205.401 109.849 205.163 109.849 204.925 109.611C204.687 109.373 204.448 109.134 204.448 108.896C204.21 108.658 204.21 108.181 204.21 107.943C204.21 107.466 204.21 107.228 204.21 106.751V105.798H210.644ZM194.44 98.888H192.772V101.271H194.44V108.896C194.44 109.611 194.44 110.087 194.679 110.564C194.679 111.041 194.917 111.279 195.155 111.517C195.393 111.755 195.632 111.994 196.108 111.994C196.585 111.994 197.061 112.232 197.776 112.232C198.253 112.232 198.491 112.232 198.968 112.232C199.206 112.232 199.683 112.232 200.159 112.232V109.849C200.159 109.849 199.921 109.849 199.683 109.849C199.444 109.849 199.444 109.849 199.206 109.849C198.729 109.849 198.491 109.849 198.253 109.611C198.015 109.373 198.015 109.134 198.015 108.419V101.271H199.921V98.888H198.015V95.0755H194.679V98.888H194.44ZM184.909 103.892V103.415C184.909 103.177 184.909 102.701 184.909 102.462C184.909 102.224 185.147 101.986 185.147 101.509C185.385 101.271 185.385 101.033 185.624 100.794C185.862 100.556 186.1 100.556 186.577 100.556C186.815 100.556 187.292 100.556 187.53 100.794C187.768 101.033 188.007 101.033 188.007 101.509C188.245 101.747 188.245 101.986 188.245 102.462C188.245 102.939 188.245 103.177 188.245 103.892H184.909ZM191.581 105.798V105.083C191.581 104.13 191.581 103.177 191.343 102.224C191.104 101.509 190.866 100.794 190.628 100.079C190.151 99.6029 189.675 99.1263 189.198 98.6497C188.483 98.4114 187.768 98.1732 186.815 98.1732C185.624 98.1732 184.671 98.4114 184.194 98.6497C183.479 99.1263 183.003 99.6029 182.526 100.079C182.049 100.794 181.811 101.509 181.811 102.224C181.573 102.939 181.573 103.892 181.573 104.845C181.573 105.56 181.573 106.513 181.573 107.228C181.573 107.943 181.811 108.896 182.288 109.611C182.526 110.326 183.003 110.802 183.717 111.279C184.432 111.755 185.385 111.994 186.577 111.994C188.245 111.994 189.436 111.517 190.151 110.802C190.866 110.087 191.343 108.896 191.343 107.228H188.245C188.245 107.943 188.007 108.658 187.768 109.134C187.53 109.611 187.053 109.849 186.577 109.849C186.339 109.849 186.1 109.849 185.862 109.611C185.624 109.373 185.385 109.134 185.385 108.896C185.147 108.658 185.147 108.181 185.147 107.943C185.147 107.466 185.147 107.228 185.147 106.751V105.798H191.581ZM173.71 111.994H177.046V104.13C177.046 103.654 177.046 103.415 177.284 102.939C177.522 102.701 177.522 102.462 177.76 102.224C177.999 101.986 178.237 101.986 178.475 101.747C178.714 101.747 178.952 101.509 179.428 101.509C179.667 101.509 179.667 101.509 179.905 101.509C180.143 101.509 180.143 101.509 180.382 101.509V98.1732H180.143H179.905C179.19 98.1732 178.714 98.4114 178.237 98.6497C177.76 99.1263 177.284 99.6029 177.046 100.079V98.4115H173.71V111.994ZM171.803 103.415C171.803 101.747 171.327 100.556 170.612 99.6029C169.897 98.6497 168.706 98.1732 167.038 98.1732C166.323 98.1732 165.608 98.1732 164.893 98.4115C164.178 98.6497 163.702 98.888 163.225 99.6029C162.748 100.079 162.272 100.794 162.034 101.747C161.795 102.939 161.795 103.892 161.795 105.322C161.795 106.751 161.795 107.705 162.034 108.658C162.272 109.611 162.51 110.326 162.987 110.802C163.463 111.279 163.94 111.755 164.655 111.994C165.37 112.232 166.084 112.232 166.799 112.232C168.706 112.232 169.897 111.755 170.612 110.802C171.327 109.849 171.803 108.658 171.803 106.751H168.706C168.706 107.943 168.467 108.658 168.229 109.134C167.991 109.611 167.514 109.849 167.038 109.849C166.561 109.849 166.323 109.849 166.084 109.611C165.846 109.373 165.608 109.134 165.608 108.896C165.37 108.419 165.37 107.943 165.37 107.466C165.37 106.99 165.37 106.275 165.37 105.322C165.37 104.607 165.37 103.892 165.37 103.415C165.37 102.939 165.608 102.462 165.608 101.986C165.846 101.509 165.846 101.271 166.084 101.271C166.323 101.033 166.561 101.033 167.038 101.033C167.276 101.033 167.514 101.033 167.752 101.271C167.991 101.509 167.991 101.747 168.229 101.986C168.229 102.224 168.467 102.462 168.467 102.939C168.467 103.177 168.467 103.654 168.467 103.892H171.803V103.415ZM150.596 107.705V108.181C150.596 108.896 150.596 109.373 150.834 109.849C151.073 110.326 151.311 110.802 151.549 111.279C152.026 111.755 152.502 111.994 152.979 112.232C153.694 112.47 154.409 112.47 155.362 112.47C156.077 112.47 156.791 112.47 157.268 112.232C157.983 111.994 158.459 111.755 158.936 111.517C159.412 111.279 159.651 110.802 159.889 110.326C160.127 109.849 160.366 109.134 160.366 108.419C160.366 107.466 160.127 106.751 159.651 106.037C159.174 105.56 158.459 105.083 157.506 104.607L155.6 103.892C155.123 103.654 154.647 103.415 154.409 103.177C154.17 102.939 154.17 102.701 154.17 102.224C154.17 101.747 154.409 101.509 154.647 101.271C154.885 101.033 155.362 101.033 155.838 101.033C156.315 101.033 156.791 101.271 157.03 101.509C157.268 101.747 157.268 102.224 157.268 102.939H160.366V102.462C160.366 101.271 159.889 100.318 159.174 99.6029C158.459 98.888 157.268 98.6497 155.838 98.6497C154.885 98.6497 154.17 98.6497 153.694 98.888C152.979 99.1263 152.502 99.3646 152.264 99.8412C151.787 100.318 151.549 100.556 151.311 101.033C151.073 101.509 151.073 101.986 151.073 102.462C151.073 103.415 151.311 104.13 151.787 104.845C152.264 105.322 152.979 105.798 153.932 106.275L156.315 107.228C156.553 107.466 157.03 107.466 157.268 107.705C157.506 107.943 157.744 108.181 157.744 108.658C157.744 109.134 157.506 109.611 157.268 109.849C157.03 110.087 156.553 110.326 156.076 110.326C155.6 110.326 155.123 110.087 154.885 109.849C154.647 109.611 154.409 109.134 154.409 108.419V107.943H150.596V107.705ZM145.354 111.994H148.69V98.888H145.354V111.994ZM145.354 97.22H148.69V94.3606H145.354V97.22ZM131.295 111.994H136.775C137.967 111.994 138.92 111.755 139.635 111.517C140.35 111.041 141.065 110.564 141.541 109.849C142.018 109.134 142.256 108.181 142.494 106.99C142.733 105.798 142.733 104.607 142.733 102.939C142.733 101.747 142.733 100.556 142.494 99.3646C142.256 98.4115 142.018 97.4583 141.541 96.7435C141.065 96.0286 140.588 95.552 139.873 95.0755C139.397 94.5989 138.443 94.5989 137.014 94.5989H131.295V111.994ZM134.869 96.9818H136.299C137.014 96.9818 137.49 97.22 137.967 97.4583C138.443 97.6966 138.682 98.1732 138.92 98.6497C139.158 99.1263 139.158 99.8412 139.397 100.556C139.397 101.271 139.397 102.224 139.397 103.177C139.397 104.369 139.397 105.322 139.397 106.037C139.397 106.751 139.158 107.466 138.92 107.943C138.682 108.419 138.205 108.896 137.967 108.896C137.49 109.134 137.014 109.134 136.537 109.134H134.869V96.9818Z" fill="#00549F"/>
<path d="M259.253 84.3526H262.589V73.6299H264.495V71.247H262.589V70.0556C262.589 69.579 262.589 69.3407 262.827 69.3407C263.066 69.1025 263.304 69.1025 263.781 69.1025H264.019C264.257 69.1025 264.257 69.1025 264.257 69.1025V66.7196C263.542 66.7196 263.066 66.7196 262.351 66.7196C261.874 66.7196 261.398 66.7196 260.921 66.9579C260.445 66.9579 260.206 67.1962 259.73 67.4345C259.491 67.6727 259.253 67.911 259.015 68.3876C258.777 68.8642 258.777 69.3407 258.777 69.8173V71.247H257.109V73.6299H258.777V84.3526H259.253ZM249.483 75.7744C249.483 75.2978 249.483 74.8213 249.722 74.3447C249.96 73.8681 249.96 73.6299 250.198 73.3916C250.437 73.1533 250.675 73.1533 251.151 73.1533C251.866 73.1533 252.343 73.6299 252.581 74.3447C252.819 75.0596 253.058 76.251 253.058 77.919C253.058 79.587 252.819 80.7784 252.581 81.4932C252.343 82.2081 251.866 82.4464 251.151 82.4464C250.675 82.4464 250.437 82.4464 250.198 82.2081C249.96 81.9698 249.722 81.7315 249.722 81.255C249.483 80.7784 249.483 80.3018 249.483 79.8253C249.483 79.3487 249.483 78.6338 249.483 77.919C249.483 77.2041 249.483 76.4893 249.483 75.7744ZM246.386 80.7784C246.624 81.7315 246.862 82.4464 247.101 82.9229C247.577 83.3995 248.054 83.8761 248.769 84.1144C249.483 84.3527 250.198 84.5909 251.39 84.5909C252.343 84.5909 253.058 84.3527 253.773 84.1144C254.487 83.8761 254.964 83.3995 255.441 82.6847C255.917 82.2081 256.155 81.4932 256.394 80.5401C256.632 79.587 256.632 78.6338 256.632 77.6807C256.632 76.4893 256.632 75.5361 256.394 74.583C256.155 73.6299 255.917 72.915 255.679 72.4384C255.202 71.9619 254.726 71.4853 254.011 71.247C253.296 71.0087 252.581 70.7704 251.39 70.7704C250.437 70.7704 249.722 71.0087 249.007 71.247C248.292 71.4853 247.815 71.9619 247.339 72.6767C246.862 73.1533 246.624 73.8681 246.386 74.8213C246.147 75.7744 246.147 76.7276 246.147 77.6807C246.147 78.8721 246.147 79.8252 246.386 80.7784ZM229.944 88.6418H231.374C232.089 88.6418 232.804 88.6418 233.28 88.4035C233.757 88.4035 234.233 88.1652 234.71 87.6886C235.186 87.2121 235.425 86.7355 235.901 85.7824C236.378 84.8292 236.378 84.1144 236.616 83.3995L239.714 71.247H236.378L234.71 80.3018L232.804 71.247H229.229L232.804 84.3526C232.804 84.8292 232.565 85.3058 232.327 85.7824C232.089 86.0207 231.612 86.2589 230.897 86.2589C230.659 86.2589 230.421 86.2589 229.944 86.2589V88.6418ZM220.889 84.3526H224.225V76.4893C224.225 76.0127 224.225 75.7744 224.464 75.2979C224.702 75.0596 224.702 74.8213 224.94 74.583C225.178 74.3447 225.417 74.3447 225.655 74.1064C225.893 74.1064 226.132 73.8682 226.608 73.8682C226.846 73.8682 226.846 73.8682 227.085 73.8682C227.323 73.8682 227.323 73.8682 227.561 73.8682V70.7704H227.323H227.085C226.37 70.7704 225.893 71.0087 225.417 71.247C224.94 71.7236 224.464 72.2002 224.225 72.6767V71.0087H220.889V84.3526ZM212.073 75.7744C212.073 75.2978 212.073 74.8213 212.311 74.3447C212.549 73.8681 212.549 73.6299 212.788 73.3916C213.026 73.1533 213.264 73.1533 213.741 73.1533C214.456 73.1533 214.932 73.6299 215.171 74.3447C215.409 75.0596 215.647 76.251 215.647 77.919C215.647 79.587 215.409 80.7784 215.171 81.4932C214.932 82.2081 214.456 82.4464 213.741 82.4464C213.264 82.4464 213.026 82.4464 212.788 82.2081C212.549 81.9698 212.311 81.7315 212.311 81.255C212.073 80.7784 212.073 80.3018 212.073 79.8253C212.073 79.3487 212.073 78.6338 212.073 77.919C212.073 77.2041 212.073 76.4893 212.073 75.7744ZM208.975 80.7784C209.213 81.7315 209.452 82.4464 209.69 82.9229C210.167 83.3995 210.643 83.8761 211.358 84.1144C212.073 84.3527 212.788 84.5909 213.979 84.5909C214.932 84.5909 215.647 84.3527 216.362 84.1144C217.077 83.8761 217.553 83.3995 218.03 82.6847C218.507 82.2081 218.745 81.4932 218.983 80.5401C219.221 79.587 219.221 78.6338 219.221 77.6807C219.221 76.4893 219.221 75.5361 218.983 74.583C218.745 73.6299 218.507 72.915 218.268 72.4384C217.792 71.9619 217.315 71.4853 216.6 71.247C215.885 71.0087 215.171 70.7704 213.979 70.7704C213.026 70.7704 212.311 71.0087 211.596 71.247C210.881 71.4853 210.405 71.9619 209.928 72.6767C209.452 73.1533 209.213 73.8681 208.975 74.8213C208.737 75.7744 208.737 76.7276 208.737 77.6807C208.737 78.8721 208.737 79.8252 208.975 80.7784ZM200.397 76.251V75.7744C200.397 75.5361 200.397 75.0596 200.397 74.8213C200.397 74.583 200.635 74.3447 200.635 73.8682C200.873 73.6299 200.873 73.3916 201.112 73.1533C201.35 72.915 201.588 72.915 202.065 72.915C202.541 72.915 202.78 72.915 203.018 73.1533C203.256 73.3916 203.495 73.3916 203.495 73.8682C203.733 74.1064 203.733 74.3447 203.733 74.8213C203.733 75.2978 203.733 75.5361 203.733 76.251H200.397ZM207.069 78.1573V77.4424C207.069 76.4893 207.069 75.5361 206.831 74.583C206.592 73.8681 206.354 73.1533 206.116 72.4384C205.639 71.9619 205.163 71.4853 204.686 71.0087C203.971 70.7704 203.256 70.5322 202.303 70.5322C201.112 70.5322 200.159 70.7704 199.682 71.0087C198.967 71.4853 198.491 71.9619 198.014 72.4384C197.537 73.1533 197.299 73.8681 197.299 74.583C197.061 75.2978 197.061 76.251 197.061 77.2041C197.061 77.919 197.061 78.8721 197.061 79.587C197.061 80.5401 197.299 81.255 197.537 81.9698C197.776 82.6847 198.252 83.1612 198.967 83.6378C199.682 84.1144 200.635 84.3526 201.827 84.3526C203.495 84.3526 204.686 83.8761 205.401 83.1612C206.116 82.4464 206.592 81.255 206.592 79.587H203.495C203.495 80.3018 203.256 81.0167 203.018 81.4932C202.78 81.9698 202.303 82.2081 201.827 82.2081C201.588 82.2081 201.35 82.2081 201.112 81.9698C200.873 81.7315 200.635 81.4932 200.635 81.255C200.397 81.0167 200.397 80.5401 200.397 80.3018C200.397 79.8253 200.397 79.587 200.397 79.1104V78.1573H207.069ZM185.147 84.3526H188.483V75.5361C188.483 74.1064 188.959 73.3916 190.151 73.3916C190.627 73.3916 191.104 73.6299 191.342 73.8682C191.58 74.1064 191.58 74.583 191.58 75.2979V84.3526H194.916V74.583C194.916 73.1533 194.678 72.2002 193.963 71.7236C193.487 71.247 192.534 70.7704 191.58 70.7704C190.151 70.7704 188.959 71.247 188.483 72.4384V66.7196H185.147V84.3526ZM172.518 66.9579V69.8173H176.33V84.3526H179.904V69.8173H183.717V66.9579H172.518ZM158.697 74.583C158.935 73.8681 159.412 73.3916 160.127 73.3916C160.842 73.3916 161.318 73.8681 161.557 74.583C161.795 75.2978 161.795 76.4893 161.795 77.919C161.795 79.3487 161.795 80.5401 161.557 81.255C161.318 81.9698 160.842 82.4464 160.127 82.4464C159.412 82.4464 158.935 81.9698 158.697 81.255C158.459 80.5401 158.459 79.3487 158.459 77.919C158.221 76.251 158.459 75.2978 158.697 74.583ZM162.033 84.3526H165.131V66.9579H161.795V72.4384C161.557 71.9619 161.08 71.4853 160.603 71.247C160.127 71.0087 159.65 70.7704 158.935 70.7704C157.506 70.7704 156.553 71.247 155.838 72.4384C155.123 73.6299 154.885 75.2979 154.885 77.6807C154.885 80.0635 155.123 81.9698 155.838 82.9229C156.553 84.1144 157.506 84.5909 158.935 84.5909C159.65 84.5909 160.127 84.3527 160.603 84.1144C161.08 83.8761 161.557 83.3995 161.795 82.6847V84.3526H162.033ZM142.97 84.3526H146.306V75.5361C146.306 74.1064 146.783 73.3916 147.974 73.3916C148.451 73.3916 148.927 73.6299 149.166 73.8682C149.404 74.1064 149.404 74.583 149.404 75.2979V84.3526H152.74V74.583C152.74 73.1533 152.502 72.2002 151.787 71.7236C151.31 71.247 150.357 70.7704 149.404 70.7704C148.689 70.7704 147.974 71.0087 147.498 71.247C147.021 71.4853 146.545 71.9619 146.068 72.6767V71.247H142.97V84.3526ZM137.252 80.3018C137.252 80.7784 137.252 81.0167 137.013 81.255C136.775 81.4932 136.775 81.7315 136.537 81.9698C136.298 82.2081 136.06 82.2081 135.822 82.2081C135.584 82.2081 135.345 82.2081 135.107 82.2081C134.63 82.2081 134.392 81.9698 134.154 81.7315C133.916 81.255 133.916 81.0167 133.916 80.5401C133.916 80.0635 134.154 79.587 134.392 79.1104C134.63 78.6338 135.107 78.6338 135.822 78.3955C136.06 78.3955 136.298 78.1573 136.537 78.1573C136.775 78.1573 137.013 77.919 137.252 77.6807V80.3018ZM134.154 75.0596V74.583C134.154 74.1064 134.392 73.6299 134.63 73.3916C134.869 73.1533 135.107 73.1533 135.584 73.1533C136.06 73.1533 136.537 73.3916 136.775 73.6299C137.013 73.8681 137.013 74.3447 137.013 74.8213C137.013 75.2978 137.013 75.5361 136.775 75.7744C136.537 76.0127 136.298 76.251 135.822 76.251L133.916 76.7276C133.439 76.9658 132.724 76.9658 132.486 77.2041C132.009 77.4424 131.771 77.6807 131.533 77.919C131.294 78.1573 131.056 78.6338 130.818 79.1104C130.58 79.587 130.58 80.0635 130.58 80.7784C130.58 81.255 130.58 81.7315 130.818 82.2081C130.818 82.6847 131.056 83.1612 131.294 83.3995C131.533 83.6378 131.771 84.1144 132.248 84.3526C132.724 84.5909 133.201 84.5909 133.677 84.5909C134.392 84.5909 135.107 84.5909 135.584 84.3526C136.06 84.1144 136.537 83.6378 137.013 82.9229C137.013 83.1612 137.013 83.3995 137.252 83.6378C137.252 83.8761 137.49 84.1144 137.49 84.3526H140.826C140.588 83.8761 140.588 83.6378 140.588 83.1612C140.588 82.9229 140.588 82.4464 140.588 81.7315V74.8213C140.588 74.3447 140.588 73.6299 140.349 73.1533C140.111 72.6767 140.111 72.2002 139.634 71.9619C139.396 71.7236 138.92 71.247 138.205 71.247C137.49 71.0087 136.775 71.0087 135.822 71.0087C135.107 71.0087 134.63 71.0087 133.916 71.247C133.439 71.4853 132.962 71.7236 132.486 71.9619C132.009 72.2002 131.771 72.6767 131.533 73.1533C131.294 73.6299 131.056 74.3447 131.056 75.0596V75.2979H134.154V75.0596Z" fill="#00549F"/>
<path d="M272.597 48.1334C272.597 46.4655 272.12 45.274 271.406 44.3209C270.691 43.3678 269.499 42.8912 267.831 42.8912C267.117 42.8912 266.402 42.8912 265.687 43.1295C264.972 43.3678 264.495 43.606 264.019 44.3209C263.542 44.7975 263.066 45.5123 262.827 46.4655C262.589 47.4186 262.351 48.3717 262.351 49.8014C262.351 51.2311 262.351 52.1843 262.589 53.1374C262.827 54.0906 263.066 54.8054 263.542 55.282C264.019 55.7585 264.495 56.2351 265.21 56.4734C265.925 56.7117 266.64 56.7117 267.355 56.7117C269.261 56.7117 270.452 56.2351 271.167 55.282C271.882 54.3288 272.359 53.1374 272.359 51.2311H269.023C269.023 52.4226 268.785 53.1374 268.546 53.614C268.308 54.0906 267.831 54.3288 267.355 54.3288C266.878 54.3288 266.64 54.3288 266.402 54.0906C266.163 53.8523 265.925 53.614 265.925 53.3757C265.687 52.8991 265.687 52.4226 265.687 51.946C265.687 51.4694 265.687 50.7546 265.687 49.8014C265.687 49.0866 265.687 48.3717 265.687 47.8952C265.687 47.4186 265.925 46.942 265.925 46.4655C266.163 45.9889 266.163 45.7506 266.402 45.7506C266.64 45.5123 266.878 45.5123 267.355 45.5123C267.593 45.5123 267.831 45.5123 268.07 45.7506C268.308 45.9889 268.546 46.2272 268.546 46.4655C268.546 46.7037 268.784 46.942 268.784 47.4186C268.784 47.6569 268.784 48.1334 268.784 48.3717H272.597V48.1334ZM257.347 56.7117H260.683V43.606H257.347V56.7117ZM257.347 41.9381H260.683V39.0786H257.347V41.9381ZM251.628 43.606V45.0358C251.39 44.3209 250.913 43.8443 250.437 43.606C249.96 43.3678 249.483 43.1295 249.007 43.1295C248.054 43.1295 247.339 43.3678 246.862 43.8443C246.386 44.3209 245.909 44.7975 245.671 45.5123C245.433 46.2272 245.194 46.942 245.194 47.6569C245.194 48.3717 244.956 49.3249 244.956 50.0397C244.956 52.4226 245.194 54.0906 245.909 55.0437C246.624 55.9968 247.577 56.4734 249.007 56.4734C249.483 56.4734 249.96 56.2351 250.675 55.9968C251.151 55.7585 251.628 55.282 251.866 54.8054V56.4734C251.866 57.1883 251.628 57.6648 251.39 58.1414C251.151 58.618 250.675 58.8562 249.96 58.8562C249.722 58.8562 249.483 58.8562 249.245 58.8562C249.007 58.8562 248.769 58.618 248.769 58.618C248.53 58.3797 248.292 58.1414 248.292 57.6648H245.194C245.194 58.8562 245.671 59.5711 246.386 60.2859C247.101 61.0008 248.292 61.2391 249.722 61.2391C251.628 61.2391 253.058 60.7625 254.011 60.0477C254.726 59.0945 255.202 57.9031 255.202 56.2351V43.8443H251.628V43.606ZM248.054 48.3717C248.054 47.6569 248.292 47.1803 248.292 46.942C248.292 46.7037 248.53 46.2272 248.769 46.2272C249.007 45.9889 249.245 45.9889 249.722 45.9889C250.437 45.9889 250.913 46.2272 251.151 46.942C251.39 47.6569 251.628 48.8483 251.628 50.278C251.628 50.7546 251.628 51.2311 251.628 51.7077C251.628 52.1843 251.39 52.6609 251.39 52.8991C251.151 53.1374 251.151 53.3757 250.913 53.614C250.675 53.8523 250.437 53.8523 249.96 53.8523C249.483 53.8523 249.245 53.8523 249.007 53.614C248.769 53.3757 248.53 53.1374 248.53 52.8991C248.292 52.6609 248.292 52.1843 248.292 51.7077C248.292 51.2311 248.292 50.7546 248.292 50.5163C248.054 49.5632 248.054 48.8483 248.054 48.3717ZM236.14 48.1334C236.14 47.6569 236.14 47.1803 236.378 46.7037C236.616 46.2272 236.616 45.9889 236.854 45.7506C237.093 45.5123 237.331 45.5123 237.808 45.5123C238.522 45.5123 238.999 45.9889 239.237 46.7037C239.476 47.4186 239.714 48.61 239.714 50.278C239.714 51.946 239.476 53.1374 239.237 53.8523C238.999 54.5671 238.522 54.8054 237.808 54.8054C237.331 54.8054 237.093 54.8054 236.854 54.5671C236.616 54.3288 236.378 54.0906 236.378 53.614C236.14 53.1374 236.14 52.6609 236.14 52.1843C236.14 51.7077 236.14 50.9929 236.14 50.278C236.14 49.5632 235.901 48.8483 236.14 48.1334ZM232.804 53.1374C233.042 54.0906 233.28 54.8054 233.518 55.282C233.995 55.7585 234.472 56.2351 235.186 56.4734C235.901 56.7117 236.616 56.95 237.808 56.95C238.761 56.95 239.476 56.7117 240.19 56.4734C240.905 56.2351 241.382 55.7586 241.858 55.0437C242.335 54.5671 242.573 53.8523 242.812 52.8991C243.05 51.946 243.05 50.9929 243.05 50.0397C243.05 48.8483 243.05 47.8952 242.812 46.942C242.573 45.9889 242.335 45.274 242.097 44.7975C241.62 44.3209 241.144 43.8443 240.429 43.606C239.714 43.3678 238.999 43.1295 237.808 43.1295C236.854 43.1295 236.14 43.3678 235.425 43.606C234.71 43.8443 234.233 44.3209 233.757 45.0358C233.28 45.5123 233.042 46.2272 232.804 47.1803C232.565 48.1334 232.565 49.0866 232.565 50.0397C232.565 51.2311 232.804 52.1843 232.804 53.1374ZM231.374 56.7117V53.8523H225.178V39.3169H221.604V56.7117H231.374ZM207.545 56.7117H210.881V48.8483C210.881 48.3717 210.881 48.1334 211.12 47.6569C211.358 47.4186 211.358 47.1803 211.596 46.942C211.835 46.7037 212.073 46.7037 212.311 46.4655C212.549 46.4655 212.788 46.2272 213.264 46.2272C213.503 46.2272 213.503 46.2272 213.741 46.2272C213.979 46.2272 213.979 46.2272 214.217 46.2272V42.8912H213.979H213.741C213.026 42.8912 212.549 43.1295 212.073 43.3678C211.596 43.8443 211.12 44.3209 210.881 44.7975V43.1295H207.784V56.7117H207.545ZM198.729 48.1334C198.729 47.6569 198.729 47.1803 198.967 46.7037C199.205 46.2272 199.205 45.9889 199.444 45.7506C199.682 45.5123 199.92 45.5123 200.397 45.5123C201.112 45.5123 201.588 45.9889 201.827 46.7037C202.065 47.4186 202.303 48.61 202.303 50.278C202.303 51.946 202.065 53.1374 201.827 53.8523C201.588 54.5671 201.112 54.8054 200.397 54.8054C199.92 54.8054 199.682 54.8054 199.444 54.5671C199.205 54.3288 198.967 54.0906 198.967 53.614C198.729 53.1374 198.729 52.6609 198.729 52.1843C198.729 51.7077 198.729 50.9929 198.729 50.278C198.729 49.5632 198.491 48.8483 198.729 48.1334ZM195.393 53.1374C195.631 54.0906 195.87 54.8054 196.108 55.282C196.584 55.7585 197.061 56.2351 197.776 56.4734C198.491 56.7117 199.205 56.95 200.397 56.95C201.35 56.95 202.065 56.7117 202.78 56.4734C203.495 56.2351 203.971 55.7586 204.448 55.0437C204.924 54.5671 205.163 53.8523 205.401 52.8991C205.639 51.946 205.639 50.9929 205.639 50.0397C205.639 48.8483 205.639 47.8952 205.401 46.942C205.163 45.9889 204.924 45.274 204.686 44.7975C204.209 44.3209 203.733 43.8443 203.018 43.606C202.303 43.3678 201.588 43.1295 200.397 43.1295C199.444 43.1295 198.729 43.3678 198.014 43.606C197.299 43.8443 196.823 44.3209 196.346 45.0358C195.869 45.5123 195.631 46.2272 195.393 47.1803C195.155 48.1334 195.155 49.0866 195.155 50.0397C195.155 51.2311 195.393 52.1843 195.393 53.1374ZM188.959 56.7117H192.295V45.9889H194.202V43.606H192.295V42.4146C192.295 41.9381 192.295 41.6998 192.534 41.6998C192.772 41.4615 193.01 41.4615 193.487 41.4615H193.725C193.963 41.4615 193.963 41.4615 193.963 41.4615V39.0786C193.248 39.0786 192.772 39.0786 192.057 39.0786C191.58 39.0786 191.104 39.0786 190.627 39.3169C190.151 39.3169 189.912 39.5552 189.436 39.7935C189.198 40.0318 188.959 40.2701 188.721 40.7466C188.483 41.2232 188.483 41.6998 188.483 42.1763V43.606H186.815V45.9889H188.483V56.7117H188.959ZM174.186 56.7117H177.522V48.8483C177.522 48.3717 177.522 48.1334 177.76 47.6569C177.998 47.4186 177.998 47.1803 178.236 46.942C178.475 46.7037 178.713 46.7037 178.951 46.4655C179.19 46.4655 179.428 46.2272 179.904 46.2272C180.143 46.2272 180.143 46.2272 180.381 46.2272C180.619 46.2272 180.619 46.2272 180.858 46.2272V42.8912H180.619H180.381C179.666 42.8912 179.19 43.1295 178.713 43.3678C178.236 43.8443 177.76 44.3209 177.522 44.7975V43.1295H174.424V56.7117H174.186ZM168.467 56.7117H171.803V43.606H168.467V56.7117ZM168.467 41.9381H171.803V39.0786H168.467V41.9381ZM162.748 52.6609C162.748 53.1374 162.748 53.3757 162.51 53.614C162.271 53.8523 162.271 54.0906 162.033 54.3288C161.795 54.5671 161.557 54.5671 161.318 54.5671C161.08 54.5671 160.842 54.5671 160.603 54.5671C160.127 54.5671 159.889 54.3288 159.65 54.0906C159.412 53.8523 159.412 53.3757 159.412 52.8991C159.412 52.4226 159.65 51.946 159.889 51.4694C160.127 51.2311 160.603 50.9929 161.318 50.7546C161.557 50.7546 161.795 50.5163 162.033 50.5163C162.271 50.5163 162.51 50.278 162.748 50.0397V52.6609ZM159.65 47.6569V47.1803C159.65 46.7037 159.889 46.2272 160.127 45.9889C160.365 45.7506 160.842 45.5123 161.318 45.5123C161.795 45.5123 162.271 45.7506 162.51 45.9889C162.748 46.2272 162.748 46.7037 162.748 47.1803C162.748 47.6569 162.748 47.8952 162.51 48.1334C162.271 48.3717 162.033 48.61 161.557 48.61L159.412 49.0866C158.935 49.3249 158.221 49.3249 157.982 49.5632C157.506 49.8014 157.267 50.0397 157.029 50.278C156.791 50.5163 156.553 50.9929 156.553 51.4694C156.314 51.946 156.314 52.4226 156.314 53.1374C156.314 53.614 156.314 54.0906 156.553 54.5671C156.553 55.0437 156.791 55.5203 157.029 55.7585C157.267 56.2351 157.506 56.4734 157.982 56.7117C158.459 56.95 158.935 56.95 159.412 56.95C160.127 56.95 160.842 56.95 161.318 56.7117C161.795 56.4734 162.271 55.9968 162.748 55.282C162.748 55.5203 162.748 55.7585 162.986 55.9968C162.986 56.2351 163.225 56.4734 163.225 56.7117H166.322C166.084 56.2351 166.084 55.9968 166.084 55.5203C166.084 55.282 166.084 54.8054 166.084 54.0906V47.1803C166.084 46.7037 166.084 45.9889 165.846 45.5123C165.607 45.0358 165.607 44.5592 165.131 44.3209C164.893 43.8443 164.416 43.606 163.701 43.606C162.986 43.3678 162.271 43.3678 161.318 43.3678C160.603 43.3678 160.127 43.3678 159.412 43.606C158.935 43.8443 158.459 44.0826 157.982 44.3209C157.506 44.5592 157.267 45.0358 157.029 45.5123C156.791 45.9889 156.553 46.7037 156.553 47.4186V47.6569H159.65ZM144.4 56.7117H147.736V47.8952C147.736 46.4655 148.213 45.7506 149.404 45.7506C149.881 45.7506 150.357 45.9889 150.595 46.2272C150.834 46.4655 150.834 46.942 150.834 47.6569V56.7117H154.17V46.942C154.17 45.5123 153.931 44.5592 153.217 44.0826C152.74 43.606 151.787 43.1295 150.834 43.1295C149.404 43.1295 148.213 43.606 147.736 44.7975V39.0786H144.4V56.7117ZM142.256 45.0358C142.256 44.3209 142.256 43.8443 142.017 42.8912C142.017 42.1763 141.779 41.4615 141.302 40.9849C140.826 40.2701 140.349 39.7935 139.634 39.5552C138.92 39.0786 137.966 38.8404 136.775 38.8404C135.345 38.8404 134.392 39.0786 133.677 39.5552C132.962 40.0318 132.248 40.5084 131.771 41.4615C131.294 42.1763 131.056 43.1295 131.056 44.3209C130.818 45.5123 130.818 46.7037 130.818 47.8952C130.818 49.3249 130.818 50.5163 131.056 51.4694C131.294 52.6609 131.533 53.614 131.771 54.3288C132.248 55.0437 132.724 55.7586 133.677 56.2351C134.392 56.7117 135.584 56.95 136.775 56.95C137.966 56.95 138.92 56.7117 139.634 56.4734C140.349 55.9968 140.826 55.5203 141.302 55.0437C141.779 54.3288 142.017 53.614 142.017 52.8991C142.256 51.946 142.256 51.2311 142.256 50.278H138.681C138.681 51.2311 138.681 51.946 138.443 52.6609C138.443 53.1374 138.205 53.614 137.966 54.0906C137.728 54.5671 137.49 54.5671 137.252 54.8054C137.013 54.8054 136.775 55.0437 136.298 55.0437C135.822 55.0437 135.584 55.0437 135.345 54.8054C135.107 54.5671 134.869 54.3288 134.63 53.8523C134.392 53.3757 134.392 52.6608 134.154 51.946C134.154 51.2311 133.916 50.0397 133.916 48.8483C133.916 47.6569 133.916 46.4655 133.916 45.7506C133.916 44.7975 134.154 44.3209 134.154 43.606C134.392 43.1295 134.63 42.6529 134.869 42.4146C135.107 42.1763 135.584 42.1763 136.06 42.1763C136.775 42.1763 137.49 42.4146 137.728 43.1295C137.966 43.606 138.205 44.5592 138.205 45.9889H142.256V45.0358Z" fill="#00549F"/>
</svg>
