<svg width="300" height="300" viewBox="0 0 300 300" fill="none" xmlns="http://www.w3.org/2000/svg">
<path d="M126.05 131.723H136.134V122.899H126.05V131.723ZM126.05 177.101H136.134V136.765H126.05V177.101ZM141.176 125.42V134.874H163.235C160.714 138.655 158.193 141.807 156.302 145.588C154.412 149.37 152.521 153.151 151.26 156.303C150 160.084 148.739 163.235 148.109 167.017C147.479 170.798 146.849 173.95 146.218 177.101H157.563C158.193 173.319 158.823 169.538 159.454 165.756C160.084 161.975 161.344 158.193 162.605 154.412C163.865 150.63 165.126 146.849 167.017 143.697C168.907 139.916 170.798 136.765 172.689 133.613V125.42H141.176Z" fill="#F6A800"/>
<path d="M107.774 189.706V110.924C105.883 112.185 103.992 112.815 101.471 112.815V187.185C103.362 187.185 105.883 188.445 107.774 189.706Z" fill="#8EBAE5"/>
<path d="M110.925 107.773H188.446C187.185 105.882 186.555 103.992 186.555 101.471H112.816C112.816 103.992 112.185 105.882 110.925 107.773Z" fill="#8EBAE5"/>
<path d="M186.555 199.16C186.555 196.639 187.185 194.748 188.446 192.857H110.925C112.185 194.748 112.816 196.639 112.816 199.16H186.555Z" fill="#8EBAE5"/>
<path d="M198.53 113.445C196.009 113.445 194.118 112.815 192.227 111.555V189.076C194.118 187.815 196.009 187.185 198.53 187.185C198.53 187.185 198.53 187.185 199.16 187.185L198.53 113.445Z" fill="#8EBAE5"/>
<path d="M110.924 95.7984L136.134 63.0252C133.613 63.0252 131.722 61.7647 129.832 60.5042L106.512 91.3866C108.403 92.0168 110.294 93.9076 110.924 95.7984Z" fill="#8EBAE5"/>
<path d="M204.832 111.555L236.975 136.134C236.975 133.613 238.235 131.723 239.496 129.832L209.244 106.513C207.983 109.034 206.723 110.294 204.832 111.555Z" fill="#8EBAE5"/>
<path d="M61.7659 160.714L98.3205 113.445C95.7995 112.815 93.9087 112.185 92.6482 110.294L57.9844 155.672C59.8751 156.303 61.1356 158.193 61.7659 160.714Z" fill="#8EBAE5"/>
<path d="M188.446 205.462L163.866 236.975C166.387 236.975 168.277 238.235 170.168 239.496L192.857 209.874C190.967 208.613 189.706 207.353 188.446 205.462Z" fill="#8EBAE5"/>
<path d="M140.545 62.3949L187.184 98.3193C187.814 96.4285 189.074 94.5377 190.335 92.647L146.217 58.6134C144.957 60.5041 143.066 61.7646 140.545 62.3949Z" fill="#8EBAE5"/>
<path d="M237.605 141.176L201.681 187.815C203.571 188.445 205.462 189.706 207.353 190.966L241.387 146.849C239.496 145.588 238.235 143.697 237.605 141.176Z" fill="#8EBAE5"/>
<path d="M158.822 237.605L112.183 201.681C111.553 203.571 110.293 206.092 109.032 207.353L153.15 241.387C155.041 239.496 156.931 238.235 158.822 237.605Z" fill="#8EBAE5"/>
<path d="M90.757 193.487C92.0175 191.597 93.278 189.706 95.1687 189.076L62.3956 163.866V164.496C62.3956 167.017 61.7654 168.908 60.5049 170.798L90.757 193.487Z" fill="#8EBAE5"/>
<path d="M148.74 49.1596C148.74 49.7898 148.74 50.4201 148.74 51.6806C148.74 52.9411 148.109 54.8319 148.109 56.0924L260.925 108.403C260.925 107.773 260.925 107.143 260.925 106.513C260.925 104.622 261.555 102.731 262.185 101.471L148.74 49.1596Z" fill="#8EBAE5"/>
<path d="M248.95 149.37C247.689 149.37 245.799 149.37 244.538 148.74L192.227 260.294C192.857 260.294 193.488 260.294 193.488 260.294C195.378 260.294 197.269 260.924 198.53 261.555L251.471 149.37C250.21 149.37 249.58 149.37 248.95 149.37Z" fill="#8EBAE5"/>
<path d="M112.184 39.0756L126.679 46.0084C127.94 44.1176 129.2 42.2268 131.721 40.9663L117.226 34.0336C115.965 35.9243 114.074 37.8151 112.184 39.0756Z" fill="#8EBAE5"/>
<path d="M50.4209 152.521C52.3117 152.521 53.5722 153.151 54.8327 153.151L107.144 40.3362C106.513 40.3362 106.513 40.3362 105.883 40.3362C103.992 40.3362 102.102 39.706 100.841 39.0757L47.8999 151.891C49.1604 152.521 49.7906 152.521 50.4209 152.521Z" fill="#8EBAE5"/>
<path d="M37.8164 189.076L44.7492 174.58C42.8585 173.319 40.9677 172.059 39.7072 169.538L32.7744 184.034C35.2954 185.294 37.1862 187.185 37.8164 189.076Z" fill="#8EBAE5"/>
<path d="M151.261 251.471C151.261 250.21 150.631 249.58 150.631 248.319C150.631 247.059 150.631 245.798 151.261 244.538L39.076 192.227C39.076 192.857 39.076 194.118 39.076 194.748C39.076 196.008 39.0761 197.899 38.4458 199.16L151.261 251.471Z" fill="#8EBAE5"/>
<path d="M261.553 111.555L253.99 127.311C255.881 128.572 257.772 130.462 259.032 132.353L265.965 116.597C264.705 115.336 262.814 114.076 261.553 111.555Z" fill="#8EBAE5"/>
<path d="M187.816 261.555L172.689 254.622C171.429 256.513 169.538 258.403 167.647 259.034L183.404 265.966C184.664 264.706 185.925 262.815 187.816 261.555Z" fill="#8EBAE5"/>
<path d="M20.7972 230.042L25.8392 206.723C23.3182 206.092 21.4274 205.462 19.5367 203.571L14.4946 226.891C17.0156 226.891 18.9064 228.151 20.7972 230.042Z" fill="#8EBAE5"/>
<path d="M272.269 118.487C271.009 118.487 269.748 118.487 268.487 117.857L233.193 277.311C234.454 276.681 236.345 276.681 237.605 276.681C238.235 276.681 239.496 276.681 240.126 276.681L275.42 117.857C274.79 118.487 273.53 118.487 272.269 118.487Z" fill="#8EBAE5"/>
<path d="M27.7304 182.773C28.9909 182.773 30.2514 182.773 30.8816 183.403L66.806 22.6891C65.5455 23.3194 63.6547 23.3194 62.3942 23.3194C61.764 23.3194 60.5035 23.3194 59.8732 22.6891L24.5791 182.773C25.2094 183.403 26.4699 182.773 27.7304 182.773Z" fill="#8EBAE5"/>
<path d="M279.202 70.5883L274.16 94.5379C276.681 94.5379 278.571 95.7984 280.462 97.0589L285.504 73.7396C282.983 73.7396 281.092 72.4791 279.202 70.5883Z" fill="#8EBAE5"/>
<path d="M117.228 24.5798C117.858 25.8403 117.858 27.7311 117.858 28.9916C117.858 29.6218 117.858 30.8823 117.858 31.5126L276.681 66.8067C276.051 65.5462 276.051 64.2857 276.051 63.0252C276.051 61.7647 276.051 61.1344 276.681 59.8739L117.228 24.5798Z" fill="#8EBAE5"/>
<path d="M230.043 279.832L206.094 274.79C205.463 277.311 204.203 279.202 202.942 281.092L226.892 286.765C226.892 283.614 228.152 281.092 230.043 279.832Z" fill="#8EBAE5"/>
<path d="M182.775 276.05C182.144 274.79 182.144 273.529 182.144 272.269C182.144 271.008 182.144 270.378 182.775 269.748L23.3208 234.454C23.9511 235.714 23.9511 236.975 23.9511 238.866C23.9511 239.496 23.9511 240.756 23.9511 241.387L182.775 276.05Z" fill="#8EBAE5"/>
<path d="M69.9585 20.7982L94.5383 26.4705C95.1686 23.9495 96.4291 22.0588 98.3198 20.168L73.74 14.4957C73.1097 17.0167 71.8493 19.5377 69.9585 20.7982Z" fill="#8EBAE5"/>
<path d="M288.024 74.3697C294.327 74.3697 299.999 69.3277 299.999 62.395C299.999 55.4622 294.957 50.4202 288.024 50.4202C281.722 50.4202 276.049 55.4622 276.049 62.395C276.049 69.3277 281.722 74.3697 288.024 74.3697Z" fill="#00549F"/>
<path d="M238.235 300C244.537 300 250.209 294.958 250.209 288.025C250.209 281.723 245.167 276.05 238.235 276.05C231.932 276.05 226.26 281.092 226.26 288.025C226.26 294.328 231.932 300 238.235 300Z" fill="#00549F"/>
<path d="M11.9748 250.21C18.2773 250.21 23.9496 245.168 23.9496 238.235C23.9496 231.302 18.9076 226.26 11.9748 226.26C5.67227 226.26 0 231.302 0 238.235C0 245.168 5.67227 250.21 11.9748 250.21Z" fill="#00549F"/>
<path d="M62.3952 23.3193C68.6977 23.3193 74.37 18.2773 74.37 11.3445C74.37 4.41176 68.6977 0 62.3952 0C56.0927 0 50.4204 5.04203 50.4204 11.9748C50.4204 18.9076 55.4624 23.3193 62.3952 23.3193Z" fill="#00549F"/>
<path d="M272.268 118.487C278.57 118.487 284.243 113.445 284.243 106.513C284.243 99.5798 279.201 94.5378 272.268 94.5378C265.965 94.5378 260.293 99.5798 260.293 106.513C260.293 113.445 265.965 118.487 272.268 118.487Z" fill="#00549F"/>
<path d="M194.117 283.613C200.419 283.613 206.092 278.571 206.092 271.639C206.092 264.706 201.05 259.664 194.117 259.664C187.814 259.664 182.142 264.706 182.142 271.639C182.142 278.571 187.184 283.613 194.117 283.613Z" fill="#00549F"/>
<path d="M27.7311 206.723C34.0337 206.723 39.7059 201.681 39.7059 194.748C39.7059 187.815 34.6639 182.773 27.7311 182.773C21.4286 182.773 15.7563 187.815 15.7563 194.748C15.7563 201.681 20.7984 206.723 27.7311 206.723Z" fill="#00549F"/>
<path d="M105.882 40.9665C112.184 40.9665 117.856 35.9245 117.856 28.9917C117.856 22.0589 112.814 17.0169 105.882 17.0169C99.579 17.0169 93.9067 22.0589 93.9067 28.9917C93.9067 35.9245 99.579 40.9665 105.882 40.9665Z" fill="#00549F"/>
<path d="M248.95 149.37C255.253 149.37 260.925 144.328 260.925 137.395C260.925 130.462 255.883 125.42 248.95 125.42C242.648 125.42 236.976 130.462 236.976 137.395C236.976 144.328 242.018 149.37 248.95 149.37Z" fill="#00549F"/>
<path d="M162.605 260.294C168.907 260.294 174.579 255.252 174.579 248.319C174.579 242.017 169.537 236.345 162.605 236.345C156.302 236.345 150.63 241.387 150.63 248.319C151.26 255.252 156.302 260.294 162.605 260.294Z" fill="#00549F"/>
<path d="M50.4206 175.84C56.7231 175.84 62.3954 170.798 62.3954 163.866C62.3954 156.933 57.3534 151.891 50.4206 151.891C44.1181 151.891 38.4458 156.933 38.4458 163.866C38.4458 170.798 44.1181 175.84 50.4206 175.84Z" fill="#00549F"/>
<path d="M137.394 63.0253C143.697 63.0253 149.369 57.9833 149.369 51.0505C149.369 44.1177 144.327 39.0757 137.394 39.0757C131.092 39.0757 125.419 44.1177 125.419 51.0505C125.419 57.9833 130.461 63.0253 137.394 63.0253Z" fill="#00549F"/>
<path d="M198.53 113.445C204.832 113.445 210.505 108.403 210.505 101.471C210.505 94.5379 205.463 89.4959 198.53 89.4959C192.227 89.4959 186.555 94.5379 186.555 101.471C186.555 108.403 192.227 113.445 198.53 113.445Z" fill="#00549F"/>
<path d="M198.53 211.135C204.832 211.135 210.505 206.093 210.505 199.16C210.505 192.227 205.463 187.185 198.53 187.185C192.227 187.185 186.555 192.227 186.555 199.16C186.555 206.093 192.227 211.135 198.53 211.135Z" fill="#00549F"/>
<path d="M100.841 113.445C107.144 113.445 112.816 108.403 112.816 101.471C112.816 94.5379 107.774 89.4959 100.841 89.4959C94.5385 89.4959 88.8662 94.5379 88.8662 101.471C88.8662 108.403 93.9082 113.445 100.841 113.445Z" fill="#00549F"/>
<path d="M100.841 211.135C107.144 211.135 112.816 206.093 112.816 199.16C112.816 192.227 107.144 187.185 100.841 187.185C94.5385 187.185 88.8662 192.227 88.8662 199.16C88.8662 206.093 93.9082 211.135 100.841 211.135Z" fill="#00549F"/>
</svg>
