<svg width="577" height="197" viewBox="0 0 577 197" fill="none" xmlns="http://www.w3.org/2000/svg">
<path d="M566.533 184.068V183.283C566.533 182.808 566.581 182.337 566.665 181.863C566.752 181.388 566.898 180.961 567.095 180.57C567.293 180.19 567.563 179.876 567.899 179.639C568.235 179.401 568.662 179.281 569.188 179.281C569.71 179.281 570.141 179.383 570.477 179.599C570.813 179.814 571.072 180.124 571.258 180.533C571.448 180.946 571.576 181.443 571.652 182.027C571.725 182.615 571.777 183.29 571.802 184.064L566.533 184.068ZM576.732 187.131V185.978C576.732 184.433 576.633 183.027 576.432 181.775C576.235 180.515 575.862 179.445 575.311 178.562C574.763 177.678 574.011 176.991 573.055 176.506C572.094 176.02 570.867 175.783 569.374 175.783C567.629 175.783 566.237 176.071 565.189 176.637C564.145 177.211 563.342 177.981 562.779 178.956C562.221 179.927 561.845 181.034 561.658 182.279C561.472 183.528 561.381 184.816 561.381 186.164C561.381 187.405 561.436 188.672 561.549 189.954C561.658 191.236 561.965 192.393 562.462 193.43C562.958 194.464 563.732 195.303 564.78 195.946C565.825 196.596 567.282 196.921 569.148 196.921C571.616 196.921 573.42 196.293 574.566 195.03C575.713 193.773 576.334 191.977 576.432 189.633H571.802C571.652 190.903 571.379 191.845 570.981 192.47C570.579 193.094 569.944 193.405 569.074 193.405C568.6 193.405 568.205 193.277 567.88 193.014C567.556 192.751 567.293 192.404 567.095 191.97C566.898 191.531 566.752 191.035 566.665 190.473C566.581 189.918 566.533 189.333 566.533 188.738V187.131H576.732ZM559.117 183.546C559.117 181.154 558.511 179.259 557.306 177.864C556.097 176.469 554.297 175.776 551.906 175.776C550.712 175.776 549.616 175.936 548.619 176.261C547.622 176.586 546.764 177.149 546.041 177.959C545.322 178.77 544.76 179.858 544.362 181.209C543.96 182.567 543.763 184.283 543.763 186.346C543.763 188.362 543.924 190.056 544.248 191.407C544.573 192.762 545.052 193.846 545.687 194.661C546.322 195.471 547.118 196.052 548.079 196.399C549.039 196.749 550.164 196.925 551.46 196.925C554.195 196.925 556.156 196.216 557.342 194.796C558.526 193.372 559.117 191.349 559.117 188.705H554.184C554.184 190.348 553.987 191.542 553.589 192.287C553.187 193.036 552.552 193.412 551.683 193.412C551.109 193.412 550.646 193.284 550.281 193.021C549.919 192.758 549.638 192.342 549.441 191.769C549.244 191.199 549.105 190.469 549.032 189.582C548.955 188.698 548.919 187.635 548.919 186.387C548.919 185.244 548.955 184.232 549.032 183.367C549.105 182.494 549.244 181.775 549.441 181.213C549.638 180.658 549.934 180.23 550.321 179.942C550.704 179.657 551.223 179.515 551.869 179.515C552.344 179.515 552.734 179.635 553.045 179.872C553.355 180.102 553.596 180.417 553.757 180.807C553.917 181.187 554.027 181.629 554.093 182.111C554.155 182.6 554.184 183.078 554.184 183.553H559.117V183.546ZM525.553 196.395H530.709V183.064C530.709 180.847 531.615 179.737 533.437 179.737C534.207 179.737 534.769 179.942 535.116 180.354C535.463 180.763 535.638 181.494 535.638 182.538V196.399H540.794V181.494C540.794 179.478 540.352 178.021 539.469 177.127C538.581 176.232 537.318 175.783 535.675 175.783C534.554 175.783 533.557 176.013 532.688 176.469C531.819 176.929 531.107 177.656 530.559 178.66H530.483V176.301H525.553V196.395ZM512.361 184.068V183.283C512.361 182.808 512.404 182.337 512.492 181.863C512.576 181.388 512.722 180.961 512.919 180.57C513.116 180.19 513.387 179.876 513.723 179.639C514.059 179.405 514.489 179.281 515.012 179.281C515.534 179.281 515.965 179.383 516.3 179.599C516.636 179.814 516.899 180.124 517.086 180.533C517.272 180.946 517.403 181.443 517.476 182.027C517.553 182.615 517.6 183.29 517.626 184.064L512.361 184.068ZM522.559 187.131V185.978C522.559 184.433 522.457 183.027 522.26 181.775C522.062 180.515 521.686 179.445 521.139 178.562C520.587 177.678 519.839 176.991 518.878 176.506C517.918 176.02 516.691 175.783 515.198 175.783C513.452 175.783 512.061 176.071 511.013 176.637C509.969 177.211 509.166 177.981 508.607 178.956C508.045 179.927 507.672 181.034 507.486 182.279C507.3 183.528 507.205 184.816 507.205 186.164C507.205 187.405 507.26 188.672 507.373 189.954C507.486 191.236 507.793 192.393 508.289 193.43C508.786 194.464 509.56 195.303 510.604 195.946C511.649 196.596 513.105 196.921 514.975 196.921C517.44 196.921 519.244 196.293 520.39 195.03C521.537 193.773 522.157 191.977 522.26 189.633H517.626C517.476 190.903 517.206 191.845 516.804 192.47C516.406 193.094 515.771 193.405 514.898 193.405C514.424 193.405 514.029 193.277 513.704 193.014C513.379 192.751 513.116 192.404 512.919 191.97C512.722 191.531 512.576 191.035 512.492 190.473C512.404 189.918 512.361 189.333 512.361 188.738V187.131H522.559ZM498.88 196.395H504.035V176.298H498.88V196.395ZM498.88 173.833H504.035V169.426H498.88V173.833ZM495.805 183.546C495.805 181.154 495.199 179.259 493.994 177.864C492.785 176.469 490.985 175.776 488.594 175.776C487.4 175.776 486.304 175.936 485.307 176.261C484.31 176.586 483.452 177.149 482.729 177.959C482.01 178.77 481.448 179.858 481.05 181.209C480.648 182.567 480.451 184.283 480.451 186.346C480.451 188.362 480.612 190.056 480.936 191.407C481.261 192.762 481.74 193.846 482.375 194.661C483.01 195.471 483.806 196.052 484.767 196.399C485.727 196.749 486.852 196.925 488.148 196.925C490.887 196.925 492.847 196.216 494.03 194.796C495.214 193.372 495.805 191.349 495.805 188.705H490.872C490.872 190.348 490.675 191.542 490.277 192.287C489.875 193.036 489.24 193.412 488.371 193.412C487.797 193.412 487.334 193.284 486.969 193.021C486.607 192.758 486.326 192.342 486.129 191.769C485.932 191.199 485.793 190.469 485.72 189.582C485.643 188.698 485.607 187.635 485.607 186.387C485.607 185.244 485.643 184.232 485.72 183.367C485.793 182.494 485.932 181.775 486.129 181.213C486.326 180.658 486.622 180.23 487.009 179.942C487.392 179.657 487.911 179.515 488.557 179.515C489.032 179.515 489.426 179.635 489.733 179.872C490.043 180.102 490.284 180.417 490.445 180.807C490.605 181.187 490.715 181.629 490.781 182.111C490.843 182.6 490.872 183.078 490.872 183.553H495.805V183.546ZM460.361 188.066V189.151C460.361 191.615 461.014 193.525 462.322 194.88C463.629 196.238 465.801 196.921 468.839 196.921C471.753 196.921 474.024 196.256 475.657 194.942C477.289 193.624 478.103 191.55 478.103 188.742C478.103 187.92 478.026 187.172 477.877 186.5C477.727 185.828 477.46 185.211 477.073 184.649C476.69 184.09 476.168 183.568 475.507 183.082C474.846 182.596 474.021 182.125 473.024 181.676L468.876 179.887C467.729 179.412 466.984 178.898 466.634 178.339C466.287 177.777 466.112 177.083 466.112 176.265C466.112 175.863 466.156 175.48 466.243 175.107C466.327 174.731 466.491 174.406 466.729 174.118C466.962 173.829 467.284 173.596 467.682 173.424C468.08 173.249 468.576 173.168 469.175 173.168C470.22 173.168 470.968 173.512 471.417 174.191C471.863 174.877 472.089 175.852 472.089 177.127H477.245V176.382C477.245 175.107 477.037 174.019 476.628 173.11C476.215 172.204 475.646 171.456 474.908 170.872C474.178 170.287 473.301 169.864 472.294 169.601C471.286 169.338 470.183 169.207 468.989 169.207C466.426 169.207 464.403 169.857 462.935 171.149C461.467 172.445 460.733 174.414 460.733 177.054C460.733 178.145 460.872 179.113 461.142 179.945C461.416 180.782 461.85 181.516 462.431 182.151C463.019 182.786 463.746 183.334 464.618 183.809C465.491 184.287 466.521 184.718 467.718 185.116C468.613 185.415 469.369 185.707 469.979 185.996C470.588 186.284 471.081 186.598 471.454 186.949C471.826 187.296 472.096 187.687 472.257 188.125C472.421 188.563 472.498 189.078 472.498 189.673C472.498 190.794 472.169 191.623 471.509 192.16C470.851 192.693 470.11 192.966 469.288 192.966C468.565 192.966 467.978 192.864 467.532 192.667C467.083 192.466 466.722 192.192 466.448 191.842C466.174 191.495 465.988 191.064 465.889 190.553C465.787 190.038 465.739 189.476 465.739 188.851V188.066H460.361ZM443.699 190.305C443.699 190.878 443.601 191.36 443.4 191.747C443.203 192.13 442.947 192.444 442.633 192.7C442.323 192.952 441.979 193.131 441.607 193.237C441.235 193.35 440.877 193.408 440.523 193.408C439.829 193.408 439.329 193.138 439.029 192.583C438.73 192.039 438.58 191.378 438.58 190.604C438.58 189.709 438.806 189.001 439.255 188.475C439.701 187.953 440.45 187.581 441.494 187.354C441.819 187.278 442.184 187.161 442.578 186.996C442.976 186.836 443.352 186.617 443.699 186.343V190.305ZM438.916 182.465V181.906C438.916 181.11 439.12 180.475 439.515 180C439.916 179.526 440.512 179.292 441.308 179.292C442.184 179.292 442.797 179.511 443.159 179.945C443.52 180.384 443.699 180.986 443.699 181.76C443.699 182.432 443.55 182.943 443.25 183.29C442.951 183.637 442.418 183.915 441.644 184.112L438.73 184.9C437.835 185.145 437.068 185.434 436.433 185.755C435.798 186.08 435.275 186.485 434.866 186.971C434.454 187.456 434.151 188.041 433.95 188.727C433.753 189.41 433.651 190.228 433.651 191.174C433.651 191.845 433.742 192.525 433.913 193.207C434.089 193.894 434.359 194.507 434.735 195.059C435.108 195.606 435.608 196.056 436.228 196.402C436.853 196.753 437.609 196.928 438.507 196.928C439.756 196.928 440.767 196.753 441.552 196.402C442.337 196.056 443.027 195.354 443.623 194.31H443.699C443.772 194.661 443.856 195.011 443.94 195.373C444.032 195.742 444.163 196.077 444.335 196.402H449.264C449.019 195.804 448.851 195.249 448.76 194.719C448.676 194.197 448.629 193.463 448.629 192.517V181.943C448.629 181.045 448.537 180.216 448.351 179.456C448.161 178.7 447.807 178.047 447.285 177.495C446.763 176.948 446.022 176.524 445.061 176.228C444.105 175.929 442.867 175.779 441.344 175.779C440.373 175.779 439.46 175.878 438.602 176.097C437.74 176.309 436.995 176.652 436.36 177.141C435.725 177.627 435.221 178.269 434.845 179.062C434.472 179.862 434.286 180.829 434.286 181.976V182.465H438.916ZM423.689 176.298H421.075V179.81H423.689V191.316C423.689 192.335 423.748 193.182 423.876 193.854C424 194.526 424.23 195.07 424.566 195.475C424.902 195.888 425.38 196.176 426.004 196.355C426.625 196.53 427.447 196.614 428.469 196.614C429.068 196.614 429.63 196.589 430.171 196.538C430.704 196.486 431.255 196.439 431.832 196.388V192.806C431.657 192.831 431.471 192.85 431.27 192.861C431.069 192.872 430.872 192.879 430.675 192.879C429.926 192.879 429.433 192.711 429.199 192.375C428.958 192.039 428.842 191.473 428.842 190.677V179.803H431.832V176.29H428.842V170.539H423.689V176.298ZM413.78 190.305C413.78 190.878 413.677 191.36 413.48 191.747C413.279 192.13 413.024 192.444 412.713 192.7C412.399 192.952 412.06 193.131 411.687 193.237C411.311 193.35 410.95 193.408 410.603 193.408C409.905 193.408 409.409 193.138 409.109 192.583C408.81 192.039 408.66 191.378 408.66 190.604C408.66 189.709 408.887 189.001 409.332 188.475C409.781 187.953 410.53 187.581 411.574 187.354C411.895 187.278 412.257 187.161 412.659 186.996C413.053 186.836 413.429 186.617 413.78 186.343V190.305ZM408.996 182.465V181.906C408.996 181.11 409.193 180.475 409.595 180C409.989 179.526 410.588 179.292 411.388 179.292C412.257 179.292 412.874 179.511 413.235 179.945C413.597 180.384 413.78 180.986 413.78 181.76C413.78 182.432 413.63 182.943 413.33 183.29C413.031 183.637 412.494 183.915 411.724 184.112L408.81 184.9C407.915 185.145 407.149 185.434 406.513 185.755C405.878 186.08 405.356 186.485 404.943 186.971C404.534 187.456 404.227 188.041 404.03 188.727C403.826 189.41 403.731 190.228 403.731 191.174C403.731 191.845 403.815 192.525 403.99 193.207C404.162 193.894 404.439 194.507 404.812 195.059C405.188 195.606 405.684 196.056 406.309 196.402C406.926 196.753 407.689 196.928 408.587 196.928C409.829 196.928 410.847 196.753 411.629 196.402C412.414 196.056 413.108 195.354 413.703 194.31H413.78C413.853 194.661 413.933 195.011 414.021 195.373C414.108 195.742 414.236 196.077 414.415 196.402H419.344C419.092 195.804 418.924 195.249 418.84 194.719C418.749 194.197 418.709 193.463 418.709 192.517V181.943C418.709 181.045 418.614 180.216 418.428 179.456C418.242 178.7 417.887 178.047 417.365 177.495C416.843 176.948 416.098 176.524 415.142 176.228C414.181 175.929 412.943 175.779 411.424 175.779C410.453 175.779 409.54 175.878 408.679 176.097C407.82 176.309 407.072 176.652 406.437 177.141C405.805 177.627 405.294 178.269 404.925 179.062C404.552 179.862 404.366 180.829 404.366 181.976V182.465H408.996ZM383.495 196.395H391.973C393.766 196.395 395.249 196.121 396.421 195.574C397.589 195.022 398.524 194.19 399.221 193.065C399.915 191.944 400.408 190.531 400.696 188.807C400.981 187.091 401.127 185.05 401.127 182.68C401.127 180.712 401.014 178.934 400.791 177.338C400.565 175.746 400.138 174.381 399.502 173.249C398.867 172.117 397.973 171.244 396.83 170.634C395.683 170.025 394.179 169.722 392.309 169.722H383.495V196.395ZM388.873 173.683H391.152C392.174 173.683 392.988 173.877 393.598 174.264C394.208 174.644 394.668 175.224 394.982 175.998C395.292 176.772 395.497 177.729 395.599 178.857C395.694 179.989 395.749 181.315 395.749 182.834C395.749 184.652 395.69 186.171 395.581 187.391C395.468 188.614 395.245 189.596 394.905 190.345C394.569 191.09 394.109 191.626 393.525 191.948C392.937 192.273 392.185 192.433 391.265 192.433H388.873V173.683ZM360.615 181.399C360.951 180.289 361.681 179.737 362.802 179.737C363.945 179.737 364.686 180.289 365.022 181.399C365.362 182.509 365.53 184.156 365.53 186.346C365.53 188.537 365.362 190.188 365.022 191.294C364.686 192.404 363.945 192.959 362.802 192.959C361.681 192.959 360.951 192.404 360.615 191.294C360.279 190.184 360.111 188.537 360.111 186.346C360.111 184.156 360.279 182.505 360.615 181.399ZM365.752 196.395H370.682V169.725H365.53V178.167H365.453C364.905 177.371 364.288 176.772 363.605 176.378C362.915 175.976 362.09 175.779 361.119 175.779C359.001 175.779 357.445 176.608 356.452 178.262C355.452 179.916 354.955 182.615 354.955 186.35C354.955 190.085 355.452 192.784 356.452 194.438C357.445 196.092 359.001 196.925 361.119 196.925C362.167 196.925 363.043 196.716 363.755 196.307C364.463 195.899 365.102 195.216 365.676 194.27H365.752V196.395ZM336.526 196.395H341.682V183.064C341.682 180.847 342.588 179.737 344.406 179.737C345.177 179.737 345.739 179.942 346.09 180.354C346.436 180.763 346.612 181.494 346.612 182.538V196.399H351.767V181.494C351.767 179.478 351.322 178.021 350.442 177.127C349.555 176.232 348.291 175.783 346.648 175.783C345.527 175.783 344.53 176.013 343.661 176.469C342.785 176.929 342.077 177.656 341.533 178.66H341.456V176.301H336.526V196.395ZM327.836 190.305C327.836 190.878 327.737 191.36 327.54 191.747C327.339 192.13 327.084 192.444 326.774 192.7C326.463 192.955 326.12 193.131 325.747 193.237C325.371 193.35 325.01 193.408 324.663 193.408C323.966 193.408 323.469 193.138 323.17 192.583C322.87 192.039 322.72 191.378 322.72 190.604C322.72 189.709 322.943 189.001 323.392 188.475C323.841 187.953 324.586 187.581 325.634 187.354C325.959 187.278 326.317 187.161 326.719 186.996C327.117 186.836 327.489 186.617 327.836 186.343V190.305ZM323.056 182.465V181.906C323.056 181.11 323.254 180.475 323.655 180C324.053 179.526 324.652 179.292 325.448 179.292C326.317 179.292 326.934 179.511 327.296 179.945C327.657 180.384 327.836 180.986 327.836 181.76C327.836 182.432 327.69 182.943 327.391 183.29C327.091 183.637 326.558 183.915 325.784 184.112L322.87 184.9C321.972 185.145 321.209 185.434 320.573 185.755C319.938 186.08 319.416 186.485 319.003 186.971C318.591 187.456 318.288 188.041 318.087 188.727C317.89 189.41 317.791 190.228 317.791 191.174C317.791 191.845 317.875 192.525 318.05 193.207C318.226 193.894 318.499 194.507 318.872 195.059C319.248 195.606 319.745 196.056 320.365 196.402C320.99 196.753 321.749 196.928 322.644 196.928C323.889 196.928 324.904 196.753 325.689 196.402C326.474 196.056 327.164 195.354 327.763 194.31H327.836C327.913 194.661 327.993 195.011 328.081 195.373C328.165 195.742 328.296 196.077 328.471 196.402H333.404C333.153 195.804 332.985 195.249 332.901 194.719C332.813 194.197 332.769 193.463 332.769 192.517V181.943C332.769 181.045 332.674 180.216 332.488 179.456C332.302 178.7 331.948 178.047 331.425 177.495C330.9 176.948 330.162 176.524 329.202 176.228C328.241 175.929 327.004 175.779 325.485 175.779C324.513 175.779 323.597 175.878 322.739 176.097C321.881 176.309 321.132 176.652 320.497 177.141C319.861 177.627 319.357 178.269 318.985 179.062C318.613 179.862 318.423 180.829 318.423 181.976V182.465H323.056Z" fill="#00549F"/>
<path d="M546.52 147.466V148.178C546.52 149.149 546.633 150.026 546.856 150.811C547.082 151.596 547.473 152.268 548.035 152.826C548.594 153.389 549.346 153.816 550.292 154.119C551.237 154.418 552.446 154.568 553.917 154.568C554.984 154.568 555.98 154.437 556.904 154.177C557.824 153.918 558.617 153.524 559.278 153.002C559.935 152.476 560.453 151.819 560.826 151.023C561.202 150.223 561.388 149.303 561.388 148.255C561.388 146.736 561.052 145.538 560.38 144.655C559.705 143.767 558.558 143.055 556.941 142.507L553.841 141.46C552.968 141.189 552.377 140.853 552.066 140.452C551.752 140.054 551.599 139.608 551.599 139.108C551.599 138.385 551.843 137.845 552.329 137.487C552.815 137.122 553.377 136.943 554.027 136.943C554.874 136.943 555.466 137.187 555.802 137.673C556.137 138.159 556.305 138.925 556.305 139.97H560.939V139.145C560.939 137.33 560.38 135.92 559.259 134.927C558.138 133.93 556.404 133.434 554.067 133.434C552.745 133.434 551.621 133.594 550.686 133.919C549.751 134.244 548.984 134.675 548.389 135.227C547.79 135.771 547.352 136.413 547.082 137.147C546.804 137.881 546.669 138.659 546.669 139.484C546.669 140.905 547.027 142.069 547.754 142.979C548.473 143.884 549.547 144.589 550.967 145.089L554.589 146.393C555.086 146.59 555.524 146.86 555.897 147.196C556.269 147.535 556.455 148.028 556.455 148.671C556.455 149.467 556.218 150.062 555.747 150.464C555.272 150.858 554.637 151.059 553.841 151.059C552.968 151.059 552.304 150.793 551.843 150.256C551.38 149.723 551.153 149.014 551.153 148.145V147.47L546.52 147.466ZM529.468 147.466V148.178C529.468 149.149 529.581 150.026 529.803 150.811C530.03 151.596 530.421 152.268 530.983 152.826C531.542 153.389 532.297 153.816 533.239 154.119C534.185 154.418 535.397 154.568 536.865 154.568C537.935 154.568 538.928 154.437 539.852 154.177C540.776 153.918 541.565 153.524 542.226 153.002C542.887 152.476 543.401 151.819 543.774 151.023C544.15 150.223 544.336 149.303 544.336 148.255C544.336 146.736 544 145.538 543.328 144.655C542.653 143.767 541.506 143.055 539.889 142.507L536.789 141.46C535.92 141.189 535.324 140.853 535.014 140.452C534.704 140.054 534.547 139.608 534.547 139.108C534.547 138.385 534.791 137.845 535.277 137.487C535.763 137.122 536.329 136.943 536.975 136.943C537.826 136.943 538.414 137.187 538.749 137.673C539.085 138.159 539.253 138.925 539.253 139.97H543.887V139.145C543.887 137.33 543.328 135.92 542.207 134.927C541.086 133.93 539.356 133.434 537.015 133.434C535.697 133.434 534.569 133.594 533.634 133.919C532.699 134.244 531.932 134.675 531.337 135.227C530.738 135.771 530.3 136.413 530.03 137.147C529.756 137.881 529.617 138.659 529.617 139.484C529.617 140.905 529.979 142.069 530.702 142.979C531.421 143.884 532.495 144.589 533.915 145.089L537.537 146.393C538.034 146.59 538.472 146.86 538.844 147.196C539.217 147.535 539.403 148.028 539.403 148.671C539.403 149.467 539.169 150.062 538.695 150.464C538.22 150.858 537.585 151.059 536.789 151.059C535.92 151.059 535.251 150.793 534.791 150.256C534.331 149.719 534.101 149.014 534.101 148.145V147.47L529.468 147.466ZM517.111 141.711V140.926C517.111 140.452 517.155 139.981 517.243 139.506C517.327 139.031 517.473 138.604 517.673 138.213C517.871 137.834 518.137 137.52 518.477 137.282C518.813 137.049 519.24 136.924 519.762 136.924C520.288 136.924 520.715 137.03 521.051 137.242C521.387 137.458 521.65 137.772 521.836 138.177C522.022 138.59 522.154 139.086 522.23 139.67C522.303 140.258 522.351 140.934 522.38 141.708L517.111 141.711ZM527.31 144.779V143.621C527.31 142.077 527.207 140.674 527.01 139.418C526.813 138.159 526.441 137.089 525.889 136.205C525.341 135.321 524.589 134.635 523.629 134.149C522.669 133.664 521.445 133.423 519.952 133.423C518.207 133.423 516.812 133.711 515.767 134.281C514.719 134.85 513.916 135.621 513.357 136.596C512.799 137.567 512.423 138.674 512.236 139.922C512.05 141.167 511.955 142.456 511.955 143.804C511.955 145.045 512.014 146.316 512.123 147.594C512.236 148.879 512.543 150.033 513.04 151.07C513.536 152.103 514.31 152.943 515.355 153.586C516.403 154.236 517.86 154.561 519.726 154.561C522.19 154.561 523.998 153.933 525.144 152.669C526.291 151.413 526.908 149.617 527.01 147.273H522.38C522.23 148.543 521.957 149.489 521.555 150.113C521.157 150.738 520.522 151.045 519.653 151.045C519.178 151.045 518.78 150.917 518.455 150.654C518.13 150.391 517.871 150.044 517.673 149.61C517.473 149.171 517.327 148.675 517.243 148.116C517.155 147.557 517.111 146.973 517.111 146.378V144.779H527.31ZM509.691 141.193C509.691 138.801 509.089 136.906 507.88 135.515C506.675 134.12 504.875 133.423 502.484 133.423C501.29 133.423 500.194 133.583 499.197 133.908C498.2 134.233 497.339 134.796 496.619 135.606C495.896 136.421 495.338 137.505 494.94 138.86C494.538 140.218 494.341 141.931 494.341 143.994C494.341 146.013 494.502 147.703 494.827 149.058C495.152 150.413 495.63 151.497 496.265 152.308C496.901 153.119 497.697 153.699 498.653 154.046C499.613 154.397 500.738 154.572 502.034 154.572C504.773 154.572 506.734 153.863 507.917 152.443C509.104 151.023 509.691 148.996 509.691 146.352H504.762C504.762 147.999 504.565 149.193 504.163 149.938C503.765 150.683 503.13 151.059 502.261 151.059C501.688 151.059 501.22 150.931 500.859 150.668C500.497 150.406 500.216 149.989 500.019 149.416C499.822 148.846 499.683 148.116 499.606 147.232C499.533 146.345 499.497 145.283 499.497 144.037C499.497 142.891 499.533 141.879 499.606 141.014C499.683 140.141 499.822 139.422 500.019 138.863C500.216 138.305 500.512 137.878 500.895 137.589C501.282 137.304 501.801 137.162 502.447 137.162C502.922 137.162 503.312 137.282 503.623 137.52C503.933 137.75 504.17 138.064 504.331 138.454C504.492 138.834 504.605 139.276 504.667 139.762C504.733 140.247 504.762 140.726 504.762 141.2H509.691V141.193ZM481.389 141.153C481.437 140.284 481.557 139.535 481.743 138.915C481.93 138.29 482.204 137.804 482.565 137.458C482.93 137.111 483.434 136.932 484.08 136.932C485.125 136.932 485.848 137.483 486.246 138.579C486.644 139.67 486.845 141.478 486.845 143.99C486.845 146.502 486.644 148.317 486.246 149.405C485.848 150.5 485.125 151.048 484.08 151.048C483.434 151.048 482.93 150.873 482.565 150.522C482.204 150.175 481.93 149.69 481.743 149.069C481.557 148.445 481.437 147.7 481.389 146.827C481.342 145.958 481.316 145.009 481.316 143.99C481.316 142.975 481.342 142.022 481.389 141.153ZM476.533 148.624C476.785 149.945 477.205 151.052 477.804 151.95C478.402 152.845 479.213 153.513 480.232 153.947C481.251 154.386 482.536 154.59 484.08 154.564C485.548 154.564 486.786 154.334 487.798 153.874C488.805 153.414 489.62 152.742 490.244 151.855C490.865 150.971 491.314 149.869 491.588 148.551C491.862 147.236 491.997 145.717 491.997 143.994C491.997 142.248 491.876 140.718 491.624 139.382C491.376 138.045 490.952 136.932 490.354 136.037C489.758 135.139 488.948 134.474 487.925 134.04C486.907 133.602 485.621 133.397 484.08 133.423C482.612 133.423 481.371 133.653 480.363 134.109C479.355 134.566 478.541 135.245 477.917 136.132C477.292 137.016 476.843 138.118 476.569 139.433C476.299 140.751 476.16 142.27 476.16 143.99C476.16 145.761 476.285 147.305 476.533 148.624ZM463.888 154.039H469.044V141.974C469.044 141.299 469.157 140.733 469.38 140.273C469.606 139.813 469.902 139.437 470.278 139.152C470.65 138.863 471.063 138.655 471.509 138.535C471.958 138.414 472.407 138.345 472.856 138.345C473.126 138.345 473.396 138.352 473.659 138.363C473.919 138.378 474.189 138.396 474.459 138.425V133.488C474.313 133.463 474.156 133.445 473.995 133.434C473.835 133.423 473.677 133.415 473.528 133.415C472.454 133.415 471.549 133.708 470.8 134.292C470.052 134.88 469.416 135.657 468.894 136.629H468.821V133.938H463.888V154.039ZM444.419 154.039H449.801V143.391H452.675C453.945 143.391 455.103 143.23 456.151 142.905C457.195 142.581 458.09 142.095 458.82 141.452C459.557 140.802 460.127 139.977 460.54 138.966C460.949 137.961 461.157 136.757 461.157 135.365C461.157 134.368 461.033 133.394 460.781 132.43C460.536 131.469 460.123 130.622 459.55 129.874C458.977 129.125 458.221 128.523 457.29 128.062C456.355 127.602 455.205 127.372 453.832 127.372H444.419V154.039ZM449.801 131.33H452.039C453.387 131.33 454.347 131.677 454.916 132.375C455.493 133.076 455.775 134.095 455.775 135.438C455.775 136.811 455.446 137.819 454.785 138.465C454.128 139.112 453.262 139.437 452.189 139.437H449.801V131.33ZM425.369 154.039H430.525V137.454H433.512V133.941H430.525V132.189C430.525 131.619 430.675 131.203 430.974 130.958C431.27 130.706 431.785 130.578 432.504 130.578H432.99C433.212 130.578 433.391 130.589 433.512 130.622V126.956C432.566 126.883 431.646 126.847 430.748 126.847C429.926 126.847 429.181 126.927 428.506 127.088C427.834 127.248 427.272 127.515 426.808 127.894C426.348 128.267 425.994 128.76 425.742 129.384C425.497 130.012 425.369 130.765 425.369 131.663V133.941H422.755V137.454H425.369V154.039ZM410.555 141.153C410.606 140.284 410.723 139.535 410.91 138.915C411.096 138.29 411.373 137.804 411.731 137.458C412.093 137.111 412.597 136.932 413.243 136.932C414.291 136.932 415.014 137.483 415.412 138.579C415.81 139.67 416.011 141.478 416.011 143.99C416.011 146.502 415.81 148.317 415.412 149.405C415.014 150.5 414.291 151.048 413.243 151.048C412.597 151.048 412.093 150.873 411.731 150.522C411.373 150.175 411.096 149.69 410.91 149.069C410.723 148.445 410.606 147.7 410.555 146.827C410.508 145.958 410.479 145.009 410.479 143.99C410.479 142.975 410.508 142.022 410.555 141.153ZM405.699 148.624C405.951 149.945 406.371 151.052 406.97 151.95C407.569 152.845 408.379 153.513 409.398 153.947C410.42 154.386 411.702 154.59 413.243 154.564C414.718 154.564 415.952 154.334 416.96 153.874C417.971 153.414 418.789 152.742 419.406 151.855C420.031 150.971 420.48 149.869 420.754 148.551C421.028 147.236 421.163 145.717 421.163 143.994C421.163 142.248 421.039 140.718 420.79 139.382C420.542 138.045 420.118 136.932 419.52 136.037C418.921 135.139 418.114 134.474 417.091 134.04C416.073 133.602 414.791 133.397 413.243 133.423C411.775 133.423 410.537 133.653 409.529 134.109C408.518 134.569 407.704 135.245 407.083 136.132C406.462 137.016 406.013 138.118 405.736 139.433C405.465 140.751 405.327 142.27 405.327 143.99C405.327 145.761 405.451 147.305 405.699 148.624ZM384.597 154.039H389.753V141.974C389.753 141.299 389.866 140.733 390.089 140.273C390.312 139.813 390.611 139.437 390.984 139.152C391.36 138.863 391.769 138.655 392.218 138.535C392.667 138.414 393.116 138.345 393.562 138.345C393.836 138.345 394.106 138.352 394.365 138.363C394.628 138.378 394.891 138.396 395.168 138.425V133.488C395.019 133.463 394.862 133.445 394.701 133.434C394.537 133.423 394.383 133.415 394.234 133.415C393.164 133.415 392.254 133.708 391.51 134.292C390.761 134.88 390.126 135.657 389.604 136.629H389.527V133.938H384.597V154.039ZM375.688 154.039H380.844V133.941H375.688V154.039ZM375.688 131.48H380.844V127.073H375.688V131.48ZM366.877 147.948C366.877 148.521 366.775 149.003 366.578 149.39C366.377 149.774 366.121 150.088 365.811 150.343C365.497 150.595 365.157 150.774 364.785 150.884C364.412 150.993 364.051 151.052 363.7 151.052C363.003 151.052 362.506 150.782 362.207 150.227C361.907 149.683 361.758 149.022 361.758 148.248C361.758 147.357 361.984 146.645 362.433 146.119C362.879 145.597 363.627 145.228 364.672 144.998C364.993 144.925 365.358 144.804 365.756 144.644C366.15 144.483 366.527 144.264 366.877 143.986V147.948ZM362.094 140.109V139.55C362.094 138.754 362.295 138.118 362.693 137.647C363.091 137.176 363.686 136.935 364.485 136.935C365.358 136.935 365.972 137.155 366.337 137.589C366.695 138.027 366.877 138.63 366.877 139.404C366.877 140.079 366.727 140.587 366.428 140.934C366.129 141.284 365.592 141.558 364.821 141.759L361.908 142.544C361.013 142.792 360.246 143.077 359.611 143.398C358.975 143.727 358.453 144.129 358.044 144.614C357.632 145.104 357.325 145.684 357.128 146.371C356.927 147.054 356.828 147.871 356.828 148.817C356.828 149.489 356.916 150.168 357.091 150.851C357.263 151.537 357.537 152.151 357.913 152.706C358.285 153.25 358.782 153.699 359.406 154.046C360.027 154.397 360.787 154.572 361.685 154.572C362.93 154.572 363.945 154.397 364.73 154.046C365.515 153.699 366.205 153.002 366.8 151.957H366.877C366.95 152.304 367.03 152.655 367.118 153.02C367.206 153.385 367.337 153.721 367.512 154.046H372.442C372.194 153.451 372.026 152.892 371.938 152.363C371.85 151.841 371.807 151.107 371.807 150.161V139.586C371.807 138.692 371.715 137.859 371.529 137.1C371.339 136.344 370.985 135.69 370.463 135.139C369.941 134.595 369.196 134.168 368.239 133.872C367.279 133.572 366.041 133.423 364.522 133.423C363.551 133.423 362.638 133.525 361.78 133.74C360.918 133.952 360.173 134.299 359.538 134.785C358.902 135.27 358.398 135.913 358.022 136.709C357.65 137.505 357.464 138.473 357.464 139.623V140.109H362.094ZM338.681 154.039H343.837V140.707C343.837 138.491 344.746 137.381 346.564 137.381C347.335 137.381 347.893 137.585 348.244 137.998C348.591 138.411 348.766 139.137 348.766 140.182V154.042H353.922V139.137C353.922 137.122 353.476 135.668 352.596 134.77C351.713 133.876 350.449 133.426 348.806 133.426C346.539 133.426 344.906 134.284 343.913 136.004H343.837V127.376H338.681V154.039ZM335.384 136.373C335.384 135.402 335.318 134.365 335.179 133.255C335.04 132.145 334.701 131.115 334.149 130.151C333.602 129.191 332.776 128.402 331.666 127.781C330.556 127.157 329.045 126.847 327.128 126.847C325.112 126.847 323.506 127.19 322.308 127.873C321.114 128.559 320.197 129.508 319.566 130.728C318.93 131.951 318.518 133.412 318.331 135.117C318.145 136.826 318.05 138.688 318.05 140.704C318.05 142.719 318.145 144.582 318.331 146.283C318.518 147.996 318.93 149.452 319.566 150.672C320.197 151.895 321.114 152.848 322.308 153.531C323.506 154.218 325.112 154.557 327.128 154.557C328.895 154.557 330.334 154.269 331.444 153.699C332.554 153.126 333.412 152.344 334.022 151.362C334.628 150.376 335.048 149.241 335.27 147.941C335.497 146.648 335.606 145.279 335.606 143.833H330.228C330.228 145.279 330.144 146.444 329.969 147.327C329.793 148.211 329.556 148.897 329.257 149.383C328.957 149.869 328.603 150.194 328.194 150.354C327.781 150.515 327.34 150.599 326.868 150.599C326.295 150.599 325.791 150.479 325.353 150.241C324.919 150.008 324.557 149.544 324.272 148.857C323.984 148.175 323.772 147.211 323.637 145.962C323.498 144.717 323.429 143.084 323.429 141.069C323.429 139.174 323.48 137.574 323.579 136.271C323.681 134.964 323.852 133.908 324.104 133.098C324.353 132.287 324.692 131.703 325.13 131.341C325.569 130.98 326.12 130.805 326.792 130.805C328.015 130.805 328.855 131.243 329.315 132.127C329.771 133.01 330.005 134.427 330.005 136.366H335.384V136.373Z" fill="#00549F"/>
<path d="M201.508 85.6073V82.9491H195.907V85.6073C192.15 86.6699 189.239 89.759 188.502 93.6332H164.125V99.2381H189.002C190.492 103.167 194.267 105.982 198.708 105.982C203.148 105.982 206.923 103.167 208.413 99.2381H232.713V93.6332H208.91C208.172 89.759 205.266 86.6699 201.508 85.6073ZM198.708 100.381C196.06 100.381 193.906 98.2303 193.906 95.5794C193.906 93.1293 195.783 91.1758 198.167 90.8982H199.248C201.625 91.1758 203.506 93.1293 203.506 95.5794C203.506 98.2303 201.351 100.381 198.708 100.381Z" fill="#0099A1"/>
<path d="M137.721 37.1531C137.721 31.3035 132.982 26.564 127.136 26.564C121.29 26.564 116.55 31.3035 116.55 37.1531C116.55 42.9953 121.29 47.7386 127.136 47.7386C132.982 47.7386 137.721 42.9953 137.721 37.1531Z" fill="#F5A800"/>
<path d="M116.55 65.017C116.55 59.1711 111.807 54.4315 105.958 54.4315C100.115 54.4315 95.3721 59.1711 95.3721 65.017C95.3721 70.8629 100.115 75.6024 105.958 75.6024C111.807 75.5988 116.55 70.8629 116.55 65.017Z" fill="#F5A800"/>
<path d="M108.605 19.0383C108.605 13.1888 103.865 8.44922 98.0195 8.44922C92.1736 8.44922 87.4341 13.1888 87.4341 19.0383C87.4341 24.8843 92.1736 29.6275 98.0195 29.6275C103.865 29.6275 108.605 24.8843 108.605 19.0383Z" fill="#F5A800"/>
<path d="M31.8411 98.1792C31.8411 92.3296 27.0979 87.5901 21.2556 87.5901C15.406 87.5901 10.6665 92.3333 10.6665 98.1792C10.6665 104.025 15.406 108.765 21.2556 108.765C27.0979 108.765 31.8411 104.021 31.8411 98.1792Z" fill="#F5A800"/>
<path d="M31.8411 124.367C31.8411 118.518 27.0979 113.785 21.2556 113.785C15.406 113.785 10.6665 118.521 10.6665 124.367C10.6665 130.21 15.406 134.953 21.2556 134.953C27.0979 134.956 31.8411 130.21 31.8411 124.367Z" fill="#F5A800"/>
<path d="M31.8411 156.689C31.8411 150.847 27.0979 146.108 21.2556 146.108C15.406 146.108 10.6665 150.851 10.6665 156.689C10.6665 162.539 15.406 167.275 21.2556 167.275C27.0979 167.275 31.8411 162.539 31.8411 156.689Z" fill="#F5A800"/>
<path d="M270.085 116.98H211.845V132.86V196.402H291.264V116.98H270.085ZM270.44 172.566C269.585 174.454 268.322 176.071 266.642 177.441C264.959 178.81 262.87 179.883 260.384 180.676C257.897 181.457 255.02 181.844 251.748 181.844C249.104 181.844 246.537 181.508 244.047 180.844C241.56 180.168 239.373 179.131 237.489 177.747C235.605 176.352 234.097 174.589 232.954 172.434C231.811 170.284 231.26 167.728 231.307 164.766H241.524C241.524 166.38 241.82 167.75 242.4 168.867C242.985 169.988 243.759 170.897 244.723 171.587C245.687 172.285 246.808 172.796 248.082 173.136C249.36 173.479 250.718 173.647 252.15 173.647C253.092 173.647 254.103 173.566 255.177 173.406C256.254 173.252 257.262 172.942 258.204 172.504C259.142 172.058 259.923 171.438 260.555 170.649C261.18 169.868 261.497 168.871 261.497 167.658C261.497 166.362 261.081 165.311 260.252 164.5C259.42 163.697 258.331 163.01 256.991 162.452C255.651 161.886 254.129 161.418 252.416 161.042C250.718 160.655 248.991 160.22 247.246 159.728C245.449 159.282 243.7 158.731 241.999 158.081C240.29 157.431 238.771 156.595 237.427 155.554C236.08 154.532 234.995 153.25 234.166 151.727C233.33 150.201 232.921 148.32 232.921 146.079C232.921 143.614 233.447 141.478 234.502 139.652C235.554 137.841 236.934 136.333 238.636 135.117C240.341 133.908 242.272 133.01 244.42 132.43C246.57 131.849 248.721 131.553 250.868 131.553C253.38 131.553 255.794 131.842 258.101 132.4C260.409 132.952 262.461 133.868 264.25 135.117C266.047 136.373 267.471 137.972 268.523 139.93C269.578 141.876 270.104 144.242 270.104 147.017H259.883C259.792 145.578 259.493 144.399 258.974 143.457C258.459 142.515 257.773 141.77 256.929 141.229C256.075 140.7 255.085 140.317 253.968 140.09C252.847 139.864 251.657 139.758 250.404 139.758C249.55 139.758 248.695 139.838 247.848 140.024C246.997 140.203 246.223 140.517 245.53 140.967C244.828 141.412 244.263 141.978 243.813 142.683C243.364 143.369 243.142 144.213 243.142 145.195C243.142 146.141 243.32 146.907 243.678 147.488C244.032 148.061 244.745 148.598 245.796 149.065C246.851 149.54 248.308 150.029 250.167 150.544C252.029 151.066 254.461 151.698 257.462 152.461C258.043 152.593 258.806 152.783 259.748 153.031C260.69 153.279 261.687 153.615 262.742 154.039C263.79 154.466 264.853 155.017 265.901 155.682C266.952 156.357 267.916 157.186 268.789 158.168C269.665 159.158 270.374 160.33 270.914 161.707C271.447 163.072 271.714 164.653 271.714 166.439C271.714 168.648 271.294 170.682 270.44 172.566Z" fill="#00B0B8"/>
<path d="M280.674 74.2113C280.674 68.3618 275.927 63.6259 270.082 63.6259C264.239 63.6259 259.496 68.3618 259.496 74.2113C259.496 80.0536 264.239 84.8041 270.082 84.8041C275.927 84.8041 280.674 80.0536 280.674 74.2113Z" fill="#F5A800"/>
<path d="M280.674 34.922C280.674 29.0724 275.927 24.3329 270.082 24.3329C264.239 24.3329 259.496 29.0724 259.496 34.922C259.496 40.7679 264.239 45.5111 270.082 45.5111C275.927 45.5111 280.674 40.7679 280.674 34.922Z" fill="#F5A800"/>
<path d="M272.882 95.0171V84.3768C271.984 84.6288 271.06 84.804 270.082 84.804C269.103 84.804 268.176 84.6288 267.277 84.3768V95.0171H259.098L270.082 116.977L281.058 95.0171H272.882Z" fill="#00B0B8"/>
<path d="M270.082 63.6258C271.06 63.6258 271.988 63.8011 272.883 64.0494V45.0948C271.988 45.3358 271.06 45.5111 270.082 45.5111C269.103 45.5111 268.176 45.3358 267.281 45.0912V64.0494C268.176 63.8011 269.103 63.6258 270.082 63.6258Z" fill="#00B0B8"/>
<path d="M237.022 58.1925H215.507C215.109 58.7767 214.773 59.4084 214.328 59.9452C212.51 62.0886 210.246 63.7828 207.536 65.0134C204.827 66.2475 201.628 66.8683 197.955 66.8683H177.248V58.1925H160.382C159.666 58.1925 159.075 58.7767 159.075 59.4997V81.6419C159.075 82.3649 159.666 82.9528 160.382 82.9528H237.022C237.741 82.9528 238.332 82.3649 238.332 81.6419V59.4997C238.332 58.7767 237.741 58.1925 237.022 58.1925ZM233.896 79.2174H226.754V72.2906H233.896V79.2174Z" fill="#00B0B8"/>
<path d="M187.804 54.1066V57.9917H197.221C198.74 57.9917 200.215 57.747 201.654 57.2504C203.089 56.7575 204.371 55.9396 205.484 54.7967C205.682 54.5959 205.831 54.3257 206.014 54.1066H187.804Z" fill="#0099A1"/>
<path d="M177.252 54.1066H164.684V58.1962H177.252V54.1066Z" fill="#0099A1"/>
<path d="M177.252 29.3499H160.386C159.67 29.3499 159.079 29.9341 159.079 30.6571V52.7993C159.079 53.5223 159.67 54.1028 160.386 54.1028H177.252V29.3499Z" fill="#00B0B8"/>
<path d="M195.337 27.736H187.804V29.3535H202.786C202.479 29.1892 202.22 28.9848 201.888 28.846C200.117 28.1048 197.933 27.736 195.337 27.736Z" fill="#0099A1"/>
<path d="M177.252 25.2604H164.684V29.35H177.252V25.2604Z" fill="#0099A1"/>
<path d="M259.496 15.9565H238.329V1.81819C238.329 1.09156 237.745 0.507324 237.022 0.507324H160.386C159.666 0.507324 159.075 1.09156 159.075 1.81819V23.9568C159.075 24.6797 159.666 25.2603 160.386 25.2603H177.248V18.8594H197.955C201.051 18.8594 203.932 19.3523 206.598 20.3382C209.263 21.3241 211.575 22.8029 213.525 24.7747C213.667 24.9207 213.766 25.1142 213.904 25.2603H237.022C237.745 25.2603 238.329 24.6797 238.329 23.9568V21.5614H259.496C262.238 21.5614 264.641 22.9928 266.028 25.1435C267.281 24.6213 268.643 24.3329 270.082 24.3329C270.721 24.3329 271.341 24.4095 271.947 24.5191C270.001 19.5239 265.174 15.9565 259.496 15.9565ZM233.892 21.5286H226.75V14.6018H233.892V21.5286Z" fill="#00B0B8"/>
<path d="M103.467 54.7565V29.6274C103.467 29.1235 103.372 28.6452 103.318 28.1559C101.751 29.0687 99.9582 29.6274 98.0157 29.6274C97.9645 29.6274 97.9171 29.6128 97.8623 29.6128V29.6274V56.0966C97.8623 56.7575 97.9645 57.3928 98.0631 58.0282C99.4726 56.4361 101.335 55.2713 103.467 54.7565Z" fill="#00B0B8"/>
<path d="M127.136 26.5639C128.275 26.5639 129.356 26.7903 130.382 27.1225C131.349 24.3146 133.876 22.2296 136.932 21.9156V30.0218L158.903 19.0383L136.932 8.05847V16.318C130.849 16.6795 125.843 21.0867 124.631 26.8925C125.438 26.699 126.27 26.5639 127.136 26.5639Z" fill="#00B0B8"/>
<path d="M127.136 47.7385C126.158 47.7385 125.23 47.5632 124.336 47.3149V56.093C124.336 60.3907 120.841 63.8814 116.551 63.8814H116.438C116.474 64.2612 116.551 64.6263 116.551 65.0134C116.551 66.62 116.16 68.128 115.528 69.49H116.551C123.934 69.49 129.937 63.4798 129.937 56.093V47.3149C129.042 47.5632 128.115 47.7385 127.136 47.7385Z" fill="#00B0B8"/>
<path d="M18.4512 108.341V114.205C19.3494 113.961 20.2732 113.785 21.2518 113.785C22.2304 113.785 23.1579 113.961 24.0561 114.205V108.341C23.1579 108.589 22.2304 108.765 21.2518 108.765C20.2732 108.765 19.3494 108.589 18.4512 108.341Z" fill="#00B0B8"/>
<path d="M24.0561 146.528V134.533C23.1579 134.777 22.234 134.953 21.2555 134.953C20.2769 134.953 19.3494 134.777 18.4512 134.533V146.528C19.3494 146.283 20.2769 146.104 21.2555 146.104C22.234 146.104 23.1579 146.279 24.0561 146.528Z" fill="#00B0B8"/>
<path d="M31.0522 174.991C27.1342 174.593 24.0561 171.303 24.0561 167.282V166.855C23.1579 167.104 22.234 167.282 21.2555 167.282C20.2769 167.282 19.3494 167.104 18.4512 166.855V167.282C18.4512 174.395 24.0415 180.179 31.0522 180.596V188.855L53.0192 177.875L31.0522 166.884V174.991Z" fill="#00B0B8"/>
<path d="M180.081 153.626C181.06 153.626 181.987 153.801 182.882 154.046V143.45C182.882 139.429 185.96 136.139 189.878 135.745V143.855L211.849 132.86L189.878 121.884V130.14C182.867 130.556 177.281 136.34 177.281 143.453V154.05C178.175 153.801 179.103 153.626 180.081 153.626Z" fill="#00B0B8"/>
<path d="M180.082 174.804C178.665 174.804 177.325 174.519 176.091 174.012C174.714 176.228 172.282 177.714 169.489 177.714H164.198C159.904 177.714 156.406 174.224 156.406 169.919V161.561C155.511 161.809 154.584 161.98 153.605 161.98C152.627 161.98 151.699 161.809 150.805 161.561V169.919C150.805 177.309 156.815 183.312 164.198 183.312H169.489C175.218 183.312 180.082 179.69 181.995 174.607C181.371 174.72 180.735 174.804 180.082 174.804Z" fill="#00B0B8"/>
<path d="M164.198 151.395C164.198 145.549 159.455 140.81 153.605 140.81C147.766 140.81 143.02 145.553 143.02 151.395C143.02 157.237 147.766 161.984 153.605 161.984C159.455 161.984 164.198 157.237 164.198 151.395Z" fill="#F5A800"/>
<path d="M190.667 164.215C190.667 158.369 185.924 153.63 180.082 153.63C174.236 153.63 169.489 158.373 169.489 164.215C169.489 170.057 174.236 174.804 180.082 174.804C185.924 174.804 190.667 170.057 190.667 164.215Z" fill="#F5A800"/>
<path d="M47.2134 28.3714C46.359 27.8565 45.3768 27.5097 44.2558 27.3307C43.1311 27.1482 41.97 27.0569 40.7541 27.0569H32.5566V41.4508H40.7541C41.97 41.4508 43.1348 41.3595 44.2558 41.1806C45.3768 41.0017 46.359 40.6548 47.2134 40.1326C48.0642 39.6214 48.7434 38.8911 49.2655 37.9491C49.7804 37.0107 50.036 35.7765 50.036 34.2502C50.036 32.7312 49.7804 31.497 49.2655 30.5549C48.7434 29.6165 48.0606 28.8862 47.2134 28.3714Z" fill="#00B0B8"/>
<path d="M21.9971 18.8594H43.6463C46.6515 18.8594 49.2038 19.2939 51.3143 20.1702C53.4175 21.0429 55.1337 22.1968 56.4555 23.6281C57.7737 25.0668 58.7413 26.7136 59.3475 28.5758C59.9499 30.4344 60.2567 32.3258 60.2567 34.2538C60.2567 36.2255 59.9499 38.1316 59.3475 39.9682C58.7413 41.8085 57.7737 43.4444 56.4555 44.8794C55.1337 46.3144 53.4175 47.4646 51.3143 48.3409C49.2038 49.2173 46.6515 49.6482 43.6463 49.6482H32.5533V66.8683H21.9971V18.8594ZM32.5533 41.4507H40.7508C41.9667 41.4507 43.1315 41.3558 44.2525 41.1805C45.3735 41.0016 46.3557 40.6547 47.2101 40.1362C48.0609 39.625 48.7437 38.8911 49.2622 37.949C49.7771 37.0106 50.0363 35.7764 50.0363 34.2538C50.0363 32.7311 49.7771 31.5006 49.2622 30.5585C48.7437 29.6165 48.0609 28.8898 47.2101 28.3713C46.3557 27.8565 45.3735 27.5059 44.2525 27.3307C43.1315 27.1518 41.9703 27.0568 40.7544 27.0568H32.557L32.5533 41.4507Z" fill="white"/>
<path d="M87.8575 16.2377H79.4885V3.151H0.0737305V82.5694H18.4513V88.0064C19.3496 87.7617 20.2734 87.5865 21.252 87.5865C22.2306 87.5865 23.158 87.7617 24.0563 88.0064V82.5694H79.4885V21.839H87.8575C87.6092 20.9444 87.434 20.0133 87.434 19.0383C87.434 18.0634 87.6092 17.1323 87.8575 16.2377ZM59.3472 39.9719C58.7411 41.8086 57.7735 43.4444 56.4553 44.8794C55.1335 46.3145 53.4173 47.4647 51.3141 48.3446C49.2036 49.2173 46.6513 49.6518 43.6461 49.6518H32.5531V66.8683H21.9969V18.8594H43.6461C46.6513 18.8594 49.2036 19.2939 51.3141 20.1703C53.4173 21.043 55.1335 22.2005 56.4553 23.6282C57.7735 25.0668 58.7411 26.7136 59.3472 28.5758C59.9497 30.4344 60.2564 32.3295 60.2564 34.2538C60.2564 36.2292 59.9497 38.1316 59.3472 39.9719Z" fill="#00B0B8"/>
<path d="M143.019 130.06H132.434C132.339 130.06 132.262 130.104 132.171 130.111V116.98H53.0156V196.402H132.171V135.61C132.262 135.617 132.339 135.668 132.434 135.668H143.019C146.572 135.668 149.541 138.071 150.476 141.339C151.469 141.029 152.506 140.806 153.605 140.806C154.496 140.806 155.35 140.948 156.172 141.16C155.08 134.865 149.618 130.06 143.019 130.06ZM103.891 180.701L100.261 170.006H82.311L78.5427 180.701H67.8513L86.0756 132.692H96.8984L114.849 180.701H103.891Z" fill="#00B0B8"/>
<path d="M91.3189 144.53L85.064 162.148H97.5044L91.454 144.53H91.3189Z" fill="#00B0B8"/>
<path d="M86.0758 132.696H96.8986L114.849 180.701H103.895L100.262 170.006H82.3112L78.5429 180.701H67.8516L86.0758 132.696ZM85.0643 162.148H97.5084L91.4507 144.527H91.3156L85.0643 162.148Z" fill="white"/>
<path d="M237.022 29.3535H216.727C217.209 30.2591 217.709 31.1464 218.096 32.1724C219.195 35.1301 219.739 38.6099 219.739 42.5936C219.739 46.0916 219.294 49.3158 218.403 52.2771C218.199 52.9307 217.896 53.4894 217.647 54.1065H237.022C237.741 54.1065 238.333 53.5223 238.333 52.8029V30.6607C238.333 29.9341 237.741 29.3535 237.022 29.3535ZM233.896 50.3747H226.754V43.448H233.896V50.3747Z" fill="#00B0B5"/>
<path d="M241.524 164.767C241.524 166.38 241.816 167.75 242.397 168.867C242.985 169.984 243.759 170.897 244.719 171.587C245.683 172.288 246.808 172.792 248.082 173.132C249.36 173.479 250.718 173.65 252.15 173.65C253.092 173.65 254.1 173.563 255.173 173.409C256.25 173.252 257.262 172.942 258.204 172.5C259.146 172.058 259.924 171.438 260.555 170.649C261.18 169.864 261.497 168.871 261.497 167.655C261.497 166.362 261.078 165.311 260.252 164.5C259.42 163.697 258.335 163.01 256.992 162.452C255.648 161.886 254.125 161.418 252.416 161.042C250.719 160.651 248.988 160.221 247.242 159.724C245.45 159.278 243.697 158.731 241.999 158.081C240.29 157.431 238.771 156.595 237.424 155.558C236.08 154.532 234.995 153.25 234.163 151.727C233.334 150.201 232.918 148.321 232.918 146.079C232.918 143.614 233.447 141.478 234.499 139.652C235.55 137.841 236.934 136.333 238.636 135.121C240.341 133.905 242.269 133.01 244.416 132.433C246.57 131.849 248.721 131.55 250.872 131.55C253.38 131.55 255.79 131.842 258.098 132.4C260.409 132.948 262.458 133.868 264.251 135.121C266.044 136.369 267.468 137.972 268.523 139.93C269.578 141.876 270.1 144.242 270.1 147.017H259.88C259.796 145.575 259.493 144.399 258.974 143.457C258.456 142.515 257.773 141.77 256.926 141.229C256.075 140.7 255.089 140.317 253.965 140.094C252.844 139.864 251.657 139.758 250.404 139.758C249.546 139.758 248.696 139.842 247.845 140.028C246.998 140.203 246.224 140.517 245.526 140.967C244.829 141.412 244.259 141.974 243.81 142.683C243.361 143.369 243.142 144.213 243.142 145.202C243.142 146.141 243.317 146.907 243.675 147.492C244.033 148.058 244.741 148.598 245.796 149.065C246.852 149.54 248.305 150.029 250.163 150.541C252.029 151.066 254.461 151.698 257.463 152.461C258.043 152.593 258.806 152.783 259.748 153.027C260.691 153.279 261.684 153.615 262.743 154.039C263.791 154.466 264.849 155.017 265.897 155.678C266.953 156.357 267.917 157.186 268.789 158.168C269.662 159.158 270.374 160.33 270.911 161.707C271.448 163.072 271.714 164.653 271.714 166.439C271.714 168.644 271.291 170.678 270.436 172.562C269.585 174.45 268.322 176.068 266.642 177.433C264.955 178.806 262.87 179.88 260.384 180.672C257.897 181.454 255.016 181.837 251.745 181.837C249.101 181.837 246.538 181.501 244.051 180.84C241.561 180.165 239.374 179.131 237.489 177.744C235.609 176.349 234.097 174.585 232.951 172.435C231.808 170.28 231.26 167.728 231.308 164.763L241.524 164.767Z" fill="white"/>
<path d="M217.651 54.1066C217.063 55.5854 216.351 56.9437 215.508 58.1925L233.436 58.1962V54.1066H217.651Z" fill="#0099A1"/>
<path d="M213.905 25.2603C215 26.4433 215.92 27.8272 216.727 29.3425L216.731 29.3462L233.436 29.3498V25.2603H213.905Z" fill="#0099A1"/>
<path d="M208.482 37.0434C208.011 35.0972 207.237 33.4248 206.164 32.0337C205.287 30.9054 204.123 30.0473 202.794 29.3535L202.79 29.3499H187.808V54.1028H206.018C206.438 53.5953 206.832 53.0439 207.186 52.4341C207.548 51.7805 207.895 51.1014 208.179 50.3273C208.851 48.4833 209.184 46.2486 209.184 43.6013C209.18 41.1768 208.95 38.9933 208.482 37.0434Z" fill="#00B0B8"/>
<path d="M216.727 29.3462C216.34 28.6233 215.927 27.9368 215.485 27.2832C215 26.5858 214.492 25.9103 213.93 25.3005C213.919 25.2895 213.912 25.2749 213.901 25.264C213.766 25.1143 213.667 24.9207 213.525 24.7783C211.571 22.8066 209.263 21.3204 206.594 20.3345C203.929 19.3523 201.048 18.8594 197.955 18.8594H177.251V66.8646H197.955C201.632 66.8646 204.823 66.2475 207.536 65.0133C210.249 63.7828 212.513 62.0885 214.324 59.9415C214.777 59.4084 215.113 58.7731 215.504 58.1888C216.347 56.9437 217.063 55.5817 217.647 54.1065C217.892 53.4894 218.199 52.9271 218.396 52.2735C219.29 49.3159 219.739 46.0917 219.739 42.59C219.739 38.6063 219.192 35.1265 218.089 32.1688C217.713 31.1428 217.216 30.2518 216.727 29.3462ZM208.179 50.3273C207.507 52.164 206.609 53.6501 205.484 54.7967C204.371 55.9432 203.093 56.7575 201.658 57.2504C200.219 57.747 198.744 57.988 197.221 57.988H187.808V27.736H195.337C197.937 27.736 200.12 28.1011 201.888 28.846C203.662 29.5799 205.086 30.6462 206.163 32.0337C207.237 33.4249 208.011 35.0972 208.482 37.0434C208.953 38.9933 209.183 41.1805 209.183 43.6051C209.179 46.2487 208.851 48.4907 208.179 50.3273Z" fill="white"/>
</svg>
