<svg width="652" height="337" viewBox="0 0 652 337" fill="none" xmlns="http://www.w3.org/2000/svg">
<path d="M372.688 329H348.88V284.2H356.944V321.576H372.688V329ZM395.822 326.632C394.755 327.571 393.304 328.339 391.47 328.936C389.635 329.533 387.715 329.832 385.71 329.832C383.491 329.832 381.571 329.448 379.95 328.68C378.371 327.912 377.07 326.803 376.046 325.352C375.022 323.901 374.254 322.152 373.742 320.104C373.272 318.013 373.038 315.645 373.038 313C373.038 307.24 374.168 302.995 376.43 300.264C378.734 297.491 381.912 296.104 385.966 296.104C387.331 296.104 388.654 296.317 389.934 296.744C391.214 297.128 392.344 297.811 393.326 298.792C394.35 299.731 395.16 301.011 395.758 302.632C396.398 304.211 396.718 306.216 396.718 308.648C396.718 309.587 396.654 310.589 396.526 311.656C396.44 312.723 396.291 313.875 396.078 315.112H380.526C380.611 317.757 381.166 319.784 382.19 321.192C383.214 322.6 384.856 323.304 387.118 323.304C388.483 323.304 389.72 323.091 390.83 322.664C391.982 322.237 392.856 321.789 393.454 321.32L395.822 326.632ZM385.838 302.632C384.216 302.632 383 303.293 382.19 304.616C381.379 305.896 380.91 307.709 380.782 310.056H389.614C389.742 307.624 389.486 305.789 388.846 304.552C388.206 303.272 387.203 302.632 385.838 302.632ZM417.437 329V309.672C417.437 307.368 417.159 305.704 416.605 304.68C416.093 303.656 415.133 303.144 413.725 303.144C412.701 303.144 411.762 303.507 410.909 304.232C410.055 304.957 409.479 305.875 409.181 306.984V329H401.565V284.2H409.181V299.88H409.373C410.226 298.771 411.25 297.875 412.445 297.192C413.682 296.509 415.218 296.168 417.053 296.168C418.375 296.168 419.527 296.36 420.509 296.744C421.49 297.128 422.322 297.768 423.005 298.664C423.687 299.56 424.199 300.776 424.541 302.312C424.882 303.805 425.053 305.704 425.053 308.008V329H417.437ZM445.419 304.552C444.395 304.168 443.456 303.976 442.603 303.976C441.451 303.976 440.448 304.296 439.595 304.936C438.784 305.576 438.229 306.472 437.931 307.624V329H430.315V297H436.139L437.035 300.84H437.291C437.845 299.432 438.635 298.344 439.659 297.576C440.725 296.765 441.941 296.36 443.307 296.36C444.331 296.36 445.333 296.573 446.315 297L445.419 304.552ZM459.817 320.488C459.817 319.592 459.518 318.845 458.921 318.248C458.366 317.608 457.641 317.032 456.745 316.52C455.849 315.965 454.889 315.411 453.865 314.856C452.883 314.301 451.945 313.619 451.049 312.808C450.153 311.997 449.406 311.016 448.809 309.864C448.254 308.712 447.977 307.261 447.977 305.512C447.977 302.525 448.787 300.221 450.409 298.6C452.03 296.979 454.419 296.168 457.577 296.168C459.454 296.168 461.225 296.381 462.889 296.808C464.553 297.192 465.875 297.683 466.857 298.28L465.065 304.168C464.254 303.827 463.273 303.507 462.121 303.208C460.969 302.867 459.838 302.696 458.729 302.696C456.638 302.696 455.593 303.571 455.593 305.32C455.593 306.131 455.87 306.813 456.425 307.368C457.022 307.88 457.769 308.392 458.665 308.904C459.561 309.416 460.499 309.949 461.481 310.504C462.505 311.059 463.465 311.763 464.361 312.616C465.257 313.427 465.982 314.429 466.537 315.624C467.134 316.819 467.433 318.291 467.433 320.04C467.433 322.984 466.537 325.352 464.745 327.144C462.953 328.936 460.286 329.832 456.745 329.832C454.995 329.832 453.267 329.619 451.561 329.192C449.897 328.765 448.553 328.211 447.529 327.528L449.641 321.384C450.537 321.896 451.561 322.344 452.713 322.728C453.907 323.112 455.145 323.304 456.425 323.304C457.406 323.304 458.217 323.091 458.857 322.664C459.497 322.195 459.817 321.469 459.817 320.488ZM468.944 297H472.464V290.984L480.08 288.616V297H486.288V303.784H480.08V317.736C480.08 319.571 480.25 320.872 480.592 321.64C480.976 322.408 481.637 322.792 482.576 322.792C483.216 322.792 483.792 322.728 484.304 322.6C484.816 322.472 485.37 322.28 485.968 322.024L486.928 328.104C485.989 328.573 484.901 328.957 483.664 329.256C482.426 329.597 481.125 329.768 479.76 329.768C477.328 329.768 475.493 329.064 474.256 327.656C473.061 326.248 472.464 323.88 472.464 320.552V303.784H468.944V297ZM497.425 297V316.136C497.425 318.653 497.659 320.403 498.129 321.384C498.598 322.365 499.451 322.856 500.689 322.856C501.883 322.856 502.886 322.429 503.697 321.576C504.507 320.68 505.083 319.613 505.425 318.376V297H513.041V319.272C513.041 321.021 513.105 322.749 513.233 324.456C513.361 326.12 513.595 327.635 513.937 329H508.177L506.833 324.648H506.641C505.83 326.141 504.721 327.379 503.312 328.36C501.947 329.341 500.241 329.832 498.193 329.832C496.87 329.832 495.697 329.64 494.673 329.256C493.649 328.915 492.774 328.296 492.049 327.4C491.323 326.504 490.769 325.288 490.385 323.752C490.001 322.173 489.809 320.189 489.809 317.8V297H497.425ZM491.345 287.336C491.345 285.971 491.707 284.904 492.433 284.136C493.201 283.368 494.203 282.984 495.441 282.984C496.635 282.984 497.595 283.368 498.321 284.136C499.046 284.904 499.409 285.971 499.409 287.336C499.409 288.616 499.046 289.64 498.321 290.408C497.595 291.133 496.635 291.496 495.441 291.496C494.203 291.496 493.201 291.133 492.433 290.408C491.707 289.64 491.345 288.616 491.345 287.336ZM503.249 287.336C503.249 285.971 503.611 284.904 504.337 284.136C505.062 283.368 506.043 282.984 507.281 282.984C508.518 282.984 509.499 283.368 510.225 284.136C510.95 284.904 511.313 285.971 511.313 287.336C511.313 288.616 510.95 289.64 510.225 290.408C509.499 291.133 508.518 291.496 507.281 291.496C506.043 291.496 505.062 291.133 504.337 290.408C503.611 289.64 503.249 288.616 503.249 287.336ZM526.371 318.632C526.371 320.125 526.52 321.192 526.819 321.832C527.118 322.472 527.608 322.792 528.291 322.792C528.675 322.792 529.059 322.749 529.443 322.664C529.87 322.579 530.339 322.429 530.851 322.216L531.555 328.36C531.043 328.701 530.168 329.021 528.931 329.32C527.694 329.619 526.435 329.768 525.155 329.768C523.022 329.768 521.422 329.235 520.355 328.168C519.288 327.101 518.755 325.288 518.755 322.728V284.2H526.371V318.632ZM555.822 326.632C554.755 327.571 553.304 328.339 551.47 328.936C549.635 329.533 547.715 329.832 545.71 329.832C543.491 329.832 541.571 329.448 539.95 328.68C538.371 327.912 537.07 326.803 536.046 325.352C535.022 323.901 534.254 322.152 533.742 320.104C533.272 318.013 533.038 315.645 533.038 313C533.038 307.24 534.168 302.995 536.43 300.264C538.734 297.491 541.912 296.104 545.966 296.104C547.331 296.104 548.654 296.317 549.934 296.744C551.214 297.128 552.344 297.811 553.326 298.792C554.35 299.731 555.16 301.011 555.758 302.632C556.398 304.211 556.718 306.216 556.718 308.648C556.718 309.587 556.654 310.589 556.526 311.656C556.44 312.723 556.291 313.875 556.078 315.112H540.526C540.611 317.757 541.166 319.784 542.19 321.192C543.214 322.6 544.856 323.304 547.118 323.304C548.483 323.304 549.72 323.091 550.83 322.664C551.982 322.237 552.856 321.789 553.454 321.32L555.822 326.632ZM545.838 302.632C544.216 302.632 543 303.293 542.19 304.616C541.379 305.896 540.91 307.709 540.782 310.056H549.614C549.742 307.624 549.486 305.789 548.846 304.552C548.206 303.272 547.203 302.632 545.838 302.632Z" fill="#00549F"/>
<path d="M618.161 220.014V271.801H628.165V260.414L631.724 255.777L640.063 271.808H651.088L638.177 248.162L649.422 232.791H638.396L628.314 247.368H628.165V220.028H618.161V220.014ZM600.669 271.801H610.681V232.776H600.669V271.801ZM600.669 227.99H610.681V219.432H600.669V227.99ZM580.072 232.783H574.995V239.597H580.072V261.939C580.072 263.91 580.185 265.569 580.433 266.866C580.675 268.178 581.121 269.22 581.774 270.022C582.426 270.816 583.355 271.383 584.567 271.723C585.772 272.056 587.368 272.234 589.353 272.234C590.516 272.234 591.608 272.177 592.657 272.085C593.692 271.986 594.763 271.893 595.883 271.794V264.831C595.543 264.888 595.181 264.924 594.798 264.952C594.401 264.973 594.018 264.987 593.636 264.987C592.182 264.987 591.225 264.661 590.771 264.009C590.303 263.35 590.083 262.251 590.083 260.698V239.59H595.883V232.776H590.083V221.602H580.072V232.783ZM560.829 259.982C560.829 261.088 560.63 262.024 560.248 262.775C559.865 263.52 559.361 264.137 558.759 264.633C558.156 265.108 557.489 265.462 556.766 265.675C556.043 265.895 555.334 266.001 554.66 266.001C553.306 266.001 552.342 265.477 551.76 264.406C551.179 263.335 550.888 262.059 550.888 260.563C550.888 258.819 551.328 257.443 552.193 256.429C553.065 255.408 554.519 254.685 556.546 254.253C557.177 254.104 557.872 253.863 558.652 253.551C559.425 253.239 560.155 252.813 560.829 252.282V259.982ZM551.541 244.752V243.667C551.541 242.121 551.931 240.881 552.704 239.966C553.476 239.051 554.639 238.597 556.185 238.597C557.872 238.597 559.071 239.016 559.773 239.867C560.482 240.717 560.829 241.88 560.829 243.383C560.829 244.688 560.538 245.681 559.957 246.361C559.375 247.035 558.34 247.567 556.837 247.957L551.179 249.474C549.442 249.963 547.953 250.516 546.719 251.147C545.486 251.778 544.472 252.558 543.671 253.501C542.876 254.444 542.281 255.586 541.898 256.912C541.515 258.238 541.317 259.819 541.317 261.662C541.317 262.967 541.48 264.285 541.82 265.618C542.167 266.951 542.692 268.143 543.422 269.206C544.146 270.27 545.11 271.142 546.322 271.815C547.535 272.489 549.002 272.836 550.747 272.836C553.157 272.836 555.135 272.489 556.66 271.815C558.177 271.142 559.524 269.788 560.68 267.753H560.829C560.971 268.44 561.134 269.121 561.297 269.823C561.467 270.532 561.722 271.184 562.063 271.815H571.635C571.145 270.66 570.819 269.568 570.656 268.554C570.486 267.54 570.401 266.108 570.401 264.271V243.745C570.401 242.008 570.224 240.398 569.855 238.924C569.493 237.449 568.805 236.173 567.792 235.116C566.778 234.053 565.338 233.223 563.474 232.642C561.609 232.06 559.212 231.77 556.256 231.77C554.37 231.77 552.597 231.975 550.924 232.394C549.258 232.812 547.804 233.478 546.578 234.421C545.344 235.371 544.365 236.619 543.635 238.158C542.912 239.696 542.55 241.582 542.55 243.816V244.759L551.541 244.752ZM487.402 271.801H497.414V246.127C497.414 243.809 497.882 242.121 498.825 241.051C499.768 239.98 501.037 239.455 502.632 239.455C504.036 239.455 505.043 239.888 505.645 240.76C506.248 241.632 506.553 242.887 506.553 244.532V271.801H516.557V246.127C516.557 243.809 517.032 242.121 517.975 241.051C518.918 239.98 520.188 239.455 521.783 239.455C523.18 239.455 524.194 239.888 524.789 240.76C525.392 241.632 525.697 242.887 525.697 244.532V271.801H535.708V243.44C535.708 239.668 534.928 236.782 533.354 234.776C531.78 232.762 529.327 231.755 525.987 231.755C523.619 231.755 521.577 232.28 519.861 233.322C518.138 234.357 516.898 235.917 516.125 238.002H515.983C515.451 235.974 514.402 234.428 512.828 233.358C511.254 232.294 509.304 231.755 506.985 231.755C504.809 231.755 502.937 232.152 501.363 232.918C499.789 233.691 498.378 234.974 497.123 236.761H496.974V232.776H487.402V271.801ZM462.48 271.801H472.491V248.375C472.491 247.063 472.704 245.964 473.144 245.078C473.576 244.185 474.158 243.454 474.881 242.894C475.604 242.334 476.405 241.937 477.277 241.696C478.149 241.455 479.014 241.334 479.887 241.334C480.418 241.334 480.936 241.348 481.446 241.37C481.957 241.391 482.474 241.426 483.006 241.476V231.904C482.716 231.855 482.411 231.819 482.099 231.791C481.787 231.77 481.482 231.748 481.191 231.748C479.114 231.748 477.348 232.316 475.895 233.457C474.448 234.591 473.215 236.102 472.201 237.995H472.052V232.776H462.48V271.801ZM436.04 246.78C436.133 245.099 436.366 243.646 436.728 242.433C437.09 241.214 437.621 240.271 438.323 239.604C439.025 238.931 440.011 238.59 441.266 238.59C443.294 238.59 444.69 239.647 445.47 241.774C446.243 243.908 446.633 247.411 446.633 252.289C446.633 257.174 446.243 260.684 445.47 262.811C444.69 264.938 443.294 265.994 441.266 265.994C440.011 265.994 439.025 265.654 438.323 264.98C437.621 264.307 437.09 263.357 436.728 262.151C436.366 260.939 436.133 259.485 436.04 257.805C435.948 256.118 435.899 254.274 435.899 252.289C435.899 250.311 435.948 248.467 436.04 246.78ZM426.61 261.286C427.1 263.846 427.915 266.001 429.078 267.738C430.24 269.483 431.815 270.78 433.793 271.624C435.771 272.461 438.267 272.872 441.266 272.822C444.116 272.822 446.52 272.375 448.477 271.482C450.441 270.589 452.022 269.277 453.234 267.568C454.44 265.845 455.312 263.711 455.843 261.145C456.368 258.585 456.638 255.635 456.638 252.296C456.638 248.914 456.404 245.929 455.914 243.341C455.425 240.753 454.61 238.59 453.447 236.846C452.291 235.109 450.717 233.812 448.732 232.968C446.754 232.117 444.258 231.713 441.266 231.762C438.416 231.762 436.005 232.216 434.048 233.11C432.084 233.996 430.503 235.308 429.298 237.023C428.085 238.739 427.213 240.881 426.681 243.44C426.157 246 425.887 248.956 425.887 252.289C425.887 255.72 426.128 258.727 426.61 261.286ZM407.204 271.801H417.209V239.597H423.016V232.783H417.209V229.373C417.209 228.267 417.499 227.466 418.081 226.977C418.662 226.501 419.655 226.253 421.052 226.253H421.995C422.434 226.253 422.774 226.275 423.016 226.324V219.22C421.179 219.071 419.385 219 417.648 219C416.053 219 414.599 219.156 413.295 219.468C411.99 219.78 410.891 220.305 409.991 221.028C409.104 221.765 408.41 222.722 407.927 223.928C407.445 225.14 407.204 226.615 407.204 228.359V232.783H402.121V239.597H407.204V271.801ZM368.137 271.801H378.141V245.908C378.141 241.618 379.914 239.463 383.438 239.463C384.941 239.463 386.026 239.86 386.706 240.654C387.387 241.448 387.72 242.873 387.72 244.901V271.808H397.725V242.873C397.725 238.952 396.874 236.123 395.151 234.386C393.442 232.642 390.982 231.77 387.791 231.77C385.614 231.77 383.686 232.223 381.991 233.117C380.297 234.003 378.921 235.421 377.851 237.357H377.709V232.791H368.137V271.801ZM360.444 220.014H350V271.801H360.444V220.014Z" fill="#00549F"/>
<path d="M283.495 219.571C276.618 219.571 271.024 213.977 271.024 207.099C271.024 200.222 276.618 194.628 283.495 194.628C290.373 194.628 295.967 200.222 295.967 207.099C295.967 213.977 290.366 219.571 283.495 219.571ZM240.734 123.193C240.734 116.316 246.328 110.721 253.206 110.721C260.083 110.721 265.685 116.316 265.685 123.193C265.685 130.071 260.083 135.665 253.206 135.665C246.328 135.665 240.734 130.071 240.734 123.193ZM224.611 219.571C217.733 219.571 212.146 213.977 212.146 207.099C212.146 200.222 217.733 194.628 224.611 194.628C231.488 194.628 237.09 200.222 237.09 207.099C237.09 213.977 231.495 219.571 224.611 219.571ZM265.685 288.389C265.685 295.267 260.083 300.861 253.206 300.861C246.328 300.861 240.734 295.267 240.734 288.389C240.734 281.512 246.328 275.91 253.206 275.91C260.083 275.917 265.685 281.519 265.685 288.389ZM196.817 300.861C189.939 300.861 184.352 295.267 184.352 288.389C184.352 281.512 189.939 275.91 196.817 275.91C203.694 275.91 209.289 281.512 209.289 288.389C209.289 295.267 203.694 300.861 196.817 300.861ZM283.495 186.864C282.765 186.864 282.035 186.906 281.319 186.984L265.266 139.423C270.222 135.729 273.456 129.837 273.456 123.2C273.456 112.04 264.373 102.958 253.213 102.958C242.053 102.958 232.977 112.04 232.977 123.2C232.977 130.368 236.728 136.658 242.365 140.252L226.603 186.963C225.944 186.899 225.284 186.864 224.618 186.864C213.465 186.864 204.382 195.939 204.382 207.099C204.382 214.36 208.232 220.72 213.997 224.293L199.143 268.288C198.377 268.203 197.611 268.146 196.817 268.146C185.657 268.146 176.574 277.222 176.574 288.382C176.574 299.542 185.657 308.625 196.817 308.625C207.977 308.625 217.06 299.542 217.06 288.382C217.06 281.462 213.557 275.343 208.239 271.692L223.242 227.257C223.696 227.285 224.157 227.328 224.618 227.328C225.504 227.328 226.376 227.25 227.227 227.151L242.173 271.436C236.643 275.052 232.977 281.299 232.977 288.382C232.977 299.542 242.053 308.625 253.213 308.625C264.373 308.625 273.456 299.542 273.456 288.382C273.456 277.222 264.373 268.146 253.213 268.146C252.582 268.146 251.958 268.189 251.341 268.239L236.281 223.62C241.464 219.947 244.861 213.92 244.861 207.099C244.861 200.045 241.23 193.833 235.75 190.21L251.568 143.351C252.107 143.393 252.653 143.436 253.213 143.436C254.262 143.436 255.283 143.329 256.29 143.181L272.193 190.31C266.805 193.961 263.253 200.115 263.253 207.099C263.253 218.259 272.335 227.335 283.495 227.335C294.655 227.335 303.738 218.259 303.738 207.099C303.738 195.939 294.648 186.864 283.495 186.864Z" fill="white"/>
<path d="M56.1478 282.036C54.2334 282.348 52.2481 282.504 50.2203 282.504V289.488H64.7837V327.875H75.3766V273.479H67.4993C67.159 275.138 66.4357 276.541 65.3368 277.676C64.2307 278.817 62.9119 279.746 61.3591 280.477C59.7993 281.207 58.0692 281.724 56.1478 282.036ZM9.64985 300.684C9.64985 297.841 9.82 295.153 10.1603 292.643C10.4936 290.134 11.075 287.914 11.8904 285.993C12.7128 284.078 13.8118 282.568 15.1944 281.441C16.577 280.335 18.3496 279.775 20.4979 279.775C22.5754 279.775 24.3267 280.335 25.7376 281.441C27.1557 282.561 28.2689 284.078 29.0913 285.993C29.8996 287.914 30.481 290.126 30.8214 292.643C31.1617 295.153 31.3319 297.834 31.3319 300.684C31.3319 303.534 31.1617 306.228 30.8214 308.774C30.481 311.305 29.8996 313.524 29.0913 315.417C28.2689 317.31 27.1557 318.814 25.7376 319.92C24.3267 321.04 22.5754 321.6 20.4979 321.6C18.3496 321.6 16.577 321.04 15.1944 319.92C13.8118 318.814 12.7128 317.31 11.8904 315.417C11.075 313.524 10.4936 311.312 10.1603 308.774C9.82 306.228 9.64985 303.527 9.64985 300.684ZM0.794106 291.048C0.262336 294.359 0 297.571 0 300.677C0 303.782 0.262336 307.001 0.794106 310.312C1.33297 313.624 2.35396 316.665 3.85001 319.445C5.34605 322.217 7.43059 324.493 10.1178 326.287C12.7979 328.066 16.258 328.96 20.4979 328.96C24.7237 328.96 28.1838 328.066 30.871 326.287C33.544 324.493 35.6427 322.217 37.1317 319.445C38.6277 316.665 39.6417 313.624 40.1805 310.312C40.7194 306.994 40.9888 303.782 40.9888 300.677C40.9888 297.571 40.7194 294.352 40.1805 291.048C39.6417 287.723 38.6277 284.695 37.1317 281.923C35.6427 279.137 33.544 276.868 30.871 275.081C28.1838 273.28 24.7237 272.394 20.4979 272.394C16.258 272.394 12.7979 273.28 10.1178 275.081C7.43059 276.868 5.34605 279.137 3.85001 281.923C2.35396 284.695 1.33297 287.73 0.794106 291.048ZM15.9956 236.9H26.5885V182.503H18.7112C18.3709 184.162 17.6547 185.566 16.5558 186.701C15.4568 187.835 14.1167 188.771 12.5639 189.509C11.0183 190.232 9.28115 190.749 7.35969 191.061C5.44532 191.373 3.46714 191.522 1.43223 191.522V198.506H15.9956V236.9ZM31.3319 28.2902C31.3319 31.1334 31.1617 33.8347 30.8214 36.3731C30.481 38.9114 29.8996 41.1235 29.0913 43.0166C28.2689 44.9026 27.1557 46.4058 25.7376 47.5189C24.3267 48.6321 22.5754 49.1922 20.4979 49.1922C18.3496 49.1922 16.577 48.6321 15.1944 47.5189C13.8118 46.4058 12.7128 44.9026 11.8904 43.0166C11.075 41.1235 10.4936 38.9114 10.1603 36.3731C9.82 33.8347 9.64985 31.1334 9.64985 28.2902C9.64985 25.4399 9.82 22.7597 10.1603 20.2498C10.4936 17.7327 11.075 15.5206 11.8904 13.6062C12.7128 11.6918 13.8118 10.1745 15.1944 9.05427C16.577 7.9411 18.3496 7.38805 20.4979 7.38805C22.5754 7.38805 24.3267 7.9411 25.7376 9.05427C27.1557 10.1745 28.2689 11.6918 29.0913 13.6062C29.8996 15.5206 30.481 17.7327 30.8214 20.2498C31.1617 22.7597 31.3319 25.4399 31.3319 28.2902ZM40.1805 37.9258C40.7194 34.6076 40.9888 31.3957 40.9888 28.2902C40.9888 25.1775 40.7194 21.9656 40.1805 18.6545C39.6417 15.3362 38.6277 12.3016 37.1317 9.52221C35.6427 6.74992 33.544 4.47397 30.871 2.68722C28.1838 0.893385 24.7237 0.00708637 20.4979 0.00708637C16.258 0.00708637 12.7979 0.893385 10.1178 2.68722C7.43059 4.47397 5.34605 6.74992 3.85001 9.52221C2.35396 12.3016 1.33297 15.3362 0.794106 18.6545C0.262336 21.9656 0 25.1775 0 28.2902C0 31.3957 0.262336 34.6076 0.794106 37.9258C1.33297 41.237 2.35396 44.2858 3.85001 47.0581C5.34605 49.8304 7.43059 52.1063 10.1178 53.8931C12.7979 55.6798 16.258 56.5732 20.4979 56.5732C24.7237 56.5732 28.1838 55.6798 30.871 53.8931C33.544 52.1063 35.6427 49.8304 37.1317 47.0581C38.6277 44.2858 39.6417 41.237 40.1805 37.9258ZM31.3319 118.996C31.3319 121.846 31.1617 124.54 30.8214 127.086C30.481 129.617 29.8996 131.836 29.0913 133.729C28.2689 135.623 27.1557 137.126 25.7376 138.232C24.3267 139.352 22.5754 139.905 20.4979 139.905C18.3496 139.905 16.577 139.352 15.1944 138.232C13.8118 137.133 12.7128 135.623 11.8904 133.729C11.075 131.836 10.4936 129.624 10.1603 127.086C9.82 124.548 9.64985 121.853 9.64985 118.996C9.64985 116.153 9.82 113.458 10.1603 110.955C10.4936 108.446 11.075 106.233 11.8904 104.305C12.7128 102.39 13.8118 100.88 15.1944 99.76C16.577 98.6539 18.3496 98.0938 20.4979 98.0938C22.5754 98.0938 24.3267 98.6539 25.7376 99.76C27.1557 100.88 28.2689 102.39 29.0913 104.305C29.8996 106.233 30.481 108.446 30.8214 110.955C31.1617 113.458 31.3319 116.146 31.3319 118.996ZM40.1805 128.632C40.7194 125.313 40.9888 122.101 40.9888 118.996C40.9888 115.89 40.7194 112.678 40.1805 109.353C39.6417 106.049 38.6277 103 37.1317 100.235C35.6427 97.4627 33.544 95.1797 30.871 93.3929C28.1838 91.5991 24.7237 90.7057 20.4979 90.7057C16.258 90.7057 12.7979 91.5991 10.1178 93.3929C7.43059 95.1797 5.34605 97.4627 3.85001 100.235C2.35396 103 1.33297 106.049 0.794106 109.353C0.262336 112.678 0 115.883 0 118.996C0 122.108 0.262336 125.32 0.794106 128.632C1.33297 131.95 2.35396 134.984 3.85001 137.764C5.34605 140.529 7.43059 142.812 10.1178 144.599C12.7979 146.386 16.258 147.279 20.4979 147.279C24.7237 147.279 28.1838 146.386 30.871 144.599C33.544 142.812 35.6427 140.529 37.1317 137.764C38.6277 134.991 39.6417 131.95 40.1805 128.632ZM53.4747 186.701C52.3828 187.835 51.057 188.771 49.5042 189.509C47.9514 190.232 46.2072 190.749 44.2929 191.061C42.3714 191.373 40.3932 191.522 38.3583 191.522V198.506H52.9359V236.9H63.5146V182.503H55.6373C55.304 184.162 54.5808 185.559 53.4747 186.701ZM81.8145 28.2902C81.8145 31.1334 81.6443 33.8347 81.2969 36.3731C80.9637 38.9114 80.3894 41.1235 79.5669 43.0166C78.7444 44.9026 77.6313 46.4058 76.2203 47.5189C74.8093 48.6321 73.0581 49.1922 70.9735 49.1922C68.8252 49.1922 67.0597 48.6321 65.6771 47.5189C64.2945 46.4058 63.1884 44.9026 62.373 43.0166C61.5576 41.1235 60.9763 38.9114 60.6359 36.3731C60.3027 33.8347 60.1254 31.1334 60.1254 28.2902C60.1254 25.4399 60.3027 22.7597 60.6359 20.2498C60.9763 17.7327 61.5576 15.5206 62.373 13.6062C63.1884 11.6918 64.2945 10.1745 65.6771 9.05427C67.0597 7.9411 68.8252 7.38805 70.9735 7.38805C73.0581 7.38805 74.8093 7.9411 76.2203 9.05427C77.6313 10.1745 78.7444 11.6918 79.5669 13.6062C80.3894 15.5206 80.9637 17.7327 81.2969 20.2498C81.6443 22.7597 81.8145 25.4399 81.8145 28.2902ZM90.6632 37.9258C91.202 34.6076 91.4715 31.3957 91.4715 28.2902C91.4715 25.1775 91.202 21.9656 90.6632 18.6545C90.1243 15.3362 89.1104 12.3016 87.6073 9.52221C86.1183 6.74992 84.0267 4.47397 81.3466 2.68722C78.6593 0.893385 75.2064 0.00708637 70.9735 0.00708637C66.7335 0.00708637 63.2735 0.893385 60.5934 2.68722C57.9133 4.47397 55.8216 6.74992 54.3256 9.52221C52.8295 12.3016 51.8156 15.3362 51.2768 18.6545C50.745 21.9656 50.4756 25.1775 50.4756 28.2902C50.4756 31.3957 50.745 34.6076 51.2768 37.9258C51.8156 41.237 52.8295 44.2858 54.3256 47.0581C55.8216 49.8304 57.9133 52.1063 60.5934 53.8931C63.2735 55.6798 66.7335 56.5732 70.9735 56.5732C75.2064 56.5732 78.6593 55.6798 81.3466 53.8931C84.0267 52.1063 86.1183 49.8304 87.6073 47.0581C89.1104 44.2858 90.1243 41.237 90.6632 37.9258ZM81.8145 118.996C81.8145 121.846 81.6443 124.54 81.2969 127.086C80.9637 129.617 80.3894 131.836 79.5669 133.729C78.7444 135.623 77.6313 137.126 76.2203 138.232C74.8093 139.352 73.0581 139.905 70.9735 139.905C68.8252 139.905 67.0597 139.352 65.6771 138.232C64.2945 137.133 63.1884 135.623 62.373 133.729C61.5576 131.836 60.9763 129.624 60.6359 127.086C60.3027 124.548 60.1254 121.853 60.1254 118.996C60.1254 116.153 60.3027 113.458 60.6359 110.955C60.9763 108.446 61.5576 106.233 62.373 104.305C63.1884 102.39 64.2945 100.88 65.6771 99.76C67.0597 98.6539 68.8252 98.0938 70.9735 98.0938C73.0581 98.0938 74.8093 98.6539 76.2203 99.76C77.6313 100.88 78.7444 102.39 79.5669 104.305C80.3894 106.233 80.9637 108.446 81.2969 110.955C81.6443 113.458 81.8145 116.146 81.8145 118.996ZM90.6632 128.632C91.202 125.313 91.4715 122.101 91.4715 118.996C91.4715 115.89 91.202 112.678 90.6632 109.353C90.1243 106.049 89.1104 103 87.6073 100.235C86.1183 97.4627 84.0267 95.1797 81.3466 93.3929C78.6593 91.5991 75.2064 90.7057 70.9735 90.7057C66.7335 90.7057 63.2735 91.5991 60.5934 93.3929C57.9133 95.1797 55.8216 97.4627 54.3256 100.235C52.8295 103 51.8156 106.049 51.2768 109.353C50.745 112.678 50.4756 115.883 50.4756 118.996C50.4756 122.108 50.745 125.32 51.2768 128.632C51.8156 131.95 52.8295 134.984 54.3256 137.764C55.8216 140.529 57.9133 142.812 60.5934 144.599C63.2735 146.386 66.7335 147.279 70.9735 147.279C75.2064 147.279 78.6593 146.386 81.3466 144.599C84.0267 142.812 86.1183 140.529 87.6073 137.764C89.1104 134.991 90.1243 131.95 90.6632 128.632ZM89.862 236.9H100.441V182.503H92.5563C92.223 184.162 91.4998 185.566 90.4008 186.701C89.3018 187.835 87.976 188.771 86.4232 189.509C84.8704 190.232 83.1262 190.749 81.2119 191.061C79.2904 191.373 77.3193 191.522 75.2773 191.522V198.506H89.862V236.9ZM132.283 28.2902C132.283 31.1334 132.12 33.8347 131.78 36.3731C131.439 38.9114 130.858 41.1235 130.042 43.0166C129.22 44.9026 128.107 46.4058 126.689 47.5189C125.285 48.6321 123.527 49.1922 121.442 49.1922C119.294 49.1922 117.528 48.6321 116.153 47.5189C114.77 46.4058 113.664 44.9026 112.849 43.0166C112.026 41.1235 111.452 38.9114 111.111 36.3731C110.771 33.8347 110.601 31.1334 110.601 28.2902C110.601 25.4399 110.771 22.7597 111.111 20.2498C111.452 17.7327 112.026 15.5206 112.849 13.6062C113.664 11.6918 114.77 10.1745 116.153 9.05427C117.528 7.9411 119.294 7.38805 121.442 7.38805C123.527 7.38805 125.285 7.9411 126.689 9.05427C128.107 10.1745 129.22 11.6918 130.042 13.6062C130.858 15.5206 131.439 17.7327 131.78 20.2498C132.127 22.7597 132.283 25.4399 132.283 28.2902ZM141.139 37.9258C141.678 34.6076 141.947 31.3957 141.947 28.2902C141.947 25.1775 141.678 21.9656 141.139 18.6545C140.607 15.3362 139.586 12.3016 138.097 9.52221C136.601 6.74992 134.502 4.47397 131.829 2.68722C129.142 0.893385 125.682 0.00708637 121.449 0.00708637C117.209 0.00708637 113.749 0.893385 111.076 2.68722C108.389 4.47397 106.304 6.74992 104.808 9.52221C103.305 12.3016 102.291 15.3362 101.752 18.6545C101.221 21.9656 100.958 25.1775 100.958 28.2902C100.958 31.3957 101.221 34.6076 101.752 37.9258C102.291 41.237 103.305 44.2858 104.808 47.0581C106.304 49.8304 108.389 52.1063 111.076 53.8931C113.749 55.6798 117.209 56.5732 121.449 56.5732C125.682 56.5732 129.142 55.6798 131.829 53.8931C134.502 52.1063 136.601 49.8304 138.097 47.0581C139.586 44.2858 140.607 41.237 141.139 37.9258ZM106.63 100.348C104.709 100.66 102.731 100.809 100.703 100.809V107.807H115.266V146.187H125.852V91.8047H117.982C117.642 93.4567 116.918 94.8535 115.819 95.9951C114.713 97.1366 113.387 98.0725 111.835 98.7886C110.275 99.5189 108.545 100.037 106.63 100.348ZM164.047 55.4884H174.626V1.0919H166.756C166.416 2.75102 165.692 4.15488 164.6 5.28932C163.494 6.43086 162.168 7.35969 160.616 8.08289C159.063 8.81319 157.326 9.33079 155.411 9.63567C153.483 9.94765 151.512 10.1107 149.477 10.1107V17.1017H164.047V55.4884ZM240.743 288.389C240.743 295.267 246.337 300.868 253.215 300.868C260.099 300.868 265.686 295.267 265.686 288.389C265.686 281.505 260.099 275.918 253.215 275.918C246.33 275.925 240.743 281.512 240.743 288.389ZM209.29 288.389C209.29 281.505 203.703 275.918 196.819 275.918C189.941 275.918 184.347 281.505 184.347 288.389C184.347 295.267 189.941 300.868 196.819 300.868C203.703 300.868 209.29 295.267 209.29 288.389ZM237.098 207.099C237.098 200.229 231.504 194.628 224.627 194.628C217.742 194.628 212.148 200.229 212.148 207.099C212.148 213.984 217.742 219.578 224.627 219.578C231.504 219.571 237.098 213.977 237.098 207.099ZM265.679 123.193C265.679 116.323 260.092 110.722 253.207 110.722C246.33 110.722 240.736 116.323 240.736 123.193C240.736 130.078 246.33 135.679 253.207 135.679C260.099 135.672 265.679 130.071 265.679 123.193ZM295.962 207.099C295.962 200.229 290.367 194.628 283.49 194.628C276.612 194.628 271.018 200.229 271.018 207.099C271.018 213.984 276.612 219.578 283.49 219.578C290.367 219.578 295.962 213.977 295.962 207.099ZM303.74 207.099C303.74 218.267 294.657 227.342 283.497 227.342C272.337 227.342 263.261 218.267 263.261 207.099C263.261 200.123 266.814 193.961 272.202 190.317L256.285 143.188C255.285 143.337 254.264 143.45 253.215 143.45C252.661 143.45 252.108 143.401 251.562 143.358L235.751 190.21C241.239 193.841 244.862 200.059 244.862 207.099C244.862 213.927 241.466 219.954 236.283 223.62L251.35 268.246C251.967 268.189 252.591 268.154 253.215 268.154C264.375 268.154 273.457 277.229 273.457 288.389C273.457 299.549 264.375 308.632 253.215 308.632C242.054 308.632 232.979 299.549 232.979 288.389C232.979 281.306 236.645 275.06 242.182 271.444L227.229 227.151C226.378 227.264 225.513 227.335 224.627 227.335C224.159 227.335 223.698 227.3 223.244 227.264L208.248 271.692C213.566 275.343 217.061 281.462 217.061 288.382C217.061 299.542 207.979 308.625 196.819 308.625C185.659 308.625 176.583 299.542 176.583 288.382C176.583 277.222 185.659 268.147 196.819 268.147C197.606 268.147 198.386 268.196 199.144 268.296L213.991 224.293C208.241 220.727 204.384 214.367 204.384 207.092C204.384 195.939 213.467 186.857 224.627 186.857C225.293 186.857 225.945 186.892 226.598 186.963L242.359 140.252C236.723 136.658 232.979 130.362 232.979 123.193C232.979 112.033 242.054 102.958 253.215 102.958C264.375 102.958 273.457 112.04 273.457 123.193C273.457 129.844 270.231 135.729 265.268 139.423L281.327 186.984C282.036 186.899 282.76 186.857 283.497 186.857C294.657 186.857 303.74 195.939 303.74 207.099ZM169.216 118.996C169.216 121.846 169.053 124.54 168.713 127.086C168.372 129.617 167.791 131.836 166.976 133.729C166.16 135.623 165.04 137.126 163.636 138.232C162.218 139.352 160.467 139.905 158.375 139.905C156.234 139.905 154.468 139.352 153.086 138.232C151.703 137.133 150.597 135.623 149.782 133.729C148.959 131.836 148.378 129.624 148.045 127.086C147.704 124.548 147.541 121.853 147.541 118.996C147.541 116.153 147.704 113.458 148.045 110.955C148.378 108.446 148.959 106.233 149.782 104.305C150.597 102.39 151.703 100.88 153.086 99.76C154.468 98.6539 156.234 98.0938 158.375 98.0938C160.467 98.0938 162.218 98.6539 163.636 99.76C165.04 100.88 166.16 102.39 166.976 104.305C167.791 106.233 168.372 108.446 168.713 110.955C169.053 113.458 169.216 116.146 169.216 118.996ZM143.805 209.702C143.805 212.552 143.635 215.239 143.294 217.784C142.954 220.316 142.372 222.542 141.564 224.428C140.742 226.321 139.621 227.824 138.21 228.937C136.807 230.051 135.048 230.611 132.957 230.611C130.822 230.611 129.05 230.051 127.667 228.937C126.285 227.831 125.186 226.321 124.363 224.428C123.541 222.542 122.973 220.323 122.633 217.784C122.286 215.246 122.123 212.559 122.123 209.702C122.123 206.858 122.286 204.178 122.633 201.654C122.973 199.144 123.541 196.932 124.363 195.003C125.186 193.089 126.285 191.579 127.667 190.466C129.05 189.345 130.822 188.785 132.957 188.785C135.048 188.785 136.807 189.345 138.21 190.466C139.621 191.572 140.742 193.089 141.564 195.003C142.372 196.925 142.954 199.137 143.294 201.654C143.642 204.171 143.805 206.851 143.805 209.702ZM118.663 301.967L112.579 320.21C111.267 321.075 109.736 321.586 107.9 321.586C105.751 321.586 103.986 321.026 102.603 319.906C101.221 318.799 100.122 317.296 99.3062 315.403C98.4837 313.51 97.9023 311.298 97.562 308.76C97.2288 306.221 97.0515 303.52 97.0515 300.67C97.0515 297.819 97.2288 295.139 97.562 292.629C97.9023 290.119 98.4837 287.9 99.3062 285.979C100.122 284.064 101.221 282.554 102.603 281.427C103.986 280.321 105.751 279.76 107.9 279.76C109.984 279.76 111.735 280.321 113.146 281.427C114.557 282.547 115.671 284.064 116.493 285.979C117.315 287.9 117.897 290.112 118.237 292.629C118.57 295.139 118.741 297.819 118.741 300.67C118.741 301.138 118.67 301.52 118.663 301.967ZM328.974 328.967V0H219.316L211.573 23.2419V1.0919H203.689C203.356 2.75102 202.633 4.15488 201.534 5.28932C200.428 6.43086 199.102 7.35969 197.549 8.08289C195.996 8.81319 194.266 9.33079 192.345 9.63567C190.423 9.94765 188.445 10.1107 186.417 10.1107V17.1017H200.981V55.0062L178.618 122.101C178.668 121.073 178.873 119.996 178.873 118.996C178.873 115.89 178.604 112.678 178.065 109.353C177.533 106.049 176.512 103 175.023 100.235C173.527 97.4627 171.435 95.1797 168.755 93.3929C166.068 91.5991 162.608 90.7057 158.375 90.7057C154.149 90.7057 150.689 91.5991 148.002 93.3929C145.322 95.1797 143.23 97.4627 141.734 100.235C140.238 103 139.217 106.049 138.678 109.353C138.147 112.678 137.884 115.883 137.884 118.996C137.884 122.108 138.147 125.32 138.678 128.632C139.217 131.95 140.238 134.984 141.734 137.764C143.23 140.529 145.322 142.812 148.002 144.599C150.689 146.386 154.149 147.279 158.375 147.279C162.608 147.279 166.068 146.386 168.755 144.599C169.989 143.776 171.067 142.819 172.052 141.784L152.646 200.016C152.107 196.726 151.101 193.692 149.612 190.941C148.116 188.161 146.024 185.885 143.344 184.106C140.664 182.319 137.204 181.419 132.964 181.419C128.731 181.419 125.278 182.319 122.591 184.106C119.911 185.885 117.819 188.161 116.33 190.941C114.827 193.713 113.813 196.755 113.274 200.073C112.742 203.391 112.473 206.603 112.473 209.702C112.473 212.814 112.742 216.026 113.274 219.337C113.813 222.656 114.827 225.69 116.33 228.462C117.819 231.235 119.911 233.518 122.591 235.305C125.278 237.091 128.731 237.978 132.964 237.978C135.885 237.978 138.281 237.41 140.458 236.56L124.945 283.121C124.76 282.731 124.739 282.285 124.548 281.923C123.044 279.137 120.953 276.868 118.273 275.081C115.593 273.28 112.132 272.394 107.9 272.394C103.66 272.394 100.2 273.28 97.5265 275.081C94.8393 276.868 92.7548 279.137 91.2588 281.923C89.7556 284.695 88.7417 287.723 88.2029 291.048C87.6711 294.359 87.4016 297.571 87.4016 300.677C87.4016 303.782 87.6711 307.001 88.2029 310.312C88.7417 313.624 89.7556 316.665 91.2588 319.445C92.7548 322.217 94.8393 324.493 97.5265 326.287C100.2 328.066 103.66 328.96 107.9 328.96C108.573 328.96 109.098 328.79 109.729 328.747L109.658 328.96L328.974 328.967Z" fill="#00549F"/>
</svg>
