<svg width="50" height="50" viewBox="0 0 50 50" fill="none" xmlns="http://www.w3.org/2000/svg">
<path d="M25 2.58682e-07C24.7242 -0.000136656 24.4512 0.0540772 24.1964 0.159543C23.9416 0.265008 23.7101 0.419657 23.5151 0.614649C23.3201 0.80964 23.1654 1.04115 23.06 1.29595C22.9545 1.55074 22.9003 1.82382 22.9004 2.09958C22.9004 3.25917 23.8392 4.20333 25 4.20333C26.1621 4.20333 27.0996 3.25917 27.0996 2.09958C27.0996 0.939583 26.1621 2.58682e-07 25 2.58682e-07ZM18.1031 1.12708C17.8226 1.10369 17.5403 1.13699 17.2729 1.225C16.1729 1.58042 15.5658 2.76833 15.926 3.86979C16.2842 4.97479 17.4717 5.58083 18.571 5.22083C19.6756 4.86167 20.281 3.67438 19.9219 2.57188C19.6552 1.74146 18.9198 1.19542 18.1031 1.12729V1.12708ZM31.8969 1.12708C31.0808 1.19604 30.3446 1.74125 30.0781 2.57167C29.719 3.67417 30.324 4.86146 31.429 5.22063C32.5325 5.58063 33.7173 4.97458 34.0779 3.86958C34.4342 2.76813 33.8269 1.585 32.7229 1.22479C32.457 1.13689 32.176 1.10366 31.8969 1.12708V1.12708ZM22.0583 4.14625C21.9385 4.14093 21.8184 4.14777 21.7 4.16667C20.7317 4.32146 20.0719 5.225 20.2271 6.19313C20.2633 6.42332 20.3447 6.6441 20.4664 6.8428C20.5881 7.04151 20.7479 7.21423 20.9365 7.35106C21.1252 7.4879 21.3389 7.58616 21.5656 7.64021C21.7923 7.69426 22.0274 7.70304 22.2575 7.66604C23.2238 7.51396 23.8812 6.60375 23.7304 5.63958C23.6654 5.23655 23.4637 4.86815 23.1592 4.59623C22.8547 4.32431 22.4659 4.16543 22.0581 4.14625H22.0583ZM27.9421 4.14625C27.5345 4.16481 27.1459 4.32358 26.8419 4.59569C26.5379 4.8678 26.3372 5.23655 26.2737 5.63958C26.1185 6.60625 26.7779 7.51417 27.7427 7.66604C28.7083 7.81896 29.6173 7.16292 29.7731 6.19729C29.9225 5.22646 29.2673 4.32146 28.3002 4.16667C28.1818 4.14781 28.0618 4.14097 27.9421 4.14625V4.14625ZM11.4667 4.37417C11.0489 4.38804 10.645 4.52695 10.3071 4.77292C9.37062 5.45417 9.15667 6.77 9.83917 7.71083C10.5221 8.64875 11.8392 8.85833 12.7769 8.17458C13.7156 7.49542 13.9244 6.17667 13.2408 5.23688C12.8144 4.65021 12.1412 4.35125 11.4667 4.37438V4.37417ZM38.5337 4.37417C37.8594 4.35125 37.1854 4.65021 36.7596 5.23667C36.0754 6.17583 36.285 7.49333 37.2235 8.17458C38.1621 8.85583 39.4771 8.64979 40.1612 7.71083C40.8425 6.77 40.6348 5.45438 39.6975 4.77292C39.358 4.52698 38.9527 4.38813 38.5337 4.37417V4.37417ZM16.1012 6.01396C15.8655 6.0316 15.6358 6.09664 15.4258 6.20521C14.5537 6.64812 14.206 7.71687 14.6527 8.58958C14.7576 8.79727 14.9025 8.98214 15.0792 9.13355C15.2558 9.28496 15.4607 9.39991 15.6819 9.47178C15.9032 9.54364 16.1365 9.57101 16.3684 9.55229C16.6003 9.53357 16.8262 9.46914 17.0331 9.36271C17.9013 8.91896 18.2531 7.85229 17.8102 6.97833C17.6513 6.6677 17.4046 6.41064 17.1007 6.23917C16.7969 6.0677 16.4493 5.98938 16.1012 6.01396V6.01396ZM33.8992 6.01396C33.5511 5.9894 33.2035 6.06775 32.8996 6.23926C32.5958 6.41077 32.3491 6.66787 32.1902 6.97854C31.9772 7.39777 31.9394 7.88443 32.0851 8.33151C32.2308 8.7786 32.5482 9.14952 32.9673 9.36271C33.841 9.80958 34.9083 9.46417 35.3477 8.58979C35.7929 7.71687 35.4508 6.64812 34.5787 6.20521C34.3673 6.0966 34.1362 6.03157 33.8992 6.01396V6.01396ZM25 7.42188C24.806 7.42177 24.6139 7.4599 24.4346 7.53409C24.2554 7.60828 24.0925 7.71708 23.9553 7.85426C23.8181 7.99144 23.7093 8.15432 23.6351 8.33357C23.5609 8.51283 23.5228 8.70495 23.5229 8.89896C23.5229 9.71708 24.1829 10.376 25 10.376C25.194 10.3763 25.3862 10.3383 25.5655 10.2641C25.7449 10.19 25.9078 10.0812 26.045 9.94396C26.1822 9.80675 26.291 9.64382 26.3651 9.4645C26.4393 9.28519 26.4773 9.093 26.4771 8.89896C26.4771 8.70497 26.439 8.51287 26.3648 8.33364C26.2905 8.15441 26.1817 7.99155 26.0446 7.85438C25.9074 7.71721 25.7446 7.60841 25.5653 7.5342C25.3861 7.45999 25.194 7.42182 25 7.42188V7.42188ZM20.1498 8.21542C19.9532 8.19922 19.7553 8.22275 19.5679 8.28458C18.7921 8.53521 18.369 9.36729 18.6198 10.144C18.7408 10.5162 19.0047 10.8251 19.3533 11.0029C19.702 11.1807 20.107 11.2128 20.4794 11.0921C21.2525 10.84 21.6837 10.0071 21.4315 9.2325C21.341 8.95601 21.1713 8.71219 20.9435 8.53136C20.7156 8.35053 20.4396 8.24066 20.1498 8.21542V8.21542ZM29.8502 8.21542C29.2765 8.26458 28.7573 8.65083 28.5685 9.2325C28.3167 10.0071 28.745 10.8402 29.5206 11.0921C30.2969 11.3435 31.1298 10.9185 31.3802 10.1442C31.4402 9.95983 31.4632 9.76548 31.448 9.57223C31.4328 9.37898 31.3797 9.19062 31.2916 9.01792C31.2036 8.84522 31.0824 8.69156 30.9349 8.56573C30.7875 8.4399 30.6167 8.34437 30.4323 8.28458C30.2449 8.22267 30.0469 8.19914 29.8502 8.21542ZM6.55104 9.44C6.20641 9.42823 5.86415 9.50107 5.55418 9.65215C5.2442 9.80324 4.97597 10.028 4.77292 10.3067C4.09271 11.2429 4.30521 12.5592 5.24083 13.2406C6.17958 13.9237 7.49167 13.7156 8.17062 12.7767C8.85646 11.8381 8.65208 10.5225 7.71083 9.83896C7.37334 9.59204 6.96902 9.45304 6.55104 9.44021V9.44ZM43.4531 9.44C43.0339 9.45313 42.6283 9.59214 42.2892 9.83896C41.349 10.5225 41.1452 11.8381 41.8254 12.7767C42.5067 13.7158 43.8206 13.9212 44.7592 13.2406C45.7 12.5569 45.9092 11.2406 45.2229 10.3027C44.7981 9.71729 44.1271 9.41771 43.4529 9.44021L43.4531 9.44ZM11.3404 9.56208C11.1075 9.56215 10.8769 9.60819 10.6618 9.69756C10.4468 9.78694 10.2514 9.91789 10.0871 10.0829C9.39375 10.7754 9.39125 11.9006 10.0829 12.5935C10.4165 12.9252 10.8678 13.1113 11.3382 13.1113C11.8086 13.1113 12.2599 12.9252 12.5935 12.5935C13.2823 11.9006 13.2852 10.7748 12.5935 10.0831C12.4294 9.9179 12.2341 9.78682 12.019 9.69743C11.804 9.60804 11.5733 9.56211 11.3404 9.56229V9.56208ZM38.6637 9.56208C38.4302 9.56196 38.199 9.60789 37.9832 9.69727C37.7675 9.78664 37.5715 9.91769 37.4065 10.0829C36.7146 10.7742 36.7146 11.9006 37.4065 12.5935C38.1006 13.2842 39.224 13.2854 39.9169 12.5935C40.6117 11.9019 40.6117 10.776 39.9169 10.0831C39.7527 9.91794 39.5574 9.78688 39.3424 9.69749C39.1273 9.6081 38.8967 9.56215 38.6637 9.56229V9.56208ZM15.4867 10.4981C15.1921 10.508 14.9073 10.6057 14.6687 10.7787C14.0112 11.26 13.8629 12.1819 14.3433 12.8419C14.8233 13.504 15.746 13.645 16.4062 13.1673C16.5631 13.0537 16.6959 12.9102 16.7972 12.7451C16.8984 12.5801 16.9661 12.3967 16.9964 12.2054C17.0266 12.0141 17.0188 11.8188 16.9734 11.6305C16.928 11.4423 16.846 11.2648 16.7319 11.1083C16.5903 10.9122 16.4027 10.7539 16.1856 10.6475C15.9684 10.541 15.7284 10.4897 15.4867 10.4979V10.4981ZM34.5133 10.4981C34.2716 10.4899 34.0316 10.5413 33.8144 10.6477C33.5973 10.7542 33.4097 10.9124 33.2681 11.1085C32.7896 11.7694 32.9348 12.6908 33.5937 13.1673C33.7504 13.2819 33.9281 13.3644 34.1167 13.41C34.3054 13.4557 34.5012 13.4636 34.6929 13.4334C34.8846 13.4032 35.0684 13.3353 35.2338 13.2338C35.3992 13.1323 35.5429 12.9991 35.6567 12.8419C35.8147 12.6252 35.9107 12.3696 35.9343 12.1024C35.9579 11.8353 35.9083 11.5668 35.7907 11.3258C35.6731 11.0847 35.4921 10.8803 35.267 10.7345C35.0419 10.5887 34.7814 10.5069 34.5133 10.4981V10.4981ZM22.9573 10.5183C22.8742 10.5153 22.7911 10.5208 22.7092 10.5346C22.0398 10.6412 21.5769 11.2681 21.6837 11.9385C21.79 12.6094 22.4248 13.0692 23.0956 12.964C23.7669 12.8579 24.2221 12.2281 24.1171 11.556C24.0729 11.276 23.9334 11.0197 23.722 10.8307C23.5107 10.6416 23.2406 10.5314 22.9573 10.5185V10.5183ZM27.0427 10.5183C26.7599 10.5312 26.4902 10.6415 26.2796 10.8306C26.0689 11.0198 25.9302 11.276 25.8871 11.5558C25.7798 12.2256 26.236 12.8579 26.9044 12.964C27.5754 13.0702 28.2083 12.6094 28.3121 11.9385C28.4212 11.2658 27.9621 10.64 27.2908 10.5346C27.2089 10.5208 27.1258 10.5154 27.0427 10.5183V10.5183ZM18.8233 11.8162C18.6573 11.8291 18.4954 11.8748 18.3471 11.9506C18.057 12.0987 17.8375 12.3559 17.7369 12.6656C17.6362 12.9753 17.6625 13.3123 17.81 13.6027C17.9581 13.8939 18.2157 14.1144 18.5262 14.2159C18.8367 14.3173 19.1748 14.2915 19.4662 14.144C20.07 13.8321 20.3156 13.0894 20.0073 12.4835C19.8976 12.2681 19.7267 12.0898 19.5161 11.9711C19.3054 11.8525 19.0644 11.7986 18.8233 11.8165V11.8162ZM31.1808 11.8162C30.7029 11.7819 30.2262 12.0287 29.9967 12.4837C29.6835 13.0917 29.9258 13.8337 30.5298 14.14C30.8212 14.2889 31.1598 14.3159 31.4712 14.2152C31.7825 14.1144 32.0411 13.8941 32.19 13.6027C32.263 13.4587 32.3069 13.3017 32.3192 13.1407C32.3315 12.9798 32.312 12.8179 32.2617 12.6645C32.2115 12.5111 32.1315 12.3691 32.0263 12.2466C31.9211 12.1241 31.7928 12.0235 31.6487 11.9506C31.5034 11.875 31.3442 11.8293 31.1808 11.8165V11.8162ZM25 12.8908C24.7302 12.8909 24.4715 12.9982 24.2808 13.1889C24.09 13.3797 23.9828 13.6384 23.9827 13.9081C23.9827 14.4712 24.4381 14.9254 25 14.9254C25.5633 14.9254 26.0212 14.4712 26.0212 13.9081C26.0212 13.3471 25.5633 12.8908 25 12.8908ZM21.6594 13.436C21.5245 13.4254 21.3889 13.4421 21.2606 13.485C20.7244 13.6583 20.4304 14.2325 20.6054 14.7667C20.7777 15.3008 21.3542 15.5917 21.8873 15.4177C22.0145 15.3766 22.1323 15.3108 22.2341 15.2241C22.3358 15.1375 22.4195 15.0316 22.4803 14.9126C22.5412 14.7936 22.5779 14.6637 22.5886 14.5305C22.5992 14.3972 22.5835 14.2632 22.5423 14.136C22.4797 13.9458 22.3626 13.7782 22.2057 13.6537C22.0488 13.5293 21.8589 13.4536 21.6594 13.436ZM28.3406 13.436C28.1414 13.453 27.9517 13.5285 27.7953 13.6531C27.6389 13.7776 27.5228 13.9457 27.4617 14.136C27.3781 14.3923 27.3997 14.6713 27.5218 14.9117C27.6439 15.152 27.8564 15.334 28.1127 15.4177C28.6473 15.5894 29.2215 15.3008 29.3946 14.7667C29.5667 14.2325 29.2777 13.6571 28.7435 13.485C28.6139 13.4419 28.4769 13.4252 28.3406 13.436ZM12.0281 14.0585C11.7863 14.0499 11.5462 14.101 11.3289 14.2075C11.1117 14.314 10.9241 14.4725 10.7829 14.669C10.3021 15.3258 10.4504 16.2496 11.1083 16.7279C11.7687 17.2085 12.6927 17.0612 13.1715 16.4023C13.6498 15.7429 13.5027 14.821 12.8419 14.3394C12.6049 14.1662 12.3213 14.0684 12.0279 14.0585H12.0281ZM37.976 14.0585C37.6815 14.0686 37.3967 14.1664 37.1581 14.3394C37.0006 14.4528 36.867 14.5963 36.7651 14.7616C36.6632 14.9268 36.595 15.1106 36.5643 15.3023C36.5337 15.494 36.5413 15.6899 36.5866 15.8787C36.632 16.0674 36.7142 16.2454 36.8285 16.4023C37.3098 17.0612 38.2348 17.2104 38.8917 16.7319C39.5531 16.2498 39.7006 15.3258 39.2212 14.669C39.08 14.4725 38.8925 14.314 38.6752 14.2075C38.458 14.101 38.2178 14.0499 37.976 14.0585ZM15.511 14.2825C15.1843 14.2831 14.8711 14.4133 14.6402 14.6446C14.1585 15.1229 14.1608 15.9044 14.6402 16.3821C14.7543 16.4969 14.89 16.5879 15.0395 16.6501C15.1889 16.7122 15.3492 16.7442 15.511 16.7442C15.6729 16.7442 15.8332 16.7122 15.9826 16.6501C16.1321 16.5879 16.2677 16.4969 16.3819 16.3821C16.4965 16.268 16.5876 16.1325 16.6499 15.9832C16.7122 15.8339 16.7444 15.6739 16.7448 15.5121C16.7452 15.3504 16.7137 15.1901 16.6521 15.0406C16.5906 14.891 16.5002 14.755 16.386 14.6404C16.2709 14.5262 16.1343 14.4358 15.9842 14.3744C15.834 14.3129 15.6733 14.2817 15.511 14.2825V14.2825ZM34.489 14.2825C34.3271 14.2824 34.1668 14.3143 34.0173 14.3765C33.8679 14.4386 33.7322 14.5297 33.6181 14.6446C33.5033 14.7582 33.4121 14.8935 33.3499 15.0427C33.2877 15.1918 33.2556 15.3518 33.2556 15.5133C33.2556 15.6749 33.2877 15.8349 33.3499 15.984C33.4121 16.1331 33.5033 16.2684 33.6181 16.3821C33.7321 16.4964 33.8675 16.5871 34.0165 16.6491C34.1656 16.711 34.3255 16.7428 34.4869 16.7428C34.6483 16.7428 34.8081 16.711 34.9572 16.6491C35.1063 16.5871 35.2417 16.4964 35.3556 16.3821C35.835 15.9025 35.8379 15.1252 35.3598 14.6446C35.2457 14.5297 35.1101 14.4386 34.9606 14.3764C34.8111 14.3143 34.6508 14.2824 34.489 14.2825ZM7.91417 14.4575C7.56579 14.4339 7.21815 14.513 6.91436 14.6852C6.61056 14.8573 6.36398 15.1148 6.20521 15.4258C6.09968 15.6331 6.03607 15.8592 6.01802 16.0911C5.99997 16.3229 6.02783 16.5561 6.10001 16.7772C6.17219 16.9983 6.28727 17.203 6.43866 17.3796C6.59006 17.5562 6.77479 17.7012 6.98229 17.8062C7.85521 18.254 8.92312 17.9021 9.36687 17.0331C9.81187 16.161 9.46146 15.095 8.58979 14.6485C8.37974 14.54 8.14994 14.4751 7.91417 14.4575V14.4575ZM42.0898 14.4575C41.8528 14.4752 41.6218 14.5402 41.4104 14.6487C40.5369 15.0921 40.1908 16.1592 40.6333 17.0331C41.0771 17.9044 42.1477 18.2508 43.0175 17.806C43.8915 17.3596 44.2398 16.2956 43.7946 15.4258C43.6366 15.1151 43.3907 14.8577 43.0876 14.6856C42.7846 14.5134 42.4376 14.4341 42.0898 14.4575V14.4575ZM18.4448 15.0104C18.2427 15.0163 18.047 15.083 17.8833 15.2017C17.4287 15.5308 17.3287 16.1719 17.6596 16.6258C17.9896 17.0779 18.6252 17.1808 19.0796 16.8496C19.2971 16.6906 19.4427 16.4519 19.4846 16.1858C19.5266 15.9197 19.4614 15.6478 19.3033 15.4296C19.206 15.2943 19.0767 15.1852 18.9269 15.112C18.7771 15.0389 18.6116 15.004 18.445 15.0104H18.4448ZM31.5552 15.0104C31.3886 15.004 31.223 15.0389 31.0732 15.112C30.9234 15.1852 30.794 15.2943 30.6967 15.4296C30.3633 15.8846 30.47 16.5206 30.9244 16.8496C31.0323 16.9282 31.1546 16.9849 31.2844 17.0162C31.4143 17.0475 31.549 17.0529 31.6809 17.0322C31.8128 17.0114 31.9393 16.9648 32.0532 16.8951C32.1671 16.8254 32.2661 16.7339 32.3446 16.6258C32.6775 16.1719 32.5712 15.5298 32.1167 15.2017C31.953 15.083 31.7573 15.0163 31.5552 15.0104V15.0104ZM23.6125 15.1527C23.5568 15.1497 23.501 15.1525 23.4458 15.161C22.9865 15.2337 22.6712 15.664 22.7458 16.1212C22.8162 16.5781 23.2458 16.8869 23.7062 16.8171C24.1633 16.7442 24.4725 16.3146 24.4019 15.8567C24.3394 15.4596 24.0019 15.17 23.6123 15.1527H23.6125ZM26.3875 15.1527C26.1949 15.1609 26.011 15.2355 25.8671 15.3639C25.7232 15.4922 25.6282 15.6664 25.5981 15.8569C25.5306 16.3102 25.8419 16.741 26.294 16.8171C26.7556 16.8869 27.1829 16.5775 27.2544 16.1171C27.3252 15.6633 27.0119 15.2354 26.5585 15.1608C26.502 15.1524 26.4448 15.1497 26.3877 15.1527H26.3875ZM3.04375 15.8283C2.22812 15.9 1.49375 16.446 1.22479 17.2727C0.866458 18.3781 1.47062 19.5642 2.57562 19.9217C3.67792 20.2821 4.86187 19.6787 5.22062 18.5748C5.57792 17.4698 4.97271 16.2844 3.86958 15.9219C3.60331 15.8355 3.32239 15.8036 3.04354 15.8281L3.04375 15.8283ZM46.9562 15.8283C46.6775 15.8038 46.3966 15.8356 46.1304 15.9219C45.0254 16.2831 44.4204 17.4698 44.7794 18.5748C45.1415 19.679 46.3229 20.2821 47.4244 19.9217C48.5317 19.5642 49.1348 18.3779 48.7752 17.2727C48.506 16.446 47.771 15.9 46.9565 15.8283H46.9562ZM20.8008 16.0358C20.6874 16.0437 20.5767 16.0741 20.4752 16.1254C20.0669 16.3346 19.901 16.8379 20.109 17.2483C20.1585 17.3467 20.2271 17.4343 20.3108 17.5061C20.3944 17.5778 20.4914 17.6323 20.5962 17.6663C20.701 17.7004 20.8115 17.7133 20.9213 17.7045C21.0311 17.6956 21.1381 17.665 21.236 17.6146C21.6471 17.4042 21.8131 16.9021 21.6023 16.4917C21.529 16.3447 21.4137 16.2229 21.271 16.1417C21.1282 16.0605 20.9646 16.0237 20.8008 16.0358V16.0358ZM29.1992 16.0358C29.0359 16.0238 28.8728 16.0603 28.7302 16.1406C28.5876 16.221 28.472 16.3416 28.3977 16.4875C28.3475 16.5855 28.3171 16.6924 28.3083 16.8022C28.2995 16.912 28.3125 17.0224 28.3465 17.1271C28.3805 17.2319 28.4349 17.3288 28.5065 17.4125C28.5781 17.4961 28.6655 17.5648 28.7637 17.6146C29.1752 17.8248 29.675 17.6604 29.8869 17.2483C29.9373 17.1504 29.9679 17.0434 29.9767 16.9336C29.9856 16.8238 29.9727 16.7133 29.9386 16.6085C29.9046 16.5037 29.8501 16.4067 29.7784 16.3231C29.7066 16.2394 29.619 16.1708 29.5206 16.1212C29.4203 16.0714 29.311 16.0423 29.1992 16.0358V16.0358ZM16.0644 17.464C15.7377 17.4527 15.4094 17.5975 15.206 17.8831C14.8748 18.3352 14.9773 18.9727 15.4298 19.3031C15.8842 19.6356 16.5183 19.529 16.8498 19.0754C17.1815 18.62 17.0775 17.9858 16.626 17.6552C16.4622 17.5367 16.2665 17.47 16.0644 17.464V17.464ZM33.9396 17.464C33.7362 17.47 33.5392 17.5366 33.374 17.6552C33.2659 17.7336 33.1744 17.8326 33.1046 17.9465C33.0349 18.0604 32.9883 18.1869 32.9675 18.3188C32.9467 18.4507 32.9521 18.5854 32.9835 18.7152C33.0148 18.845 33.0715 18.9673 33.1502 19.0752C33.4831 19.529 34.1169 19.6335 34.5702 19.3031C35.0258 18.9704 35.1269 18.3354 34.7942 17.8831C34.6976 17.7479 34.569 17.6388 34.4198 17.5656C34.2706 17.4924 34.1056 17.4575 33.9396 17.464V17.464ZM13.1348 17.6796C12.8927 17.6627 12.651 17.7173 12.4398 17.8367C12.2286 17.9561 12.0571 18.135 11.9467 18.351C11.8 18.642 11.7747 18.9792 11.8761 19.2888C11.9775 19.5984 12.1974 19.8553 12.4877 20.0031C12.631 20.0773 12.7877 20.1224 12.9485 20.1357C13.1093 20.149 13.2712 20.1304 13.4248 20.0808C13.5784 20.0312 13.7207 19.9517 13.8434 19.8469C13.9661 19.7421 14.0668 19.614 14.1398 19.47C14.449 18.8617 14.2077 18.1179 13.6027 17.8098C13.4571 17.7354 13.2979 17.6911 13.1348 17.6796V17.6796ZM36.8694 17.6796C36.7049 17.6909 36.5443 17.7352 36.3973 17.8098C35.7904 18.1165 35.5529 18.8615 35.8602 19.47C35.9334 19.6138 36.0342 19.7417 36.1568 19.8465C36.2795 19.9513 36.4216 20.0309 36.575 20.0808C36.7284 20.1307 36.8901 20.1498 37.051 20.1372C37.2118 20.1245 37.3686 20.0803 37.5123 20.0071C37.6565 19.9338 37.7849 19.8328 37.89 19.7099C37.9951 19.5869 38.0749 19.4444 38.1248 19.2905C38.1747 19.1366 38.1937 18.9744 38.1808 18.8131C38.1678 18.6519 38.1232 18.4948 38.0494 18.3508C37.9411 18.1348 37.7712 17.9558 37.5611 17.8363C37.3511 17.7168 37.1104 17.6623 36.8694 17.6796V17.6796ZM18.5506 17.7083C18.3264 17.7092 18.1115 17.7984 17.9525 17.9565C17.7962 18.1141 17.7089 18.3274 17.7097 18.5494C17.7104 18.7714 17.7993 18.984 17.9567 19.1406C18.1138 19.2973 18.3267 19.3854 18.5486 19.3854C18.7706 19.3854 18.9835 19.2973 19.1406 19.1406C19.2975 18.9835 19.3855 18.7706 19.3855 18.5485C19.3855 18.3265 19.2975 18.1136 19.1406 17.9565C19.0635 17.8783 18.9717 17.8161 18.8704 17.7735C18.7691 17.7309 18.6605 17.7088 18.5506 17.7083V17.7083ZM31.4535 17.7125C31.3433 17.7119 31.234 17.7331 31.132 17.775C31.03 17.8169 30.9374 17.8785 30.8594 17.9565C30.7812 18.0341 30.7193 18.1265 30.6772 18.2283C30.635 18.3301 30.6135 18.4392 30.6139 18.5494C30.6143 18.6596 30.6366 18.7686 30.6794 18.8701C30.7223 18.9715 30.7849 19.0635 30.8635 19.1406C30.9409 19.2183 31.0329 19.2799 31.1341 19.3219C31.2354 19.364 31.3439 19.3856 31.4535 19.3856C31.5632 19.3856 31.6717 19.364 31.773 19.3219C31.8742 19.2799 31.9662 19.2183 32.0435 19.1406C32.3721 18.8115 32.3702 18.2804 32.0435 17.9565C31.9661 17.8789 31.8741 17.8175 31.7729 17.7756C31.6716 17.7337 31.5631 17.7123 31.4535 17.7125V17.7125ZM9.56208 18.5546C8.98875 18.6033 8.47187 18.986 8.28458 19.5679C8.03104 20.3431 8.45687 21.1737 9.2325 21.4275C9.41659 21.4877 9.61075 21.5111 9.80388 21.4962C9.997 21.4814 10.1853 21.4286 10.358 21.3409C10.5307 21.2532 10.6845 21.1323 10.8104 20.9852C10.9364 20.838 11.0321 20.6675 11.0921 20.4833C11.3421 19.7062 10.9225 18.8721 10.1442 18.624C9.9568 18.5618 9.7588 18.5382 9.56208 18.5546V18.5546ZM40.4379 18.5546C40.2413 18.5383 40.0433 18.5619 39.856 18.624C39.0792 18.8721 38.6565 19.7062 38.9079 20.4833C39.1579 21.2579 39.9919 21.6798 40.7675 21.4275C41.5419 21.1737 41.9717 20.3431 41.7196 19.5679C41.6288 19.292 41.4588 19.0489 41.231 18.8688C41.0031 18.6887 40.7273 18.5795 40.4379 18.5548V18.5546ZM16.9312 20.0235C16.767 20.0117 16.6029 20.0487 16.4595 20.1298C16.3162 20.2109 16.1999 20.3325 16.1254 20.4794C16.0755 20.5771 16.0453 20.6837 16.0367 20.7931C16.0281 20.9026 16.0412 21.0126 16.0752 21.1169C16.1093 21.2213 16.1636 21.3179 16.235 21.4011C16.3065 21.4844 16.3937 21.5528 16.4917 21.6023C16.589 21.6531 16.6955 21.6841 16.8049 21.6933C16.9143 21.7026 17.0244 21.6901 17.1289 21.6564C17.2334 21.6227 17.3302 21.5685 17.4136 21.4971C17.4969 21.4256 17.5653 21.3383 17.6146 21.2402C17.6649 21.1422 17.6953 21.0353 17.7042 20.9255C17.713 20.8157 17.7 20.7053 17.666 20.6005C17.632 20.4958 17.5776 20.3988 17.5059 20.3151C17.4343 20.2315 17.3468 20.1628 17.2485 20.1131C17.1499 20.0621 17.042 20.0316 16.9312 20.0235ZM33.0687 20.0235C32.958 20.0315 32.85 20.062 32.7515 20.1131C32.6531 20.1628 32.5656 20.2314 32.4939 20.315C32.4222 20.3987 32.3678 20.4957 32.3337 20.6004C32.2997 20.7052 32.2867 20.8157 32.2955 20.9255C32.3044 21.0353 32.3348 21.1422 32.3852 21.2402C32.4872 21.4361 32.6622 21.5839 32.8724 21.6517C33.0825 21.7194 33.3109 21.7017 33.5081 21.6023C33.6068 21.5531 33.6948 21.4847 33.7668 21.4011C33.8388 21.3175 33.8935 21.2205 33.9276 21.1156C33.9617 21.0106 33.9746 20.9 33.9655 20.7901C33.9564 20.6801 33.9255 20.5731 33.8746 20.4752C33.7991 20.3294 33.6825 20.209 33.5393 20.1287C33.3961 20.0484 33.2325 20.0119 33.0687 20.0235V20.0235ZM5.835 20.2069C5.42709 20.2257 5.0381 20.3844 4.73349 20.6563C4.42888 20.9283 4.22724 21.2968 4.1625 21.7C4.09009 22.1645 4.20496 22.6388 4.48189 23.0187C4.75882 23.3987 5.17518 23.6532 5.63958 23.7265C5.86915 23.7636 6.1038 23.755 6.33004 23.7012C6.55628 23.6474 6.76967 23.5494 6.95796 23.4129C7.14625 23.2764 7.30572 23.1041 7.42724 22.9058C7.54875 22.7076 7.6299 22.4872 7.66604 22.2575C7.81917 21.2904 7.16417 20.381 6.19729 20.2271C6.07744 20.2082 5.956 20.2014 5.83479 20.2067L5.835 20.2069ZM44.165 20.2069C44.0452 20.2015 43.9253 20.2083 43.8069 20.2271C43.5767 20.2633 43.3558 20.3446 43.1571 20.4663C42.9584 20.588 42.7856 20.7478 42.6488 20.9364C42.5119 21.1251 42.4137 21.3389 42.3597 21.5656C42.3056 21.7923 42.2969 22.0274 42.334 22.2575C42.3701 22.4872 42.4513 22.7075 42.5728 22.9058C42.6943 23.104 42.8538 23.2763 43.0421 23.4128C43.2304 23.5493 43.4438 23.6472 43.67 23.701C43.8962 23.7548 44.1309 23.7634 44.3604 23.7262C44.5903 23.6901 44.8107 23.609 45.0092 23.4876C45.2077 23.3662 45.3803 23.2068 45.5171 23.0186C45.6539 22.8304 45.7523 22.6171 45.8065 22.3908C45.8608 22.1645 45.8699 21.9298 45.8333 21.7C45.6994 20.8552 44.9881 20.2446 44.165 20.2067V20.2069ZM14.3635 20.5567C14.1645 20.574 13.9749 20.6496 13.8186 20.7741C13.6623 20.8986 13.5462 21.0665 13.4848 21.2567C13.4433 21.3838 13.4273 21.5179 13.4378 21.6512C13.4483 21.7846 13.485 21.9145 13.5459 22.0336C13.6068 22.1527 13.6906 22.2586 13.7925 22.3452C13.8944 22.4319 14.0124 22.4975 14.1398 22.5383C14.6727 22.7133 15.25 22.4221 15.4215 21.8873C15.596 21.3544 15.301 20.7754 14.7665 20.6015C14.6365 20.5597 14.4995 20.5444 14.3635 20.5567V20.5567ZM35.6365 20.5567C35.5005 20.5445 35.3635 20.5597 35.2335 20.6015C34.7012 20.7754 34.4062 21.3544 34.5785 21.8873C34.6629 22.1439 34.8457 22.3566 35.0867 22.4787C35.3277 22.6008 35.6073 22.6222 35.8642 22.5383C36.3983 22.366 36.6865 21.7898 36.5112 21.2565C36.386 20.8565 36.0323 20.5915 35.6362 20.5565L35.6365 20.5567ZM11.6902 21.6675C11.4076 21.681 11.1383 21.7916 10.9277 21.9806C10.7172 22.1696 10.5783 22.4255 10.5346 22.705C10.4281 23.3779 10.8837 24.0104 11.5519 24.1171C12.2258 24.225 12.859 23.7652 12.964 23.0956C13.015 22.7724 12.9357 22.4422 12.7434 22.1775C12.5512 21.9128 12.2617 21.7352 11.9385 21.6837C11.8565 21.6699 11.7733 21.6644 11.6902 21.6675V21.6675ZM38.3098 21.6675C38.2267 21.6645 38.1435 21.67 38.0615 21.6837C37.7383 21.735 37.4487 21.9126 37.2564 22.1773C37.0641 22.4421 36.9848 22.7724 37.036 23.0956C37.0612 23.2552 37.1177 23.4083 37.2021 23.546C37.2865 23.6838 37.3973 23.8035 37.5281 23.8984C37.6589 23.9933 37.8071 24.0615 37.9642 24.099C38.1214 24.1365 38.2844 24.1426 38.444 24.1171C39.1148 24.0104 39.5719 23.3779 39.4654 22.705C39.4214 22.4256 39.2825 22.1698 39.072 21.9808C38.8615 21.7919 38.5923 21.6812 38.3098 21.6675V21.6675ZM15.9504 22.7377C15.5644 22.7575 15.2271 23.0398 15.161 23.4375C15.1437 23.5466 15.148 23.658 15.1738 23.7653C15.1996 23.8727 15.2464 23.9739 15.3115 24.0632C15.3765 24.1524 15.4585 24.2279 15.5528 24.2854C15.6472 24.3428 15.7519 24.3811 15.861 24.3979C16.0789 24.4316 16.3012 24.3778 16.4796 24.2482C16.6579 24.1187 16.7778 23.9238 16.8131 23.7062C16.8311 23.5972 16.8274 23.4856 16.8021 23.378C16.7768 23.2704 16.7305 23.1689 16.6658 23.0792C16.6011 22.9896 16.5194 22.9136 16.4253 22.8557C16.3311 22.7978 16.2265 22.759 16.1173 22.7417C16.062 22.7346 16.0062 22.7332 15.9506 22.7375L15.9504 22.7377ZM34.0494 22.7377C33.9923 22.7348 33.9351 22.7375 33.8785 22.7458C33.6596 22.7818 33.4639 22.9031 33.3342 23.0831C33.2046 23.2631 33.1516 23.4872 33.1869 23.7062C33.2579 24.1612 33.6881 24.4679 34.1431 24.3979C34.3621 24.3631 34.5583 24.2429 34.6887 24.0636C34.8192 23.8844 34.8732 23.6607 34.839 23.4417C34.7762 23.04 34.4396 22.756 34.0494 22.7375V22.7377ZM2.09958 22.9002C0.939167 22.9004 0 23.841 0 25C0 26.1615 0.938125 27.0996 2.09958 27.0996C2.37537 27.0998 2.64851 27.0457 2.90335 26.9403C3.1582 26.8348 3.38975 26.6802 3.58476 26.4852C3.77978 26.2902 3.93442 26.0586 4.03985 25.8038C4.14527 25.5489 4.19941 25.2758 4.19917 25C4.19917 23.8408 3.26042 22.9004 2.09958 22.9004V22.9002ZM47.9004 22.9002C46.7379 22.9002 45.7967 23.8396 45.7967 25C45.7967 26.1602 46.7379 27.0996 47.9004 27.0996C49.0554 27.0996 50 26.1615 50 25C50 23.8408 49.0554 22.9004 47.9004 22.9004V22.9002ZM8.89896 23.5231C8.70497 23.523 8.51286 23.5611 8.33362 23.6353C8.15438 23.7095 7.99151 23.8183 7.85433 23.9554C7.71715 24.0926 7.60835 24.2554 7.53415 24.4347C7.45994 24.6139 7.42179 24.806 7.42187 25C7.42396 25.8175 8.08229 26.4771 8.89896 26.4771C9.09296 26.4772 9.28509 26.4391 9.46434 26.3649C9.6436 26.2907 9.80648 26.1819 9.94366 26.0447C10.0808 25.9075 10.1896 25.7446 10.2638 25.5654C10.338 25.3861 10.3762 25.194 10.376 25C10.376 24.6083 10.2204 24.2325 9.94341 23.9555C9.66641 23.6785 9.29071 23.5229 8.89896 23.5229V23.5231ZM41.101 23.5231C40.2877 23.5231 39.624 24.1837 39.624 25C39.624 25.8175 40.2877 26.4771 41.101 26.4771C41.2949 26.4773 41.4869 26.4392 41.6659 26.365C41.845 26.2908 42.0076 26.182 42.1445 26.0447C42.2814 25.9074 42.3898 25.7445 42.4635 25.5652C42.5372 25.3859 42.5747 25.1938 42.574 25C42.574 24.1837 41.9185 23.5229 41.101 23.5229V23.5231ZM13.9079 23.9787C13.3454 23.9787 12.8906 24.4398 12.8906 25C12.8906 25.5604 13.3454 26.0165 13.9079 26.0131C14.4683 26.0131 14.9252 25.5602 14.9252 25C14.9252 24.4396 14.4681 23.9787 13.9079 23.9787ZM36.0921 23.9787C35.53 23.9787 35.0748 24.4398 35.0748 25C35.0747 25.1334 35.101 25.2655 35.1521 25.3888C35.2033 25.512 35.2783 25.6239 35.3728 25.718C35.4674 25.8122 35.5796 25.8867 35.703 25.9374C35.8264 25.988 35.9587 26.0138 36.0921 26.0131C36.2254 26.0136 36.3576 25.9877 36.4809 25.937C36.6043 25.8863 36.7164 25.8117 36.8109 25.7176C36.9054 25.6235 36.9804 25.5117 37.0316 25.3885C37.0828 25.2654 37.1093 25.1334 37.1094 25C37.1094 24.4396 36.6552 23.9787 36.0921 23.9787ZM33.9721 25.59C33.5844 25.6054 33.2504 25.8962 33.1867 26.294C33.1142 26.7527 33.4217 27.1815 33.8785 27.2544C34.3342 27.3233 34.7644 27.0156 34.839 26.5585C34.8571 26.4499 34.8535 26.3388 34.8282 26.2316C34.803 26.1244 34.7566 26.0234 34.6918 25.9343C34.627 25.8453 34.5451 25.7701 34.4509 25.7131C34.3567 25.6561 34.2521 25.6184 34.1431 25.6023C34.0867 25.5924 34.0295 25.5883 33.9723 25.59H33.9721ZM16.0279 25.5942C15.9708 25.5912 15.9136 25.594 15.8571 25.6023C15.4027 25.6746 15.0862 26.1002 15.1612 26.5585C15.2342 27.0165 15.6627 27.324 16.1215 27.2544C16.3407 27.2185 16.5369 27.0975 16.6673 26.9175C16.7976 26.7376 16.8515 26.5135 16.8173 26.294C16.7535 25.894 16.4173 25.611 16.0277 25.594L16.0279 25.5942ZM11.8042 25.8708C11.7199 25.8664 11.6355 25.8705 11.5521 25.8829C10.8837 25.9879 10.4281 26.6181 10.5346 27.2908C10.5593 27.4504 10.6152 27.6036 10.6991 27.7415C10.7831 27.8795 10.8934 27.9995 11.0238 28.0948C11.1543 28.19 11.3022 28.2586 11.4591 28.2966C11.6161 28.3346 11.779 28.3413 11.9385 28.3162C12.0986 28.291 12.2522 28.2345 12.3904 28.1498C12.5286 28.0652 12.6488 27.9541 12.744 27.823C12.8393 27.6918 12.9077 27.5432 12.9455 27.3856C12.9832 27.2279 12.9895 27.0644 12.964 26.9044C12.8721 26.3177 12.3779 25.8965 11.8042 25.8708V25.8708ZM38.1958 25.8708C37.9126 25.8836 37.6424 25.9939 37.4311 26.1829C37.2197 26.372 37.0802 26.6282 37.036 26.9083C36.9292 27.5779 37.386 28.2104 38.0575 28.3162C38.7306 28.4233 39.3583 27.9619 39.4654 27.2908C39.5717 26.6179 39.1173 25.9879 38.444 25.8829C38.3619 25.8704 38.2787 25.8664 38.1958 25.8708V25.8708ZM5.99792 26.2492C5.87809 26.2439 5.75803 26.2507 5.63958 26.2696C4.67333 26.4227 4.01104 27.3331 4.1625 28.3C4.31667 29.2671 5.22708 29.9275 6.19313 29.7729C7.16396 29.6204 7.81979 28.7094 7.66604 27.7425C7.60265 27.3394 7.40197 26.9707 7.09797 26.6986C6.79396 26.4264 6.40529 26.2677 5.99771 26.2492H5.99792ZM44.0021 26.2492C43.1771 26.2865 42.4637 26.8956 42.33 27.7425C42.1785 28.7094 42.8387 29.6196 43.8071 29.7729C44.7729 29.9269 45.6785 29.2667 45.8333 28.3C45.9846 27.3317 45.3315 26.4227 44.3646 26.2696C44.2447 26.2507 44.1233 26.2439 44.0021 26.2492V26.2492ZM14.5427 27.4129C14.4068 27.4009 14.2698 27.4161 14.1398 27.4577C14.0123 27.499 13.8941 27.565 13.7922 27.652C13.6902 27.739 13.6064 27.8453 13.5455 27.9647C13.4847 28.0842 13.448 28.2145 13.4376 28.3481C13.4272 28.4817 13.4432 28.6161 13.4848 28.7435C13.6556 29.2781 14.2317 29.5681 14.7665 29.3946C15.301 29.2223 15.5935 28.6433 15.4215 28.1127C15.36 27.9226 15.2438 27.7549 15.0875 27.6304C14.9312 27.5059 14.7417 27.4303 14.5427 27.4129V27.4129ZM35.4615 27.4129C35.2618 27.43 35.0716 27.5055 34.9146 27.6299C34.7576 27.7544 34.6407 27.9224 34.5785 28.1129C34.4073 28.6433 34.7012 29.2223 35.2335 29.3946C35.7677 29.5681 36.3419 29.2779 36.5112 28.7435C36.6862 28.2077 36.3983 27.6317 35.8642 27.4577C35.7343 27.4161 35.5973 27.4009 35.4615 27.4129V27.4129ZM16.8131 28.304C16.7024 28.3122 16.5945 28.3426 16.4958 28.3935C16.397 28.4427 16.309 28.511 16.2369 28.5946C16.1648 28.6781 16.1101 28.7752 16.076 28.8802C16.0419 28.9851 16.0291 29.0958 16.0383 29.2058C16.0475 29.3158 16.0785 29.4228 16.1296 29.5206C16.1789 29.6183 16.247 29.7052 16.3299 29.7765C16.4129 29.8478 16.5091 29.902 16.613 29.936C16.717 29.97 16.8266 29.9832 16.9357 29.9748C17.0447 29.9663 17.1511 29.9365 17.2485 29.8869C17.3466 29.8375 17.4339 29.7692 17.5055 29.6859C17.577 29.6027 17.6314 29.5061 17.6655 29.4017C17.6995 29.2973 17.7126 29.1872 17.7039 29.0777C17.6952 28.9683 17.6649 28.8617 17.6148 28.764C17.4567 28.4552 17.1362 28.2819 16.8131 28.304ZM33.1908 28.304C33.0261 28.2924 32.8616 28.3295 32.7177 28.4105C32.5738 28.4915 32.4568 28.613 32.3812 28.7598C32.2812 28.958 32.2635 29.1877 32.3321 29.3988C32.4008 29.6099 32.5501 29.7854 32.7475 29.8869C33.1606 30.0973 33.6679 29.935 33.8788 29.5206C34.0881 29.1123 33.9196 28.6058 33.5083 28.3935C33.4097 28.3423 33.3017 28.3118 33.1908 28.304V28.304ZM9.81437 28.4994C9.61774 28.4831 9.41984 28.5066 9.2325 28.5685C8.45687 28.8223 8.03104 29.6546 8.28458 30.4321C8.34456 30.6162 8.44025 30.7868 8.56619 30.9339C8.69214 31.081 8.84585 31.2019 9.01855 31.2896C9.19125 31.3773 9.37954 31.43 9.57265 31.4449C9.76576 31.4597 9.9599 31.4363 10.144 31.376C10.9225 31.126 11.3419 30.2937 11.0921 29.5167C11.0022 29.2405 10.8332 28.9969 10.6061 28.816C10.3789 28.6352 10.1036 28.5251 9.81437 28.4994ZM40.1856 28.4994C39.896 28.5256 39.6204 28.6363 39.3932 28.8179C39.166 28.9995 38.9973 29.2439 38.9079 29.5206C38.6587 30.2956 39.0792 31.1258 39.8558 31.376C40.0399 31.4364 40.234 31.4598 40.4272 31.445C40.6203 31.4302 40.8086 31.3775 40.9814 31.2898C41.1541 31.2022 41.3078 31.0813 41.4338 30.9342C41.5597 30.787 41.6554 30.6165 41.7154 30.4323C41.9708 29.6546 41.5419 28.8223 40.7675 28.5685C40.5802 28.5066 40.3823 28.4831 40.1856 28.4994V28.4994ZM12.9556 29.8625C12.7924 29.8738 12.6333 29.9181 12.4877 29.9927C11.8821 30.301 11.6371 31.0431 11.9467 31.649C12.02 31.7931 12.121 31.9214 12.244 32.0264C12.3669 32.1315 12.5094 32.2112 12.6633 32.2611C12.8171 32.311 12.9793 32.33 13.1405 32.3171C13.3017 32.3042 13.4588 32.2596 13.6027 32.1858C13.7471 32.1133 13.8756 32.0129 13.9809 31.8903C14.0862 31.7678 14.1661 31.6255 14.2161 31.4719C14.266 31.3182 14.285 31.1562 14.2719 30.9952C14.2588 30.8341 14.2139 30.6773 14.1398 30.5337C14.0303 30.3179 13.8595 30.1391 13.649 30.0197C13.4384 29.9003 13.1973 29.8456 12.9558 29.8625H12.9556ZM37.0442 29.8625C36.8031 29.8454 36.5624 29.8996 36.3519 30.0182C36.1414 30.1369 35.9704 30.3148 35.8602 30.5298C35.7865 30.6738 35.7419 30.8309 35.729 30.9921C35.7162 31.1533 35.7352 31.3155 35.7851 31.4694C35.835 31.6232 35.9147 31.7657 36.0198 31.8887C36.1248 32.0117 36.2531 32.1127 36.3973 32.186C37.0029 32.4929 37.7462 32.2542 38.0535 31.6487C38.3635 31.0431 38.1196 30.301 37.5123 29.9925C37.3667 29.9178 37.2074 29.8736 37.0442 29.8625ZM3.40167 29.9804C3.12254 29.9567 2.8415 29.9899 2.57562 30.0781C1.47083 30.4348 0.86625 31.6219 1.22479 32.7271C1.58312 33.829 2.76854 34.4317 3.86958 34.074C4.97375 33.7135 5.57729 32.5302 5.22062 31.425C5.09294 31.0321 4.85235 30.6856 4.52888 30.4287C4.20542 30.1718 3.81343 30.0159 3.40187 29.9804H3.40167ZM46.5983 29.9804C46.1869 30.0163 45.7951 30.1724 45.4718 30.4293C45.1484 30.6861 44.9077 31.0324 44.7796 31.425C44.424 32.5302 45.0254 33.7135 46.1304 34.074C47.2329 34.4317 48.4162 33.829 48.7752 32.7271C49.1348 31.6217 48.5315 30.4348 47.4244 30.0781C47.1585 29.9899 46.8775 29.9567 46.5983 29.9804V29.9804ZM15.9912 30.5012C15.7887 30.5086 15.5931 30.5767 15.4298 30.6967C14.9767 31.0279 14.875 31.6631 15.2019 32.1167C15.2804 32.2252 15.3795 32.3172 15.4936 32.3874C15.6077 32.4576 15.7345 32.5046 15.8667 32.5258C15.999 32.5469 16.1341 32.5418 16.2644 32.5107C16.3947 32.4797 16.5176 32.4232 16.626 32.3446C17.0775 32.0142 17.185 31.3742 16.8537 30.9204C16.7548 30.7858 16.6246 30.6773 16.4743 30.6042C16.324 30.5312 16.1582 30.4959 15.9912 30.5012ZM34.0087 30.5012C33.8424 30.496 33.6772 30.5315 33.5277 30.6045C33.3781 30.6776 33.2486 30.786 33.1504 30.9204C32.9914 31.139 32.9257 31.4117 32.9676 31.6787C33.0095 31.9458 33.1556 32.1852 33.374 32.3446C33.8292 32.6748 34.4677 32.5737 34.7942 32.1167C34.8728 32.0088 34.9294 31.8864 34.9607 31.7566C34.992 31.6268 34.9974 31.4921 34.9766 31.3602C34.9558 31.2283 34.9092 31.1018 34.8395 30.988C34.7698 30.8741 34.6782 30.7751 34.5702 30.6967C34.4069 30.5766 34.2113 30.5085 34.0087 30.5012V30.5012ZM18.5506 30.6152C18.3365 30.6152 18.1206 30.6923 17.9565 30.8552C17.8786 30.9329 17.8169 31.0252 17.7747 31.1268C17.7326 31.2284 17.7109 31.3373 17.7109 31.4473C17.7109 31.5573 17.7326 31.6662 17.7747 31.7678C17.8169 31.8694 17.8786 31.9617 17.9565 32.0394C18.286 32.3669 18.8144 32.3673 19.1406 32.0435C19.2187 31.9656 19.2807 31.8729 19.323 31.771C19.3653 31.669 19.387 31.5597 19.387 31.4494C19.387 31.339 19.3653 31.2297 19.323 31.1278C19.2807 31.0258 19.2187 30.9332 19.1406 30.8552C19.063 30.7782 18.9709 30.7174 18.8696 30.6762C18.7684 30.635 18.6599 30.6143 18.5506 30.6152ZM31.4494 30.6152C31.3398 30.6148 31.2312 30.6362 31.1299 30.6781C31.0286 30.7201 30.9367 30.7817 30.8594 30.8594C30.5304 31.1854 30.5327 31.7181 30.8594 32.0435C31.1904 32.3696 31.7171 32.3696 32.0435 32.0435C32.1214 31.9658 32.1831 31.8735 32.2252 31.7719C32.2674 31.6703 32.2891 31.5614 32.2891 31.4515C32.2891 31.3415 32.2674 31.2326 32.2252 31.131C32.1831 31.0294 32.1214 30.9371 32.0435 30.8594C31.9654 30.7816 31.8727 30.72 31.7708 30.6782C31.6688 30.6363 31.5596 30.6149 31.4494 30.6152V30.6152ZM7.65771 32.0027C7.42234 32.0191 7.19269 32.0828 6.9825 32.19C6.11042 32.6348 5.76125 33.7008 6.20542 34.5744C6.64958 35.4465 7.71625 35.795 8.58958 35.3515C9.46146 34.9058 9.81187 33.8383 9.36667 32.9671C9.03417 32.314 8.34771 31.9552 7.65792 32.0027H7.65771ZM42.3421 32.0027C41.9941 31.9786 41.6466 32.0571 41.3429 32.2285C41.0391 32.4 40.7923 32.6569 40.6331 32.9673C40.1885 33.8383 40.5369 34.9058 41.4102 35.3517C42.2825 35.795 43.3485 35.4465 43.7948 34.5744C44.2406 33.7008 43.8904 32.6348 43.0177 32.19C42.8074 32.0826 42.5776 32.0189 42.3421 32.0027V32.0027ZM29.0812 32.2917C28.9692 32.2998 28.8599 32.3302 28.7598 32.3812C28.3535 32.5927 28.1885 33.0969 28.3977 33.5083C28.4469 33.6065 28.5152 33.694 28.5984 33.7656C28.6817 33.8373 28.7783 33.8917 28.8827 33.9258C28.9872 33.9598 29.0973 33.9728 29.2068 33.964C29.3163 33.9553 29.423 33.9249 29.5206 33.8746C29.9298 33.6627 30.0977 33.1594 29.8869 32.7475C29.8126 32.6005 29.6964 32.4788 29.553 32.3977C29.4097 32.3165 29.2455 32.2797 29.0812 32.2917V32.2917ZM20.9187 32.2958C20.5919 32.2735 20.27 32.4398 20.1131 32.7473C20.0629 32.8453 20.0325 32.9522 20.0237 33.062C20.0149 33.1718 20.0279 33.2822 20.062 33.387C20.096 33.4917 20.1504 33.5887 20.222 33.6723C20.2937 33.756 20.3811 33.8246 20.4794 33.8744C20.8915 34.0827 21.3933 33.9206 21.6023 33.5083C21.8154 33.0958 21.6498 32.5931 21.2402 32.3812C21.1398 32.3316 21.0305 32.3025 20.9187 32.2958V32.2958ZM18.5181 32.955C18.3516 32.949 18.1862 32.984 18.0365 33.0571C17.8867 33.1302 17.7573 33.239 17.6596 33.374C17.5791 33.4818 17.5208 33.6045 17.4881 33.735C17.4554 33.8655 17.449 34.0012 17.4692 34.1342C17.4894 34.2672 17.5359 34.3949 17.6059 34.5098C17.6759 34.6247 17.768 34.7246 17.8769 34.8036C17.9858 34.8826 18.1093 34.9391 18.2403 34.97C18.3713 35.0008 18.507 35.0054 18.6398 34.9833C18.7725 34.9612 18.8995 34.913 19.0134 34.8414C19.1273 34.7698 19.2259 34.6763 19.3033 34.5663C19.6325 34.1142 19.5321 33.4775 19.0796 33.1462C18.9159 33.0275 18.7203 32.9608 18.5181 32.955V32.955ZM31.486 32.955C31.2839 32.9609 31.0881 33.0275 30.9244 33.1462C30.47 33.4775 30.3671 34.1142 30.6967 34.5663C31.0244 35.0229 31.664 35.1227 32.1167 34.7942C32.5712 34.4629 32.6775 33.8265 32.3446 33.374C32.247 33.2389 32.1175 33.13 31.9678 33.0569C31.818 32.9839 31.6526 32.9488 31.486 32.955V32.955ZM11.9223 32.9875C11.6293 32.9958 11.3457 33.0922 11.1083 33.2642C10.4504 33.7452 10.3027 34.6719 10.7829 35.3312C10.8962 35.4885 11.0395 35.6218 11.2045 35.7233C11.3696 35.8249 11.5531 35.8928 11.7446 35.9231C11.936 35.9533 12.1315 35.9453 12.3199 35.8996C12.5082 35.8539 12.6856 35.7713 12.8419 35.6567C13.5027 35.176 13.651 34.2558 13.1715 33.5979C13.0291 33.4017 12.8407 33.2435 12.6229 33.137C12.4051 33.0306 12.1646 32.9793 11.9223 32.9875ZM38.0777 32.9875C37.8355 32.9797 37.5951 33.0312 37.3773 33.1376C37.1596 33.244 36.9712 33.402 36.8285 33.5979C36.7143 33.7545 36.6322 33.9321 36.587 34.1206C36.5417 34.309 36.5342 34.5045 36.5648 34.6959C36.5955 34.8872 36.6637 35.0707 36.7655 35.2356C36.8673 35.4004 37.0008 35.5436 37.1581 35.6567C37.8192 36.1383 38.7435 35.9942 39.2212 35.3312C39.7006 34.6719 39.5531 33.7452 38.8917 33.2642C38.6544 33.0921 38.3707 32.9957 38.0777 32.9875V32.9875ZM23.5352 33.1706C23.1435 33.1873 22.8069 33.4802 22.7417 33.8827C22.6723 34.3373 22.9881 34.7625 23.4458 34.839C23.9031 34.9117 24.3275 34.5973 24.4019 34.139C24.4717 33.684 24.1592 33.2587 23.706 33.1827C23.6496 33.173 23.5924 33.169 23.5352 33.1706V33.1706ZM26.4648 33.1748C26.4077 33.1717 26.3505 33.1744 26.294 33.1827C25.8365 33.2556 25.53 33.685 25.6023 34.1431C25.6194 34.2516 25.6576 34.3557 25.715 34.4494C25.7723 34.5431 25.8475 34.6245 25.9363 34.6892C26.0251 34.7538 26.1257 34.8003 26.2325 34.826C26.3393 34.8517 26.4501 34.8561 26.5585 34.839C26.667 34.8221 26.771 34.7839 26.8646 34.7266C26.9581 34.6692 27.0394 34.5939 27.1037 34.505C27.168 34.4161 27.2141 34.3153 27.2392 34.2085C27.2644 34.1017 27.2681 33.991 27.2502 33.8827C27.2216 33.692 27.1276 33.5171 26.9844 33.3879C26.8411 33.2588 26.6575 33.1834 26.4648 33.1746V33.1748ZM15.511 33.256C15.3492 33.2561 15.189 33.2881 15.0395 33.3502C14.8901 33.4124 14.7544 33.5034 14.6402 33.6181C14.4154 33.8502 14.291 34.1615 14.2938 34.4845C14.2966 34.8076 14.4264 35.1166 14.6551 35.3448C14.8839 35.573 15.1932 35.7021 15.5163 35.7041C15.8394 35.7061 16.1503 35.5809 16.3819 35.3556C16.8637 34.8752 16.866 34.0979 16.386 33.6181C16.1537 33.3865 15.8391 33.2564 15.511 33.256V33.256ZM34.489 33.256C34.3271 33.256 34.1668 33.288 34.0174 33.3501C33.8679 33.4122 33.7322 33.5033 33.6181 33.6181C33.5033 33.7318 33.4121 33.8671 33.3499 34.0162C33.2877 34.1653 33.2556 34.3253 33.2556 34.4869C33.2556 34.6485 33.2877 34.8084 33.3499 34.9575C33.4121 35.1067 33.5033 35.242 33.6181 35.3556C33.7319 35.4703 33.8672 35.5613 34.0163 35.6233C34.1654 35.6854 34.3254 35.7174 34.4869 35.7174C34.6484 35.7174 34.8083 35.6854 34.9574 35.6233C35.1065 35.5613 35.2418 35.4703 35.3556 35.3556C35.4698 35.2416 35.5604 35.1062 35.6222 34.9571C35.684 34.808 35.7158 34.6482 35.7158 34.4869C35.7158 34.3255 35.684 34.1657 35.6222 34.0166C35.5604 33.8676 35.4698 33.7321 35.3556 33.6181C35.2423 33.5034 35.1073 33.4124 34.9586 33.3502C34.8098 33.2881 34.6502 33.2561 34.489 33.256V33.256ZM21.4844 34.5337C21.2853 34.5511 21.0957 34.6267 20.9394 34.7512C20.783 34.8757 20.6669 35.0436 20.6054 35.2338C20.5635 35.3609 20.5472 35.4951 20.5575 35.6285C20.5678 35.762 20.6045 35.8921 20.6655 36.0113C20.7264 36.1305 20.8104 36.2364 20.9125 36.3229C21.0147 36.4094 21.133 36.4748 21.2606 36.5152C21.5169 36.5982 21.7957 36.5763 22.0359 36.4543C22.2761 36.3323 22.4582 36.1201 22.5423 35.8642C22.716 35.329 22.4217 34.7508 21.8873 34.5785C21.7573 34.5368 21.6203 34.5216 21.4844 34.5337V34.5337ZM28.5156 34.5337C28.3797 34.5216 28.2427 34.5369 28.1127 34.5785C27.5815 34.7508 27.2875 35.329 27.4617 35.8642C27.6333 36.3973 28.2094 36.6858 28.7435 36.5152C28.9996 36.4313 29.212 36.2493 29.3341 36.009C29.4561 35.7687 29.4779 35.4898 29.3946 35.2335C29.3332 35.0433 29.217 34.8755 29.0607 34.751C28.9043 34.6265 28.7147 34.5508 28.5156 34.5335V34.5337ZM25 35.0748C24.8664 35.0747 24.734 35.1009 24.6105 35.1519C24.4871 35.203 24.3749 35.278 24.2804 35.3724C24.1859 35.4669 24.1109 35.5791 24.0599 35.7026C24.0088 35.8261 23.9826 35.9585 23.9827 36.0921C23.9827 36.6542 24.4381 37.1094 25 37.1094C25.5633 37.1094 26.0212 36.6542 26.0212 36.0921C26.0212 35.529 25.5633 35.0748 25 35.0748ZM18.9942 35.7258C18.753 35.7085 18.5122 35.7626 18.3016 35.8813C18.091 36 17.92 36.1781 17.81 36.3933C17.5044 37.0008 17.7437 37.7398 18.3471 38.0494C18.4914 38.1231 18.6488 38.1678 18.8103 38.1807C18.9718 38.1936 19.1343 38.1746 19.2885 38.1247C19.4427 38.0749 19.5856 37.9951 19.7089 37.89C19.8323 37.7849 19.9337 37.6566 20.0075 37.5123C20.3135 36.9077 20.0733 36.1656 19.4702 35.856C19.3217 35.7815 19.1599 35.7372 18.9942 35.7258V35.7258ZM31.0058 35.7258C30.8414 35.7372 30.6809 35.7814 30.534 35.856C29.9262 36.1642 29.6885 36.906 29.9927 37.5123C30.304 38.1185 31.0471 38.359 31.6529 38.0494C31.7968 37.9757 31.9247 37.8744 32.0293 37.7513C32.134 37.6282 32.2133 37.4856 32.2628 37.3318C32.3123 37.1779 32.331 37.0158 32.3178 36.8548C32.3046 36.6937 32.2597 36.5368 32.1858 36.3931C32.077 36.1778 31.9069 35.9995 31.6969 35.8808C31.4869 35.762 31.2464 35.7081 31.0058 35.7258V35.7258ZM6.40062 36.3567C5.98244 36.3718 5.57843 36.5121 5.24083 36.7594C4.30292 37.4408 4.09208 38.7571 4.77708 39.6973C5.45833 40.6329 6.77312 40.841 7.71083 40.1571C8.65208 39.4746 8.85604 38.1606 8.17458 37.2233C7.97244 36.9447 7.70497 36.7199 7.39566 36.5688C7.08635 36.4177 6.74467 36.3449 6.40062 36.3567V36.3567ZM43.5994 36.3608C42.9254 36.3379 42.2519 36.6379 41.8254 37.2233C41.141 38.1606 41.349 39.4756 42.2892 40.1571C43.2308 40.8412 44.5433 40.6329 45.2229 39.6973C45.909 38.7571 45.6987 37.441 44.7592 36.7594C44.4213 36.5132 44.0172 36.3742 43.5994 36.3606V36.3608ZM15.5883 36.5479C15.3467 36.5398 15.1067 36.5912 14.8896 36.6976C14.6725 36.8041 14.4849 36.9623 14.3433 37.1583C13.8629 37.8165 14.0112 38.7398 14.6687 39.2212C15.3302 39.7004 16.251 39.551 16.7317 38.8917C17.2108 38.2312 17.066 37.3069 16.4062 36.8285C16.168 36.6549 15.883 36.5571 15.5883 36.5479V36.5479ZM34.4117 36.5479C34.117 36.5571 33.832 36.6549 33.5937 36.8285C32.9354 37.3069 32.7896 38.2312 33.2681 38.8917C33.4982 39.2087 33.8447 39.4215 34.2315 39.4833C34.6183 39.5451 35.0139 39.4509 35.3312 39.2212C35.9917 38.7417 36.1375 37.8165 35.6567 37.1581C35.5152 36.962 35.3276 36.8037 35.1105 36.6973C34.8934 36.5908 34.6533 36.5394 34.4117 36.5477V36.5479ZM11.3404 36.8854C11.1075 36.8852 10.8768 36.9311 10.6616 37.0204C10.4465 37.1098 10.2512 37.241 10.0871 37.4062C9.39375 38.099 9.39375 39.2215 10.0871 39.9129C10.7792 40.6052 11.8987 40.6052 12.5935 39.9129C12.8409 39.6647 13.0092 39.3489 13.0774 39.0051C13.1455 38.6614 13.1103 38.3052 12.9763 37.9815C12.8423 37.6577 12.6154 37.3809 12.3243 37.1859C12.0332 36.9908 11.6908 36.8864 11.3404 36.8856V36.8854ZM38.6637 36.8896C38.1928 36.8889 37.7408 37.0746 37.4065 37.4062C37.2417 37.5707 37.1109 37.7661 37.0217 37.9812C36.9325 38.1962 36.8866 38.4268 36.8866 38.6596C36.8866 38.8924 36.9325 39.1229 37.0217 39.338C37.1109 39.5531 37.2417 39.7484 37.4065 39.9129C38.1006 40.6052 39.2204 40.6033 39.9169 39.9129C40.0816 39.7484 40.2123 39.5531 40.3015 39.338C40.3907 39.123 40.4366 38.8925 40.4366 38.6597C40.4366 38.4269 40.3907 38.1964 40.3015 37.9813C40.2123 37.7663 40.0816 37.5709 39.9169 37.4065C39.7526 37.2417 39.5572 37.1113 39.3421 37.0226C39.127 36.9339 38.8964 36.8888 38.6637 36.8898V36.8896ZM22.8475 37.0198C22.2756 37.046 21.7767 37.4704 21.6837 38.0573C21.5769 38.7281 22.0362 39.3594 22.7092 39.4654C22.869 39.4907 23.0322 39.4842 23.1894 39.4463C23.3467 39.4084 23.495 39.3399 23.6257 39.2446C23.7565 39.1494 23.8672 39.0293 23.9515 38.8912C24.0358 38.7532 24.0921 38.5998 24.1171 38.44C24.2269 37.7702 23.7671 37.1427 23.0956 37.036C23.0137 37.0223 22.9305 37.0169 22.8475 37.0198ZM27.1525 37.0198C27.0695 37.0168 26.9863 37.0223 26.9044 37.036C26.236 37.1408 25.7798 37.7702 25.8871 38.44C25.9923 39.1112 26.6181 39.5735 27.2908 39.4654C27.4505 39.4403 27.6036 39.3839 27.7413 39.2995C27.8791 39.2151 27.9989 39.1043 28.0938 38.9735C28.1887 38.8427 28.2568 38.6944 28.2942 38.5373C28.3317 38.3801 28.3378 38.217 28.3121 38.0575C28.2212 37.4704 27.7246 37.045 27.1525 37.02V37.0198ZM19.8975 38.8385C19.6081 38.8638 19.3326 38.9738 19.1053 39.1548C18.8781 39.3357 18.7092 39.5797 18.6198 39.856C18.5598 40.0404 18.5368 40.2347 18.552 40.4279C18.5672 40.6212 18.6203 40.8095 18.7084 40.9822C18.7964 41.1549 18.9176 41.3085 19.0651 41.4343C19.2125 41.5601 19.3833 41.6557 19.5677 41.7154C20.3456 41.9683 21.1785 41.5406 21.4315 40.7675C21.6837 39.9912 21.2525 39.1592 20.4794 38.9079C20.292 38.8461 20.0941 38.8226 19.8975 38.8387V38.8385ZM30.1025 38.8385C29.9061 38.821 29.7082 38.8432 29.5206 38.9037C28.745 39.1562 28.3167 39.9912 28.5685 40.7675C28.8202 41.5406 29.6556 41.9683 30.4321 41.7154C31.2065 41.4619 31.6325 40.6327 31.3802 39.856C31.291 39.5796 31.1221 39.3356 30.8948 39.1546C30.6676 38.9736 30.3919 38.8638 30.1025 38.8387V38.8385ZM25 39.6242C24.806 39.6241 24.6139 39.6622 24.4346 39.7364C24.2554 39.8106 24.0925 39.9194 23.9553 40.0565C23.8181 40.1937 23.7093 40.3566 23.6351 40.5359C23.5609 40.7151 23.5228 40.9072 23.5229 41.1012C23.5229 41.9171 24.1829 42.5783 25 42.5783C25.194 42.5784 25.3861 42.5402 25.5653 42.466C25.7446 42.3918 25.9074 42.283 26.0446 42.1458C26.1817 42.0087 26.2905 41.8458 26.3648 41.6666C26.439 41.4873 26.4771 41.2952 26.4771 41.1012C26.4771 40.9073 26.4389 40.7152 26.3647 40.536C26.2905 40.3567 26.1817 40.1939 26.0445 40.0567C25.9073 39.9196 25.7445 39.8108 25.5653 39.7365C25.3861 39.6623 25.194 39.6241 25 39.6242V39.6242ZM16.3533 40.4462C16.0059 40.422 15.659 40.5004 15.3558 40.6719C15.0527 40.8434 14.8067 41.1003 14.6485 41.4106C14.2056 42.2829 14.5542 43.3471 15.4256 43.7908C16.2985 44.2362 17.364 43.8917 17.806 43.0219C18.2498 42.149 17.9073 41.0785 17.0329 40.6333C16.8212 40.5261 16.5901 40.4625 16.3533 40.4462V40.4462ZM33.6467 40.4462C33.4086 40.4624 33.1762 40.5261 32.9631 40.6333C32.0921 41.0785 31.7448 42.146 32.19 43.0219C32.6354 43.894 33.7062 44.2362 34.5785 43.7908C35.4483 43.3481 35.7938 42.2829 35.3475 41.4106C35.1908 41.1 34.9457 40.8427 34.643 40.671C34.3404 40.4994 33.9937 40.4211 33.6467 40.446V40.4462ZM11.6129 41.4227C11.2689 41.4108 10.9271 41.4836 10.6178 41.6347C10.3085 41.7859 10.041 42.0107 9.83896 42.2894C9.15646 43.2275 9.37021 44.5419 10.3069 45.2231C10.5299 45.3854 10.7827 45.5022 11.0509 45.5668C11.3191 45.6313 11.5974 45.6424 11.8699 45.5993C12.1423 45.5562 12.4036 45.4599 12.6388 45.3157C12.874 45.1716 13.0785 44.9826 13.2406 44.7594C13.9242 43.8206 13.7154 42.5071 12.7767 41.8256C12.4376 41.5782 12.0323 41.4379 11.6129 41.4227V41.4227ZM38.3871 41.4227C37.9677 41.4382 37.5625 41.5785 37.2233 41.8256C36.2848 42.5069 36.0752 43.8206 36.7594 44.7594C37.4427 45.6996 38.7558 45.9069 39.6973 45.2231C40.6348 44.5429 40.8425 43.2273 40.161 42.2894C39.959 42.0106 39.6916 41.7858 39.3822 41.6346C39.0729 41.4835 38.7312 41.4107 38.3871 41.4227V41.4227ZM21.8996 42.3098C21.0754 42.3471 20.3612 42.9596 20.2271 43.8071C20.0731 44.7702 20.7317 45.6817 21.7 45.8335C22.6637 45.9883 23.5752 45.3252 23.7265 44.3565C23.8817 43.39 23.2223 42.485 22.2575 42.3302C22.1391 42.3113 22.0191 42.3045 21.8994 42.3098H21.8996ZM28.1046 42.3098C27.8416 42.2979 27.5793 42.3448 27.3367 42.4469C27.094 42.5491 26.8772 42.7039 26.7019 42.9003C26.5265 43.0966 26.3971 43.3296 26.323 43.5821C26.2489 43.8347 26.2319 44.1007 26.2733 44.3606C26.4262 45.3277 27.3323 45.9883 28.3 45.8335C29.2671 45.6817 29.9262 44.7731 29.7729 43.8071C29.64 42.9596 28.9256 42.3471 28.1046 42.3098V42.3098ZM17.745 44.686C16.9304 44.7565 16.1946 45.3031 15.9262 46.1306C15.5658 47.2331 16.17 48.4163 17.2729 48.7754C18.3783 49.135 19.5662 48.529 19.9219 47.4246C20.281 46.3212 19.6756 45.1392 18.571 44.7796C18.3048 44.6931 18.0238 44.6613 17.745 44.686V44.686ZM32.255 44.686C31.9761 44.6614 31.6952 44.6933 31.429 44.7798C30.3269 45.1392 29.7169 46.3215 30.074 47.4246C30.431 48.5287 31.6219 49.135 32.7229 48.7754C33.8269 48.4163 34.434 47.2331 34.0779 46.1306C33.8075 45.3031 33.0708 44.7565 32.255 44.686V44.686ZM25 45.7967C23.8392 45.7967 22.9004 46.7408 22.9004 47.9004C22.9004 49.06 23.8392 50 25 50C25.2758 50.0002 25.5489 49.9461 25.8037 49.8406C26.0586 49.7352 26.2901 49.5805 26.4851 49.3855C26.6801 49.1905 26.8348 48.959 26.9402 48.7041C27.0456 48.4493 27.0998 48.1762 27.0996 47.9004C27.0996 46.7408 26.1621 45.7967 25 45.7967V45.7967Z" fill="#EA2027"/>
</svg>
