<svg width="300" height="300" viewBox="0 0 300 300" fill="none" xmlns="http://www.w3.org/2000/svg">
<path d="M240.363 52.25L189.538 81.3375V22.825L149.913 0L110.338 22.875V81.3375L59.7501 52.125L20.0751 75V120.8L70.7126 150L20.0376 179.288V225L59.6001 247.887L110.15 218.663V277.175L149.788 300L189.463 277.113V218.663L240.113 247.75L279.775 224.887V179.313L229.238 150L279.963 120.8V75L240.413 52.25H240.363V52.25ZM245.025 95.1125V71.4375L265.513 83.2125V107.025L245.063 95.1125H245.025V95.1125ZM265.5 211.188L189.563 167.387L210.188 155.575L265.488 187.5V211.2L265.5 211.188ZM180.163 161.812L159.538 150L240.188 103.425L260.7 115.225L180.125 161.812H180.163ZM39.1751 115.237L59.6876 103.437L140.35 150L119.863 161.812L39.1751 115.237V115.237ZM110.3 167.362L34.3626 211.212V187.5L89.8001 155.562L110.313 167.375V167.362H110.3ZM34.3626 107.05V83.25L54.8626 71.4375V95.1625L34.3626 107.05V107.05ZM154.7 107.05V19.375L175.213 31.0875V95.125L154.7 107.037V107.05ZM124.675 95.05V31.1625L145.175 19.3625V106.913L124.675 95.05V95.05ZM235.5 71.4375V95.1625L154.8 141.838V118.025L235.5 71.4375ZM145.15 117.988V141.7L64.4126 95.1125V71.4375L145.163 117.95L145.15 117.988ZM115.113 199.4L59.6751 231.337L39.1751 219.537L115.1 175.688V199.4H115.113ZM124.675 170.113L145.175 158.3V251.463L124.675 263.45V170.113V170.113ZM170.375 271.55L149.888 283.475L129.388 271.587L149.888 259.763L170.375 271.587V271.55ZM175.3 263.337L154.7 251.463V158.45L175.3 170.25V263.337ZM260.688 219.537L240.175 231.337L184.863 199.4V175.688L260.8 219.537H260.688V219.537Z" fill="#8DB4AD"/>
</svg>
