<svg width="259" height="278" viewBox="0 0 259 278" fill="none" xmlns="http://www.w3.org/2000/svg">
<path d="M15 161.386L14.9999 161.971L15.5095 162.257L128.772 226.002L129.261 226.277L129.751 226.003L229.932 169.949V190.312L129.264 247.136L22.2957 186.326L21.8117 186.051L21.3229 186.317L15.5316 189.474L15.0102 189.759V190.353V198.245V198.83L15.5197 199.116L128.772 262.871L129.262 263.148L129.753 262.871L243.015 199.137L243.525 198.85V198.266V154.016V153.45L243.039 153.159L237.761 149.992L237.261 149.692L236.754 149.979L129.266 210.809L29.1257 153.437V133.074L128.772 189.123L129.263 189.399L129.753 189.123L243.015 125.388L243.525 125.101V124.517V80.78V80.2129L243.038 79.9218L237.76 76.7648L237.26 76.4661L236.754 76.7527L129.262 137.584L35.4246 84.4803L129.264 31.3753L208.312 75.8704L208.825 76.1592L209.327 75.8507L216.174 71.638L216.649 71.3451V70.7862V64.9847V64.4022L216.143 64.1149L129.756 15.1301L129.262 14.8503L128.769 15.1303L15.5065 79.3978L15 79.6852V80.2675V87.6475V88.2323L15.5097 88.519L128.772 152.243L129.261 152.518L129.751 152.244L229.932 96.1897V117.066L129.264 173.931L22.2957 113.121L21.8117 112.846L21.3229 113.112L15.5316 116.269L15.0104 116.553L15.0102 117.147L15 161.386Z" fill="#F66747" stroke="#F66747" stroke-width="2"/>
</svg>
