<svg width="299" height="339" viewBox="0 0 299 339" fill="none" xmlns="http://www.w3.org/2000/svg">
<g clip-path="url(#clip0_245_1293)">
<path fill-rule="evenodd" clip-rule="evenodd" d="M149.5 0C165.107 0 178.367 20.1116 187.206 52.6101C190.273 63.8936 192.897 76.7771 194.969 90.8745C208.228 85.6328 220.714 81.467 232.012 78.46C264.581 69.8525 288.641 71.2871 296.459 84.7776C304.249 98.2681 293.448 119.787 269.691 143.65C261.459 151.927 251.598 160.644 240.382 169.5C244.857 173.031 249.139 176.563 253.172 180.039C249.498 182.604 246.487 185.998 244.388 189.97C239.747 185.97 234.775 181.915 229.526 177.804C228.449 178.604 227.344 179.404 226.239 180.232C223.863 197.309 215.908 212.592 204.278 224.207L203.615 224.814C201.571 226.8 199.444 228.676 197.206 230.414C197.068 231.793 196.902 233.173 196.737 234.552C210.631 240.18 223.67 244.594 235.382 247.684C261.929 254.691 280.52 255.216 284.94 247.601C287.288 243.546 285.63 237.173 280.685 229.173C284.691 227.435 288.227 224.786 291.044 221.503C299.028 234.552 301.265 245.891 296.459 254.195C288.669 267.713 264.636 269.147 232.04 260.54C220.742 257.561 208.256 253.367 194.969 248.125C192.897 262.223 190.273 275.106 187.206 286.39C178.367 318.888 165.107 339 149.5 339C133.893 339 120.633 318.888 111.794 286.39C108.727 275.106 106.103 262.223 104.031 248.125C99.2247 250.029 94.5287 251.795 89.9707 253.395C89.6116 248.788 88.1476 244.511 85.8548 240.787C91.1586 238.911 96.6281 236.842 102.263 234.552C102.098 233.2 101.959 231.821 101.794 230.442C99.3352 228.51 96.9872 226.441 94.7773 224.234L94.722 224.179C83.0924 212.565 75.1368 197.281 72.7611 180.204C71.6562 179.404 70.5512 178.576 69.4739 177.776C57.6233 186.991 47.2643 196.067 38.7286 204.647C19.3367 224.179 9.58548 240.015 14.0053 247.656C16.4638 251.905 23.3145 253.615 33.4801 253.091C33.3972 253.919 33.3696 254.774 33.3696 255.629C33.3696 259.243 34.0602 262.692 35.2756 265.865C19.0604 266.582 7.48607 262.885 2.51378 254.278C-5.27613 240.76 5.52478 219.241 29.2812 195.377C37.5408 187.101 47.3748 178.383 58.5901 169.528C47.4025 160.672 37.5408 151.954 29.2812 143.678C5.52478 119.814 -5.27613 98.2957 2.51378 84.8052C10.3313 71.3147 34.364 69.8801 66.9601 78.4876C78.2582 81.467 90.7442 85.6328 104.031 90.9021C104.777 85.7983 105.606 80.8601 106.49 76.115C110.329 78.0461 114.639 79.1221 119.224 79.1221H119.473C118.451 84.5569 117.539 90.2676 116.711 96.1714C117.954 96.6956 119.169 97.2473 120.412 97.7991C129.39 94.1575 139.196 92.1436 149.472 92.1436C159.748 92.1436 169.583 94.1575 178.56 97.7715C179.776 97.2197 181.019 96.6956 182.234 96.1714C180.162 81.3015 177.483 67.811 174.306 56.1414C167.124 29.7122 158.284 13.3525 149.472 13.3525C144.583 13.3525 139.666 18.4011 135.053 27.3948C131.489 24.9946 127.373 23.3669 122.898 22.7876C130.44 8.24878 139.473 0 149.5 0ZM149.5 124.697C169.002 124.697 184.831 132.091 184.831 141.195C184.831 150.326 169.002 157.692 149.5 157.692C129.998 157.692 114.169 150.299 114.169 141.195C114.169 132.091 129.998 124.697 149.5 124.697ZM114.169 186.604V199.267C120.467 221.558 182.538 217.255 184.831 198.136V185.473C181.737 206.468 119.141 207.985 114.169 186.604ZM114.003 149.14V161.527C120.302 183.294 182.731 180.37 185.024 161.693V149.333C181.903 169.831 118.976 170.024 114.003 149.14ZM114.003 167.376V180.039C120.302 202.33 182.731 199.323 185.024 180.204V167.541C181.903 188.536 118.976 188.756 114.003 167.376ZM149.5 103.206C186.157 103.206 215.88 132.891 215.88 169.5C215.88 206.109 186.157 235.794 149.5 235.794C112.843 235.794 83.12 206.109 83.12 169.5C83.12 132.891 112.843 103.206 149.5 103.206ZM197.206 108.531C199.692 110.462 202.068 112.559 204.278 114.793C215.908 126.408 223.863 141.719 226.239 158.796C227.344 159.596 228.449 160.396 229.526 161.224C241.377 152.009 251.736 142.933 260.271 134.353C279.608 114.904 289.359 99.0681 284.967 91.4263C280.547 83.812 261.957 84.3362 235.41 91.3435C223.698 94.4334 210.659 98.8474 196.764 104.503C196.902 105.8 197.068 107.179 197.206 108.531ZM178.477 241.284C169.527 244.898 159.748 246.884 149.528 246.884C139.279 246.884 129.5 244.898 120.55 241.256C119.28 241.808 118.009 242.387 116.738 242.911C118.81 257.781 121.489 271.272 124.666 282.941C131.848 309.371 140.688 325.73 149.528 325.73C158.34 325.73 167.207 309.371 174.361 282.941C177.511 271.272 180.19 257.754 182.262 242.911C180.991 242.387 179.72 241.835 178.477 241.284ZM72.7887 158.741C75.1644 141.691 83.12 126.38 94.7496 114.793L95.4126 114.186C97.4292 112.228 99.5562 110.352 101.766 108.614C101.904 107.234 102.07 105.855 102.236 104.475C88.3133 98.8474 75.3025 94.4333 63.59 91.3159C37.0435 84.3086 18.4527 83.7844 14.0329 91.3987C9.58548 99.0405 19.3367 114.876 38.701 134.325C47.2367 142.905 57.5956 151.982 69.4462 161.196C70.5512 160.368 71.6562 159.568 72.7887 158.741ZM267.398 184.149C277.536 184.149 285.768 192.37 285.768 202.495C285.768 212.62 277.536 220.841 267.398 220.841C257.26 220.841 249.029 212.62 249.029 202.495C249.029 192.37 257.233 184.149 267.398 184.149ZM61.7392 236.704C71.8771 236.704 80.109 244.925 80.109 255.05C80.109 265.175 71.8771 273.396 61.7392 273.396C51.6013 273.396 43.3694 265.175 43.3694 255.05C43.3694 244.925 51.6013 236.704 61.7392 236.704ZM119.197 32.4434C129.335 32.4434 137.567 40.6646 137.567 50.7893C137.567 60.9141 129.335 69.1353 119.197 69.1353C109.059 69.1353 100.827 60.9141 100.827 50.7893C100.827 40.6646 109.059 32.4434 119.197 32.4434Z" fill="#E9311A"/>
</g>
<defs>
<clipPath id="clip0_245_1293">
<rect width="299" height="339" fill="white"/>
</clipPath>
</defs>
</svg>
