<svg width="50" height="50" viewBox="0 0 50 50" fill="none" xmlns="http://www.w3.org/2000/svg">
<path d="M0 29.55L25 42.5062L47.4412 30.9437V35.5479L25 47.2125L1.28054 34.7958L0.00226241 35.4375V37.0417L25 50L50 37.0458V28.0521L48.8348 27.4083L25 39.8292L2.67647 28.0521V23.4479L25 35.0104L50 22.0562V13.1667L48.8348 12.525L25 24.9458L3.83937 13.9187L25 2.89167L42.5566 11.9917L44.0679 11.1354V9.95625L25 0L0 13.0625V14.5625L25 27.5146L47.4412 15.9521V20.6604L25 32.3333L1.28054 19.9167L0.00226241 20.5583L0 29.55Z" fill="#FFC312"/>
</svg>
