<svg width="694" height="328" viewBox="0 0 694 328" fill="none" xmlns="http://www.w3.org/2000/svg">
<path d="M357.88 234.04C357.88 232.504 357.424 231.208 356.512 230.152C355.6 229.048 354.448 228.016 353.056 227.056C351.712 226.096 350.224 225.112 348.592 224.104C347.008 223.096 345.52 221.92 344.128 220.576C342.784 219.232 341.656 217.648 340.744 215.824C339.832 214 339.376 211.768 339.376 209.128C339.376 206.68 339.736 204.616 340.456 202.936C341.224 201.208 342.256 199.816 343.552 198.76C344.848 197.656 346.384 196.864 348.16 196.384C349.936 195.856 351.832 195.592 353.848 195.592C356.296 195.592 358.576 195.832 360.688 196.312C362.8 196.792 364.552 197.44 365.944 198.256L363.136 206.248C362.32 205.672 361.096 205.144 359.464 204.664C357.88 204.184 356.152 203.944 354.28 203.944C352.408 203.944 350.968 204.328 349.96 205.096C348.952 205.864 348.448 206.992 348.448 208.48C348.448 209.824 348.904 211.024 349.816 212.08C350.728 213.088 351.856 214.072 353.2 215.032C354.592 215.992 356.08 217 357.664 218.056C359.296 219.064 360.784 220.264 362.128 221.656C363.52 223 364.672 224.608 365.584 226.48C366.496 228.304 366.952 230.488 366.952 233.032C366.952 235.576 366.568 237.784 365.8 239.656C365.08 241.528 364.024 243.088 362.632 244.336C361.288 245.536 359.656 246.448 357.736 247.072C355.816 247.696 353.68 248.008 351.328 248.008C348.352 248.008 345.736 247.72 343.48 247.144C341.272 246.568 339.568 245.92 338.368 245.2L341.32 237.064C342.28 237.64 343.6 238.216 345.28 238.792C346.96 239.368 348.76 239.656 350.68 239.656C355.48 239.656 357.88 237.784 357.88 234.04ZM368.929 211H372.889V204.232L381.457 201.568V211H388.441V218.632H381.457V234.328C381.457 236.392 381.649 237.856 382.033 238.72C382.465 239.584 383.209 240.016 384.265 240.016C384.985 240.016 385.633 239.944 386.209 239.8C386.785 239.656 387.409 239.44 388.081 239.152L389.161 245.992C388.105 246.52 386.881 246.952 385.489 247.288C384.097 247.672 382.633 247.864 381.097 247.864C378.361 247.864 376.297 247.072 374.905 245.488C373.561 243.904 372.889 241.24 372.889 237.496V218.632H368.929V211ZM400.97 211V232.528C400.97 235.36 401.234 237.328 401.762 238.432C402.29 239.536 403.25 240.088 404.642 240.088C405.986 240.088 407.114 239.608 408.026 238.648C408.938 237.64 409.586 236.44 409.97 235.048V211H418.538V236.056C418.538 238.024 418.61 239.968 418.754 241.888C418.898 243.76 419.162 245.464 419.546 247H413.066L411.554 242.104H411.338C410.426 243.784 409.178 245.176 407.594 246.28C406.058 247.384 404.138 247.936 401.834 247.936C400.346 247.936 399.026 247.72 397.874 247.288C396.722 246.904 395.738 246.208 394.922 245.2C394.106 244.192 393.482 242.824 393.05 241.096C392.618 239.32 392.402 237.088 392.402 234.4V211H400.97ZM450.671 234.328C450.671 236.344 450.695 238.36 450.743 240.376C450.791 242.392 450.983 244.624 451.319 247.072H445.271L444.119 242.896H443.831C442.199 246.256 439.343 247.936 435.263 247.936C431.615 247.936 428.735 246.496 426.623 243.616C424.559 240.736 423.527 236.056 423.527 229.576C423.527 223.24 424.655 218.44 426.911 215.176C429.167 211.864 432.527 210.208 436.991 210.208C438.143 210.208 439.103 210.28 439.871 210.424C440.639 210.568 441.383 210.808 442.103 211.144V196.6H450.671V234.328ZM437.279 240.088C438.575 240.088 439.607 239.776 440.375 239.152C441.143 238.48 441.719 237.52 442.103 236.272V219.28C441.623 218.848 441.071 218.536 440.447 218.344C439.871 218.152 439.103 218.056 438.143 218.056C436.223 218.056 434.783 218.92 433.823 220.648C432.863 222.376 432.383 225.448 432.383 229.864C432.383 233.176 432.767 235.72 433.535 237.496C434.351 239.224 435.599 240.088 437.279 240.088ZM457.605 211H466.173V247H457.605V211ZM456.597 200.848C456.597 199.408 457.053 198.232 457.965 197.32C458.877 196.36 460.173 195.88 461.853 195.88C463.533 195.88 464.877 196.336 465.885 197.248C466.893 198.16 467.397 199.36 467.397 200.848C467.397 202.336 466.893 203.512 465.885 204.376C464.877 205.24 463.533 205.672 461.853 205.672C460.173 205.672 458.877 205.24 457.965 204.376C457.053 203.464 456.597 202.288 456.597 200.848ZM497.393 244.336C496.193 245.392 494.561 246.256 492.497 246.928C490.433 247.6 488.273 247.936 486.017 247.936C483.521 247.936 481.361 247.504 479.537 246.64C477.761 245.776 476.297 244.528 475.145 242.896C473.993 241.264 473.129 239.296 472.553 236.992C472.025 234.64 471.761 231.976 471.761 229C471.761 222.52 473.033 217.744 475.577 214.672C478.169 211.552 481.745 209.992 486.305 209.992C487.841 209.992 489.329 210.232 490.769 210.712C492.209 211.144 493.481 211.912 494.585 213.016C495.737 214.072 496.649 215.512 497.321 217.336C498.041 219.112 498.401 221.368 498.401 224.104C498.401 225.16 498.329 226.288 498.185 227.488C498.089 228.688 497.921 229.984 497.681 231.376H480.185C480.281 234.352 480.905 236.632 482.057 238.216C483.209 239.8 485.057 240.592 487.601 240.592C489.137 240.592 490.529 240.352 491.777 239.872C493.073 239.392 494.057 238.888 494.729 238.36L497.393 244.336ZM486.161 217.336C484.337 217.336 482.969 218.08 482.057 219.568C481.145 221.008 480.617 223.048 480.473 225.688H490.409C490.553 222.952 490.265 220.888 489.545 219.496C488.825 218.056 487.697 217.336 486.161 217.336ZM521.71 247V225.112C521.71 222.472 521.398 220.624 520.774 219.568C520.15 218.512 519.094 217.984 517.606 217.984C516.358 217.984 515.278 218.368 514.366 219.136C513.454 219.904 512.806 220.864 512.422 222.016V247H503.854V211H510.694L511.702 215.176H511.918C512.782 213.784 513.958 212.608 515.446 211.648C516.934 210.64 518.878 210.136 521.278 210.136C522.718 210.136 523.99 210.352 525.094 210.784C526.246 211.216 527.206 211.936 527.974 212.944C528.742 213.904 529.318 215.224 529.702 216.904C530.086 218.536 530.278 220.576 530.278 223.024V247H521.71ZM557.438 245.056C556.238 246.016 554.798 246.736 553.118 247.216C551.438 247.696 549.758 247.936 548.078 247.936C545.63 247.936 543.566 247.504 541.886 246.64C540.254 245.728 538.91 244.456 537.854 242.824C536.798 241.144 536.03 239.152 535.55 236.848C535.118 234.496 534.902 231.88 534.902 229C534.902 222.712 536.03 217.984 538.286 214.816C540.542 211.648 543.854 210.064 548.222 210.064C550.382 210.064 552.134 210.256 553.478 210.64C554.87 211.024 556.094 211.504 557.15 212.08L555.134 219.208C554.27 218.776 553.43 218.464 552.614 218.272C551.846 218.032 550.91 217.912 549.806 217.912C547.79 217.912 546.278 218.8 545.27 220.576C544.262 222.304 543.758 225.112 543.758 229C543.758 232.264 544.262 234.928 545.27 236.992C546.326 239.056 547.982 240.088 550.238 240.088C551.438 240.088 552.446 239.944 553.262 239.656C554.126 239.32 554.918 238.912 555.638 238.432L557.438 245.056ZM584.791 244.336C583.591 245.392 581.959 246.256 579.895 246.928C577.831 247.6 575.671 247.936 573.415 247.936C570.919 247.936 568.759 247.504 566.935 246.64C565.159 245.776 563.695 244.528 562.543 242.896C561.391 241.264 560.527 239.296 559.951 236.992C559.423 234.64 559.159 231.976 559.159 229C559.159 222.52 560.431 217.744 562.975 214.672C565.567 211.552 569.143 209.992 573.703 209.992C575.239 209.992 576.727 210.232 578.167 210.712C579.607 211.144 580.879 211.912 581.983 213.016C583.135 214.072 584.047 215.512 584.719 217.336C585.439 219.112 585.799 221.368 585.799 224.104C585.799 225.16 585.727 226.288 585.583 227.488C585.487 228.688 585.319 229.984 585.079 231.376H567.583C567.679 234.352 568.303 236.632 569.455 238.216C570.607 239.8 572.455 240.592 574.999 240.592C576.535 240.592 577.927 240.352 579.175 239.872C580.471 239.392 581.455 238.888 582.127 238.36L584.791 244.336ZM573.559 217.336C571.735 217.336 570.367 218.08 569.455 219.568C568.543 221.008 568.015 223.048 567.871 225.688H577.807C577.951 222.952 577.663 220.888 576.943 219.496C576.223 218.056 575.095 217.336 573.559 217.336ZM609.108 247V225.112C609.108 222.472 608.796 220.624 608.172 219.568C607.548 218.512 606.492 217.984 605.004 217.984C603.756 217.984 602.676 218.368 601.764 219.136C600.852 219.904 600.204 220.864 599.82 222.016V247H591.252V211H598.092L599.1 215.176H599.316C600.18 213.784 601.356 212.608 602.844 211.648C604.332 210.64 606.276 210.136 608.676 210.136C610.116 210.136 611.388 210.352 612.492 210.784C613.644 211.216 614.604 211.936 615.372 212.944C616.14 213.904 616.716 215.224 617.1 216.904C617.484 218.536 617.676 220.576 617.676 223.024V247H609.108ZM620.788 211H624.748V204.232L633.316 201.568V211H640.3V218.632H633.316V234.328C633.316 236.392 633.508 237.856 633.892 238.72C634.324 239.584 635.068 240.016 636.124 240.016C636.844 240.016 637.492 239.944 638.068 239.8C638.644 239.656 639.268 239.44 639.94 239.152L641.02 245.992C639.964 246.52 638.74 246.952 637.348 247.288C635.956 247.672 634.492 247.864 632.956 247.864C630.22 247.864 628.156 247.072 626.764 245.488C625.42 243.904 624.748 241.24 624.748 237.496V218.632H620.788V211ZM668.885 244.336C667.685 245.392 666.053 246.256 663.989 246.928C661.925 247.6 659.765 247.936 657.509 247.936C655.013 247.936 652.853 247.504 651.029 246.64C649.253 245.776 647.789 244.528 646.637 242.896C645.485 241.264 644.621 239.296 644.045 236.992C643.517 234.64 643.253 231.976 643.253 229C643.253 222.52 644.525 217.744 647.069 214.672C649.661 211.552 653.237 209.992 657.797 209.992C659.333 209.992 660.821 210.232 662.261 210.712C663.701 211.144 664.973 211.912 666.077 213.016C667.229 214.072 668.141 215.512 668.813 217.336C669.533 219.112 669.893 221.368 669.893 224.104C669.893 225.16 669.821 226.288 669.677 227.488C669.581 228.688 669.413 229.984 669.173 231.376H651.677C651.773 234.352 652.397 236.632 653.549 238.216C654.701 239.8 656.549 240.592 659.093 240.592C660.629 240.592 662.021 240.352 663.269 239.872C664.565 239.392 665.549 238.888 666.221 238.36L668.885 244.336ZM657.653 217.336C655.829 217.336 654.461 218.08 653.549 219.568C652.637 221.008 652.109 223.048 651.965 225.688H661.901C662.045 222.952 661.757 220.888 661.037 219.496C660.317 218.056 659.189 217.336 657.653 217.336ZM692.338 219.496C691.186 219.064 690.13 218.848 689.17 218.848C687.874 218.848 686.746 219.208 685.786 219.928C684.874 220.648 684.25 221.656 683.914 222.952V247H675.346V211H681.898L682.906 215.32H683.194C683.818 213.736 684.706 212.512 685.858 211.648C687.058 210.736 688.426 210.28 689.962 210.28C691.114 210.28 692.242 210.52 693.346 211L692.338 219.496ZM341.032 268.6H350.104V319H341.032V268.6ZM375.108 319V297.112C375.108 294.472 374.796 292.624 374.172 291.568C373.548 290.512 372.492 289.984 371.004 289.984C369.756 289.984 368.676 290.368 367.764 291.136C366.852 291.904 366.204 292.864 365.82 294.016V319H357.252V283H364.092L365.1 287.176H365.316C366.18 285.784 367.356 284.608 368.844 283.648C370.332 282.64 372.276 282.136 374.676 282.136C376.116 282.136 377.388 282.352 378.492 282.784C379.644 283.216 380.604 283.936 381.372 284.944C382.14 285.904 382.716 287.224 383.1 288.904C383.484 290.536 383.676 292.576 383.676 295.024V319H375.108ZM387.076 283H390.964V280.984C390.964 276.424 391.804 273.136 393.484 271.12C395.212 269.056 397.66 268.024 400.828 268.024C403.996 268.024 406.636 268.456 408.748 269.32L407.164 276.592C406.3 276.256 405.532 276.064 404.86 276.016C404.188 275.92 403.492 275.872 402.772 275.872C401.38 275.872 400.492 276.424 400.108 277.528C399.724 278.584 399.532 280.408 399.532 283H405.652V290.632H399.532V319H390.964V290.632H387.076V283ZM407.495 301C407.495 294.616 408.743 289.864 411.239 286.744C413.735 283.624 417.215 282.064 421.679 282.064C426.479 282.064 430.055 283.648 432.407 286.816C434.759 289.984 435.935 294.712 435.935 301C435.935 307.432 434.687 312.208 432.191 315.328C429.695 318.4 426.191 319.936 421.679 319.936C412.223 319.936 407.495 313.624 407.495 301ZM416.351 301C416.351 304.6 416.759 307.384 417.575 309.352C418.391 311.32 419.759 312.304 421.679 312.304C423.503 312.304 424.847 311.464 425.711 309.784C426.623 308.056 427.079 305.128 427.079 301C427.079 297.304 426.671 294.496 425.855 292.576C425.039 290.656 423.647 289.696 421.679 289.696C419.999 289.696 418.679 290.56 417.719 292.288C416.807 293.968 416.351 296.872 416.351 301ZM457.846 291.496C456.694 291.064 455.638 290.848 454.678 290.848C453.382 290.848 452.254 291.208 451.294 291.928C450.382 292.648 449.758 293.656 449.422 294.952V319H440.854V283H447.406L448.414 287.32H448.702C449.326 285.736 450.214 284.512 451.366 283.648C452.566 282.736 453.934 282.28 455.47 282.28C456.622 282.28 457.75 282.52 458.854 283L457.846 291.496ZM478.58 319V298.048C478.58 295.024 478.34 292.936 477.86 291.784C477.38 290.584 476.444 289.984 475.052 289.984C473.9 289.984 472.94 290.368 472.172 291.136C471.452 291.856 470.9 292.744 470.516 293.8V319H461.948V283H468.572L469.652 287.32H469.868C470.78 285.832 471.908 284.608 473.252 283.648C474.644 282.64 476.468 282.136 478.724 282.136C480.596 282.136 482.108 282.544 483.26 283.36C484.46 284.176 485.396 285.616 486.068 287.68C486.98 285.952 488.18 284.608 489.668 283.648C491.156 282.64 492.908 282.136 494.924 282.136C496.508 282.136 497.852 282.352 498.956 282.784C500.108 283.168 501.02 283.864 501.692 284.872C502.412 285.88 502.94 287.272 503.276 289.048C503.612 290.776 503.78 292.984 503.78 295.672V319H495.212V297.112C495.212 294.664 494.996 292.864 494.564 291.712C494.132 290.56 493.172 289.984 491.684 289.984C490.484 289.984 489.5 290.344 488.732 291.064C488.012 291.736 487.484 292.672 487.148 293.872V319H478.58ZM509.762 285.16C511.202 284.296 513.002 283.6 515.162 283.072C517.322 282.544 519.77 282.28 522.506 282.28C526.586 282.28 529.418 283.336 531.002 285.448C532.634 287.56 533.45 290.56 533.45 294.448C533.45 296.704 533.378 298.936 533.234 301.144C533.138 303.304 533.066 305.44 533.018 307.552C532.97 309.616 532.994 311.632 533.09 313.6C533.234 315.52 533.57 317.344 534.098 319.072H527.114L525.746 314.68H525.458C524.69 316.072 523.61 317.224 522.218 318.136C520.826 319.048 519.074 319.504 516.962 319.504C514.13 319.504 511.898 318.568 510.266 316.696C508.634 314.776 507.818 312.232 507.818 309.064C507.818 304.744 509.354 301.672 512.426 299.848C515.498 298.024 519.65 297.256 524.882 297.544C525.122 294.76 524.93 292.744 524.306 291.496C523.73 290.248 522.458 289.624 520.49 289.624C519.05 289.624 517.562 289.792 516.026 290.128C514.49 290.464 513.122 290.944 511.922 291.568L509.762 285.16ZM520.058 312.16C521.354 312.16 522.41 311.848 523.226 311.224C524.042 310.552 524.642 309.832 525.026 309.064V303.088C523.922 302.944 522.866 302.92 521.858 303.016C520.85 303.112 519.962 303.328 519.194 303.664C518.426 304 517.802 304.504 517.322 305.176C516.89 305.8 516.674 306.616 516.674 307.624C516.674 309.112 516.962 310.24 517.538 311.008C518.162 311.776 519.002 312.16 520.058 312.16ZM536.624 283H540.584V276.232L549.152 273.568V283H556.136V290.632H549.152V306.328C549.152 308.392 549.344 309.856 549.728 310.72C550.16 311.584 550.904 312.016 551.96 312.016C552.68 312.016 553.328 311.944 553.904 311.8C554.48 311.656 555.104 311.44 555.776 311.152L556.856 317.992C555.8 318.52 554.576 318.952 553.184 319.288C551.792 319.672 550.328 319.864 548.792 319.864C546.056 319.864 543.992 319.072 542.6 317.488C541.256 315.904 540.584 313.24 540.584 309.496V290.632H536.624V283ZM561.105 283H569.673V319H561.105V283ZM560.097 272.848C560.097 271.408 560.553 270.232 561.465 269.32C562.377 268.36 563.673 267.88 565.353 267.88C567.033 267.88 568.377 268.336 569.385 269.248C570.393 270.16 570.897 271.36 570.897 272.848C570.897 274.336 570.393 275.512 569.385 276.376C568.377 277.24 567.033 277.672 565.353 277.672C563.673 277.672 562.377 277.24 561.465 276.376C560.553 275.464 560.097 274.288 560.097 272.848ZM587.141 304.096H585.125V319H576.557V268.6H585.125V298.336L586.853 297.328L592.829 283H602.117L595.493 297.256L592.397 299.704L595.781 302.152L603.125 319H593.477L587.141 304.096Z" fill="#00549F"/>
<g clip-path="url(#clip0_330_1330)">
<path d="M329 327.98V-3.36115e-05H294.231L291.534 12.9374C291.517 12.8723 291.525 12.813 291.517 12.7508C291.194 10.4929 290.568 8.41588 289.602 6.53708C288.68 4.63224 287.377 3.07247 285.677 1.86793C283.997 0.638784 281.849 0.0144274 279.185 0.0144274C276.518 0.0144274 274.345 0.638784 272.65 1.86793C270.967 3.07247 269.661 4.63224 268.704 6.53708C267.782 8.41588 267.159 10.4929 266.794 12.7508C266.477 15.0065 266.323 17.1964 266.323 19.3269C266.323 21.4322 266.477 23.6315 266.794 25.8865C267.159 28.153 267.782 30.2409 268.704 32.1458C269.661 34.0333 270.967 35.5735 272.65 36.82C274.345 38.0209 276.518 38.6286 279.185 38.6286C281.849 38.6286 283.997 38.0209 285.677 36.82C286.173 36.4496 286.397 35.8701 286.824 35.452L278.975 73.0489H278.069C277.862 74.1768 277.386 75.1173 276.692 75.9145C276.008 76.6806 275.184 77.3216 274.181 77.8193C273.231 78.3026 272.143 78.6615 270.954 78.8676C269.744 79.0912 268.497 79.1925 267.21 79.1925V83.9716H276.371V85.5147L248.922 216.925C248.001 216.722 247.052 216.552 245.972 216.552C243.309 216.552 241.116 217.165 239.412 218.394C237.752 219.596 236.429 221.159 235.488 223.072C234.559 224.945 233.921 227.003 233.558 229.274C233.261 231.535 233.085 233.729 233.085 235.853C233.085 237.959 233.261 240.163 233.558 242.424C233.921 244.685 234.559 246.776 235.488 248.678C236.429 250.563 237.752 252.103 239.412 253.346C239.922 253.708 240.551 253.903 241.147 254.152L225.726 327.98H329ZM247.814 222.232L242.311 248.564C241.617 247.836 240.979 247.008 240.532 245.937C240.035 244.609 239.681 243.102 239.472 241.37C239.259 239.641 239.149 237.798 239.149 235.853C239.149 233.917 239.259 232.086 239.472 230.391C239.681 228.662 240.035 227.13 240.532 225.836C241.059 224.508 241.756 223.495 242.608 222.75C243.496 221.973 244.606 221.583 245.972 221.583C246.695 221.583 247.21 221.983 247.814 222.232ZM285.975 19.3269C285.975 21.2542 285.889 23.1026 285.677 24.8374C285.456 26.5672 285.096 28.0735 284.549 29.3931C284.056 30.6562 283.373 31.6907 282.486 32.4648C281.599 33.2223 280.486 33.5789 279.185 33.5789C277.842 33.5789 276.726 33.2223 275.836 32.4648C274.994 31.6907 274.288 30.6562 273.77 29.3931C273.274 28.0735 272.912 26.5672 272.685 24.8374C272.475 23.1026 272.387 21.2542 272.387 19.3269C272.387 17.3888 272.475 15.557 272.685 13.862C272.912 12.1264 273.274 10.6036 273.77 9.30643C274.288 7.98107 274.994 6.96895 275.836 6.21728C276.726 5.4403 277.842 5.04461 279.185 5.04461C280.486 5.04461 281.599 5.4403 282.486 6.21728C283.373 6.96895 284.056 7.98107 284.549 9.30643C285.096 10.6036 285.456 12.1264 285.677 13.862C285.889 15.557 285.975 17.3888 285.975 19.3269ZM258.301 170.294C258.658 168.039 258.826 165.854 258.826 163.729C258.826 161.601 258.658 159.414 258.301 157.159C257.975 154.892 257.329 152.824 256.372 150.944C255.465 149.031 254.147 147.48 252.447 146.29C250.778 145.05 248.61 144.425 245.972 144.425C243.309 144.425 241.116 145.05 239.412 146.29C237.752 147.48 236.429 149.031 235.488 150.944C234.559 152.824 233.921 154.892 233.558 157.159C233.261 159.414 233.085 161.601 233.085 163.729C233.085 165.854 233.261 168.039 233.558 170.294C233.921 172.56 234.559 174.652 235.488 176.545C236.429 178.438 237.752 179.998 239.412 181.222C241.116 182.429 243.309 183.031 245.972 183.031C248.61 183.031 250.778 182.429 252.447 181.222C254.147 179.998 255.465 178.438 256.372 176.545C257.329 174.652 257.975 172.56 258.301 170.294ZM252.767 163.729C252.767 165.665 252.651 167.51 252.447 169.245C252.237 170.974 251.86 172.504 251.331 173.804C250.837 175.081 250.14 176.099 249.248 176.87C248.364 177.624 247.267 177.998 245.972 177.998C244.606 177.998 243.496 177.624 242.608 176.87C241.756 176.099 241.059 175.081 240.532 173.804C240.035 172.504 239.681 170.974 239.472 169.245C239.259 167.51 239.149 165.665 239.149 163.729C239.149 161.787 239.259 159.965 239.472 158.263C239.681 156.537 240.035 155.008 240.532 153.705C241.059 152.388 241.756 151.38 242.608 150.619C243.496 149.845 244.606 149.452 245.972 149.452C247.267 149.452 248.364 149.845 249.248 150.619C250.14 151.38 250.837 152.388 251.331 153.705C251.86 155.008 252.237 156.537 252.447 158.263C252.651 159.965 252.767 161.787 252.767 163.729ZM243.136 110.168H249.778V73.0489H244.83C244.624 74.1768 244.173 75.1173 243.453 75.9145C242.801 76.6806 241.943 77.3216 240.963 77.8193C239.999 78.3026 238.925 78.6615 237.715 78.8676C236.511 79.0912 235.278 79.1925 233.991 79.1925V83.9716H243.136V110.168ZM243.136 37.1166H249.778V-3.36115e-05H244.83C244.624 1.13072 244.173 2.09147 243.453 2.8605C242.801 3.63169 241.943 4.2792 240.963 4.76174C239.999 5.27394 238.925 5.63277 237.715 5.84185C236.511 6.04224 235.264 6.158 233.991 6.158V10.9284H243.136V37.1166ZM225.063 315.272C225.429 313.012 225.593 310.827 225.593 308.693C225.593 306.588 225.429 304.384 225.063 302.123C224.742 299.862 224.122 297.799 223.159 295.925C222.235 294.004 220.929 292.463 219.234 291.257C217.551 290.013 215.395 289.392 212.734 289.392C210.07 289.392 207.903 290.013 206.194 291.257C204.519 292.463 203.216 294.004 202.255 295.925C201.329 297.799 200.705 299.862 200.343 302.123C200.025 304.384 199.881 306.588 199.881 308.693C199.881 310.827 200.025 313.012 200.343 315.272C200.705 317.544 201.329 319.615 202.255 321.537C203.216 323.411 204.519 324.971 206.194 326.209C207.903 327.392 210.07 328 212.734 328C215.395 328 217.551 327.392 219.234 326.209C220.929 324.971 222.235 323.411 223.159 321.537C224.122 319.615 224.742 317.544 225.063 315.272ZM219.532 308.693C219.532 310.657 219.441 312.48 219.234 314.212C219.004 315.947 218.645 317.473 218.092 318.768C217.607 320.045 216.922 321.071 216.032 321.854C215.148 322.597 214.038 322.97 212.734 322.97C211.391 322.97 210.28 322.597 209.39 321.854C208.54 321.071 207.843 320.045 207.313 318.768C206.82 317.473 206.463 315.947 206.239 314.212C206.03 312.48 205.936 310.657 205.936 308.693C205.936 306.757 206.03 304.929 206.239 303.239C206.463 301.501 206.82 299.995 207.313 298.675C207.843 297.375 208.54 296.343 209.39 295.609C210.28 294.818 211.391 294.436 212.734 294.436C214.038 294.436 215.148 294.818 216.032 295.609C216.922 296.343 217.607 297.375 218.092 298.675C218.645 299.995 219.004 301.501 219.234 303.239C219.441 304.929 219.532 306.757 219.532 308.693ZM209.926 182.296H216.571V145.154H211.615C211.41 146.29 210.94 147.245 210.243 148.019C209.563 148.811 208.727 149.452 207.735 149.944C206.784 150.427 205.69 150.783 204.496 150.992C203.295 151.204 202.045 151.318 200.762 151.318V156.079H209.926V182.296ZM216.571 217.278H211.615C211.41 218.412 210.94 219.372 210.234 220.147C209.563 220.941 208.727 221.559 207.735 222.063C206.784 222.557 205.69 222.911 204.496 223.123C203.295 223.329 202.045 223.442 200.762 223.442V228.209H209.917V254.406H216.571V217.278ZM225.063 98.1693C225.429 95.9164 225.593 93.7237 225.593 91.5989C225.593 89.4936 225.429 87.2864 225.063 85.0285C224.742 82.7649 224.122 80.6958 223.159 78.8336C222.235 76.915 220.929 75.3633 219.234 74.1623C217.551 72.9187 215.395 72.2972 212.734 72.2972C210.07 72.2972 207.903 72.9187 206.194 74.1623C204.519 75.3633 203.216 76.915 202.255 78.8336C201.329 80.6958 200.705 82.7649 200.343 85.0285C200.031 87.2864 199.881 89.4936 199.881 91.5989C199.881 93.7237 200.031 95.9164 200.343 98.1693C200.705 100.455 201.329 102.524 202.255 104.44C203.216 106.308 204.519 107.868 206.194 109.111C207.903 110.298 210.07 110.9 212.734 110.9C215.395 110.9 217.551 110.298 219.234 109.111C220.929 107.868 222.235 106.308 223.159 104.44C224.122 102.524 224.742 100.455 225.063 98.1693ZM219.532 91.5989C219.532 93.537 219.441 95.3797 219.234 97.121C219.004 98.8472 218.645 100.374 218.098 101.676C217.607 102.953 216.922 103.976 216.04 104.762C215.148 105.494 214.038 105.873 212.734 105.873C211.391 105.873 210.28 105.494 209.39 104.762C208.54 103.976 207.843 102.953 207.313 101.676C206.82 100.374 206.463 98.8472 206.239 97.121C206.03 95.3797 205.936 93.537 205.936 91.5989C205.936 89.6571 206.03 87.8377 206.239 86.1361C206.463 84.4064 206.82 82.8806 207.313 81.5806C207.843 80.2747 208.54 79.2489 209.39 78.5117C210.28 77.7231 211.391 77.3448 212.734 77.3448C214.038 77.3448 215.148 77.7231 216.04 78.5117C216.922 79.2489 217.607 80.2747 218.098 81.5806C218.645 82.8806 219.004 84.4064 219.234 86.1361C219.441 87.8377 219.532 89.6571 219.532 91.5989ZM225.063 25.8865C225.429 23.6315 225.593 21.4322 225.593 19.3269C225.593 17.1964 225.429 15.0065 225.063 12.7508C224.742 10.4929 224.122 8.41588 223.159 6.53708C222.235 4.63224 220.929 3.07247 219.234 1.86793C217.551 0.638784 215.395 0.0144274 212.734 0.0144274C210.07 0.0144274 207.903 0.638784 206.194 1.86793C204.519 3.07247 203.216 4.63224 202.255 6.53708C201.329 8.41588 200.705 10.4929 200.343 12.7508C200.031 15.0065 199.881 17.1964 199.881 19.3269C199.881 21.4322 200.031 23.6315 200.343 25.8865C200.705 28.153 201.329 30.2409 202.255 32.1458C203.216 34.0333 204.519 35.5735 206.194 36.82C207.903 38.0209 210.07 38.6286 212.734 38.6286C215.395 38.6286 217.551 38.0209 219.234 36.82C220.929 35.5735 222.235 34.0333 223.159 32.1458C224.122 30.2409 224.742 28.153 225.063 25.8865ZM219.532 19.3269C219.532 21.2542 219.441 23.1026 219.234 24.8374C219.004 26.5672 218.645 28.0735 218.098 29.3931C217.607 30.6562 216.922 31.6907 216.04 32.4648C215.148 33.2223 214.038 33.5789 212.734 33.5789C211.391 33.5789 210.28 33.2223 209.39 32.4648C208.54 31.6907 207.843 30.6562 207.322 29.3931C206.82 28.0735 206.463 26.5672 206.239 24.8374C206.03 23.1026 205.936 21.2542 205.936 19.3269C205.936 17.3888 206.03 15.557 206.239 13.862C206.463 12.1264 206.82 10.6036 207.322 9.30643C207.843 7.98107 208.54 6.96895 209.39 6.21728C210.28 5.4403 211.391 5.04461 212.734 5.04461C214.038 5.04461 215.148 5.4403 216.04 6.21728C216.922 6.96895 217.607 7.98107 218.098 9.30643C218.645 10.6036 219.004 12.1264 219.234 13.862C219.441 15.557 219.532 17.3888 219.532 19.3269ZM191.847 242.424C192.21 240.163 192.377 237.959 192.377 235.853C192.377 233.729 192.21 231.535 191.847 229.274C191.527 227.003 190.884 224.945 189.926 223.072C189.019 221.159 187.69 219.596 185.993 218.394C184.332 217.165 182.162 216.552 179.516 216.552C176.852 216.552 174.664 217.165 172.967 218.394C171.306 219.596 169.983 221.159 169.042 223.072C168.11 224.945 167.472 227.003 167.113 229.274C166.806 231.535 166.642 233.729 166.642 235.853C166.642 237.959 166.806 240.163 167.113 242.424C167.472 244.685 168.11 246.776 169.042 248.678C169.983 250.563 171.306 252.103 172.967 253.346C174.664 254.556 176.852 255.155 179.516 255.155C182.162 255.155 184.332 254.556 185.993 253.346C187.69 252.103 189.019 250.563 189.926 248.678C190.884 246.776 191.527 244.685 191.847 242.424ZM186.313 235.853C186.313 237.798 186.202 239.641 185.993 241.37C185.789 243.102 185.407 244.609 184.873 245.937C184.389 247.191 183.692 248.226 182.802 249C181.918 249.749 180.819 250.102 179.516 250.102C178.153 250.102 177.042 249.749 176.158 249C175.307 248.226 174.602 247.191 174.083 245.937C173.59 244.609 173.225 243.102 173.024 241.37C172.811 239.641 172.703 237.798 172.703 235.853C172.703 233.917 172.811 232.086 173.024 230.391C173.225 228.662 173.59 227.13 174.083 225.836C174.602 224.508 175.307 223.495 176.158 222.75C177.042 221.973 178.153 221.583 179.516 221.583C180.819 221.583 181.918 221.973 182.802 222.75C183.692 223.495 184.389 224.508 184.873 225.836C185.407 227.13 185.789 228.662 185.993 230.391C186.202 232.086 186.313 233.917 186.313 235.853ZM174.517 149.944C173.545 150.427 172.471 150.783 171.267 150.992C170.057 151.204 168.83 151.318 167.549 151.318V156.079H176.684V182.296H183.33V145.154H178.382C178.172 146.29 177.725 147.245 177.005 148.019C176.348 148.811 175.498 149.452 174.517 149.944ZM191.847 26.0615C192.21 23.8037 192.377 21.6051 192.377 19.4687C192.377 17.3657 192.21 15.1642 191.847 12.9006C191.541 10.7476 190.895 8.78626 190.011 6.99211L191.47 -3.36115e-05H120.911H87.1931H86.0455C90.2391 1.71816 94.2208 3.71925 97.8247 6.23975C104.124 10.6318 109.123 16.2443 112.823 23.0628C116.513 29.8965 118.363 38.1793 118.363 47.909H82.4867C82.1668 42.8904 81.1091 38.7219 79.2956 35.4266C77.4879 32.1291 75.0882 29.5399 72.0988 27.6611C69.1007 25.7758 65.6405 24.4396 61.7074 23.6597C57.7692 22.8711 53.601 22.4783 49.197 22.4783C46.2076 22.4783 43.2124 22.8002 40.2289 23.4217C37.2336 24.0496 34.5192 25.1485 32.0825 26.7199C29.6394 28.2883 27.6394 30.2865 26.0609 32.7224C24.4883 35.1553 23.7063 38.1005 23.7063 41.5506C23.7063 44.8488 24.3294 47.5191 25.5902 49.5513C26.8487 51.6001 29.3282 53.4449 33.0285 55.0871C36.7179 56.7344 41.8414 58.4642 48.3701 60.2641C54.8987 62.0727 63.436 64.3082 73.9856 66.9734C76.0291 67.4508 78.7066 68.115 82.0159 68.9766C85.3143 69.844 88.8195 71.0146 92.5176 72.5034C96.2128 74.0017 99.908 75.9203 103.611 78.2802C107.309 80.6314 110.696 83.5389 113.764 86.9898C116.833 90.4457 119.315 94.5658 121.199 99.3557C123.084 104.144 124.03 109.671 124.03 115.95C124.03 123.643 122.537 130.781 119.548 137.371C116.558 143.962 112.112 149.656 106.207 154.446C100.31 159.236 92.9876 162.997 84.2574 165.738C83.3992 166.006 82.3764 166.097 81.4979 166.337C86.0368 168.522 90.3784 171.006 94.3028 174.064C100.829 179.165 106.221 185.48 110.471 193.011C114.716 200.548 117.391 209.185 118.494 218.912H82.6172C81.9854 214.673 80.5629 210.787 78.3664 207.255C76.1589 203.722 73.4046 200.628 70.104 197.957C66.7939 195.295 63.0596 193.218 58.8885 191.717C54.7174 190.228 50.3475 189.48 45.7855 189.48C37.4462 189.48 30.3597 191.099 24.539 194.306C18.7162 197.528 13.9953 201.843 10.382 207.255C6.75498 212.672 4.12031 218.836 2.46493 225.745C0.824786 232.604 0.00580325 239.697 0 247.025V247.298C0.00580325 254.307 0.824786 261.137 2.46493 267.767C4.12031 274.434 6.75498 280.439 10.382 285.774C13.9953 291.107 18.7162 295.388 24.539 298.604C30.3597 301.826 37.4462 303.428 45.7855 303.428C57.117 303.428 65.9692 299.938 72.3448 292.961C78.7211 285.973 82.6172 276.906 84.031 265.758H119.907C118.964 276.279 116.53 285.774 112.597 294.252C108.658 302.725 103.467 309.951 97.0144 315.913C91.4861 321.023 84.9857 324.9 77.8477 328H120.911V327.98H122.942L143.469 229.735V254.406H150.113V217.278H146.076L153.88 179.905C154.945 178.89 156.041 177.907 156.707 176.545C157.666 174.652 158.289 172.56 158.611 170.294C158.971 168.039 159.148 165.854 159.148 163.729C159.148 161.63 158.971 159.47 158.617 157.238L173.925 83.9716H176.684V110.168H183.33V73.0489H178.382C178.172 74.1768 177.725 75.1173 177.005 75.9145C176.562 76.426 175.931 76.7906 175.344 77.1776L183.497 38.1569C184.412 37.8682 185.276 37.5123 185.993 36.9864C187.69 35.7406 189.019 34.1779 189.926 32.3129C190.884 30.416 191.527 28.3252 191.847 26.0615ZM38.1034 92.407C31.8076 90.8386 25.6728 88.9142 19.6853 86.6332C13.7087 84.3644 8.35668 81.4192 3.63284 77.8107C2.28938 76.7819 1.16718 75.5528 0 74.3605V110.061H18.0387C18.0387 115.71 19.0564 120.5 21.1108 124.423C23.1448 128.351 25.8651 131.524 29.2484 133.958C32.6346 136.393 36.5677 138.196 41.0594 139.375C45.5388 140.556 50.2997 141.141 55.3318 141.141C58.6418 141.141 62.1811 140.864 65.9583 140.316C69.7326 139.768 73.2805 138.711 76.5811 137.139C79.8912 135.571 82.6397 133.412 84.8413 130.665C87.0487 127.915 88.1514 124.423 88.1514 120.189C88.1514 115.639 86.6947 111.949 83.7815 109.119C80.8661 106.299 77.0519 103.906 72.331 101.945C67.6129 99.9779 62.2602 98.3328 56.2814 96.9966C50.2997 95.6654 44.2411 94.1389 38.1034 92.407ZM138.051 296.697C136.838 296.909 135.591 297.013 134.307 297.013V301.784H143.469V328H150.113V290.861H145.169C144.956 291.992 144.491 292.961 143.789 293.721C143.106 294.521 142.279 295.137 141.282 295.637C140.338 296.131 139.238 296.493 138.051 296.697ZM171.267 296.697C170.057 296.909 168.81 297.013 167.549 297.013V301.784H176.684V328H183.33V290.861H178.382C178.172 291.992 177.725 292.961 177.005 293.721C176.348 294.521 175.498 295.137 174.517 295.637C173.545 296.131 172.471 296.493 171.267 296.697Z" fill="#00549F"/>
</g>
<defs>
<clipPath id="clip0_330_1330">
<rect width="329" height="328" fill="white"/>
</clipPath>
</defs>
</svg>
