<svg width="702" height="328" viewBox="0 0 702 328" fill="none" xmlns="http://www.w3.org/2000/svg">
<path d="M365.88 234.04C365.88 232.504 365.424 231.208 364.512 230.152C363.6 229.048 362.448 228.016 361.056 227.056C359.712 226.096 358.224 225.112 356.592 224.104C355.008 223.096 353.52 221.92 352.128 220.576C350.784 219.232 349.656 217.648 348.744 215.824C347.832 214 347.376 211.768 347.376 209.128C347.376 206.68 347.736 204.616 348.456 202.936C349.224 201.208 350.256 199.816 351.552 198.76C352.848 197.656 354.384 196.864 356.16 196.384C357.936 195.856 359.832 195.592 361.848 195.592C364.296 195.592 366.576 195.832 368.688 196.312C370.8 196.792 372.552 197.44 373.944 198.256L371.136 206.248C370.32 205.672 369.096 205.144 367.464 204.664C365.88 204.184 364.152 203.944 362.28 203.944C360.408 203.944 358.968 204.328 357.96 205.096C356.952 205.864 356.448 206.992 356.448 208.48C356.448 209.824 356.904 211.024 357.816 212.08C358.728 213.088 359.856 214.072 361.2 215.032C362.592 215.992 364.08 217 365.664 218.056C367.296 219.064 368.784 220.264 370.128 221.656C371.52 223 372.672 224.608 373.584 226.48C374.496 228.304 374.952 230.488 374.952 233.032C374.952 235.576 374.568 237.784 373.8 239.656C373.08 241.528 372.024 243.088 370.632 244.336C369.288 245.536 367.656 246.448 365.736 247.072C363.816 247.696 361.68 248.008 359.328 248.008C356.352 248.008 353.736 247.72 351.48 247.144C349.272 246.568 347.568 245.92 346.368 245.2L349.32 237.064C350.28 237.64 351.6 238.216 353.28 238.792C354.96 239.368 356.76 239.656 358.68 239.656C363.48 239.656 365.88 237.784 365.88 234.04ZM376.929 211H380.889V204.232L389.457 201.568V211H396.441V218.632H389.457V234.328C389.457 236.392 389.649 237.856 390.033 238.72C390.465 239.584 391.209 240.016 392.265 240.016C392.985 240.016 393.633 239.944 394.209 239.8C394.785 239.656 395.409 239.44 396.081 239.152L397.161 245.992C396.105 246.52 394.881 246.952 393.489 247.288C392.097 247.672 390.633 247.864 389.097 247.864C386.361 247.864 384.297 247.072 382.905 245.488C381.561 243.904 380.889 241.24 380.889 237.496V218.632H376.929V211ZM408.97 211V232.528C408.97 235.36 409.234 237.328 409.762 238.432C410.29 239.536 411.25 240.088 412.642 240.088C413.986 240.088 415.114 239.608 416.026 238.648C416.938 237.64 417.586 236.44 417.97 235.048V211H426.538V236.056C426.538 238.024 426.61 239.968 426.754 241.888C426.898 243.76 427.162 245.464 427.546 247H421.066L419.554 242.104H419.338C418.426 243.784 417.178 245.176 415.594 246.28C414.058 247.384 412.138 247.936 409.834 247.936C408.346 247.936 407.026 247.72 405.874 247.288C404.722 246.904 403.738 246.208 402.922 245.2C402.106 244.192 401.482 242.824 401.05 241.096C400.618 239.32 400.402 237.088 400.402 234.4V211H408.97ZM458.671 234.328C458.671 236.344 458.695 238.36 458.743 240.376C458.791 242.392 458.983 244.624 459.319 247.072H453.271L452.119 242.896H451.831C450.199 246.256 447.343 247.936 443.263 247.936C439.615 247.936 436.735 246.496 434.623 243.616C432.559 240.736 431.527 236.056 431.527 229.576C431.527 223.24 432.655 218.44 434.911 215.176C437.167 211.864 440.527 210.208 444.991 210.208C446.143 210.208 447.103 210.28 447.871 210.424C448.639 210.568 449.383 210.808 450.103 211.144V196.6H458.671V234.328ZM445.279 240.088C446.575 240.088 447.607 239.776 448.375 239.152C449.143 238.48 449.719 237.52 450.103 236.272V219.28C449.623 218.848 449.071 218.536 448.447 218.344C447.871 218.152 447.103 218.056 446.143 218.056C444.223 218.056 442.783 218.92 441.823 220.648C440.863 222.376 440.383 225.448 440.383 229.864C440.383 233.176 440.767 235.72 441.535 237.496C442.351 239.224 443.599 240.088 445.279 240.088ZM465.605 211H474.173V247H465.605V211ZM464.597 200.848C464.597 199.408 465.053 198.232 465.965 197.32C466.877 196.36 468.173 195.88 469.853 195.88C471.533 195.88 472.877 196.336 473.885 197.248C474.893 198.16 475.397 199.36 475.397 200.848C475.397 202.336 474.893 203.512 473.885 204.376C472.877 205.24 471.533 205.672 469.853 205.672C468.173 205.672 466.877 205.24 465.965 204.376C465.053 203.464 464.597 202.288 464.597 200.848ZM505.393 244.336C504.193 245.392 502.561 246.256 500.497 246.928C498.433 247.6 496.273 247.936 494.017 247.936C491.521 247.936 489.361 247.504 487.537 246.64C485.761 245.776 484.297 244.528 483.145 242.896C481.993 241.264 481.129 239.296 480.553 236.992C480.025 234.64 479.761 231.976 479.761 229C479.761 222.52 481.033 217.744 483.577 214.672C486.169 211.552 489.745 209.992 494.305 209.992C495.841 209.992 497.329 210.232 498.769 210.712C500.209 211.144 501.481 211.912 502.585 213.016C503.737 214.072 504.649 215.512 505.321 217.336C506.041 219.112 506.401 221.368 506.401 224.104C506.401 225.16 506.329 226.288 506.185 227.488C506.089 228.688 505.921 229.984 505.681 231.376H488.185C488.281 234.352 488.905 236.632 490.057 238.216C491.209 239.8 493.057 240.592 495.601 240.592C497.137 240.592 498.529 240.352 499.777 239.872C501.073 239.392 502.057 238.888 502.729 238.36L505.393 244.336ZM494.161 217.336C492.337 217.336 490.969 218.08 490.057 219.568C489.145 221.008 488.617 223.048 488.473 225.688H498.409C498.553 222.952 498.265 220.888 497.545 219.496C496.825 218.056 495.697 217.336 494.161 217.336ZM529.71 247V225.112C529.71 222.472 529.398 220.624 528.774 219.568C528.15 218.512 527.094 217.984 525.606 217.984C524.358 217.984 523.278 218.368 522.366 219.136C521.454 219.904 520.806 220.864 520.422 222.016V247H511.854V211H518.694L519.702 215.176H519.918C520.782 213.784 521.958 212.608 523.446 211.648C524.934 210.64 526.878 210.136 529.278 210.136C530.718 210.136 531.99 210.352 533.094 210.784C534.246 211.216 535.206 211.936 535.974 212.944C536.742 213.904 537.318 215.224 537.702 216.904C538.086 218.536 538.278 220.576 538.278 223.024V247H529.71ZM565.438 245.056C564.238 246.016 562.798 246.736 561.118 247.216C559.438 247.696 557.758 247.936 556.078 247.936C553.63 247.936 551.566 247.504 549.886 246.64C548.254 245.728 546.91 244.456 545.854 242.824C544.798 241.144 544.03 239.152 543.55 236.848C543.118 234.496 542.902 231.88 542.902 229C542.902 222.712 544.03 217.984 546.286 214.816C548.542 211.648 551.854 210.064 556.222 210.064C558.382 210.064 560.134 210.256 561.478 210.64C562.87 211.024 564.094 211.504 565.15 212.08L563.134 219.208C562.27 218.776 561.43 218.464 560.614 218.272C559.846 218.032 558.91 217.912 557.806 217.912C555.79 217.912 554.278 218.8 553.27 220.576C552.262 222.304 551.758 225.112 551.758 229C551.758 232.264 552.262 234.928 553.27 236.992C554.326 239.056 555.982 240.088 558.238 240.088C559.438 240.088 560.446 239.944 561.262 239.656C562.126 239.32 562.918 238.912 563.638 238.432L565.438 245.056ZM592.791 244.336C591.591 245.392 589.959 246.256 587.895 246.928C585.831 247.6 583.671 247.936 581.415 247.936C578.919 247.936 576.759 247.504 574.935 246.64C573.159 245.776 571.695 244.528 570.543 242.896C569.391 241.264 568.527 239.296 567.951 236.992C567.423 234.64 567.159 231.976 567.159 229C567.159 222.52 568.431 217.744 570.975 214.672C573.567 211.552 577.143 209.992 581.703 209.992C583.239 209.992 584.727 210.232 586.167 210.712C587.607 211.144 588.879 211.912 589.983 213.016C591.135 214.072 592.047 215.512 592.719 217.336C593.439 219.112 593.799 221.368 593.799 224.104C593.799 225.16 593.727 226.288 593.583 227.488C593.487 228.688 593.319 229.984 593.079 231.376H575.583C575.679 234.352 576.303 236.632 577.455 238.216C578.607 239.8 580.455 240.592 582.999 240.592C584.535 240.592 585.927 240.352 587.175 239.872C588.471 239.392 589.455 238.888 590.127 238.36L592.791 244.336ZM581.559 217.336C579.735 217.336 578.367 218.08 577.455 219.568C576.543 221.008 576.015 223.048 575.871 225.688H585.807C585.951 222.952 585.663 220.888 584.943 219.496C584.223 218.056 583.095 217.336 581.559 217.336ZM617.108 247V225.112C617.108 222.472 616.796 220.624 616.172 219.568C615.548 218.512 614.492 217.984 613.004 217.984C611.756 217.984 610.676 218.368 609.764 219.136C608.852 219.904 608.204 220.864 607.82 222.016V247H599.252V211H606.092L607.1 215.176H607.316C608.18 213.784 609.356 212.608 610.844 211.648C612.332 210.64 614.276 210.136 616.676 210.136C618.116 210.136 619.388 210.352 620.492 210.784C621.644 211.216 622.604 211.936 623.372 212.944C624.14 213.904 624.716 215.224 625.1 216.904C625.484 218.536 625.676 220.576 625.676 223.024V247H617.108ZM628.788 211H632.748V204.232L641.316 201.568V211H648.3V218.632H641.316V234.328C641.316 236.392 641.508 237.856 641.892 238.72C642.324 239.584 643.068 240.016 644.124 240.016C644.844 240.016 645.492 239.944 646.068 239.8C646.644 239.656 647.268 239.44 647.94 239.152L649.02 245.992C647.964 246.52 646.74 246.952 645.348 247.288C643.956 247.672 642.492 247.864 640.956 247.864C638.22 247.864 636.156 247.072 634.764 245.488C633.42 243.904 632.748 241.24 632.748 237.496V218.632H628.788V211ZM676.885 244.336C675.685 245.392 674.053 246.256 671.989 246.928C669.925 247.6 667.765 247.936 665.509 247.936C663.013 247.936 660.853 247.504 659.029 246.64C657.253 245.776 655.789 244.528 654.637 242.896C653.485 241.264 652.621 239.296 652.045 236.992C651.517 234.64 651.253 231.976 651.253 229C651.253 222.52 652.525 217.744 655.069 214.672C657.661 211.552 661.237 209.992 665.797 209.992C667.333 209.992 668.821 210.232 670.261 210.712C671.701 211.144 672.973 211.912 674.077 213.016C675.229 214.072 676.141 215.512 676.813 217.336C677.533 219.112 677.893 221.368 677.893 224.104C677.893 225.16 677.821 226.288 677.677 227.488C677.581 228.688 677.413 229.984 677.173 231.376H659.677C659.773 234.352 660.397 236.632 661.549 238.216C662.701 239.8 664.549 240.592 667.093 240.592C668.629 240.592 670.021 240.352 671.269 239.872C672.565 239.392 673.549 238.888 674.221 238.36L676.885 244.336ZM665.653 217.336C663.829 217.336 662.461 218.08 661.549 219.568C660.637 221.008 660.109 223.048 659.965 225.688H669.901C670.045 222.952 669.757 220.888 669.037 219.496C668.317 218.056 667.189 217.336 665.653 217.336ZM700.338 219.496C699.186 219.064 698.13 218.848 697.17 218.848C695.874 218.848 694.746 219.208 693.786 219.928C692.874 220.648 692.25 221.656 691.914 222.952V247H683.346V211H689.898L690.906 215.32H691.194C691.818 213.736 692.706 212.512 693.858 211.648C695.058 210.736 696.426 210.28 697.962 210.28C699.114 210.28 700.242 210.52 701.346 211L700.338 219.496ZM349.032 268.6H358.104V319H349.032V268.6ZM383.108 319V297.112C383.108 294.472 382.796 292.624 382.172 291.568C381.548 290.512 380.492 289.984 379.004 289.984C377.756 289.984 376.676 290.368 375.764 291.136C374.852 291.904 374.204 292.864 373.82 294.016V319H365.252V283H372.092L373.1 287.176H373.316C374.18 285.784 375.356 284.608 376.844 283.648C378.332 282.64 380.276 282.136 382.676 282.136C384.116 282.136 385.388 282.352 386.492 282.784C387.644 283.216 388.604 283.936 389.372 284.944C390.14 285.904 390.716 287.224 391.1 288.904C391.484 290.536 391.676 292.576 391.676 295.024V319H383.108ZM395.076 283H398.964V280.984C398.964 276.424 399.804 273.136 401.484 271.12C403.212 269.056 405.66 268.024 408.828 268.024C411.996 268.024 414.636 268.456 416.748 269.32L415.164 276.592C414.3 276.256 413.532 276.064 412.86 276.016C412.188 275.92 411.492 275.872 410.772 275.872C409.38 275.872 408.492 276.424 408.108 277.528C407.724 278.584 407.532 280.408 407.532 283H413.652V290.632H407.532V319H398.964V290.632H395.076V283ZM415.495 301C415.495 294.616 416.743 289.864 419.239 286.744C421.735 283.624 425.215 282.064 429.679 282.064C434.479 282.064 438.055 283.648 440.407 286.816C442.759 289.984 443.935 294.712 443.935 301C443.935 307.432 442.687 312.208 440.191 315.328C437.695 318.4 434.191 319.936 429.679 319.936C420.223 319.936 415.495 313.624 415.495 301ZM424.351 301C424.351 304.6 424.759 307.384 425.575 309.352C426.391 311.32 427.759 312.304 429.679 312.304C431.503 312.304 432.847 311.464 433.711 309.784C434.623 308.056 435.079 305.128 435.079 301C435.079 297.304 434.671 294.496 433.855 292.576C433.039 290.656 431.647 289.696 429.679 289.696C427.999 289.696 426.679 290.56 425.719 292.288C424.807 293.968 424.351 296.872 424.351 301ZM465.846 291.496C464.694 291.064 463.638 290.848 462.678 290.848C461.382 290.848 460.254 291.208 459.294 291.928C458.382 292.648 457.758 293.656 457.422 294.952V319H448.854V283H455.406L456.414 287.32H456.702C457.326 285.736 458.214 284.512 459.366 283.648C460.566 282.736 461.934 282.28 463.47 282.28C464.622 282.28 465.75 282.52 466.854 283L465.846 291.496ZM486.58 319V298.048C486.58 295.024 486.34 292.936 485.86 291.784C485.38 290.584 484.444 289.984 483.052 289.984C481.9 289.984 480.94 290.368 480.172 291.136C479.452 291.856 478.9 292.744 478.516 293.8V319H469.948V283H476.572L477.652 287.32H477.868C478.78 285.832 479.908 284.608 481.252 283.648C482.644 282.64 484.468 282.136 486.724 282.136C488.596 282.136 490.108 282.544 491.26 283.36C492.46 284.176 493.396 285.616 494.068 287.68C494.98 285.952 496.18 284.608 497.668 283.648C499.156 282.64 500.908 282.136 502.924 282.136C504.508 282.136 505.852 282.352 506.956 282.784C508.108 283.168 509.02 283.864 509.692 284.872C510.412 285.88 510.94 287.272 511.276 289.048C511.612 290.776 511.78 292.984 511.78 295.672V319H503.212V297.112C503.212 294.664 502.996 292.864 502.564 291.712C502.132 290.56 501.172 289.984 499.684 289.984C498.484 289.984 497.5 290.344 496.732 291.064C496.012 291.736 495.484 292.672 495.148 293.872V319H486.58ZM517.762 285.16C519.202 284.296 521.002 283.6 523.162 283.072C525.322 282.544 527.77 282.28 530.506 282.28C534.586 282.28 537.418 283.336 539.002 285.448C540.634 287.56 541.45 290.56 541.45 294.448C541.45 296.704 541.378 298.936 541.234 301.144C541.138 303.304 541.066 305.44 541.018 307.552C540.97 309.616 540.994 311.632 541.09 313.6C541.234 315.52 541.57 317.344 542.098 319.072H535.114L533.746 314.68H533.458C532.69 316.072 531.61 317.224 530.218 318.136C528.826 319.048 527.074 319.504 524.962 319.504C522.13 319.504 519.898 318.568 518.266 316.696C516.634 314.776 515.818 312.232 515.818 309.064C515.818 304.744 517.354 301.672 520.426 299.848C523.498 298.024 527.65 297.256 532.882 297.544C533.122 294.76 532.93 292.744 532.306 291.496C531.73 290.248 530.458 289.624 528.49 289.624C527.05 289.624 525.562 289.792 524.026 290.128C522.49 290.464 521.122 290.944 519.922 291.568L517.762 285.16ZM528.058 312.16C529.354 312.16 530.41 311.848 531.226 311.224C532.042 310.552 532.642 309.832 533.026 309.064V303.088C531.922 302.944 530.866 302.92 529.858 303.016C528.85 303.112 527.962 303.328 527.194 303.664C526.426 304 525.802 304.504 525.322 305.176C524.89 305.8 524.674 306.616 524.674 307.624C524.674 309.112 524.962 310.24 525.538 311.008C526.162 311.776 527.002 312.16 528.058 312.16ZM544.624 283H548.584V276.232L557.152 273.568V283H564.136V290.632H557.152V306.328C557.152 308.392 557.344 309.856 557.728 310.72C558.16 311.584 558.904 312.016 559.96 312.016C560.68 312.016 561.328 311.944 561.904 311.8C562.48 311.656 563.104 311.44 563.776 311.152L564.856 317.992C563.8 318.52 562.576 318.952 561.184 319.288C559.792 319.672 558.328 319.864 556.792 319.864C554.056 319.864 551.992 319.072 550.6 317.488C549.256 315.904 548.584 313.24 548.584 309.496V290.632H544.624V283ZM569.105 283H577.673V319H569.105V283ZM568.097 272.848C568.097 271.408 568.553 270.232 569.465 269.32C570.377 268.36 571.673 267.88 573.353 267.88C575.033 267.88 576.377 268.336 577.385 269.248C578.393 270.16 578.897 271.36 578.897 272.848C578.897 274.336 578.393 275.512 577.385 276.376C576.377 277.24 575.033 277.672 573.353 277.672C571.673 277.672 570.377 277.24 569.465 276.376C568.553 275.464 568.097 274.288 568.097 272.848ZM595.141 304.096H593.125V319H584.557V268.6H593.125V298.336L594.853 297.328L600.829 283H610.117L603.493 297.256L600.397 299.704L603.781 302.152L611.125 319H601.477L595.141 304.096Z" fill="#00549F"/>
<g clip-path="url(#clip0_330_1330)">
<path d="M329 327.98V-3.05176e-05H294.231L291.534 12.9374C291.517 12.8723 291.526 12.813 291.517 12.7508C291.194 10.4929 290.568 8.41589 289.602 6.53708C288.68 4.63223 287.377 3.07248 285.677 1.86792C283.997 0.638794 281.849 0.0144348 279.185 0.0144348C276.518 0.0144348 274.345 0.638794 272.65 1.86792C270.967 3.07248 269.661 4.63223 268.704 6.53708C267.782 8.41589 267.159 10.4929 266.794 12.7508C266.477 15.0065 266.323 17.1964 266.323 19.3269C266.323 21.4322 266.477 23.6315 266.794 25.8865C267.159 28.153 267.782 30.2409 268.704 32.1458C269.661 34.0333 270.967 35.5735 272.65 36.82C274.345 38.0209 276.518 38.6286 279.185 38.6286C281.849 38.6286 283.997 38.0209 285.677 36.82C286.173 36.4496 286.397 35.8701 286.824 35.452L278.975 73.0489H278.069C277.862 74.1768 277.386 75.1172 276.692 75.9145C276.008 76.6806 275.184 77.3216 274.181 77.8193C273.231 78.3026 272.143 78.6615 270.954 78.8676C269.744 79.0912 268.497 79.1925 267.21 79.1925V83.9716H276.371V85.5147L248.922 216.925C248.001 216.722 247.052 216.552 245.972 216.552C243.309 216.552 241.116 217.165 239.412 218.394C237.752 219.596 236.429 221.159 235.488 223.072C234.559 224.945 233.921 227.003 233.558 229.274C233.261 231.535 233.085 233.729 233.085 235.853C233.085 237.959 233.261 240.163 233.558 242.424C233.921 244.685 234.559 246.776 235.488 248.678C236.429 250.563 237.752 252.103 239.412 253.346C239.922 253.708 240.551 253.903 241.147 254.152L225.726 327.98H329ZM247.814 222.232L242.311 248.564C241.617 247.836 240.979 247.008 240.532 245.937C240.035 244.609 239.681 243.102 239.472 241.37C239.259 239.641 239.149 237.798 239.149 235.853C239.149 233.917 239.259 232.086 239.472 230.391C239.681 228.662 240.035 227.13 240.532 225.836C241.059 224.508 241.756 223.495 242.608 222.75C243.496 221.973 244.606 221.583 245.972 221.583C246.695 221.583 247.21 221.983 247.814 222.232ZM285.975 19.3269C285.975 21.2542 285.889 23.1026 285.677 24.8374C285.456 26.5672 285.096 28.0735 284.549 29.3931C284.056 30.6562 283.373 31.6907 282.486 32.4648C281.599 33.2223 280.486 33.5789 279.185 33.5789C277.842 33.5789 276.726 33.2223 275.836 32.4648C274.994 31.6907 274.288 30.6562 273.77 29.3931C273.274 28.0735 272.912 26.5672 272.685 24.8374C272.475 23.1026 272.387 21.2542 272.387 19.3269C272.387 17.3888 272.475 15.557 272.685 13.862C272.912 12.1264 273.274 10.6036 273.77 9.30643C274.288 7.98108 274.994 6.96893 275.836 6.21729C276.726 5.44031 277.842 5.04462 279.185 5.04462C280.486 5.04462 281.599 5.44031 282.486 6.21729C283.373 6.96893 284.056 7.98108 284.549 9.30643C285.096 10.6036 285.456 12.1264 285.677 13.862C285.889 15.557 285.975 17.3888 285.975 19.3269ZM258.301 170.294C258.658 168.039 258.826 165.854 258.826 163.729C258.826 161.601 258.658 159.414 258.301 157.159C257.975 154.892 257.329 152.824 256.372 150.944C255.465 149.031 254.147 147.48 252.447 146.29C250.778 145.05 248.611 144.424 245.972 144.424C243.309 144.424 241.116 145.05 239.412 146.29C237.752 147.48 236.429 149.031 235.488 150.944C234.559 152.824 233.921 154.892 233.558 157.159C233.261 159.414 233.085 161.601 233.085 163.729C233.085 165.854 233.261 168.039 233.558 170.294C233.921 172.56 234.559 174.652 235.488 176.545C236.429 178.438 237.752 179.998 239.412 181.222C241.116 182.429 243.309 183.031 245.972 183.031C248.611 183.031 250.778 182.429 252.447 181.222C254.147 179.998 255.465 178.438 256.372 176.545C257.329 174.652 257.975 172.56 258.301 170.294ZM252.767 163.729C252.767 165.665 252.651 167.51 252.447 169.245C252.237 170.974 251.86 172.504 251.331 173.804C250.837 175.081 250.14 176.099 249.248 176.87C248.364 177.624 247.267 177.998 245.972 177.998C244.606 177.998 243.496 177.624 242.608 176.87C241.756 176.099 241.059 175.081 240.532 173.804C240.035 172.504 239.681 170.974 239.472 169.245C239.259 167.51 239.149 165.665 239.149 163.729C239.149 161.787 239.259 159.965 239.472 158.263C239.681 156.537 240.035 155.008 240.532 153.705C241.059 152.388 241.756 151.38 242.608 150.619C243.496 149.845 244.606 149.452 245.972 149.452C247.267 149.452 248.364 149.845 249.248 150.619C250.14 151.38 250.837 152.388 251.331 153.705C251.86 155.008 252.237 156.537 252.447 158.263C252.651 159.965 252.767 161.787 252.767 163.729ZM243.136 110.168H249.778V73.0489H244.83C244.624 74.1768 244.173 75.1172 243.453 75.9145C242.801 76.6806 241.943 77.3216 240.963 77.8193C239.999 78.3026 238.925 78.6615 237.715 78.8676C236.511 79.0912 235.278 79.1925 233.991 79.1925V83.9716H243.136V110.168ZM243.136 37.1166H249.778V-3.05176e-05H244.83C244.624 1.13071 244.173 2.09146 243.453 2.8605C242.801 3.63168 241.943 4.27921 240.963 4.76175C239.999 5.27393 238.925 5.63278 237.715 5.84186C236.511 6.04224 235.264 6.15799 233.991 6.15799V10.9284H243.136V37.1166ZM225.063 315.272C225.429 313.012 225.593 310.827 225.593 308.693C225.593 306.588 225.429 304.384 225.063 302.123C224.742 299.862 224.122 297.799 223.159 295.925C222.235 294.004 220.929 292.463 219.234 291.257C217.551 290.013 215.395 289.392 212.734 289.392C210.07 289.392 207.903 290.013 206.194 291.257C204.519 292.463 203.216 294.004 202.255 295.925C201.329 297.799 200.705 299.862 200.343 302.123C200.025 304.384 199.881 306.588 199.881 308.693C199.881 310.827 200.025 313.012 200.343 315.272C200.705 317.544 201.329 319.615 202.255 321.537C203.216 323.411 204.519 324.971 206.194 326.209C207.903 327.392 210.07 328 212.734 328C215.395 328 217.551 327.392 219.234 326.209C220.929 324.971 222.235 323.411 223.159 321.537C224.122 319.615 224.742 317.544 225.063 315.272ZM219.532 308.693C219.532 310.657 219.441 312.48 219.234 314.212C219.004 315.947 218.645 317.473 218.092 318.768C217.607 320.045 216.922 321.071 216.032 321.854C215.148 322.597 214.038 322.97 212.734 322.97C211.391 322.97 210.28 322.597 209.39 321.854C208.54 321.071 207.843 320.045 207.313 318.768C206.82 317.473 206.463 315.947 206.239 314.212C206.03 312.48 205.936 310.657 205.936 308.693C205.936 306.757 206.03 304.929 206.239 303.239C206.463 301.501 206.82 299.995 207.313 298.675C207.843 297.375 208.54 296.343 209.39 295.609C210.28 294.818 211.391 294.436 212.734 294.436C214.038 294.436 215.148 294.818 216.032 295.609C216.922 296.343 217.607 297.375 218.092 298.675C218.645 299.995 219.004 301.501 219.234 303.239C219.441 304.929 219.532 306.757 219.532 308.693ZM209.926 182.296H216.571V145.154H211.615C211.41 146.29 210.94 147.245 210.243 148.019C209.563 148.811 208.727 149.452 207.735 149.944C206.784 150.427 205.69 150.783 204.496 150.992C203.295 151.204 202.045 151.318 200.762 151.318V156.079H209.926V182.296ZM216.571 217.278H211.615C211.41 218.412 210.94 219.372 210.234 220.147C209.563 220.941 208.727 221.559 207.735 222.063C206.784 222.557 205.69 222.911 204.496 223.123C203.295 223.329 202.045 223.442 200.762 223.442V228.209H209.917V254.406H216.571V217.278ZM225.063 98.1693C225.429 95.9164 225.593 93.7237 225.593 91.5989C225.593 89.4937 225.429 87.2864 225.063 85.0285C224.742 82.7649 224.122 80.6958 223.159 78.8336C222.235 76.9151 220.929 75.3633 219.234 74.1623C217.551 72.9187 215.395 72.2972 212.734 72.2972C210.07 72.2972 207.903 72.9187 206.194 74.1623C204.519 75.3633 203.216 76.9151 202.255 78.8336C201.329 80.6958 200.705 82.7649 200.343 85.0285C200.031 87.2864 199.881 89.4937 199.881 91.5989C199.881 93.7237 200.031 95.9164 200.343 98.1693C200.705 100.455 201.329 102.524 202.255 104.44C203.216 106.308 204.519 107.868 206.194 109.111C207.903 110.298 210.07 110.9 212.734 110.9C215.395 110.9 217.551 110.298 219.234 109.111C220.929 107.868 222.235 106.308 223.159 104.44C224.122 102.524 224.742 100.455 225.063 98.1693ZM219.532 91.5989C219.532 93.537 219.441 95.3797 219.234 97.121C219.004 98.8472 218.645 100.374 218.098 101.676C217.607 102.953 216.922 103.976 216.04 104.762C215.148 105.494 214.038 105.873 212.734 105.873C211.391 105.873 210.28 105.494 209.39 104.762C208.54 103.976 207.843 102.953 207.313 101.676C206.82 100.374 206.463 98.8472 206.239 97.121C206.03 95.3797 205.936 93.537 205.936 91.5989C205.936 89.6572 206.03 87.8377 206.239 86.1361C206.463 84.4064 206.82 82.8806 207.313 81.5806C207.843 80.2747 208.54 79.2489 209.39 78.5117C210.28 77.7231 211.391 77.3448 212.734 77.3448C214.038 77.3448 215.148 77.7231 216.04 78.5117C216.922 79.2489 217.607 80.2747 218.098 81.5806C218.645 82.8806 219.004 84.4064 219.234 86.1361C219.441 87.8377 219.532 89.6572 219.532 91.5989ZM225.063 25.8865C225.429 23.6315 225.593 21.4322 225.593 19.3269C225.593 17.1964 225.429 15.0065 225.063 12.7508C224.742 10.4929 224.122 8.41589 223.159 6.53708C222.235 4.63223 220.929 3.07248 219.234 1.86792C217.551 0.638794 215.395 0.0144348 212.734 0.0144348C210.07 0.0144348 207.903 0.638794 206.194 1.86792C204.519 3.07248 203.216 4.63223 202.255 6.53708C201.329 8.41589 200.705 10.4929 200.343 12.7508C200.031 15.0065 199.881 17.1964 199.881 19.3269C199.881 21.4322 200.031 23.6315 200.343 25.8865C200.705 28.153 201.329 30.2409 202.255 32.1458C203.216 34.0333 204.519 35.5735 206.194 36.82C207.903 38.0209 210.07 38.6286 212.734 38.6286C215.395 38.6286 217.551 38.0209 219.234 36.82C220.929 35.5735 222.235 34.0333 223.159 32.1458C224.122 30.2409 224.742 28.153 225.063 25.8865ZM219.532 19.3269C219.532 21.2542 219.441 23.1026 219.234 24.8374C219.004 26.5672 218.645 28.0735 218.098 29.3931C217.607 30.6562 216.922 31.6907 216.04 32.4648C215.148 33.2223 214.038 33.5789 212.734 33.5789C211.391 33.5789 210.28 33.2223 209.39 32.4648C208.54 31.6907 207.843 30.6562 207.322 29.3931C206.82 28.0735 206.463 26.5672 206.239 24.8374C206.03 23.1026 205.936 21.2542 205.936 19.3269C205.936 17.3888 206.03 15.557 206.239 13.862C206.463 12.1264 206.82 10.6036 207.322 9.30643C207.843 7.98108 208.54 6.96893 209.39 6.21729C210.28 5.44031 211.391 5.04462 212.734 5.04462C214.038 5.04462 215.148 5.44031 216.04 6.21729C216.922 6.96893 217.607 7.98108 218.098 9.30643C218.645 10.6036 219.004 12.1264 219.234 13.862C219.441 15.557 219.532 17.3888 219.532 19.3269ZM191.847 242.424C192.21 240.163 192.377 237.959 192.377 235.853C192.377 233.729 192.21 231.535 191.847 229.274C191.527 227.003 190.884 224.945 189.926 223.072C189.019 221.159 187.69 219.596 185.993 218.394C184.332 217.165 182.162 216.552 179.516 216.552C176.852 216.552 174.664 217.165 172.967 218.394C171.306 219.596 169.983 221.159 169.042 223.072C168.11 224.945 167.472 227.003 167.113 229.274C166.806 231.535 166.642 233.729 166.642 235.853C166.642 237.959 166.806 240.163 167.113 242.424C167.472 244.685 168.11 246.776 169.042 248.678C169.983 250.563 171.306 252.103 172.967 253.346C174.664 254.556 176.852 255.155 179.516 255.155C182.162 255.155 184.332 254.556 185.993 253.346C187.69 252.103 189.019 250.563 189.926 248.678C190.884 246.776 191.527 244.685 191.847 242.424ZM186.313 235.853C186.313 237.798 186.202 239.641 185.993 241.37C185.789 243.102 185.407 244.609 184.873 245.937C184.389 247.191 183.692 248.226 182.802 249C181.918 249.749 180.819 250.102 179.516 250.102C178.153 250.102 177.042 249.749 176.158 249C175.307 248.226 174.602 247.191 174.083 245.937C173.59 244.609 173.225 243.102 173.024 241.37C172.811 239.641 172.703 237.798 172.703 235.853C172.703 233.917 172.811 232.086 173.024 230.391C173.225 228.662 173.59 227.13 174.083 225.836C174.602 224.508 175.307 223.495 176.158 222.75C177.042 221.973 178.153 221.583 179.516 221.583C180.819 221.583 181.918 221.973 182.802 222.75C183.692 223.495 184.389 224.508 184.873 225.836C185.407 227.13 185.789 228.662 185.993 230.391C186.202 232.086 186.313 233.917 186.313 235.853ZM174.517 149.944C173.545 150.427 172.471 150.783 171.267 150.992C170.057 151.204 168.83 151.318 167.549 151.318V156.079H176.684V182.296H183.33V145.154H178.382C178.172 146.29 177.725 147.245 177.005 148.019C176.348 148.811 175.497 149.452 174.517 149.944ZM191.847 26.0616C192.21 23.8036 192.377 21.6051 192.377 19.4688C192.377 17.3657 192.21 15.1642 191.847 12.9005C191.541 10.7476 190.895 8.78625 190.011 6.9921L191.47 -3.05176e-05H120.911H87.1931H86.0455C90.2391 1.71817 94.2208 3.71924 97.8247 6.23975C104.124 10.6318 109.123 16.2443 112.823 23.0628C116.513 29.8965 118.363 38.1793 118.363 47.909H82.4867C82.1668 42.8904 81.1091 38.722 79.2956 35.4266C77.4879 32.1292 75.0882 29.5399 72.0988 27.6611C69.1007 25.7758 65.6405 24.4396 61.7074 23.6597C57.7692 22.8711 53.601 22.4783 49.197 22.4783C46.2076 22.4783 43.2124 22.8002 40.2289 23.4217C37.2337 24.0497 34.5192 25.1485 32.0825 26.7198C29.6394 28.2883 27.6394 30.2865 26.0609 32.7224C24.4883 35.1553 23.7063 38.1005 23.7063 41.5506C23.7063 44.8488 24.3294 47.5191 25.5902 49.5513C26.8487 51.6001 29.3282 53.4449 33.0285 55.0871C36.7179 56.7344 41.8414 58.4641 48.3701 60.2641C54.8987 62.0727 63.436 64.3082 73.9856 66.9734C76.0291 67.4508 78.7066 68.115 82.0159 68.9766C85.3143 69.844 88.8195 71.0146 92.5176 72.5034C96.2128 74.0017 99.908 75.9203 103.611 78.2802C107.309 80.6314 110.696 83.5389 113.764 86.9898C116.833 90.4457 119.315 94.5658 121.199 99.3557C123.084 104.144 124.03 109.671 124.03 115.95C124.03 123.643 122.537 130.781 119.548 137.371C116.558 143.962 112.112 149.656 106.207 154.446C100.31 159.236 92.9876 162.997 84.2574 165.738C83.3992 166.006 82.3764 166.097 81.4979 166.337C86.0368 168.522 90.3784 171.006 94.3028 174.064C100.829 179.165 106.221 185.48 110.471 193.011C114.716 200.548 117.391 209.185 118.494 218.912H82.6172C81.9854 214.673 80.5629 210.787 78.3664 207.255C76.159 203.722 73.4046 200.628 70.104 197.957C66.7939 195.295 63.0596 193.218 58.8885 191.717C54.7174 190.228 50.3475 189.48 45.7855 189.48C37.4462 189.48 30.3597 191.099 24.539 194.306C18.7162 197.528 13.9953 201.843 10.382 207.255C6.75498 212.672 4.12031 218.836 2.46493 225.745C0.824786 232.604 0.00580325 239.697 0 247.025V247.298C0.00580325 254.307 0.824786 261.137 2.46493 267.767C4.12031 274.434 6.75498 280.439 10.382 285.774C13.9953 291.107 18.7162 295.388 24.539 298.604C30.3597 301.826 37.4462 303.428 45.7855 303.428C57.117 303.428 65.9692 299.938 72.3448 292.961C78.7211 285.973 82.6172 276.906 84.0311 265.758H119.907C118.964 276.279 116.53 285.774 112.597 294.252C108.658 302.725 103.467 309.951 97.0144 315.913C91.4861 321.023 84.9857 324.9 77.8477 328H120.911V327.98H122.942L143.469 229.735V254.406H150.113V217.278H146.076L153.88 179.905C154.945 178.89 156.041 177.907 156.707 176.545C157.666 174.652 158.289 172.56 158.611 170.294C158.971 168.039 159.148 165.854 159.148 163.729C159.148 161.63 158.971 159.47 158.617 157.238L173.925 83.9716H176.684V110.168H183.33V73.0489H178.382C178.172 74.1768 177.725 75.1172 177.005 75.9145C176.562 76.426 175.931 76.7906 175.344 77.1776L183.497 38.1569C184.412 37.8682 185.276 37.5123 185.993 36.9864C187.69 35.7406 189.019 34.1779 189.926 32.3129C190.884 30.416 191.527 28.3252 191.847 26.0616ZM38.1034 92.407C31.8076 90.8386 25.6728 88.9142 19.6853 86.6332C13.7087 84.3644 8.35668 81.4192 3.63284 77.8107C2.28938 76.7819 1.16718 75.5528 0 74.3605V110.061H18.0387C18.0387 115.71 19.0564 120.5 21.1108 124.423C23.1448 128.351 25.8651 131.524 29.2484 133.958C32.6346 136.393 36.5677 138.196 41.0594 139.375C45.5388 140.556 50.2997 141.141 55.3318 141.141C58.6418 141.141 62.1811 140.864 65.9583 140.316C69.7326 139.768 73.2805 138.711 76.5811 137.139C79.8912 135.571 82.6397 133.412 84.8413 130.665C87.0487 127.915 88.1514 124.423 88.1514 120.189C88.1514 115.639 86.6947 111.949 83.7815 109.119C80.8661 106.299 77.0519 103.906 72.331 101.945C67.6129 99.9779 62.2602 98.3328 56.2814 96.9966C50.2997 95.6654 44.2411 94.1389 38.1034 92.407ZM138.051 296.697C136.838 296.909 135.591 297.013 134.307 297.013V301.784H143.469V328H150.113V290.861H145.169C144.956 291.992 144.491 292.961 143.789 293.721C143.106 294.521 142.279 295.137 141.282 295.637C140.338 296.131 139.238 296.493 138.051 296.697ZM171.267 296.697C170.057 296.909 168.81 297.013 167.549 297.013V301.784H176.684V328H183.33V290.861H178.382C178.172 291.992 177.725 292.961 177.005 293.721C176.348 294.521 175.497 295.137 174.517 295.637C173.545 296.131 172.471 296.493 171.267 296.697Z" fill="#00549F"/>
</g>
<defs>
<clipPath id="clip0_330_1330">
<rect width="329" height="328" fill="white"/>
</clipPath>
</defs>
</svg>
