<svg width="300" height="300" viewBox="0 0 300 300" fill="none" xmlns="http://www.w3.org/2000/svg">
<path d="M285.963 0V9.225H295.187V0H285.963ZM285.963 9.225H276.737V18.4625H285.963V9.225ZM285.963 18.4625V27.6875H295.187V18.4625H285.963ZM276.737 18.4625H258.275V27.6875H249.05V46.125H239.825V55.375H221.338V64.4375C197.678 45.1075 168.052 34.5725 137.5 34.625C64.2 34.625 4.8125 94 4.8125 167.313C4.8125 240.6 64.2 300 137.5 300C210.8 300 270.187 240.6 270.187 167.313C270.187 135.313 258.887 105.987 240.037 83.075H249.038V73.85H258.287V55.375H267.5V46.125H276.737V36.9H267.5V27.675H276.737V18.45V18.4625ZM239.825 46.125V36.9H230.575V46.125H239.825ZM137.5 76.925C155.463 76.8992 173.021 82.2543 187.912 92.3H184.413V101.538H175.2C151.112 131.65 145.025 144.862 135.425 169.212C124.537 147.175 111.537 131.987 89.0375 121.925L88.7875 121.85C84.7 120.813 82.625 120.287 79.8125 124.225C76.9375 128.25 78.6625 131.887 82.1 136.162C84.5035 139.123 86.9454 142.053 89.425 144.95C96.2625 153.025 103.112 161.062 108.275 170.387C113.375 179.612 119.238 192.537 123.8 202.562C126.588 208.687 128.875 213.737 130.175 216.162C132.925 221.237 139.575 223.463 142.113 223.463C154.425 222 155.612 216.187 157.637 206.225L158.35 202.925C162.55 183.25 167.987 162.888 193.65 138.45V129.25H202.875V120H212.125V116.313C222.416 131.326 227.908 149.11 227.875 167.313C227.875 217.188 187.375 257.687 137.5 257.687C87.625 257.687 47.5 217.188 47.5 167.313C47.5 117.438 87.625 76.9375 137.5 76.9375V76.925Z" fill="#026C80"/>
</svg>
