<svg width="300" height="300" viewBox="0 0 300 300" fill="none" xmlns="http://www.w3.org/2000/svg">
<path d="M150 30C83.73 30 30 83.73 30 150C30 216.282 83.73 270 150 270C216.282 270 270 216.282 270 150C270 83.73 216.282 30 150 30ZM150 249.999C94.776 249.999 50.001 205.233 50.001 150C50.001 94.773 94.776 50.001 150 50.001C205.236 50.001 250.002 94.773 250.002 150C250.002 205.233 205.236 249.999 150 249.999Z" fill="#00A08F"/>
<path d="M246.135 177.276C224.196 191.589 198.093 200.001 170.001 200.001H129.999C110.154 200.001 92.07 207.366 78.084 219.384L78.072 219.441C82.77 224.304 87.945 228.699 93.54 232.533L93.552 232.53C103.671 224.718 116.268 219.999 129.996 219.999H169.995C191.901 219.999 212.751 215.49 231.762 207.453L231.933 207.297C238.233 198.309 243.084 188.235 246.165 177.405L246.135 177.276Z" fill="#00A08F"/>
<path d="M56.064 115.986C78.636 105.753 103.647 99.993 129.999 99.993H169.998C188.856 99.993 204.597 86.838 208.812 69.249L208.704 69.063C202.914 64.86 196.662 61.26 190.035 58.359L189.999 58.374V59.97C189.999 71.007 181.023 79.989 169.998 79.989H129.999C109.365 79.989 89.511 83.283 70.779 89.142L70.557 89.289C64.473 97.239 59.538 106.116 56.043 115.692L56.064 115.986Z" fill="#00A08F"/>
<path d="M170.001 119.991H129.999C101.055 119.991 73.893 127.755 50.439 141.27L50.4 141.309C50.154 144.177 50.001 147.069 50.001 150C50.001 154.851 50.364 159.615 51.033 164.28L51.162 164.445C73.635 149.049 100.773 139.992 130.002 139.992H170.001C198.603 139.992 223.719 124.875 237.861 102.222V102.219C234.264 95.622 229.929 89.487 225 83.895H224.892C215.634 105.087 194.571 119.991 170.001 119.991Z" fill="#00A08F"/>
<path d="M129.999 180H169.998C200.781 180 228.738 168.312 249.957 149.241L249.975 149.193C249.906 140.586 248.757 132.246 246.645 124.287L246.522 124.239C228.192 146.07 200.739 159.987 169.998 159.987H129.999C102.276 159.987 76.8239 169.479 56.5229 185.28L56.4839 185.436C58.9019 191.817 61.9619 197.88 65.5739 203.562L65.6549 203.553C83.0369 188.877 105.468 180 129.999 180Z" fill="#00A08F"/>
</svg>
