<svg width="300" height="300" viewBox="0 0 300 300" fill="none" xmlns="http://www.w3.org/2000/svg">
<g clip-path="url(#clip0_247_1309)">
<path d="M23.0751 8.51114e-05C20.0425 -0.00816232 17.0382 0.583061 14.2349 1.73977C11.4316 2.89647 8.88456 4.59585 6.7402 6.7402C4.59585 8.88456 2.89647 11.4316 1.73977 14.2349C0.583061 17.0382 -0.00816232 20.0425 8.51114e-05 23.0751V253.863C8.51114e-05 266.638 10.2876 276.925 23.0751 276.925H276.925C279.956 276.933 282.958 276.343 285.759 275.188C288.561 274.033 291.107 272.335 293.251 270.194C295.395 268.052 297.095 265.508 298.253 262.708C299.411 259.907 300.005 256.906 300 253.875V23.0751C300.008 20.0425 299.417 17.0382 298.26 14.2349C297.104 11.4316 295.404 8.88456 293.26 6.7402C291.116 4.59585 288.569 2.89647 285.765 1.73977C282.962 0.583061 279.958 -0.00816232 276.925 8.51114e-05H23.0751ZM23.0751 11.5501H276.925C283.325 11.5501 288.45 16.6751 288.45 23.0751V253.863C288.45 260.25 283.325 265.375 276.925 265.375H23.0751C21.5613 265.38 20.0614 265.086 18.6617 264.509C17.262 263.932 15.9901 263.085 14.9191 262.015C13.8481 260.945 12.9991 259.674 12.4209 258.275C11.8427 256.876 11.5468 255.376 11.5501 253.863V23.0751C11.5501 16.6751 16.6751 11.5501 23.0751 11.5501ZM23.0751 23.0751V253.863H276.925V23.0751H23.0751ZM46.1376 49.8251L86.5751 71.8001V82.2501L46.1251 105.963V92.3126L74.1626 77.2251V76.8126L46.1251 63.4501V49.8251H46.1376ZM98.0751 115.375H144.238V126.925H98.0751V115.375ZM8.51114e-05 271.7V276.925C8.51114e-05 289.713 10.2876 300 23.0751 300H276.925C279.958 300.008 282.962 299.417 285.765 298.26C288.569 297.104 291.116 295.404 293.26 293.26C295.404 291.116 297.104 288.569 298.26 285.765C299.417 282.962 300.008 279.958 300 276.925V271.7C297.289 275.252 293.799 278.134 289.798 280.123C285.797 282.113 281.393 283.157 276.925 283.175H23.0751C18.607 283.157 14.2027 282.113 10.2019 280.123C6.20115 278.134 2.71081 275.252 8.51114e-05 271.7V271.7Z" fill="#026C80"/>
</g>
<defs>
<clipPath id="clip0_247_1309">
<rect width="300" height="300" fill="white"/>
</clipPath>
</defs>
</svg>
