<svg width="50" height="50" viewBox="0 0 50 50" fill="none" xmlns="http://www.w3.org/2000/svg">
<path d="M33.2212 0C26.6611 0 20.143 0 13.6459 0.0625C13.6459 0.166667 13.5198 0.166667 13.4567 0.229167C10.5332 1.44562 7.90852 3.27176 5.76114 5.58333C3.99495 7.39583 2.56518 9.54167 1.42977 11.8333C1.00925 12.625 0.630782 13.4792 0.273339 14.3333C0.231287 14.5 0.168209 14.75 0 14.8542V27.8125C0.10513 27.9792 0.10513 28.2292 0.168209 28.4375C1.2982 32.5243 3.84392 36.0866 7.35913 38.5C7.4222 38.5625 7.46426 38.6875 7.59041 38.625C7.52733 38.5625 7.52733 38.5 7.46426 38.4583C6.95963 37.7083 6.49706 37.0208 6.05551 36.2917C3.92398 32.8104 2.98031 28.7416 3.36417 24.6875C3.7718 21.2991 5.00582 18.0601 6.95963 15.25C9.14831 12.053 11.718 9.12913 14.6131 6.54167C16.6569 4.70905 18.9676 3.19202 21.4676 2.04167C24.3722 0.715011 27.5737 0.155219 30.7611 0.416667C32.233 0.541667 33.6838 0.770833 35.1135 0.979167L35.513 1.04167C35.6812 1.10417 35.7864 1.10417 35.9546 1.10417C35.1556 0.770833 34.3566 0.416667 33.5576 0.1875C33.4525 0.145833 33.3474 0.145833 33.2212 0.0208333V0ZM29.7309 1.375C28.8267 1.41667 27.9647 1.47917 27.0606 1.64583C25.5046 1.9375 24.0328 2.39583 22.54 2.85417C21.4878 3.1783 20.4729 3.61124 19.5122 4.14583C19.4701 4.14583 19.344 4.14583 19.344 4.27083H19.4491C21.5725 3.92621 23.7134 3.69671 25.8621 3.58333C26.9344 3.52083 28.0908 3.58333 29.1632 3.75C30.7611 3.97917 32.254 4.5625 33.6207 5.35417C37.6375 7.61022 40.8647 11.0259 42.8722 15.1458C44.5412 18.705 45.5253 22.5415 45.7738 26.4583C45.8999 27.8125 45.8999 29.25 45.8368 30.6667L45.6686 33.0417C45.6055 33.7292 45.5004 34.4167 45.3743 35.1042C45.2664 35.9332 45.0762 36.7496 44.8066 37.5417C43.983 39.574 42.8868 41.487 41.5475 43.2292C40.5172 44.6042 39.3398 45.8542 38.1833 47.1042C38.0151 47.2708 37.91 47.375 37.7839 47.5625C37.91 47.5625 37.91 47.5 37.9521 47.5C39.6633 46.5191 41.288 45.3971 42.8091 44.1458C45.8143 41.6758 48.1307 38.484 49.5374 34.875L49.8949 34.0208H49.9579V46.25C49.9579 46.2917 49.9579 27.1458 50 15C50 15.0417 50 15.1042 49.9579 15.1458L49.8949 14.9583C49.1148 12.9184 48.0381 11.0023 46.6989 9.27083C44.9312 6.99667 42.6949 5.12172 40.1388 3.77083C36.9439 2.07561 33.3528 1.24898 29.7309 1.375V1.375ZM49.979 15L50 14.9583L49.979 15ZM22.6451 8.0625C21.804 7.97917 20.963 8.25 20.143 8.9375C19.5646 9.45126 19.1177 10.0939 18.8394 10.8125C18.1455 12.4792 18.0404 14.1042 18.3768 15.8125C18.6081 17.125 19.2178 18.2708 20.3112 19.1042C21.4045 20.0208 22.6661 20.1458 23.8015 19.5208C24.4954 19.1042 25 18.6042 25.3995 17.9167C26.0934 16.7292 26.3667 15.4167 26.3667 14.0625C26.3667 13.4375 26.3246 12.8542 26.1985 12.2292C26.0459 11.1558 25.5945 10.1458 24.8949 9.3125C24.3243 8.6268 23.5131 8.18026 22.6241 8.0625H22.6451ZM33.4104 10.7292C32.7198 10.7543 32.0419 10.921 31.4195 11.2186C30.797 11.5162 30.2436 11.9383 29.7939 12.4583C29.1632 13.0208 28.8267 13.7708 28.4273 14.5C27.8827 15.4744 27.6071 16.5739 27.6283 17.6875C27.6283 18.4792 27.7334 19.2292 28.0698 19.9792C28.6585 21.3333 29.7519 22.0625 31.0976 22.0625C32.0858 22.0625 32.8848 21.7292 33.6207 21.1667C34.4873 20.5347 35.2142 19.7336 35.7566 18.8128C36.299 17.892 36.6454 16.871 36.7746 15.8125C36.8797 14.8542 36.7746 13.875 36.4172 12.8958C36.0807 12.0625 35.5761 11.3333 34.693 10.9792C34.2925 10.8167 33.8642 10.7318 33.4315 10.7292H33.4104ZM13.1833 15.75C12.2582 15.8125 11.4172 16.1667 10.8495 17C10.0925 18.0417 9.86123 19.2292 9.79815 20.4167C9.7561 21.6667 10.0505 22.8125 10.6182 23.8958C11.0807 24.7917 11.6905 25.6042 12.5526 26.1875C13.6459 26.8958 15.0126 26.8958 15.9798 26.2292C16.5475 25.8125 16.947 25.25 17.2414 24.625C17.8091 23.3125 17.9142 21.9167 17.5778 20.4792C17.2901 18.978 16.5059 17.6145 15.349 16.6042C14.7183 16.1042 14.0454 15.7708 13.1833 15.7708V15.75ZM38.1203 21.25C37.464 21.2275 36.8128 21.3709 36.2279 21.6667C34.4609 22.4814 33.0922 23.9574 32.4222 25.7708C31.9779 26.812 31.8965 27.9703 32.1909 29.0625C32.4853 30.1042 33.032 30.8333 34.0833 31.125C34.4828 31.2292 34.9243 31.2917 35.3448 31.2917C36.0177 31.2917 36.4802 31.2292 37.0269 30.9375C38.1413 30.4375 38.9823 29.6875 39.7182 28.7917C40.3169 28.0929 40.7473 27.2684 40.9768 26.3805C41.2063 25.4925 41.2289 24.5645 41.0429 23.6667C40.9678 23.0841 40.7037 22.5415 40.2904 22.1207C39.877 21.6998 39.3367 21.4235 38.7511 21.3333C38.5434 21.2887 38.3325 21.2608 38.1203 21.25V21.25ZM23.1707 24.6875C23.0025 24.6875 22.7082 24.6875 22.4348 24.75C21.3347 24.7959 20.258 25.0803 19.2809 25.5833C18.0193 26.2917 16.968 27.1875 15.9798 28.2083C14.862 29.3645 13.8814 30.6437 13.0572 32.0208C12.6156 32.8125 12.3213 33.6875 12.3844 34.5833C12.4474 35.1042 12.4474 35.5625 12.6787 36C13.3095 36.8125 14.1505 37.375 15.1808 37.6042C16.148 37.7708 17.1152 37.6667 18.0824 37.5417C19.1758 37.4375 20.185 37.3333 21.2363 37.375C22.8764 37.4792 24.3902 38 25.6939 39.0208C26.1985 39.4375 26.6611 39.875 27.2288 40.2708C28.3011 41.0208 29.4575 41.3542 30.7611 41.0625C31.8545 40.8542 32.5904 40.1667 32.8217 39.0833C33.032 38.1667 32.9899 37.3125 32.8638 36.3958C32.6909 35.3349 32.4307 34.2897 32.0858 33.2708C31.5851 31.6209 30.8788 30.0393 29.9832 28.5625C29.3524 27.5208 28.5955 26.625 27.5652 25.9375C26.2609 25.0918 24.7292 24.6561 23.1707 24.6875ZM0 30.5V34.9375C0.210261 35.2083 0.336417 35.5625 0.462574 35.8958C1.57924 39.0906 3.29888 42.0459 5.52986 44.6042C7.73752 47.0032 10.5014 48.8337 13.5828 49.9375C13.6459 49.9375 13.688 50 13.7511 50H30.5929C30.656 49.9375 30.656 49.9375 30.6981 49.9375C32.1669 49.4895 33.5728 48.8596 34.8823 48.0625C38.7728 45.6478 41.8817 42.1769 43.8394 38.0625C44.7435 35.9583 45.2061 33.7292 45.3112 31.3958C45.3628 31.2331 45.3628 31.0586 45.3112 30.8958C45.2691 30.9375 45.2061 31 45.2061 31.0625L44.7435 32.5208C43.9574 35.0086 42.6132 37.2878 40.8116 39.1875C39.1246 40.9236 37.0811 42.2806 34.8192 43.1667C32.8217 43.9792 30.7191 44.3125 28.5324 44.4167C26.9344 44.4792 25.3995 44.4167 23.8646 44.3125C21.6743 44.1459 19.4971 43.8397 17.3465 43.3958C14.6059 42.7923 11.9557 41.8399 9.46173 40.5625C6.76078 39.1591 4.39477 37.1984 2.52313 34.8125C1.45459 33.518 0.602713 32.062 0 30.5V30.5Z" fill="#FDA7DF"/>
</svg>
