<svg width="300" height="226" viewBox="0 0 300 226" fill="none" xmlns="http://www.w3.org/2000/svg">
<g clip-path="url(#clip0_245_1296)">
<path fill-rule="evenodd" clip-rule="evenodd" d="M7.56836 210.762H35.5713C34.65 209.768 34.151 208.454 34.1797 207.099V92.3152C34.1797 90.9226 34.7327 89.5871 35.7171 88.6024C36.7015 87.6177 38.0366 87.0645 39.4287 87.0645H259.399C260.79 87.0709 262.121 87.6262 263.104 88.6095C264.087 89.5928 264.642 90.9246 264.648 92.3152V207.099C264.638 208.465 264.105 209.776 263.159 210.762H292.456C294.463 210.762 296.388 211.56 297.808 212.979C299.227 214.399 300.024 216.325 300.024 218.333C300.024 220.341 299.227 222.266 297.808 223.686C296.388 225.106 294.463 225.904 292.456 225.904H7.56836C5.56111 225.904 3.63606 225.106 2.21672 223.686C0.797378 222.266 0 220.341 0 218.333C0 216.325 0.797378 214.399 2.21672 212.979C3.63606 211.56 5.56111 210.762 7.56836 210.762V210.762ZM215.088 53.7284H200.195V77.0759H189.771V48.5021C189.767 47.8149 189.9 47.1338 190.162 46.4983C190.423 45.8627 190.808 45.2853 191.294 44.7993C191.779 44.3134 192.357 43.9285 192.992 43.667C193.627 43.4055 194.308 43.2726 194.995 43.2758H215.161C216.438 39.9018 218.862 37.0859 222.008 35.3231C225.155 33.5602 228.822 32.9633 232.365 33.6372C235.907 34.311 239.099 36.2126 241.38 39.0076C243.66 41.8026 244.882 45.3121 244.831 48.9192C244.781 52.5263 243.461 56.0002 241.103 58.7302C238.746 61.4601 235.502 63.2714 231.941 63.8457C228.381 64.4199 224.732 63.7204 221.636 61.87C218.541 60.0196 216.196 57.1369 215.015 53.7284H215.088ZM107.422 57.3917V77.0759H96.9482V62.618H84.9609C83.7295 66.0076 81.3434 68.8546 78.2219 70.659C75.1003 72.4633 71.4429 73.1096 67.8923 72.4842C64.3417 71.8588 61.1249 70.0018 58.8072 67.2394C56.4894 64.477 55.2189 60.9859 55.2189 57.3795C55.2189 53.7731 56.4894 50.282 58.8072 47.5196C61.1249 44.7572 64.3417 42.9002 67.8923 42.2748C71.4429 41.6495 75.1003 42.2957 78.2219 44.1001C81.3434 45.9044 83.7295 48.7515 84.9609 52.141H102.295C102.981 52.1404 103.66 52.2761 104.293 52.5402C104.925 52.8043 105.499 53.1916 105.981 53.6796C106.93 54.6798 107.448 56.0132 107.422 57.3917V57.3917ZM80.7129 0C77.9509 0.000956654 75.2405 0.748215 72.8681 2.16282C70.4956 3.57742 68.5492 5.60682 67.2345 8.0366C65.9198 10.4664 65.2857 13.2063 65.3991 15.9668C65.5125 18.7273 66.3693 21.4059 67.8788 23.7196C69.3884 26.0333 71.4947 27.8961 73.9752 29.1112C76.4557 30.3262 79.2183 30.8485 81.971 30.6228C84.7237 30.397 87.3643 29.4316 89.6139 27.8286C91.8634 26.2256 93.6383 24.0445 94.751 21.5158H125.415V77.0759H135.864V16.3139C135.871 15.6246 135.74 14.9409 135.48 14.3025C135.22 13.6642 134.836 13.0838 134.35 12.5953C133.864 12.1067 133.285 11.7197 132.649 11.4567C132.012 11.1937 131.329 11.0599 130.64 11.0632H95.4346C94.5163 7.8831 92.5926 5.08629 89.9518 3.0918C87.3109 1.09731 84.0951 0.0125335 80.7861 0L80.7129 0ZM165.649 0.24422C162.036 0.234831 158.535 1.50239 155.765 3.82325C152.995 6.14411 151.133 9.36912 150.508 12.9293C149.884 16.4894 150.536 20.1559 152.35 23.2819C154.165 26.4078 157.024 28.7923 160.425 30.0147V77.0759H170.898V30.0147C174.301 28.7916 177.162 26.4051 178.976 23.2766C180.79 20.1481 181.441 16.4789 180.813 12.9172C180.185 9.35541 178.319 6.13024 175.544 3.81134C172.77 1.49244 169.265 0.229011 165.649 0.24422V0.24422ZM124.805 117.226C124.792 112.526 126.113 107.919 128.613 103.94H171.387C173.89 107.918 175.211 112.525 175.195 117.226C175.195 123.91 172.541 130.321 167.816 135.047C163.091 139.774 156.682 142.429 150 142.429C143.318 142.429 136.909 139.774 132.184 135.047C127.459 130.321 124.805 123.91 124.805 117.226ZM222.73 118.178V123.453C222.723 125.831 221.778 128.109 220.1 129.793C218.421 131.476 216.146 132.428 213.77 132.441H204.565C203.417 137.562 201.551 142.495 199.023 147.094L205.078 153.102C206.752 154.786 207.692 157.064 207.692 159.439C207.692 161.814 206.752 164.093 205.078 165.777L197.754 173.25C196.066 174.926 193.785 175.867 191.406 175.867C189.028 175.867 186.746 174.926 185.059 173.25L179.468 167.657C174.771 170.594 169.661 172.809 164.307 174.227V181.846C164.294 184.226 163.343 186.504 161.661 188.187C159.979 189.87 157.701 190.821 155.322 190.834H144.727C142.348 190.821 140.07 189.87 138.388 188.187C136.706 186.504 135.755 184.226 135.742 181.846V174.324C130.34 172.935 125.18 170.736 120.435 167.804L114.99 173.25C113.307 174.925 111.029 175.865 108.655 175.865C106.281 175.865 104.003 174.925 102.319 173.25L94.8486 165.777C93.1744 164.093 92.2346 161.814 92.2346 159.439C92.2346 157.064 93.1744 154.786 94.8486 153.102L100.708 147.216C98.1125 142.558 96.2047 137.548 95.0439 132.343H86.2305C83.8539 132.33 81.5787 131.378 79.9004 129.695C78.2222 128.012 77.2769 125.733 77.2705 123.356V112.781C77.2803 110.48 78.1718 108.27 79.7615 106.608C81.3513 104.945 83.518 103.955 85.8154 103.842H115.869C114.434 107.804 113.698 111.986 113.696 116.2C113.696 116.835 113.696 117.445 113.696 118.08C113.696 118.715 113.696 119.326 113.696 119.936C113.696 129.516 117.501 138.703 124.272 145.477C131.044 152.251 140.228 156.057 149.805 156.057C159.381 156.057 168.566 152.251 175.337 145.477C182.109 138.703 185.913 129.516 185.913 119.936C185.913 119.326 185.913 118.691 185.913 118.08C185.913 117.47 185.913 116.835 185.913 116.2C185.911 111.986 185.176 107.804 183.74 103.842H214.185C216.482 103.955 218.649 104.945 220.238 106.608C221.828 108.27 222.72 110.48 222.73 112.781V118.08V118.178ZM43.0664 95.2458H256.348V205.633H43.0664V95.2458ZM141.357 214.499H158.691C159.446 214.517 160.164 214.823 160.7 215.354C161.235 215.886 161.548 216.602 161.572 217.356C161.582 217.744 161.515 218.13 161.376 218.492C161.236 218.855 161.027 219.186 160.759 219.467C160.492 219.748 160.171 219.974 159.816 220.131C159.462 220.289 159.079 220.375 158.691 220.384H141.357C140.965 220.381 140.578 220.3 140.217 220.145C139.857 219.991 139.531 219.766 139.258 219.484C138.985 219.202 138.772 218.869 138.629 218.504C138.486 218.138 138.418 217.748 138.428 217.356V217.356C138.428 216.579 138.736 215.833 139.286 215.284C139.835 214.734 140.58 214.425 141.357 214.425V214.499Z" fill="#ED6335"/>
</g>
<defs>
<clipPath id="clip0_245_1296">
<rect width="300" height="225.904" fill="white"/>
</clipPath>
</defs>
</svg>
