<svg width="300" height="300" viewBox="0 0 300 300" fill="none" xmlns="http://www.w3.org/2000/svg">
<path d="M144.996 60C153.28 60 159.996 53.2843 159.996 45C159.996 36.7157 153.28 30 144.996 30C136.712 30 129.996 36.7157 129.996 45C129.996 53.2843 136.712 60 144.996 60Z" fill="#1C4755"/>
<path d="M45 159.999C53.2843 159.999 60 153.283 60 144.999C60 136.715 53.2843 129.999 45 129.999C36.7157 129.999 30 136.715 30 144.999C30 153.283 36.7157 159.999 45 159.999Z" fill="#1C4755"/>
<path d="M234.993 270C243.277 270 249.993 263.284 249.993 255C249.993 246.716 243.277 240 234.993 240C226.709 240 219.993 246.716 219.993 255C219.993 263.284 226.709 270 234.993 270Z" fill="#1C4755"/>
<path d="M129.996 80.001C119.811 80.001 110.358 83.082 102.456 88.314L87 72.861C88.866 68.952 90 64.626 90 60C90 43.44 76.563 30 60 30C43.437 30 30 43.437 30 60C30 76.569 43.437 90 60 90C64.629 90 68.94 88.866 72.861 87.003L88.32 102.456C83.085 110.355 80.001 119.811 80.001 129.999C80.001 157.614 102.384 180 129.999 180C157.617 180 179.997 157.614 179.997 129.999C179.994 102.387 157.614 80.001 129.996 80.001ZM60 69.999C54.477 69.999 50.001 65.52 50.001 59.997C50.001 54.477 54.477 49.998 60 49.998C65.529 49.998 69.999 54.477 69.999 59.997C69.999 65.52 65.529 69.999 60 69.999ZM129.996 159.999C113.43 159.999 99.999 146.565 99.999 129.999C99.999 113.436 113.436 99.999 129.996 99.999C146.559 99.999 159.996 113.436 159.996 129.999C159.996 146.565 146.562 159.999 129.996 159.999Z" fill="#1C4755"/>
<path d="M239.994 154.971V108.585C257.214 104.13 270.012 88.617 270 69.996C270.012 47.916 252.087 29.997 230.013 30C207.915 29.997 190.005 47.916 190.005 69.999C190.005 88.608 202.788 104.109 219.993 108.576V154.977C208.374 159.114 200.004 170.106 200.004 183.144C200.004 199.704 213.435 213.144 229.992 213.132C246.561 213.132 259.992 199.695 260.001 183.132C260.001 170.094 251.622 159.102 239.994 154.971ZM210.003 69.999C210.003 58.953 218.958 49.998 230.004 49.998C241.062 49.998 250.002 58.944 250.002 69.999C250.002 81.048 241.05 90 230.004 89.994C218.958 89.997 210.003 81.051 210.003 69.999ZM229.992 193.143C224.475 193.143 219.993 188.664 219.993 183.144C219.993 177.618 224.475 173.136 229.992 173.142C235.521 173.142 240.003 177.606 239.994 183.144C239.994 188.664 235.521 193.143 229.992 193.143Z" fill="#1C4755"/>
<path d="M150.006 189.987C131.382 189.987 115.878 202.773 111.414 219.999H88.164C84.036 208.377 73.047 199.998 60.009 199.998C43.44 199.998 30 213.447 30 230.001C30 246.564 43.437 260.007 60 259.998C73.047 259.998 84.036 251.619 88.164 240H111.429C115.878 257.211 131.394 269.991 149.997 269.991C172.083 269.997 189.996 252.084 189.996 229.989C189.996 207.909 172.083 189.987 150.006 189.987ZM60 240C54.477 240 50.001 235.527 50.001 230.001C50.001 224.481 54.492 219.999 60 219.999C65.529 219.999 70.011 224.469 69.999 230.001C69.999 235.527 65.529 240 60 240ZM149.997 249.99C138.948 249.99 129.996 241.047 129.996 230.001C129.996 218.943 138.96 209.991 149.997 209.997C161.052 209.997 169.995 218.943 169.995 230.001C170.007 241.035 161.052 249.99 149.997 249.99Z" fill="#1C4755"/>
</svg>
