<svg width="50" height="40" viewBox="0 0 50 40" fill="none" xmlns="http://www.w3.org/2000/svg">
<path d="M0 23.4125V31.2146C0 35.5208 11.1875 39.0125 25 39.0125V31.2146C11.1875 31.2146 0 27.7146 0 23.4167V23.4125ZM44.55 28.2729L25 23.4125V31.2146L44.55 36.075C47.9583 34.7417 50 33.0542 50 31.2146V23.4125C50 25.25 47.9583 26.9375 44.55 28.2729ZM25 15.6167V23.4125C11.1937 23.4125 0 19.9188 0 15.6125V7.79792C0 3.49792 11.1875 0 25 0C38.8021 0 50 3.5 50 7.8V15.6125C50 17.4521 47.9583 19.1333 44.55 20.475L25 15.6104V15.6167V15.6167Z" fill="#B53471"/>
</svg>
