<svg width="300" height="300" viewBox="0 0 300 300" fill="none" xmlns="http://www.w3.org/2000/svg">
<path d="M177.501 30C156.813 30 140.001 46.836 140.001 67.5V195H122.499C101.814 195.009 84.999 211.833 84.999 232.5C84.999 253.179 101.814 270 122.49 270C143.175 270 159.999 253.179 159.999 232.5V105H177.501C198.177 105 215.001 88.185 215.001 67.5C215.001 46.815 198.177 30 177.501 30ZM140.001 232.5C140.001 242.148 132.15 249.999 122.49 249.999C112.842 249.999 105 242.148 105 232.5C105 222.861 112.851 215.01 122.499 215.001H140.001V232.5ZM177.501 84.999H159.999V67.5C159.999 57.852 167.85 50.001 177.501 50.001C187.149 50.001 195 57.852 195 67.5C195 77.148 187.149 84.999 177.501 84.999Z" fill="#FFB74D"/>
<path d="M140.001 84.999H67.5C46.815 84.999 30 101.811 30 122.499C30 143.187 46.815 159.999 67.5 159.999H140.001V140.001H67.5C57.852 140.001 50.001 132.15 50.001 122.499C50.001 112.851 57.852 105 67.5 105H140.001V84.999Z" fill="#FFB74D"/>
<path d="M159.999 195H232.5C242.148 195 249.999 187.149 249.999 177.501C249.999 167.85 242.148 159.999 232.5 159.999H159.999V140.001H232.5C253.179 140.001 270 156.813 270 177.501C270 198.177 253.179 215.001 232.5 215.001H159.999V195Z" fill="#FFB74D"/>
</svg>
