<svg width="300" height="228" viewBox="0 0 300 228" fill="none" xmlns="http://www.w3.org/2000/svg">
<g clip-path="url(#clip0_245_1298)">
<path d="M299.707 79.1187V227.184H243.701V79.1187H243.457L245.361 75.2461L268.555 27.5004L270.996 22.5983L273.438 27.3778L297.852 75.1481L299.902 79.1187H299.707ZM9.76568 171.988L10.0586 171.571C11.0338 170.682 12.0699 169.863 13.1592 169.12C15.3772 167.711 17.7645 166.591 20.2637 165.787C22.4177 165.04 24.6201 164.442 26.8555 163.997V10.0001C23.9751 10.277 21.212 11.2836 18.8249 12.9255C16.4379 14.5674 14.5052 16.7909 13.2081 19.3875C10.4737 24.7307 9.76568 31.8632 9.76568 39.2162C9.17974 69.3147 9.37505 99.7072 9.59478 129.904C9.59478 144.365 9.76568 158.826 9.79009 171.988H9.76568ZM143.53 54.486C143.566 53.9069 143.719 53.3411 143.979 52.8229C144.239 52.3047 144.602 51.8449 145.044 51.4713C145.905 50.7365 147.017 50.3673 148.145 50.4419V50.4419H148.438C149.525 50.583 150.518 51.1363 151.212 51.9884C151.907 52.8405 152.25 53.927 152.173 55.0253V55.0253C152.186 55.0982 152.186 55.1729 152.173 55.2458L151.367 64.5842C151.379 64.6819 151.379 64.7807 151.367 64.8783C151.224 65.9393 150.693 66.909 149.878 67.599C149.017 68.3337 147.905 68.703 146.777 68.6284H146.484C145.397 68.4814 144.406 67.9221 143.716 67.0653C143.026 66.2085 142.689 65.119 142.773 64.0205V64.0205C142.762 63.9474 142.762 63.8729 142.773 63.7999L143.506 54.5105L143.53 54.486ZM140.918 92.9669C142.219 91.0446 144.216 89.7079 146.484 89.2414C148.526 88.8531 150.638 89.1548 152.49 90.0993C154.287 91.0105 155.768 92.4458 156.738 94.217C157.071 94.8103 157.326 95.4447 157.495 96.1042C158.468 96.132 159.43 96.3055 160.352 96.619C162.414 97.3462 164.243 98.6159 165.649 100.295C167.193 102.094 168.171 104.312 168.457 106.668C168.565 107.772 168.516 108.887 168.311 109.977C169.277 110.875 170.1 111.917 170.752 113.065C171.806 114.814 172.34 116.83 172.29 118.874C172.231 121.024 171.496 123.1 170.19 124.806C169.278 126.046 168.164 127.123 166.895 127.992C166.992 130.79 166.197 133.547 164.624 135.86C163.136 138.115 160.849 139.719 158.228 140.345C157.452 142.814 155.784 144.903 153.553 146.2C151.321 147.497 148.686 147.909 146.167 147.355C144.106 146.752 142.357 145.374 141.284 143.507C140.65 144.523 139.82 145.402 138.843 146.092C137.866 146.782 136.762 147.27 135.596 147.527C134.256 147.782 132.877 147.743 131.554 147.413C130.231 147.083 128.994 146.47 127.93 145.615C126.237 144.353 125.03 142.544 124.512 140.492C123.679 140.442 122.858 140.277 122.07 140.002C120.104 139.282 118.356 138.066 116.992 136.472C115.485 134.743 114.502 132.617 114.16 130.345C113.966 129.135 113.966 127.902 114.16 126.693C113.285 125.883 112.522 124.96 111.89 123.948V123.752C110.857 122.028 110.316 120.052 110.327 118.041V118.041C110.308 115.799 111 113.61 112.305 111.791C113.202 110.585 114.281 109.526 115.503 108.653V107.698C115.58 104.87 116.584 102.148 118.359 99.9523C119.901 98.0129 122.084 96.6914 124.512 96.2268C124.587 95.9364 124.676 95.6501 124.78 95.3689C125.6 93.2977 127.099 91.5687 129.028 90.4669C130.996 89.2941 133.323 88.8843 135.571 89.3149C137.806 89.8 139.766 91.1353 141.04 93.0405L140.918 92.9669ZM157.324 100.737C156.918 101.917 156.288 103.008 155.469 103.947C155.275 104.179 155.037 104.37 154.77 104.51C154.502 104.65 154.21 104.735 153.91 104.761C153.609 104.787 153.307 104.754 153.019 104.662C152.732 104.571 152.465 104.424 152.234 104.229C152.003 104.035 151.813 103.796 151.674 103.528C151.535 103.259 151.45 102.966 151.424 102.664C151.398 102.362 151.431 102.059 151.522 101.77C151.613 101.481 151.759 101.214 151.953 100.982C152.528 100.389 152.901 99.6286 153.02 98.8097C153.138 97.9909 152.996 97.1554 152.612 96.4229C152.094 95.481 151.302 94.72 150.342 94.2415C149.426 93.7647 148.38 93.6012 147.363 93.7758C145.679 94.1434 144.043 95.7121 143.189 99.1925V136.325C143.596 136.677 143.865 137.164 143.945 137.698C144.482 140.933 145.825 142.6 147.339 142.894C148.094 143.056 148.875 143.047 149.627 142.869C150.378 142.691 151.081 142.348 151.685 141.865C152.285 141.456 152.787 140.919 153.154 140.291C153.521 139.664 153.745 138.962 153.809 138.237C153.809 136.644 152.612 134.83 149.39 133.164C148.9 132.856 148.542 132.376 148.387 131.817C148.231 131.259 148.289 130.662 148.549 130.144C148.808 129.626 149.251 129.223 149.79 129.016C150.33 128.808 150.927 128.81 151.465 129.021C154.397 130.269 156.727 132.617 157.959 135.566C159.092 135.039 160.044 134.186 160.693 133.115C161.878 131.353 162.374 129.215 162.085 127.11V127.11C162.024 126.657 162.098 126.196 162.298 125.786C162.498 125.376 162.814 125.035 163.208 124.806C164.436 124.12 165.515 123.195 166.382 122.085C167.114 121.123 167.54 119.961 167.603 118.752C167.618 117.566 167.296 116.402 166.675 115.394C166.04 114.36 165.211 113.461 164.233 112.747C163.809 112.465 163.49 112.049 163.327 111.566C163.163 111.082 163.164 110.558 163.33 110.075C163.659 109.14 163.767 108.142 163.648 107.158C163.484 105.735 162.897 104.394 161.963 103.31C161.106 102.253 159.974 101.455 158.691 101.006C158.221 100.836 157.726 100.745 157.227 100.737H157.324ZM152.441 110.982C152.01 110.596 151.729 110.069 151.649 109.494C151.569 108.92 151.694 108.335 152.002 107.845C152.379 107.364 152.921 107.043 153.521 106.943C154.122 106.843 154.738 106.973 155.249 107.305C155.64 107.599 156.006 107.918 156.372 108.237C158.824 110.47 160.342 113.553 160.62 116.864C160.859 120.142 159.934 123.398 158.008 126.056C157.715 126.448 157.398 126.84 157.056 127.232C156.857 127.477 156.611 127.679 156.333 127.825C156.054 127.971 155.749 128.059 155.436 128.084C155.122 128.108 154.807 128.068 154.51 127.966C154.212 127.865 153.938 127.703 153.705 127.492C153.471 127.281 153.283 127.024 153.151 126.738C153.019 126.451 152.947 126.141 152.939 125.825C152.93 125.51 152.985 125.196 153.101 124.903C153.217 124.61 153.392 124.343 153.613 124.119C153.838 123.869 154.05 123.607 154.248 123.335C155.536 121.574 156.159 119.411 156.006 117.232C155.822 115.099 154.846 113.112 153.272 111.668L152.539 111.08L152.441 110.982ZM139.38 136.374V100.492H139.16C138.306 97.0111 136.719 95.418 134.985 95.0503C133.854 94.8556 132.691 95.0822 131.714 95.6876C130.712 96.2209 129.927 97.0874 129.492 98.1386C129.231 98.9886 129.242 99.8993 129.522 100.743C129.802 101.587 130.338 102.322 131.055 102.845C131.47 103.278 131.712 103.85 131.734 104.451C131.757 105.052 131.558 105.641 131.177 106.104C130.728 106.511 130.145 106.736 129.541 106.736C128.937 106.736 128.354 106.511 127.905 106.104C126.275 104.769 125.09 102.964 124.512 100.933C123.442 101.316 122.502 101.996 121.802 102.894C120.695 104.292 120.062 106.01 119.995 107.796C119.948 108.35 119.948 108.908 119.995 109.462C120.059 109.906 119.992 110.359 119.801 110.765C119.61 111.17 119.304 111.51 118.921 111.742C117.727 112.456 116.675 113.387 115.82 114.487C115.053 115.496 114.626 116.723 114.6 117.992C114.587 119.15 114.9 120.289 115.503 121.276V121.423C116.079 122.376 116.834 123.209 117.725 123.874C118.127 124.175 118.427 124.593 118.584 125.071C118.741 125.549 118.748 126.064 118.604 126.546C118.258 127.545 118.157 128.612 118.311 129.659C118.524 131.041 119.125 132.333 120.044 133.384C120.876 134.37 121.943 135.129 123.145 135.59V135.59C123.502 135.707 123.87 135.789 124.243 135.835C125.518 132.76 127.947 130.312 131.006 129.021C131.275 128.882 131.569 128.797 131.871 128.772C132.173 128.747 132.476 128.782 132.765 128.876C133.053 128.969 133.32 129.119 133.55 129.316C133.78 129.514 133.97 129.755 134.107 130.026C134.349 130.581 134.378 131.205 134.189 131.78C133.999 132.355 133.605 132.839 133.081 133.139C129.688 134.879 128.394 136.84 128.394 138.556C128.429 139.22 128.615 139.868 128.936 140.449C129.257 141.031 129.706 141.532 130.249 141.914C130.784 142.356 131.408 142.679 132.077 142.86C132.746 143.042 133.446 143.079 134.131 142.968C135.815 142.624 137.451 141.007 138.306 137.502C138.419 137.054 138.666 136.652 139.014 136.35L139.38 136.374ZM125.073 108.531C125.51 108.102 126.099 107.865 126.711 107.872C127.322 107.878 127.905 108.129 128.333 108.568C128.76 109.006 128.996 109.598 128.989 110.211C128.982 110.825 128.733 111.411 128.296 111.84C126.786 113.341 125.912 115.369 125.855 117.502C125.772 119.727 126.501 121.905 127.905 123.629C128.224 124.112 128.351 124.696 128.264 125.269C128.176 125.841 127.879 126.36 127.431 126.724C126.982 127.089 126.415 127.272 125.839 127.239C125.263 127.206 124.721 126.959 124.316 126.546C122.202 123.946 121.108 120.659 121.24 117.306C121.363 113.989 122.753 110.846 125.122 108.531H125.073ZM110.767 151.522C109.058 149.34 107.422 147.061 105.664 144.61C103.818 141.825 102.256 138.86 101.001 135.762C99.6907 132.494 98.7092 129.103 98.0713 125.639C97.4617 122.194 97.2568 118.69 97.461 115.198C97.7167 111.584 98.3969 108.014 99.4874 104.56C100.719 100.821 102.356 97.229 104.37 93.8493L104.614 93.4817C107.136 89.6804 110.243 86.305 113.818 83.4815C117.38 80.6788 121.381 78.4919 125.659 77.0108H125.879C129.134 75.8962 132.511 75.1802 135.938 74.8785C139.527 74.5636 143.142 74.6788 146.704 75.2216C150.184 75.7383 153.598 76.6342 156.885 77.8932C160.165 79.1752 163.293 80.8193 166.211 82.7952C170.001 85.34 173.378 88.4568 176.221 92.0356C178.983 95.5283 181.137 99.4644 182.593 103.678C183.433 106.069 184.062 108.529 184.473 111.031C185.412 116.735 185.196 122.57 183.838 128.188C183.067 131.217 182.004 134.164 180.664 136.987C177.131 143.571 172.864 149.73 167.944 155.345C165.503 158.532 162.842 161.693 160.791 164.61C160.483 165.049 160.05 165.384 159.549 165.572C159.048 165.76 158.503 165.792 157.983 165.664L120.85 169.12C120.231 169.17 119.614 169.002 119.105 168.644C118.597 168.286 118.23 167.761 118.066 167.159C117.206 164.138 116.095 161.195 114.746 158.36C113.636 155.94 112.269 153.648 110.669 151.522H110.767ZM110.107 141.718C111.621 144.169 113.306 146.203 114.99 148.311C116.809 150.736 118.364 153.349 119.629 156.105C120.746 158.544 121.716 161.049 122.534 163.605L157.275 160.37C159.302 157.551 161.523 154.806 163.77 152.012C168.397 146.742 172.426 140.971 175.781 134.806C176.973 132.285 177.906 129.649 178.564 126.938C179.208 124.354 179.568 121.708 179.639 119.046C179.701 116.65 179.537 114.254 179.15 111.889C178.784 109.682 178.237 107.51 177.515 105.394C176.26 101.75 174.403 98.3442 172.022 95.3199C169.521 92.1727 166.548 89.4356 163.208 87.2071C160.621 85.4873 157.854 84.0572 154.956 82.9423C152.026 81.7968 148.981 80.9749 145.874 80.4913C142.722 80.0267 139.527 79.928 136.353 80.1972C133.361 80.4617 130.411 81.0787 127.564 82.0354H127.344C123.621 83.303 120.138 85.1923 117.041 87.6237C113.9 90.1088 111.173 93.0788 108.96 96.4229C107.138 99.4449 105.671 102.669 104.59 106.031C103.631 109.069 103.041 112.213 102.832 115.394C102.645 118.46 102.825 121.538 103.369 124.561C103.932 127.656 104.807 130.687 105.981 133.605C107.103 136.378 108.502 139.031 110.156 141.522L110.107 141.718ZM157.178 189.733C155.112 192.863 152.267 195.398 148.926 197.086C146.124 198.588 142.996 199.374 139.819 199.374C136.643 199.374 133.515 198.588 130.713 197.086C128.712 195.957 126.933 194.47 125.464 192.699L157.202 189.708L157.178 189.733ZM161.133 172.233V174.316V175.027C161.173 176.385 161.116 177.745 160.962 179.096L160.181 182.037L121.704 185.64L121.118 184.071L119.971 177.87V176.105L161.133 172.233ZM92.7735 70.246C92.1782 69.628 91.7793 68.8464 91.6273 68.0004C91.4753 67.1544 91.5771 66.2821 91.9198 65.4942C92.2624 64.7064 92.8305 64.0385 93.552 63.5754C94.2734 63.1123 95.1156 62.8747 95.9717 62.893C96.5388 62.8996 97.0988 63.0201 97.6187 63.2474C98.1387 63.4747 98.608 63.8042 98.9991 64.2166L105.664 71.0794C106.255 71.6929 106.652 72.4677 106.806 73.3068C106.961 74.1458 106.865 75.0119 106.531 75.7967C106.198 76.5815 105.641 77.2501 104.931 77.7189C104.221 78.1877 103.389 78.4359 102.539 78.4324C101.396 78.4083 100.308 77.9328 99.5118 77.1089L92.7735 70.246ZM78.9307 117.428C77.8022 117.38 76.7356 116.897 75.9522 116.08C75.1584 115.243 74.7281 114.123 74.7559 112.967C74.767 112.396 74.8915 111.834 75.122 111.312C75.3526 110.79 75.6847 110.319 76.0987 109.928C76.9329 109.131 78.0481 108.699 79.1993 108.727L88.6719 108.923C89.2405 108.934 89.8011 109.059 90.321 109.291C90.8408 109.522 91.3094 109.855 91.6993 110.271C92.4885 111.111 92.918 112.229 92.8956 113.384V113.384V113.531C92.833 114.606 92.3609 115.615 91.5772 116.35C91.1657 116.746 90.6796 117.057 90.1472 117.263C89.6149 117.469 89.047 117.567 88.4766 117.551H88.3057L78.9551 117.355L78.9307 117.428ZM203.149 110.541H203.296C204.38 110.525 205.43 110.929 206.226 111.668C207.073 112.438 207.582 113.513 207.642 114.658V114.854C207.645 115.941 207.245 116.99 206.519 117.796C206.14 118.224 205.678 118.571 205.162 118.815C204.646 119.059 204.086 119.196 203.516 119.217L194.067 119.708C192.919 119.759 191.796 119.354 190.942 118.58C190.516 118.2 190.17 117.736 189.927 117.218C189.684 116.7 189.547 116.138 189.526 115.565C189.481 114.42 189.885 113.303 190.649 112.453C191.028 112.024 191.49 111.677 192.006 111.433C192.522 111.189 193.082 111.052 193.652 111.031C196.802 110.859 199.976 110.663 203.149 110.541ZM186.572 71.7167C187.27 70.802 188.294 70.1955 189.429 70.0255C190.562 69.8723 191.711 70.1715 192.627 70.8588V70.8588C193.079 71.2032 193.458 71.6339 193.743 72.1261C194.028 72.6182 194.213 73.1622 194.287 73.7265C194.373 74.2886 194.346 74.8622 194.207 75.4136C194.069 75.965 193.822 76.4831 193.481 76.9373L187.793 84.56C187.452 85.0157 187.024 85.3994 186.535 85.6892C186.046 85.979 185.505 86.1691 184.943 86.2488C184.38 86.3285 183.808 86.2961 183.258 86.1535C182.708 86.0109 182.192 85.7609 181.738 85.4178C181.281 85.0767 180.897 84.6472 180.608 84.1548C180.318 83.6623 180.13 83.1167 180.054 82.5501C179.967 81.9864 179.996 81.4109 180.139 80.8588C180.282 80.3067 180.535 79.7896 180.884 79.3393L186.572 71.7167V71.7167ZM36.4747 168.287C36.423 169.337 36.0186 170.339 35.3272 171.13C34.5769 171.993 33.5489 172.566 32.4219 172.747C29.8484 173.13 27.3035 173.687 24.8047 174.414C22.5854 175.058 20.4716 176.024 18.5303 177.282C16.6525 178.517 15.0007 180.067 13.6475 181.865C12.0105 184.134 10.6729 186.605 9.66802 189.218C9.48558 192.727 9.75639 196.245 10.4737 199.684C11.0628 202.659 12.2417 205.485 13.9405 207.993V207.993C15.7144 210.437 18.0078 212.455 20.6543 213.9V213.9C24.0045 215.646 27.6167 216.83 31.3477 217.405H225.317V227.062H31.1036C26.2846 226.835 21.5892 225.457 17.4073 223.042C12.9727 220.737 9.1035 217.472 6.07915 213.483C3.6969 209.976 2.0368 206.026 1.19634 201.865C0.179921 197.349 -0.2225 192.716 5.17425e-05 188.091V65.0499C5.17425e-05 61.3979 5.17425e-05 58.8243 5.17425e-05 56.3733C5.17425e-05 49.3144 5.1747e-05 42.1574 0.146536 35.3191C0.512747 26.2994 1.80669 17.6963 6.27447 11.2011C10.7422 4.70595 18.4083 0.245101 31.2012 0H31.7383C33.0074 0.00526588 34.2245 0.506348 35.1319 1.39708C35.6006 1.85191 35.9739 2.39637 36.2296 2.99833C36.4854 3.6003 36.6185 4.24759 36.6211 4.90203V26.9611H248.291L243.628 36.7652H36.6211V167.992V168.287H36.4747ZM252.148 73.653H291.211L275.635 43.6526H266.675L252.026 73.653H252.148Z" fill="#ECAE7D"/>
</g>
<defs>
<clipPath id="clip0_245_1298">
<rect width="300" height="227.184" fill="white"/>
</clipPath>
</defs>
</svg>
