<svg width="300" height="275" viewBox="0 0 300 275" fill="none" xmlns="http://www.w3.org/2000/svg">
<g clip-path="url(#clip0_249_1320)">
<path fill-rule="evenodd" clip-rule="evenodd" d="M73.1445 273.145C87.6465 273.145 99.4385 262.598 99.4385 249.609C99.4385 244.971 97.9248 240.649 95.3125 236.987H96.0205C84.4727 224.365 85.6934 214.038 97.9248 210.425H138.379C142.944 210.425 146.68 206.689 146.68 202.124V166.211C149.512 141.699 159.985 148.975 172.314 156.567C202.1 174.902 221.899 131.47 197.827 116.602C178.931 104.932 170.752 125 156.909 122.925C151.562 122.119 147.852 116.333 146.68 107.544V72.0459C146.68 67.4805 142.944 63.7451 138.379 63.7451H102.954C86.1816 61.6211 83.0078 50.3418 95.9961 36.1572H95.2881C97.9004 32.4951 99.4141 28.1738 99.4141 23.5352C99.4385 10.5469 87.6709 0 73.1445 0C58.6426 0 46.875 10.5469 46.875 23.5352C46.875 28.1738 48.3887 32.4951 51.001 36.1572H50.8301C63.8184 50.3418 60.6689 61.6455 43.8721 63.7451H8.30078C3.73535 63.7451 0 67.4805 0 72.0459V109.058C2.66113 124.292 13.6475 126.782 27.3193 114.258V114.429C30.9814 111.816 35.3027 110.303 39.9414 110.303C52.9297 110.303 63.4766 122.07 63.4766 136.572C63.4766 151.074 52.9297 162.842 39.9414 162.842C35.3027 162.842 30.9814 161.328 27.3193 158.716V159.424C13.6475 146.899 2.66113 149.414 0 164.648V202.148C0 206.714 3.73535 210.449 8.30078 210.449H48.9014C61.1328 214.062 62.3779 224.39 50.8057 237.012H50.9766C48.3887 240.674 46.8506 244.995 46.8506 249.634C46.875 262.622 58.6426 273.169 73.1445 273.145ZM226.855 274.487H226.807C212.305 274.487 200.513 263.94 200.513 250.952C200.513 246.313 202.026 241.992 204.639 238.33H204.468C216.016 225.708 214.795 215.381 202.563 211.768H161.963C157.397 211.768 153.662 208.032 153.662 203.467V166.04C155.615 160.376 158.105 158.374 161.035 158.301C162.378 158.276 163.794 158.643 165.308 159.277C169.556 161.035 174.536 164.722 179.956 166.821C200.854 174.878 218.799 154.541 217.603 133.643C217.334 128.979 215.454 124.39 212.671 120.142C202.002 103.833 186.206 102.295 170.972 111.597C163.208 116.357 157.031 119.946 153.491 108.74L153.687 73.3643C153.711 68.7988 157.422 65.0635 161.987 65.0635H197.534C214.307 62.9395 217.48 51.6602 204.492 37.4756H204.663C202.051 33.8135 200.537 29.4922 200.537 24.8535C200.537 11.8652 212.305 1.31836 226.831 1.31836H226.88C241.382 1.31836 253.174 11.8652 253.174 24.8535C253.174 29.4922 251.66 33.8135 249.048 37.4756H249.219C236.23 51.6602 239.38 62.9639 256.177 65.0635H291.724C296.289 65.0635 300.024 68.7988 300.024 73.3643V110.376C297.363 125.61 286.377 128.101 272.705 115.576V115.747C269.043 113.135 264.722 111.621 260.083 111.621C247.095 111.621 236.548 123.389 236.548 137.891C236.548 152.393 247.095 164.185 260.083 164.185C264.722 164.185 269.043 162.671 272.705 160.059V160.767C286.401 148.242 297.363 150.757 300.024 165.991V203.418C300.024 207.983 296.289 211.719 291.724 211.719H251.123C238.892 215.332 237.671 225.659 249.219 238.281H249.023C251.636 241.943 253.149 246.265 253.149 250.903C253.125 263.94 241.357 274.487 226.855 274.487Z" fill="#064C72"/>
</g>
<defs>
<clipPath id="clip0_249_1320">
<rect width="300" height="274.487" fill="white"/>
</clipPath>
</defs>
</svg>
