<svg width="50" height="50" viewBox="0 0 50 50" fill="none" xmlns="http://www.w3.org/2000/svg">
<path d="M25 50C11.1292 50 0 38.7125 0 25C0 11.1292 11.1292 0 25 0C38.8708 0 50 11.1292 50 25C50 38.7125 38.8708 50 25 50ZM25 4.19583C13.5479 4.19583 4.19375 13.5479 4.19375 25C4.19375 36.4542 13.5479 45.8083 25 45.8083C36.4542 45.8083 45.8062 36.4542 45.8062 25C45.8062 13.5479 36.4542 4.19583 25 4.19583V4.19583ZM37.2604 27.4208H19.1937C18.3937 27.4208 17.7458 26.7771 17.7396 25.9812V23.8729C17.7396 23.0667 18.3875 22.4208 19.1937 22.4208H37.4187C38.225 22.4208 38.8708 23.0687 38.8708 23.8729V25.9687C38.7104 26.775 38.0646 27.4208 37.2604 27.4208V27.4208ZM32.5812 19.3563H14.3562C13.5583 19.3604 12.9042 18.7167 12.9021 17.9167V15.8125C12.9021 15.1646 13.5479 14.5187 14.3542 14.5187H32.5792C33.225 14.5187 33.8708 15.1667 33.8708 15.8083V17.9042C33.8729 18.7083 33.225 19.3563 32.5812 19.3563V19.3563ZM14.3562 30.6437H32.5812C33.3896 30.6437 34.0312 31.2917 34.0312 32.0958V34.1917C34.0354 34.9896 33.3875 35.6396 32.5917 35.6437H14.3562C13.5479 35.4854 12.9042 34.8375 12.9042 34.0333V31.9375C12.9021 31.2917 13.5479 30.6437 14.3562 30.6437V30.6437Z" fill="#0652DD"/>
</svg>
